<svg width="1439" height="50" viewBox="0 0 1439 50" fill="none" xmlns="http://www.w3.org/2000/svg">
<g clip-path="url(#clip0_79_2131)">
<path d="M1506.5 35.3843L1518.92 25.5L1506.5 15.6158C1502.11 12.1281 1495.89 12.1281 1491.5 15.6157L1486.5 19.6004C1482.11 23.088 1475.89 23.088 1471.5 19.6004L1466.5 15.6157C1462.11 12.1281 1455.89 12.1281 1451.5 15.6157L1446.5 19.6005C1442.11 23.088 1435.89 23.088 1431.5 19.6004L1426.5 15.6157C1422.11 12.1281 1415.89 12.1281 1411.5 15.6157L1406.5 19.6004C1402.11 23.088 1395.89 23.088 1391.5 19.6004L1386.5 15.6157C1382.11 12.1281 1375.89 12.1281 1371.5 15.6157L1366.5 19.6004C1362.11 23.088 1355.89 23.088 1351.5 19.6004L1346.5 15.6157C1342.11 12.1281 1335.89 12.1281 1331.5 15.6157L1326.5 19.6004C1322.11 23.088 1315.89 23.088 1311.5 19.6004L1306.5 15.6157C1302.11 12.1281 1295.89 12.1281 1291.5 15.6157L1286.5 19.6004C1282.11 23.088 1275.89 23.088 1271.5 19.6004L1266.5 15.6157C1262.11 12.1281 1255.89 12.1281 1251.5 15.6157L1246.5 19.6004C1242.11 23.088 1235.89 23.088 1231.5 19.6004L1226.5 15.6157C1222.11 12.1281 1215.89 12.1281 1211.5 15.6157L1206.5 19.6004C1202.11 23.088 1195.89 23.088 1191.5 19.6004L1186.5 15.6158C1182.11 12.1282 1175.89 12.1282 1171.5 15.6158L1166.5 19.6005C1162.11 23.0881 1155.89 23.0881 1151.5 19.6005L1146.5 15.6157C1142.11 12.1281 1135.89 12.1281 1131.5 15.6157L1126.5 19.6005C1122.11 23.0881 1115.89 23.0881 1111.5 19.6005L1106.5 15.6158C1102.11 12.1282 1095.89 12.1282 1091.5 15.6158L1086.5 19.6005C1082.11 23.0881 1075.89 23.0881 1071.5 19.6005L1066.5 15.6158C1062.11 12.1282 1055.89 12.1282 1051.5 15.6158L1046.5 19.6005C1042.11 23.0881 1035.89 23.0881 1031.5 19.6005L1026.5 15.6158C1022.11 12.1282 1015.89 12.1282 1011.5 15.6158L1006.5 19.6005C1002.11 23.0881 995.886 23.0881 991.504 19.6005L986.496 15.6158C982.114 12.1282 975.886 12.1282 971.504 15.6158L966.496 19.6005C962.114 23.0881 955.886 23.0881 951.504 19.6005L946.496 15.6158C942.114 12.1282 935.886 12.1282 931.504 15.6158L926.496 19.6005C922.114 23.0881 915.886 23.0881 911.504 19.6005L906.496 15.6158C902.114 12.1282 895.886 12.1282 891.504 15.6158L886.496 19.6005C882.114 23.0881 875.886 23.0881 871.504 19.6005L866.496 15.6158C862.114 12.1282 855.886 12.1282 851.504 15.6158L846.496 19.6005C842.114 23.0881 835.886 23.0881 831.504 19.6005L826.496 15.6158C822.114 12.1282 815.886 12.1282 811.504 15.6158L806.496 19.6005C802.114 23.0881 795.886 23.0881 791.504 19.6005L786.496 15.6158C782.114 12.1282 775.886 12.1282 771.504 15.6158L766.496 19.6005C762.114 23.0881 755.886 23.0881 751.504 19.6005L746.496 15.6158C742.114 12.1282 735.886 12.1282 731.504 15.6158L726.496 19.6005C722.114 23.0881 715.886 23.0881 711.504 19.6005L706.496 15.6158C702.114 12.1282 695.886 12.1282 691.504 15.6158L686.496 19.6005C682.114 23.0881 675.886 23.0881 671.504 19.6005L666.496 15.6158C662.114 12.1282 655.886 12.1282 651.504 15.6158L646.496 19.6005C642.114 23.0881 635.886 23.0881 631.504 19.6005L626.496 15.6158C622.114 12.1282 615.886 12.1282 611.504 15.6158L606.496 19.6005C602.114 23.0881 595.886 23.0881 591.504 19.6005L586.496 15.6158C582.114 12.1282 575.886 12.1282 571.504 15.6158L566.496 19.6005C562.114 23.0881 555.886 23.0881 551.504 19.6005L546.496 15.6158C542.114 12.1282 535.886 12.1282 531.504 15.6158L526.496 19.6005C522.114 23.0881 515.886 23.0881 511.504 19.6005L506.496 15.6158C502.114 12.1282 495.886 12.1282 491.504 15.6158L486.496 19.6005C482.114 23.0881 475.886 23.0881 471.504 19.6005L466.496 15.6158C462.114 12.1282 455.886 12.1282 451.504 15.6158L446.496 19.6005C442.114 23.0881 435.886 23.0881 431.504 19.6005L426.496 15.6158C422.114 12.1282 415.886 12.1282 411.504 15.6158L406.496 19.6005C402.114 23.0881 395.886 23.0881 391.504 19.6005L386.496 15.6158C382.114 12.1282 375.886 12.1282 371.504 15.6158L366.496 19.6005C362.114 23.0881 355.886 23.0881 351.504 19.6005L346.496 15.6158C342.114 12.1282 335.886 12.1282 331.504 15.6158L326.496 19.6005C322.114 23.0881 315.886 23.0881 311.504 19.6005L306.496 15.6158C302.114 12.1282 295.886 12.1282 291.504 15.6158L286.496 19.6005C282.114 23.0881 275.886 23.0881 271.504 19.6005L266.496 15.6158C262.114 12.1282 255.886 12.1282 251.504 15.6158L246.496 19.6005C242.114 23.0881 235.886 23.0881 231.504 19.6005L226.496 15.6158C222.114 12.1282 215.886 12.1282 211.504 15.6158L206.496 19.6005C202.114 23.0881 195.886 23.0881 191.504 19.6005L186.496 15.6158C182.114 12.1282 175.886 12.1282 171.504 15.6158L166.496 19.6005C162.114 23.0881 155.886 23.0881 151.504 19.6005L146.496 15.6158C142.114 12.1282 135.886 12.1282 131.504 15.6158L126.496 19.6005C122.114 23.0881 115.886 23.0881 111.504 19.6005L106.496 15.6158C102.114 12.1282 95.8863 12.1282 91.5036 15.6158L86.4963 19.6005C82.1137 23.0881 75.8863 23.0881 71.5036 19.6005L66.4963 15.6158C62.1137 12.1282 55.8863 12.1282 51.5036 15.6158L46.4963 19.6005C42.1137 23.0881 35.8863 23.0881 31.5037 19.6005L26.4963 15.6158C22.1137 12.1282 15.8863 12.1282 11.5037 15.6158L6.49634 19.6005C2.11372 23.0881 -4.11372 23.0881 -8.49635 19.6005L-13.5037 15.6158C-17.8863 12.1282 -24.1137 12.1282 -28.4963 15.6158L-33.5037 19.6005C-37.8863 23.0881 -44.1137 23.0881 -48.4963 19.6005L-53.5037 15.6158C-57.8863 12.1282 -64.1137 12.1282 -68.4963 15.6158L-80.9172 25.5L-68.4965 35.3842C-64.1139 38.8718 -57.8864 38.8718 -53.5038 35.3842L-48.4965 31.3995C-44.1139 27.9119 -37.8864 27.912 -33.5038 31.3995L-28.4965 35.3843C-24.1138 38.8719 -17.8865 38.8719 -13.5038 35.3843L-8.49634 31.3995C-4.11377 27.9119 2.11365 27.9119 6.49634 31.3995L11.5037 35.3843C15.8862 38.8718 22.1138 38.8718 26.4963 35.3843L31.5037 31.3995C35.8862 27.912 42.1138 27.912 46.4963 31.3996L51.5037 35.3843C55.8862 38.8719 62.1138 38.8718 66.4963 35.3843L71.5037 31.3995C75.8862 27.912 82.1138 27.912 86.4963 31.3996L91.5037 35.3843C95.8862 38.8719 102.114 38.8719 106.496 35.3843L111.504 31.3996C115.886 27.912 122.114 27.912 126.496 31.3996L131.504 35.3843C135.886 38.8719 142.114 38.8719 146.496 35.3843L151.504 31.3996C155.886 27.912 162.114 27.912 166.496 31.3996L171.504 35.3843C175.886 38.8719 182.114 38.8719 186.496 35.3843L191.504 31.3996C195.886 27.912 202.114 27.912 206.496 31.3996L211.504 35.3843C215.886 38.8719 222.114 38.8719 226.496 35.3843L231.504 31.3996C235.886 27.912 242.114 27.912 246.496 31.3996L251.504 35.3842C255.886 38.8718 262.114 38.8718 266.496 35.3842L271.504 31.3995C275.886 27.9119 282.114 27.9119 286.496 31.3995L291.504 35.3843C295.886 38.8718 302.114 38.8719 306.496 35.3843L311.504 31.3995C315.886 27.9119 322.114 27.9119 326.496 31.3995L331.504 35.3842C335.886 38.8718 342.114 38.8718 346.496 35.3842L351.504 31.3995C355.886 27.9119 362.114 27.9119 366.496 31.3995L371.504 35.3842C375.886 38.8718 382.114 38.8718 386.496 35.3842L391.504 31.3995C395.886 27.9119 402.114 27.9119 406.496 31.3995L411.504 35.3843C415.886 38.8718 422.114 38.8718 426.496 35.3843L431.504 31.3995C435.886 27.9119 442.114 27.912 446.496 31.3995L451.504 35.3843C455.886 38.8718 462.114 38.8718 466.496 35.3843L471.504 31.3995C475.886 27.912 482.114 27.912 486.496 31.3995L491.504 35.3843C495.886 38.8719 502.114 38.8718 506.496 35.3843L511.504 31.3995C515.886 27.912 522.114 27.912 526.496 31.3996L531.504 35.3843C535.886 38.8719 542.114 38.8718 546.496 35.3843L551.504 31.3996C555.886 27.912 562.114 27.912 566.496 31.3996L571.504 35.3842C575.886 38.8718 582.114 38.8718 586.496 35.3842L591.504 31.3995C595.886 27.9119 602.114 27.9119 606.496 31.3995L611.504 35.3843C615.886 38.8718 622.114 38.8718 626.496 35.3842L631.504 31.3995C635.886 27.9119 642.114 27.912 646.496 31.3995L651.504 35.3843C655.886 38.8718 662.114 38.8718 666.496 35.3843L671.504 31.3995C675.886 27.912 682.114 27.912 686.496 31.3995L691.504 35.3843C695.886 38.8719 702.114 38.8718 706.496 35.3843L711.504 31.3995C715.886 27.912 722.114 27.912 726.496 31.3996L731.504 35.3843C735.886 38.8719 742.114 38.8719 746.496 35.3843L751.504 31.3996C755.886 27.912 762.114 27.912 766.496 31.3996L771.504 35.3843C775.886 38.8719 782.114 38.8719 786.496 35.3843L791.504 31.3996C795.886 27.912 802.114 27.912 806.496 31.3996L811.504 35.3843C815.886 38.8719 822.114 38.8719 826.496 35.3843L831.504 31.3996C835.886 27.912 842.114 27.912 846.496 31.3996L851.504 35.3843C855.886 38.8719 862.114 38.8719 866.496 35.3843L871.504 31.3996C875.886 27.912 882.114 27.912 886.496 31.3996L891.504 35.3843C895.886 38.8719 902.114 38.8719 906.496 35.3843L911.504 31.3996C915.886 27.912 922.114 27.912 926.496 31.3996L931.504 35.3843C935.886 38.8719 942.114 38.8719 946.496 35.3843L951.504 31.3995C955.886 27.912 962.114 27.912 966.496 31.3996L971.504 35.3843C975.886 38.8719 982.114 38.8719 986.496 35.3843L991.504 31.3996C995.886 27.912 1002.11 27.912 1006.5 31.3996L1011.5 35.3843C1015.89 38.8719 1022.11 38.8719 1026.5 35.3843L1031.5 31.3996C1035.89 27.912 1042.11 27.912 1046.5 31.3996L1051.5 35.3843C1055.89 38.8719 1062.11 38.8719 1066.5 35.3843L1071.5 31.3996C1075.89 27.912 1082.11 27.912 1086.5 31.3996L1091.5 35.3843C1095.89 38.8719 1102.11 38.8719 1106.5 35.3843L1111.5 31.3996C1115.89 27.912 1122.11 27.912 1126.5 31.3996L1131.5 35.3843C1135.89 38.8719 1142.11 38.8719 1146.5 35.3843L1151.5 31.3996C1155.89 27.912 1162.11 27.912 1166.5 31.3996L1171.5 35.3843C1175.89 38.8719 1182.11 38.8719 1186.5 35.3843L1191.5 31.3996C1195.89 27.912 1202.11 27.912 1206.5 31.3996L1211.5 35.3843C1215.89 38.8719 1222.11 38.8719 1226.5 35.3843L1231.5 31.3996C1235.89 27.912 1242.11 27.912 1246.5 31.3996L1251.5 35.3843C1255.89 38.8719 1262.11 38.8719 1266.5 35.3843L1271.5 31.3996C1275.89 27.912 1282.11 27.912 1286.5 31.3996L1291.5 35.3843C1295.89 38.8719 1302.11 38.8719 1306.5 35.3843L1311.5 31.3996C1315.89 27.912 1322.11 27.912 1326.5 31.3996L1331.5 35.3843C1335.89 38.8719 1342.11 38.8719 1346.5 35.3843L1351.5 31.3996C1355.89 27.912 1362.11 27.912 1366.5 31.3996L1371.5 35.3843C1375.89 38.8719 1382.11 38.8719 1386.5 35.3843L1391.5 31.3996C1395.89 27.912 1402.11 27.912 1406.5 31.3996L1411.5 35.3843C1415.89 38.8719 1422.11 38.8719 1426.5 35.3843L1431.5 31.3996C1435.89 27.912 1442.11 27.912 1446.5 31.3996L1451.5 35.3843C1455.89 38.8719 1462.11 38.8719 1466.5 35.3843L1471.5 31.3996C1475.89 27.912 1482.11 27.912 1486.5 31.3996L1491.5 35.3843C1495.89 38.8719 1502.11 38.8719 1506.5 35.3843Z" fill="#A8CBF0"/>
</g>
<defs>
<clipPath id="clip0_79_2131">
<rect width="1440" height="50" fill="white" transform="translate(-1)"/>
</clipPath>
</defs>
</svg>
