<svg width="1308" height="901" viewBox="0 0 1308 901" fill="none" xmlns="http://www.w3.org/2000/svg">
<g filter="url(#filter0_bf_28_2555)">
<path fill-rule="evenodd" clip-rule="evenodd" d="M1006.12 1203.24C686.904 1212.56 398.712 1146.9 245.438 1011.4C122.176 902.421 108.624 768.127 186.194 637.178C186.194 637.178 -65.6421 -144.323 928.617 509.172C1922.88 1162.67 1364.69 139.947 1364.69 139.947C1692.23 127.057 1989.75 192.593 2146.38 331.068C2329.79 493.219 2270.3 711.428 2029.14 891.262L1517.63 1047.25L1006.12 1203.24Z" fill="url(#paint0_linear_28_2555)"/>
<path fill-rule="evenodd" clip-rule="evenodd" d="M1006.12 1203.24C686.904 1212.56 398.712 1146.9 245.438 1011.4C122.176 902.421 108.624 768.127 186.194 637.178C186.194 637.178 -65.6421 -144.323 928.617 509.172C1922.88 1162.67 1364.69 139.947 1364.69 139.947C1692.23 127.057 1989.75 192.593 2146.38 331.068C2329.79 493.219 2270.3 711.428 2029.14 891.262L1517.63 1047.25L1006.12 1203.24Z" fill="url(#paint1_radial_28_2555)"/>
<path d="M731.976 261.072C459.573 358.562 269.869 495.924 186.194 637.178C186.194 637.178 -65.6421 -144.323 928.617 509.172C1922.88 1162.67 1364.69 139.947 1364.69 139.947C1156.42 148.143 936.017 188.048 731.976 261.072Z" fill="url(#paint2_linear_28_2555)"/>
<path d="M731.976 261.072C459.573 358.562 269.869 495.924 186.194 637.178C186.194 637.178 -65.6421 -144.323 928.617 509.172C1922.88 1162.67 1364.69 139.947 1364.69 139.947C1156.42 148.143 936.017 188.048 731.976 261.072Z" fill="url(#paint3_radial_28_2555)"/>
<path d="M1006.12 1203.24C1220.53 1196.97 1448.93 1156.88 1659.84 1081.39C1809.02 1028 1933.4 962.657 2029.14 891.262L1517.63 1047.25L1006.12 1203.24Z" fill="url(#paint4_linear_28_2555)"/>
<path d="M1006.12 1203.24C1220.53 1196.97 1448.93 1156.88 1659.84 1081.39C1809.02 1028 1933.4 962.657 2029.14 891.262L1517.63 1047.25L1006.12 1203.24Z" fill="url(#paint5_radial_28_2555)"/>
</g>
<defs>
<filter id="filter0_bf_28_2555" x="0.284622" y="0.623978" width="2391.25" height="1341.21" filterUnits="userSpaceOnUse" color-interpolation-filters="sRGB">
<feFlood flood-opacity="0" result="BackgroundImageFix"/>
<feGaussianBlur in="BackgroundImageFix" stdDeviation="68.8657"/>
<feComposite in2="SourceAlpha" operator="in" result="effect1_backgroundBlur_28_2555"/>
<feBlend mode="normal" in="SourceGraphic" in2="effect1_backgroundBlur_28_2555" result="shape"/>
<feGaussianBlur stdDeviation="68.8657" result="effect2_foregroundBlur_28_2555"/>
</filter>
<linearGradient id="paint0_linear_28_2555" x1="2146.38" y1="331.069" x2="974.818" y2="1656.23" gradientUnits="userSpaceOnUse">
<stop stop-color="white"/>
<stop offset="1" stop-color="white" stop-opacity="0"/>
</linearGradient>
<radialGradient id="paint1_radial_28_2555" cx="0" cy="0" r="1" gradientUnits="userSpaceOnUse" gradientTransform="translate(1195.91 671.231) rotate(160.308) scale(1089.68 585.581)">
<stop offset="0.0619708" stop-color="#CFCAC7"/>
<stop offset="1" stop-color="#662D87"/>
</radialGradient>
<linearGradient id="paint2_linear_28_2555" x1="2146.38" y1="331.069" x2="974.818" y2="1656.23" gradientUnits="userSpaceOnUse">
<stop stop-color="white"/>
<stop offset="1" stop-color="white" stop-opacity="0"/>
</linearGradient>
<radialGradient id="paint3_radial_28_2555" cx="0" cy="0" r="1" gradientUnits="userSpaceOnUse" gradientTransform="translate(1195.91 671.231) rotate(160.308) scale(1089.68 585.581)">
<stop offset="0.0619708" stop-color="#CFCAC7"/>
<stop offset="1" stop-color="#662D87"/>
</radialGradient>
<linearGradient id="paint4_linear_28_2555" x1="2146.38" y1="331.069" x2="974.818" y2="1656.23" gradientUnits="userSpaceOnUse">
<stop stop-color="white"/>
<stop offset="1" stop-color="white" stop-opacity="0"/>
</linearGradient>
<radialGradient id="paint5_radial_28_2555" cx="0" cy="0" r="1" gradientUnits="userSpaceOnUse" gradientTransform="translate(1195.91 671.231) rotate(160.308) scale(1089.68 585.581)">
<stop offset="0.0619708" stop-color="#CFCAC7"/>
<stop offset="1" stop-color="#662D87"/>
</radialGradient>
</defs>
</svg>
