<svg width="1920" height="806" viewBox="0 0 1920 806" fill="none" xmlns="http://www.w3.org/2000/svg">
<g style="mix-blend-mode:screen" filter="url(#filter0_bf_28_2557)">
<path d="M1388.54 572.168C1204.05 -47.0137 -897.162 1008.97 746.609 -68.3134C925.379 -351.355 1420.17 -583.893 2076.06 -452.816C2731.96 -321.74 3118.75 13.9691 2939.98 297.011C2666.96 128.602 2044.44 703.244 1388.54 572.168Z" fill="url(#paint0_linear_28_2557)"/>
<path d="M1388.54 572.168C1204.05 -47.0137 -897.162 1008.97 746.609 -68.3134C925.379 -351.355 1420.17 -583.893 2076.06 -452.816C2731.96 -321.74 3118.75 13.9691 2939.98 297.011C2666.96 128.602 2044.44 703.244 1388.54 572.168Z" fill="url(#paint1_radial_28_2557)"/>
</g>
<defs>
<filter id="filter0_bf_28_2557" x="-91.6553" y="-704.342" width="3289.27" height="1510.14" filterUnits="userSpaceOnUse" color-interpolation-filters="sRGB">
<feFlood flood-opacity="0" result="BackgroundImageFix"/>
<feGaussianBlur in="BackgroundImageFix" stdDeviation="68.8657"/>
<feComposite in2="SourceAlpha" operator="in" result="effect1_backgroundBlur_28_2557"/>
<feBlend mode="normal" in="SourceGraphic" in2="effect1_backgroundBlur_28_2557" result="shape"/>
<feGaussianBlur stdDeviation="107" result="effect2_foregroundBlur_28_2557"/>
</filter>
<linearGradient id="paint0_linear_28_2557" x1="2939.98" y1="297.011" x2="1027.78" y2="-910.74" gradientUnits="userSpaceOnUse">
<stop stop-color="white"/>
<stop offset="0.0001" stop-opacity="0.864583"/>
<stop offset="1" stop-color="white" stop-opacity="0"/>
</linearGradient>
<radialGradient id="paint1_radial_28_2557" cx="0" cy="0" r="1" gradientUnits="userSpaceOnUse" gradientTransform="translate(1752.37 59.6757) rotate(-168.699) scale(1307.27 610.934)">
<stop offset="0.192708" stop-color="#662D87" stop-opacity="0.813008"/>
<stop offset="0.53125" stop-color="#00002A"/>
<stop offset="1" stop-color="#662D87"/>
</radialGradient>
</defs>
</svg>
