<svg width="200" height="58" viewBox="0 0 200 58" fill="none" xmlns="http://www.w3.org/2000/svg">
<path d="M6.94331 22.3408C3.04949 22.3408 0 25.4572 0 29.4377C0 33.4181 3.04949 36.5156 6.94331 36.5156C10.8371 36.5156 13.8866 33.4063 13.8866 29.4377C13.8866 25.469 10.8371 22.3408 6.94331 22.3408ZM12.481 29.4377C12.481 32.6579 10.0494 35.1817 6.94331 35.1817C3.83722 35.1817 1.40564 32.6579 1.40564 29.4377C1.40564 26.2174 3.8891 23.6747 6.94331 23.6747C9.99752 23.6747 12.481 26.2599 12.481 29.4377Z" fill="white"/>
<path d="M42.6931 22.5225L36.9502 36.3337H38.4431L40.0115 32.4783H46.3958L48.0019 36.3337H49.4949L43.6954 22.5225H42.6931ZM45.8345 31.1444H40.5869L43.186 24.822L45.8345 31.1444Z" fill="white"/>
<path d="M78.8246 28.7412L76.7444 28.1203C75.7256 27.8204 74.511 27.1901 74.511 25.894C74.511 24.5978 75.6666 23.6393 77.3859 23.6393C78.8741 23.6393 79.9189 24.3735 80.5345 24.9897L80.6713 25.1267L81.5746 24.1965L81.4472 24.0619C80.4118 22.983 78.893 22.3408 77.3859 22.3408C74.9473 22.3408 73.1077 23.8612 73.1077 25.8751C73.1077 27.523 74.1973 28.6916 76.3458 29.3456L78.4967 30.0019C80.209 30.5449 80.9731 31.3547 80.9731 32.6319C80.9731 33.9092 79.9331 35.2171 77.6076 35.2171C75.8529 35.2171 74.5746 34.1335 73.9709 33.4866L73.8435 33.352L72.8506 34.2185L72.9709 34.3625C73.4709 34.9598 75.2822 36.5132 77.6076 36.5132C79.0368 36.5132 80.2538 36.1095 81.1264 35.347C81.9354 34.6387 82.3811 33.6755 82.3811 32.6319C82.3811 30.7503 81.1878 29.4424 78.8317 28.7388L78.8246 28.7412Z" fill="white"/>
<path d="M108.468 22.5225H107.081V36.3337H108.468V22.5225Z" fill="white"/>
<path d="M139.062 28.7412L136.982 28.1203C135.963 27.8204 134.749 27.1901 134.749 25.894C134.749 24.5978 135.904 23.6393 137.624 23.6393C139.112 23.6393 140.157 24.3735 140.772 24.9897L140.909 25.1267L141.812 24.1965L141.685 24.0619C140.65 22.983 139.131 22.3408 137.624 22.3408C135.185 22.3408 133.345 23.8612 133.345 25.8751C133.345 27.523 134.435 28.6916 136.584 29.3456L138.734 30.0019C140.447 30.5449 141.211 31.3547 141.211 32.6319C141.211 33.9092 140.171 35.2171 137.843 35.2171C136.088 35.2171 134.81 34.1335 134.206 33.4866L134.079 33.352L133.086 34.2185L133.206 34.3625C133.706 34.9598 135.515 36.5132 137.843 36.5132C139.272 36.5132 140.489 36.1095 141.362 35.347C142.171 34.6387 142.616 33.6755 142.616 32.6319C142.616 30.7503 141.423 29.4424 139.067 28.7388L139.062 28.7412Z" fill="white"/>
</svg>
