<svg width="200" height="58" viewBox="0 0 200 58" fill="none" xmlns="http://www.w3.org/2000/svg">
<path d="M6.94331 22.3418C3.04949 22.3418 0 25.4582 0 29.4386C0 33.4191 3.04949 36.5166 6.94331 36.5166C10.8371 36.5166 13.8866 33.4073 13.8866 29.4386C13.8866 25.47 10.8371 22.3418 6.94331 22.3418ZM12.481 29.4386C12.481 32.6589 10.0494 35.1827 6.94331 35.1827C3.83722 35.1827 1.40564 32.6589 1.40564 29.4386C1.40564 26.2184 3.8891 23.6757 6.94331 23.6757C9.99752 23.6757 12.481 26.2609 12.481 29.4386Z" fill="white"/>
<path d="M42.6928 22.5234L36.95 36.3346H38.4429L40.0112 32.4793H46.3956L48.0017 36.3346H49.4946L43.6952 22.5234H42.6928ZM45.8343 31.1454H40.5867L43.1857 24.8229L45.8343 31.1454Z" fill="white"/>
<path d="M78.8246 28.7422L76.7444 28.1213C75.7256 27.8214 74.511 27.1911 74.511 25.8949C74.511 24.5988 75.6666 23.6403 77.3859 23.6403C78.8741 23.6403 79.9189 24.3745 80.5345 24.9907L80.6713 25.1276L81.5746 24.1975L81.4472 24.0629C80.4118 22.984 78.893 22.3418 77.3859 22.3418C74.9473 22.3418 73.1077 23.8622 73.1077 25.8761C73.1077 27.524 74.1973 28.6926 76.3458 29.3466L78.4967 30.0029C80.209 30.5459 80.9731 31.3557 80.9731 32.6329C80.9731 33.9102 79.9331 35.2181 77.6076 35.2181C75.8529 35.2181 74.5746 34.1344 73.9709 33.4876L73.8435 33.353L72.8506 34.2194L72.9709 34.3635C73.4709 34.9608 75.2822 36.5142 77.6076 36.5142C79.0368 36.5142 80.2538 36.1105 81.1264 35.3479C81.9354 34.6397 82.3811 33.6764 82.3811 32.6329C82.3811 30.7513 81.1878 29.4434 78.8317 28.7398L78.8246 28.7422Z" fill="white"/>
<path d="M108.468 22.5234H107.081V36.3346H108.468V22.5234Z" fill="white"/>
<path d="M139.062 28.7422L136.982 28.1213C135.963 27.8214 134.748 27.1911 134.748 25.8949C134.748 24.5988 135.904 23.6403 137.623 23.6403C139.112 23.6403 140.156 24.3745 140.772 24.9907L140.909 25.1276L141.812 24.1975L141.685 24.0629C140.649 22.984 139.13 22.3418 137.623 22.3418C135.185 22.3418 133.345 23.8622 133.345 25.8761C133.345 27.524 134.435 28.6926 136.583 29.3466L138.734 30.0029C140.446 30.5459 141.211 31.3557 141.211 32.6329C141.211 33.9102 140.171 35.2181 137.843 35.2181C136.088 35.2181 134.81 34.1344 134.206 33.4876L134.079 33.353L133.086 34.2194L133.206 34.3635C133.706 34.9608 135.515 36.5142 137.843 36.5142C139.272 36.5142 140.489 36.1105 141.362 35.3479C142.17 34.6397 142.616 33.6764 142.616 32.6329C142.616 30.7513 141.423 29.4434 139.067 28.7398L139.062 28.7422Z" fill="white"/>
</svg>
