<svg width="200" height="58" viewBox="0 0 200 58" fill="none" xmlns="http://www.w3.org/2000/svg">
<path d="M6.94331 22.3413C3.04949 22.3413 0 25.4577 0 29.4381C0 33.4186 3.04949 36.5161 6.94331 36.5161C10.8371 36.5161 13.8866 33.4068 13.8866 29.4381C13.8866 25.4695 10.8371 22.3413 6.94331 22.3413ZM12.481 29.4381C12.481 32.6584 10.0494 35.1822 6.94331 35.1822C3.83722 35.1822 1.40564 32.6584 1.40564 29.4381C1.40564 26.2179 3.8891 23.6752 6.94331 23.6752C9.99752 23.6752 12.481 26.2604 12.481 29.4381Z" fill="#00002A"/>
<path d="M42.6931 22.5229L36.9502 36.3342H38.4431L40.0115 32.4788H46.3958L48.0019 36.3342H49.4949L43.6954 22.5229H42.6931ZM45.8345 31.1449H40.5869L43.186 24.8225L45.8345 31.1449Z" fill="#00002A"/>
<path d="M78.8246 28.7417L76.7444 28.1208C75.7256 27.8209 74.511 27.1906 74.511 25.8944C74.511 24.5983 75.6666 23.6398 77.3859 23.6398C78.8741 23.6398 79.9189 24.374 80.5345 24.9902L80.6713 25.1272L81.5746 24.197L81.4472 24.0624C80.4118 22.9835 78.893 22.3413 77.3859 22.3413C74.9473 22.3413 73.1077 23.8617 73.1077 25.8756C73.1077 27.5235 74.1973 28.6921 76.3458 29.3461L78.4967 30.0024C80.209 30.5454 80.9731 31.3552 80.9731 32.6324C80.9731 33.9097 79.9331 35.2176 77.6076 35.2176C75.8529 35.2176 74.5746 34.134 73.9709 33.4871L73.8435 33.3525L72.8506 34.219L72.9709 34.363C73.4709 34.9603 75.2822 36.5137 77.6076 36.5137C79.0368 36.5137 80.2538 36.11 81.1264 35.3475C81.9354 34.6392 82.3811 33.6759 82.3811 32.6324C82.3811 30.7508 81.1878 29.4429 78.8317 28.7393L78.8246 28.7417Z" fill="#00002A"/>
<path d="M108.468 22.5229H107.081V36.3342H108.468V22.5229Z" fill="#00002A"/>
<path d="M139.062 28.7417L136.982 28.1208C135.963 27.8209 134.749 27.1906 134.749 25.8944C134.749 24.5983 135.904 23.6398 137.624 23.6398C139.112 23.6398 140.157 24.374 140.772 24.9902L140.909 25.1272L141.812 24.197L141.685 24.0624C140.65 22.9835 139.131 22.3413 137.624 22.3413C135.185 22.3413 133.345 23.8617 133.345 25.8756C133.345 27.5235 134.435 28.6921 136.584 29.3461L138.734 30.0024C140.447 30.5454 141.211 31.3552 141.211 32.6324C141.211 33.9097 140.171 35.2176 137.843 35.2176C136.088 35.2176 134.81 34.134 134.206 33.4871L134.079 33.3525L133.086 34.219L133.206 34.363C133.706 34.9603 135.515 36.5137 137.843 36.5137C139.272 36.5137 140.489 36.11 141.362 35.3475C142.171 34.6392 142.616 33.6759 142.616 32.6324C142.616 30.7508 141.423 29.4429 139.067 28.7393L139.062 28.7417Z" fill="#00002A"/>
</svg>
