<svg width="200" height="58" viewBox="0 0 200 58" fill="none" xmlns="http://www.w3.org/2000/svg">
<path d="M6.94331 22.3411C3.04949 22.3411 0 25.4575 0 29.4379C0 33.4184 3.04949 36.5159 6.94331 36.5159C10.8371 36.5159 13.8866 33.4066 13.8866 29.4379C13.8866 25.4693 10.8371 22.3411 6.94331 22.3411ZM12.481 29.4379C12.481 32.6582 10.0494 35.182 6.94331 35.182C3.83722 35.182 1.40564 32.6582 1.40564 29.4379C1.40564 26.2177 3.8891 23.675 6.94331 23.675C9.99752 23.675 12.481 26.2602 12.481 29.4379Z" fill="#00002A"/>
<path d="M42.6931 22.5229L36.9502 36.3341H38.4431L40.0115 32.4788H46.3958L48.0019 36.3341H49.4949L43.6954 22.5229H42.6931ZM45.8345 31.1449H40.5869L43.186 24.8224L45.8345 31.1449Z" fill="#00002A"/>
<path d="M78.8246 28.7415L76.7444 28.1206C75.7256 27.8207 74.511 27.1904 74.511 25.8942C74.511 24.5981 75.6666 23.6396 77.3859 23.6396C78.8741 23.6396 79.9189 24.3738 80.5345 24.99L80.6713 25.1269L81.5746 24.1968L81.4472 24.0622C80.4118 22.9833 78.893 22.3411 77.3859 22.3411C74.9473 22.3411 73.1077 23.8615 73.1077 25.8753C73.1077 27.5233 74.1973 28.6919 76.3458 29.3459L78.4967 30.0022C80.209 30.5452 80.9731 31.355 80.9731 32.6322C80.9731 33.9095 79.9331 35.2174 77.6076 35.2174C75.8529 35.2174 74.5746 34.1337 73.9709 33.4869L73.8435 33.3523L72.8506 34.2187L72.9709 34.3628C73.4709 34.9601 75.2822 36.5135 77.6076 36.5135C79.0368 36.5135 80.2538 36.1098 81.1264 35.3472C81.9354 34.639 82.3811 33.6757 82.3811 32.6322C82.3811 30.7506 81.1878 29.4427 78.8317 28.7391L78.8246 28.7415Z" fill="#00002A"/>
<path d="M108.468 22.5229H107.081V36.3341H108.468V22.5229Z" fill="#00002A"/>
<path d="M139.062 28.7415L136.982 28.1206C135.963 27.8207 134.749 27.1904 134.749 25.8942C134.749 24.5981 135.904 23.6396 137.624 23.6396C139.112 23.6396 140.157 24.3738 140.772 24.99L140.909 25.1269L141.812 24.1968L141.685 24.0622C140.65 22.9833 139.131 22.3411 137.624 22.3411C135.185 22.3411 133.345 23.8615 133.345 25.8753C133.345 27.5233 134.435 28.6919 136.584 29.3459L138.734 30.0022C140.447 30.5452 141.211 31.355 141.211 32.6322C141.211 33.9095 140.171 35.2174 137.843 35.2174C136.088 35.2174 134.81 34.1337 134.206 33.4869L134.079 33.3523L133.086 34.2187L133.206 34.3628C133.706 34.9601 135.515 36.5135 137.843 36.5135C139.272 36.5135 140.489 36.1098 141.362 35.3472C142.171 34.639 142.616 33.6757 142.616 32.6322C142.616 30.7506 141.423 29.4427 139.067 28.7391L139.062 28.7415Z" fill="#00002A"/>
</svg>
