<svg width="101" height="88" viewBox="0 0 101 88" fill="none" xmlns="http://www.w3.org/2000/svg">
<path d="M27.56 0C25.9883 0 24.7102 1.27879 24.7102 2.8513C24.7102 4.42382 25.9883 5.70261 27.56 5.70261C29.1317 5.70261 30.4098 4.42382 30.4098 2.8513C30.4098 1.27879 29.1317 0 27.56 0Z" fill="white"/>
<path d="M73.6224 5.70261C75.1963 5.70261 76.4722 4.42604 76.4722 2.8513C76.4722 1.27657 75.1963 0 73.6224 0C72.0485 0 70.7726 1.27657 70.7726 2.8513C70.7726 4.42604 72.0485 5.70261 73.6224 5.70261Z" fill="white"/>
<path d="M27.56 27.4312C25.9883 27.4312 24.7102 28.71 24.7102 30.2825C24.7102 31.8551 25.9883 33.1339 27.56 33.1339C29.1317 33.1339 30.4098 31.8551 30.4098 30.2825C30.4098 28.71 29.1317 27.4312 27.56 27.4312Z" fill="white"/>
<path d="M73.6224 33.1339C75.1963 33.1339 76.4722 31.8573 76.4722 30.2825C76.4722 28.7078 75.1963 27.4312 73.6224 27.4312C72.0485 27.4312 70.7726 28.7078 70.7726 30.2825C70.7726 31.8573 72.0485 33.1339 73.6224 33.1339Z" fill="white"/>
<path d="M27.56 54.8661C25.9883 54.8661 24.7102 56.1449 24.7102 57.7174C24.7102 59.2899 25.9883 60.5687 27.56 60.5687C29.1317 60.5687 30.4098 59.2899 30.4098 57.7174C30.4098 56.1449 29.1317 54.8661 27.56 54.8661Z" fill="white"/>
<path d="M73.6224 60.5687C75.1963 60.5687 76.4722 59.2922 76.4722 57.7174C76.4722 56.1427 75.1963 54.8661 73.6224 54.8661C72.0485 54.8661 70.7726 56.1427 70.7726 57.7174C70.7726 59.2922 72.0485 60.5687 73.6224 60.5687Z" fill="white"/>
<path d="M97.8851 47.4871C99.459 47.4871 100.735 46.2106 100.735 44.6358C100.735 43.0611 99.459 41.7845 97.8851 41.7845C96.3112 41.7845 95.0353 43.0611 95.0353 44.6358C95.0353 46.2106 96.3112 47.4871 97.8851 47.4871Z" fill="white"/>
<path d="M50.6414 41.0968C48.6903 41.0968 47.1042 42.6836 47.1042 44.6358C47.1042 46.5881 48.6903 48.1749 50.6414 48.1749C52.5926 48.1749 54.1786 46.5881 54.1786 44.6358C54.1786 42.6836 52.5926 41.0968 50.6414 41.0968Z" fill="white"/>
<path d="M66.505 47.831C68.2687 47.831 69.6985 46.4004 69.6985 44.6358C69.6985 42.8711 68.2687 41.4406 66.505 41.4406C64.7413 41.4406 63.3115 42.8711 63.3115 44.6358C63.3115 46.4004 64.7413 47.831 66.505 47.831Z" fill="white"/>
<path d="M34.8098 47.831C36.5735 47.831 38.0033 46.4004 38.0033 44.6358C38.0033 42.8711 36.5735 41.4406 34.8098 41.4406C33.0461 41.4406 31.6163 42.8711 31.6163 44.6358C31.6163 46.4004 33.0461 47.831 34.8098 47.831Z" fill="white"/>
<path d="M50.6415 20.1669C52.2776 20.1669 53.6059 18.8379 53.6059 17.2009C53.6059 15.564 52.2776 14.235 50.6415 14.235C49.0054 14.235 47.6771 15.564 47.6771 17.2009C47.6771 18.8379 49.0054 20.1669 50.6415 20.1669Z" fill="white"/>
<path d="M50.7345 69.1083C49.0984 69.1083 47.7701 70.4373 47.7701 72.0743C47.7701 73.7113 49.0984 75.0402 50.7345 75.0402C52.3706 75.0402 53.6989 73.7113 53.6989 72.0743C53.6989 70.4373 52.3706 69.1083 50.7345 69.1083Z" fill="white"/>
<path d="M58.8113 54.5652C57.0499 54.5652 55.6178 55.998 55.6178 57.7604C55.6178 59.5228 57.0499 60.9556 58.8113 60.9556C60.5727 60.9556 62.0048 59.5228 62.0048 57.7604C62.0048 55.998 60.5727 54.5652 58.8113 54.5652Z" fill="white"/>
<path d="M43.1876 54.5652C41.4262 54.5652 39.9941 55.998 39.9941 57.7604C39.9941 59.5228 41.4262 60.9556 43.1876 60.9556C44.9491 60.9556 46.3811 59.5228 46.3811 57.7604C46.3811 55.998 44.9491 54.5652 43.1876 54.5652Z" fill="white"/>
<path d="M58.8113 27.0874C57.0499 27.0874 55.6178 28.5202 55.6178 30.2826C55.6178 32.0449 57.0499 33.4778 58.8113 33.4778C60.5727 33.4778 62.0048 32.0449 62.0048 30.2826C62.0048 28.5202 60.5727 27.0874 58.8113 27.0874Z" fill="white"/>
<path d="M43.1876 27.0874C41.4262 27.0874 39.9941 28.5202 39.9941 30.2826C39.9941 32.0449 41.4262 33.4778 43.1876 33.4778C44.9491 33.4778 46.3811 32.0449 46.3811 30.2826C46.3811 28.5202 44.9491 27.0874 43.1876 27.0874Z" fill="white"/>
<path d="M3.11493 41.7845C1.54325 41.7845 0.265137 43.0633 0.265137 44.6358C0.265137 46.2084 1.54325 47.4871 3.11493 47.4871C4.68662 47.4871 5.96473 46.2084 5.96473 44.6358C5.96473 43.0633 4.68662 41.7845 3.11493 41.7845Z" fill="white"/>
<path d="M27.56 82.2974C25.9883 82.2974 24.7102 83.5762 24.7102 85.1487C24.7102 86.7212 25.9883 88 27.56 88C29.1317 88 30.4098 86.7212 30.4098 85.1487C30.4098 83.5762 29.1317 82.2974 27.56 82.2974Z" fill="white"/>
<path d="M73.6224 88C75.1963 88 76.4722 86.7234 76.4722 85.1487C76.4722 83.574 75.1963 82.2974 73.6224 82.2974C72.0485 82.2974 70.7726 83.574 70.7726 85.1487C70.7726 86.7234 72.0485 88 73.6224 88Z" fill="white"/>
</svg>
