<svg width="110" height="20" viewBox="0 0 110 20" fill="none" xmlns="http://www.w3.org/2000/svg">
<path d="M14.9997 1.66666H12.4997C11.3946 1.66666 10.3348 2.10565 9.5534 2.88705C8.77199 3.66845 8.33301 4.72826 8.33301 5.83333V8.33333H5.83301V11.6667H8.33301V18.3333H11.6663V11.6667H14.1663L14.9997 8.33333H11.6663V5.83333C11.6663 5.61232 11.7541 5.40036 11.9104 5.24408C12.0667 5.0878 12.2787 5 12.4997 5H14.9997V1.66666Z" stroke="#A8CBF0" stroke-linecap="round" stroke-linejoin="round"/>
<path d="M109.166 2.5C108.368 3.0629 107.485 3.49343 106.55 3.775C106.048 3.19793 105.381 2.78891 104.639 2.60327C103.897 2.41764 103.116 2.46433 102.401 2.73705C101.687 3.00976 101.073 3.49534 100.644 4.1281C100.214 4.76086 99.9894 5.51028 99.9997 6.275V7.10834C98.5352 7.14631 97.0841 6.82151 95.7755 6.16287C94.467 5.50424 93.3416 4.5322 92.4997 3.33334C92.4997 3.33334 89.1663 10.8333 96.6663 14.1667C94.9501 15.3316 92.9056 15.9158 90.833 15.8333C98.333 20 107.5 15.8333 107.5 6.25C107.499 6.01788 107.477 5.78633 107.433 5.55834C108.284 4.71958 108.884 3.6606 109.166 2.5Z" stroke="#A8CBF0" stroke-linecap="round" stroke-linejoin="round"/>
<path d="M58.333 6.66666C59.6591 6.66666 60.9309 7.19345 61.8685 8.13113C62.8062 9.06881 63.333 10.3406 63.333 11.6667V17.5H59.9997V11.6667C59.9997 11.2246 59.8241 10.8007 59.5115 10.4882C59.199 10.1756 58.775 10 58.333 10C57.891 10 57.4671 10.1756 57.1545 10.4882C56.8419 10.8007 56.6663 11.2246 56.6663 11.6667V17.5H53.333V11.6667C53.333 10.3406 53.8598 9.06881 54.7975 8.13113C55.7352 7.19345 57.0069 6.66666 58.333 6.66666V6.66666Z" stroke="#A8CBF0" stroke-linecap="round" stroke-linejoin="round"/>
<path d="M50.0003 7.5H46.667V17.5H50.0003V7.5Z" stroke="#A8CBF0" stroke-linecap="round" stroke-linejoin="round"/>
<path d="M48.3337 5C49.2541 5 50.0003 4.25381 50.0003 3.33333C50.0003 2.41286 49.2541 1.66666 48.3337 1.66666C47.4132 1.66666 46.667 2.41286 46.667 3.33333C46.667 4.25381 47.4132 5 48.3337 5Z" stroke="#A8CBF0" stroke-linecap="round" stroke-linejoin="round"/>
</svg>
