<svg width="585" height="512" viewBox="0 0 585 512" fill="none" xmlns="http://www.w3.org/2000/svg">
<path d="M159.255 0C150.111 0 142.675 7.44022 142.675 16.5894C142.675 25.7386 150.111 33.1788 159.255 33.1788C168.4 33.1788 175.836 25.7386 175.836 16.5894C175.836 7.44022 168.4 0 159.255 0Z" fill="white"/>
<path d="M427.255 33.1788C436.412 33.1788 443.835 25.7515 443.835 16.5894C443.835 7.42733 436.412 0 427.255 0C418.097 0 410.674 7.42733 410.674 16.5894C410.674 25.7515 418.097 33.1788 427.255 33.1788Z" fill="white"/>
<path d="M159.255 159.6C150.111 159.6 142.675 167.04 142.675 176.189C142.675 185.339 150.111 192.779 159.255 192.779C168.4 192.779 175.836 185.339 175.836 176.189C175.836 167.04 168.4 159.6 159.255 159.6Z" fill="white"/>
<path d="M427.255 192.779C436.412 192.779 443.835 185.352 443.835 176.189C443.835 167.027 436.412 159.6 427.255 159.6C418.097 159.6 410.674 167.027 410.674 176.189C410.674 185.352 418.097 192.779 427.255 192.779Z" fill="white"/>
<path d="M159.255 319.221C150.111 319.221 142.675 326.661 142.675 335.81C142.675 344.96 150.111 352.4 159.255 352.4C168.4 352.4 175.836 344.96 175.836 335.81C175.836 326.661 168.4 319.221 159.255 319.221Z" fill="white"/>
<path d="M427.255 352.4C436.412 352.4 443.835 344.973 443.835 335.81C443.835 326.648 436.412 319.221 427.255 319.221C418.097 319.221 410.674 326.648 410.674 335.81C410.674 344.973 418.097 352.4 427.255 352.4Z" fill="white"/>
<path d="M568.42 276.289C577.577 276.289 585 268.861 585 259.699C585 250.537 577.577 243.11 568.42 243.11C559.262 243.11 551.839 250.537 551.839 259.699C551.839 268.861 559.262 276.289 568.42 276.289Z" fill="white"/>
<path d="M293.547 239.109C282.195 239.109 272.967 248.341 272.967 259.699C272.967 271.058 282.195 280.29 293.547 280.29C304.9 280.29 314.127 271.058 314.127 259.699C314.127 248.341 304.9 239.109 293.547 239.109Z" fill="white"/>
<path d="M385.844 278.289C396.106 278.289 404.425 269.966 404.425 259.699C404.425 249.432 396.106 241.109 385.844 241.109C375.583 241.109 367.264 249.432 367.264 259.699C367.264 269.966 375.583 278.289 385.844 278.289Z" fill="white"/>
<path d="M201.436 278.289C211.698 278.289 220.017 269.966 220.017 259.699C220.017 249.432 211.698 241.109 201.436 241.109C191.175 241.109 182.856 249.432 182.856 259.699C182.856 269.966 191.175 278.289 201.436 278.289Z" fill="white"/>
<path d="M293.548 117.335C303.067 117.335 310.795 109.603 310.795 100.078C310.795 90.554 303.067 82.822 293.548 82.822C284.028 82.822 276.3 90.554 276.3 100.078C276.3 109.603 284.028 117.335 293.548 117.335Z" fill="white"/>
<path d="M294.089 402.085C284.569 402.085 276.841 409.817 276.841 419.341C276.841 428.866 284.569 436.598 294.089 436.598C303.608 436.598 311.336 428.866 311.336 419.341C311.336 409.817 303.608 402.085 294.089 402.085Z" fill="white"/>
<path d="M341.081 317.47C330.832 317.47 322.5 325.807 322.5 336.06C322.5 346.314 330.832 354.651 341.081 354.651C351.329 354.651 359.661 346.314 359.661 336.06C359.661 325.807 351.329 317.47 341.081 317.47Z" fill="white"/>
<path d="M250.179 317.47C239.931 317.47 231.599 325.807 231.599 336.06C231.599 346.314 239.931 354.651 250.179 354.651C260.428 354.651 268.759 346.314 268.759 336.06C268.759 325.807 260.428 317.47 250.179 317.47Z" fill="white"/>
<path d="M341.081 157.599C330.832 157.599 322.5 165.936 322.5 176.19C322.5 186.443 330.832 194.78 341.081 194.78C351.329 194.78 359.661 186.443 359.661 176.19C359.661 165.936 351.329 157.599 341.081 157.599Z" fill="white"/>
<path d="M250.179 157.599C239.931 157.599 231.599 165.936 231.599 176.19C231.599 186.443 239.931 194.78 250.179 194.78C260.428 194.78 268.759 186.443 268.759 176.19C268.759 165.936 260.428 157.599 250.179 157.599Z" fill="white"/>
<path d="M17.0294 243.11C7.88502 243.11 0.44873 250.55 0.44873 259.699C0.44873 268.849 7.88502 276.289 17.0294 276.289C26.1737 276.289 33.61 268.849 33.61 259.699C33.61 250.55 26.1737 243.11 17.0294 243.11Z" fill="white"/>
<path d="M159.255 478.821C150.111 478.821 142.675 486.261 142.675 495.411C142.675 504.56 150.111 512 159.255 512C168.4 512 175.836 504.56 175.836 495.411C175.836 486.261 168.4 478.821 159.255 478.821Z" fill="white"/>
<path d="M427.255 512C436.412 512 443.835 504.573 443.835 495.411C443.835 486.249 436.412 478.821 427.255 478.821C418.097 478.821 410.674 486.249 410.674 495.411C410.674 504.573 418.097 512 427.255 512Z" fill="white"/>
</svg>
