<svg width="210" height="160" viewBox="0 0 210 160" fill="none" xmlns="http://www.w3.org/2000/svg">
<g filter="url(#filter0_bi_79_3525)">
<path d="M177.7 13.2631C164.321 7.1242 149.974 2.60131 134.973 0.0108666C134.7 -0.0391282 134.427 0.0858115 134.286 0.335697C132.441 3.61747 130.397 7.89881 128.966 11.2639C112.832 8.84845 96.7803 8.84845 80.9768 11.2639C79.5453 7.82401 77.4272 3.61747 75.5738 0.335697C75.433 0.0941489 75.1601 -0.0307908 74.887 0.0108666C59.8944 2.59303 45.5473 7.11592 32.1599 13.2631C32.044 13.3131 31.9446 13.3965 31.8787 13.5047C4.66525 54.161 -2.78966 93.818 0.867467 132.983C0.884015 133.175 0.991576 133.358 1.14051 133.475C19.0952 146.66 36.4873 154.665 53.5565 159.971C53.8297 160.054 54.1192 159.954 54.293 159.729C58.3307 154.215 61.93 148.401 65.016 142.287C65.1981 141.929 65.0243 141.504 64.6521 141.363C58.943 139.197 53.5069 136.557 48.2777 133.558C47.864 133.317 47.8309 132.725 48.2114 132.442C49.3119 131.617 50.4126 130.759 51.4633 129.893C51.6534 129.735 51.9183 129.701 52.1418 129.801C86.4955 145.486 123.687 145.486 157.636 129.801C157.859 129.693 158.124 129.726 158.322 129.885C159.373 130.751 160.474 131.617 161.583 132.442C161.963 132.725 161.938 133.317 161.525 133.558C156.295 136.615 150.859 139.197 145.142 141.355C144.77 141.496 144.604 141.929 144.786 142.287C147.939 148.393 151.538 154.207 155.501 159.721C155.667 159.954 155.964 160.054 156.237 159.971C173.389 154.665 190.781 146.66 208.736 133.475C208.893 133.358 208.993 133.183 209.009 132.992C213.386 87.7122 201.678 48.3804 177.973 13.513C177.915 13.3965 177.816 13.3131 177.7 13.2631ZM70.1462 109.136C59.8034 109.136 51.2812 99.6403 51.2812 87.9789C51.2812 76.3175 59.6381 66.822 70.1462 66.822C80.7367 66.822 89.1764 76.4009 89.0109 87.9789C89.0109 99.6403 80.654 109.136 70.1462 109.136ZM139.896 109.136C129.554 109.136 121.031 99.6403 121.031 87.9789C121.031 76.3175 129.388 66.822 139.896 66.822C150.487 66.822 158.926 76.4009 158.761 87.9789C158.761 99.6403 150.487 109.136 139.896 109.136Z" fill="url(#paint0_linear_79_3525)"/>
</g>
<defs>
<filter id="filter0_bi_79_3525" x="-20" y="-20" width="249.913" height="200" filterUnits="userSpaceOnUse" color-interpolation-filters="sRGB">
<feFlood flood-opacity="0" result="BackgroundImageFix"/>
<feGaussianBlur in="BackgroundImageFix" stdDeviation="10"/>
<feComposite in2="SourceAlpha" operator="in" result="effect1_backgroundBlur_79_3525"/>
<feBlend mode="normal" in="SourceGraphic" in2="effect1_backgroundBlur_79_3525" result="shape"/>
<feColorMatrix in="SourceAlpha" type="matrix" values="0 0 0 0 0 0 0 0 0 0 0 0 0 0 0 0 0 0 127 0" result="hardAlpha"/>
<feOffset dy="0.5"/>
<feGaussianBlur stdDeviation="0.5"/>
<feComposite in2="hardAlpha" operator="arithmetic" k2="-1" k3="1"/>
<feColorMatrix type="matrix" values="0 0 0 0 0.342674 0 0 0 0 0.352133 0 0 0 0 0.579167 0 0 0 0.1 0"/>
<feBlend mode="darken" in2="shape" result="effect2_innerShadow_79_3525"/>
</filter>
<linearGradient id="paint0_linear_79_3525" x1="0" y1="80" x2="209.913" y2="80" gradientUnits="userSpaceOnUse">
<stop stop-color="#662D87"/>
<stop offset="1" stop-color="#A8CBF0"/>
</linearGradient>
</defs>
</svg>
