<svg width="50" height="42" viewBox="0 0 50 42" fill="none" xmlns="http://www.w3.org/2000/svg">
<g filter="url(#filter0_i_1_1676)">
<path d="M18.901 24.0324C18.901 20.6185 21.6316 17.8511 24.9999 17.8511C28.3682 17.8511 31.0987 20.6185 31.0987 24.0324L48.2183 25.6163L48.2183 24.0324C48.2183 11.0358 37.823 0.500012 24.9999 0.500011C12.1767 0.500008 1.78148 11.0358 1.78148 24.0324L1.78148 25.6163L18.901 24.0324Z" fill="url(#paint0_linear_1_1676)"/>
</g>
<g filter="url(#filter1_i_1_1676)">
<path fill-rule="evenodd" clip-rule="evenodd" d="M24.9999 19.435C21.6316 19.435 18.901 22.2024 18.901 25.6163L1.78148 25.6163C1.78148 12.6197 12.1767 2.08392 24.9999 2.08392C37.823 2.08392 48.2183 12.6197 48.2183 25.6163L31.0987 25.6163C31.0987 22.2024 28.3682 19.435 24.9999 19.435Z" fill="url(#paint1_radial_1_1676)"/>
</g>
<g filter="url(#filter2_f_1_1676)">
<path d="M48.2172 25.6163L48.2183 25.6163C48.2183 12.6197 37.823 2.08392 24.9999 2.08392C12.1767 2.08392 1.78148 12.6197 1.78148 25.6163L1.78254 25.6163C1.90238 12.7239 12.2512 2.42333 24.9999 2.42333C37.7485 2.42333 48.0974 12.7239 48.2172 25.6163Z" fill="url(#paint2_linear_1_1676)"/>
</g>
<g filter="url(#filter3_bi_1_1676)">
<path fill-rule="evenodd" clip-rule="evenodd" d="M24.9999 26.6443C21.6316 26.6443 18.901 29.4117 18.901 32.8256L1.78148 32.8256C1.78148 19.829 12.1767 9.29322 24.9999 9.29323C37.823 9.29323 48.2183 19.829 48.2183 32.8256L31.0987 32.8256C31.0987 29.4118 28.3682 26.6443 24.9999 26.6443Z" fill="#E4E8F3" fill-opacity="0.4"/>
</g>
<g filter="url(#filter4_bi_1_1676)">
<path d="M48.2183 31.2417L48.2183 32.8256C48.2183 19.829 37.823 9.29323 24.9999 9.29323C12.1767 9.29322 1.78148 19.829 1.78148 32.8256L1.78148 31.2417C1.78148 18.2451 12.1767 7.70932 24.9999 7.70932C37.823 7.70932 48.2183 18.2451 48.2183 31.2417Z" fill="#E4E8F3" fill-opacity="0.4"/>
</g>
<g filter="url(#filter5_f_1_1676)">
<path d="M48.2172 32.8256L48.2183 32.8256C48.2183 19.829 37.823 9.29323 24.9999 9.29323C12.1767 9.29322 1.78148 19.829 1.78148 32.8256L1.78254 32.8256C1.90238 19.9332 12.2512 9.63263 24.9999 9.63264C37.7485 9.63264 48.0974 19.9332 48.2172 32.8256Z" fill="url(#paint3_linear_1_1676)"/>
</g>
<g filter="url(#filter6_bi_1_1676)">
<path fill-rule="evenodd" clip-rule="evenodd" d="M24.9999 34.3187C21.6316 34.3187 18.901 37.0862 18.901 40.5L1.78148 40.5C1.78148 27.5034 12.1767 16.9676 24.9999 16.9676C37.823 16.9676 48.2183 27.5034 48.2183 40.5L31.0987 40.5C31.0987 37.0862 28.3682 34.3187 24.9999 34.3187Z" fill="#E4E8F3" fill-opacity="0.4"/>
</g>
<g filter="url(#filter7_bi_1_1676)">
<path d="M48.2183 38.9161L48.2183 40.5C48.2183 27.5034 37.823 16.9676 24.9999 16.9676C12.1767 16.9676 1.78148 27.5034 1.78148 40.5L1.78148 38.9161C1.78148 25.9195 12.1767 15.3837 24.9999 15.3837C37.823 15.3837 48.2183 25.9195 48.2183 38.9161Z" fill="#E4E8F3" fill-opacity="0.4"/>
</g>
<g filter="url(#filter8_f_1_1676)">
<path d="M48.2172 40.5L48.2183 40.5C48.2183 27.5034 37.823 16.9676 24.9999 16.9676C12.1767 16.9676 1.78148 27.5034 1.78148 40.5L1.78254 40.5C1.90238 27.6076 12.2512 17.307 24.9999 17.307C37.7485 17.307 48.0974 27.6076 48.2172 40.5Z" fill="url(#paint4_linear_1_1676)"/>
</g>
<defs>
<filter id="filter0_i_1_1676" x="1.78125" y="1.13249e-05" width="46.437" height="25.6163" filterUnits="userSpaceOnUse" color-interpolation-filters="sRGB">
<feFlood flood-opacity="0" result="BackgroundImageFix"/>
<feBlend mode="normal" in="SourceGraphic" in2="BackgroundImageFix" result="shape"/>
<feColorMatrix in="SourceAlpha" type="matrix" values="0 0 0 0 0 0 0 0 0 0 0 0 0 0 0 0 0 0 127 0" result="hardAlpha"/>
<feOffset dy="-0.5"/>
<feGaussianBlur stdDeviation="0.5"/>
<feComposite in2="hardAlpha" operator="arithmetic" k2="-1" k3="1"/>
<feColorMatrix type="matrix" values="0 0 0 0 0 0 0 0 0 0 0 0 0 0 0 0 0 0 0.15 0"/>
<feBlend mode="darken" in2="shape" result="effect1_innerShadow_1_1676"/>
</filter>
<filter id="filter1_i_1_1676" x="1.78125" y="2.08392" width="46.437" height="24.0324" filterUnits="userSpaceOnUse" color-interpolation-filters="sRGB">
<feFlood flood-opacity="0" result="BackgroundImageFix"/>
<feBlend mode="normal" in="SourceGraphic" in2="BackgroundImageFix" result="shape"/>
<feColorMatrix in="SourceAlpha" type="matrix" values="0 0 0 0 0 0 0 0 0 0 0 0 0 0 0 0 0 0 127 0" result="hardAlpha"/>
<feOffset dy="0.5"/>
<feGaussianBlur stdDeviation="0.5"/>
<feComposite in2="hardAlpha" operator="arithmetic" k2="-1" k3="1"/>
<feColorMatrix type="matrix" values="0 0 0 0 0 0 0 0 0 0 0 0 0 0 0 0 0 0 0.1 0"/>
<feBlend mode="darken" in2="shape" result="effect1_innerShadow_1_1676"/>
</filter>
<filter id="filter2_f_1_1676" x="0.78125" y="1.08392" width="48.437" height="25.5324" filterUnits="userSpaceOnUse" color-interpolation-filters="sRGB">
<feFlood flood-opacity="0" result="BackgroundImageFix"/>
<feBlend mode="normal" in="SourceGraphic" in2="BackgroundImageFix" result="shape"/>
<feGaussianBlur stdDeviation="0.5" result="effect1_foregroundBlur_1_1676"/>
</filter>
<filter id="filter3_bi_1_1676" x="-18.2188" y="-10.7068" width="86.437" height="63.5324" filterUnits="userSpaceOnUse" color-interpolation-filters="sRGB">
<feFlood flood-opacity="0" result="BackgroundImageFix"/>
<feGaussianBlur in="BackgroundImageFix" stdDeviation="10"/>
<feComposite in2="SourceAlpha" operator="in" result="effect1_backgroundBlur_1_1676"/>
<feBlend mode="normal" in="SourceGraphic" in2="effect1_backgroundBlur_1_1676" result="shape"/>
<feColorMatrix in="SourceAlpha" type="matrix" values="0 0 0 0 0 0 0 0 0 0 0 0 0 0 0 0 0 0 127 0" result="hardAlpha"/>
<feOffset dy="0.5"/>
<feGaussianBlur stdDeviation="0.5"/>
<feComposite in2="hardAlpha" operator="arithmetic" k2="-1" k3="1"/>
<feColorMatrix type="matrix" values="0 0 0 0 0.342674 0 0 0 0 0.352133 0 0 0 0 0.579167 0 0 0 0.1 0"/>
<feBlend mode="darken" in2="shape" result="effect2_innerShadow_1_1676"/>
</filter>
<filter id="filter4_bi_1_1676" x="-18.2188" y="-12.2907" width="86.437" height="65.1163" filterUnits="userSpaceOnUse" color-interpolation-filters="sRGB">
<feFlood flood-opacity="0" result="BackgroundImageFix"/>
<feGaussianBlur in="BackgroundImageFix" stdDeviation="10"/>
<feComposite in2="SourceAlpha" operator="in" result="effect1_backgroundBlur_1_1676"/>
<feBlend mode="normal" in="SourceGraphic" in2="effect1_backgroundBlur_1_1676" result="shape"/>
<feColorMatrix in="SourceAlpha" type="matrix" values="0 0 0 0 0 0 0 0 0 0 0 0 0 0 0 0 0 0 127 0" result="hardAlpha"/>
<feOffset dy="-0.5"/>
<feGaussianBlur stdDeviation="0.5"/>
<feComposite in2="hardAlpha" operator="arithmetic" k2="-1" k3="1"/>
<feColorMatrix type="matrix" values="0 0 0 0 0.341176 0 0 0 0 0.352941 0 0 0 0 0.580392 0 0 0 0.25 0"/>
<feBlend mode="darken" in2="shape" result="effect2_innerShadow_1_1676"/>
</filter>
<filter id="filter5_f_1_1676" x="0.78125" y="8.29323" width="48.437" height="25.5324" filterUnits="userSpaceOnUse" color-interpolation-filters="sRGB">
<feFlood flood-opacity="0" result="BackgroundImageFix"/>
<feBlend mode="normal" in="SourceGraphic" in2="BackgroundImageFix" result="shape"/>
<feGaussianBlur stdDeviation="0.5" result="effect1_foregroundBlur_1_1676"/>
</filter>
<filter id="filter6_bi_1_1676" x="-18.2188" y="-3.03237" width="86.437" height="63.5324" filterUnits="userSpaceOnUse" color-interpolation-filters="sRGB">
<feFlood flood-opacity="0" result="BackgroundImageFix"/>
<feGaussianBlur in="BackgroundImageFix" stdDeviation="10"/>
<feComposite in2="SourceAlpha" operator="in" result="effect1_backgroundBlur_1_1676"/>
<feBlend mode="normal" in="SourceGraphic" in2="effect1_backgroundBlur_1_1676" result="shape"/>
<feColorMatrix in="SourceAlpha" type="matrix" values="0 0 0 0 0 0 0 0 0 0 0 0 0 0 0 0 0 0 127 0" result="hardAlpha"/>
<feOffset dy="0.5"/>
<feGaussianBlur stdDeviation="0.5"/>
<feComposite in2="hardAlpha" operator="arithmetic" k2="-1" k3="1"/>
<feColorMatrix type="matrix" values="0 0 0 0 0.342674 0 0 0 0 0.352133 0 0 0 0 0.579167 0 0 0 0.1 0"/>
<feBlend mode="darken" in2="shape" result="effect2_innerShadow_1_1676"/>
</filter>
<filter id="filter7_bi_1_1676" x="-18.2188" y="-4.61628" width="86.437" height="65.1163" filterUnits="userSpaceOnUse" color-interpolation-filters="sRGB">
<feFlood flood-opacity="0" result="BackgroundImageFix"/>
<feGaussianBlur in="BackgroundImageFix" stdDeviation="10"/>
<feComposite in2="SourceAlpha" operator="in" result="effect1_backgroundBlur_1_1676"/>
<feBlend mode="normal" in="SourceGraphic" in2="effect1_backgroundBlur_1_1676" result="shape"/>
<feColorMatrix in="SourceAlpha" type="matrix" values="0 0 0 0 0 0 0 0 0 0 0 0 0 0 0 0 0 0 127 0" result="hardAlpha"/>
<feOffset dy="-0.5"/>
<feGaussianBlur stdDeviation="0.5"/>
<feComposite in2="hardAlpha" operator="arithmetic" k2="-1" k3="1"/>
<feColorMatrix type="matrix" values="0 0 0 0 0.341176 0 0 0 0 0.352941 0 0 0 0 0.580392 0 0 0 0.25 0"/>
<feBlend mode="darken" in2="shape" result="effect2_innerShadow_1_1676"/>
</filter>
<filter id="filter8_f_1_1676" x="0.78125" y="15.9676" width="48.437" height="25.5324" filterUnits="userSpaceOnUse" color-interpolation-filters="sRGB">
<feFlood flood-opacity="0" result="BackgroundImageFix"/>
<feBlend mode="normal" in="SourceGraphic" in2="BackgroundImageFix" result="shape"/>
<feGaussianBlur stdDeviation="0.5" result="effect1_foregroundBlur_1_1676"/>
</filter>
<linearGradient id="paint0_linear_1_1676" x1="48.2183" y1="13.0581" x2="1.78149" y2="13.0581" gradientUnits="userSpaceOnUse">
<stop stop-color="#662D87"/>
<stop offset="1" stop-color="#A8CBF0"/>
</linearGradient>
<radialGradient id="paint1_radial_1_1676" cx="0" cy="0" r="1" gradientUnits="userSpaceOnUse" gradientTransform="translate(41.0512 13.8501) rotate(-180) scale(29.9625 24.9978)">
<stop stop-color="#662D87"/>
<stop offset="1" stop-color="#A8CBF0"/>
</radialGradient>
<linearGradient id="paint2_linear_1_1676" x1="49.6252" y1="72.7501" x2="0.374399" y2="72.7501" gradientUnits="userSpaceOnUse">
<stop stop-color="white" stop-opacity="0.24"/>
<stop offset="0.130208" stop-color="white" stop-opacity="0.865636"/>
<stop offset="0.489583" stop-color="white" stop-opacity="0.494792"/>
<stop offset="1" stop-color="white" stop-opacity="0"/>
</linearGradient>
<linearGradient id="paint3_linear_1_1676" x1="49.6252" y1="79.9594" x2="0.374399" y2="79.9594" gradientUnits="userSpaceOnUse">
<stop stop-color="white" stop-opacity="0.24"/>
<stop offset="0.130208" stop-color="white" stop-opacity="0.865636"/>
<stop offset="0.489583" stop-color="white" stop-opacity="0.494792"/>
<stop offset="1" stop-color="white" stop-opacity="0"/>
</linearGradient>
<linearGradient id="paint4_linear_1_1676" x1="49.6252" y1="87.6338" x2="0.374399" y2="87.6338" gradientUnits="userSpaceOnUse">
<stop stop-color="white" stop-opacity="0.24"/>
<stop offset="0.130208" stop-color="white" stop-opacity="0.865636"/>
<stop offset="0.489583" stop-color="white" stop-opacity="0.494792"/>
<stop offset="1" stop-color="white" stop-opacity="0"/>
</linearGradient>
</defs>
</svg>
