<svg width="182" height="160" viewBox="0 0 182 160" fill="none" xmlns="http://www.w3.org/2000/svg">
<g filter="url(#filter0_i_79_3508)">
<path d="M104.836 156.697L175.603 120.393C178.989 118.7 180.685 115.438 180.689 112.175V107.574H1V112.175C1.00419 115.438 2.69971 118.7 6.08656 120.393L76.8532 156.697C85.661 161.101 96.0282 161.101 104.836 156.697Z" fill="url(#paint0_linear_79_3508)"/>
</g>
<g filter="url(#filter1_i_79_3508)">
<path d="M76.8532 63.9611C85.6609 59.5572 96.0282 59.5572 104.836 63.9611L175.603 99.3444C182.385 102.735 182.385 112.414 175.603 115.805L104.836 151.188C96.0282 155.592 85.661 155.592 76.8532 151.188L6.08657 115.805C-0.695516 112.414 -0.695526 102.735 6.08656 99.3444L76.8532 63.9611Z" fill="url(#paint1_radial_79_3508)"/>
</g>
<g filter="url(#filter2_f_79_3508)">
<path d="M104.836 151.188L175.602 115.805C178.69 114.261 180.372 111.415 180.648 108.452C178.62 113.093 177.78 113.373 175.216 114.898L104.617 149.828C102.607 150.728 97.1427 153.069 90.4923 153.069C83.8419 153.069 78.7599 150.728 76.9845 149.828C54.3058 138.467 8.27093 115.993 6.08646 114.829C3.90198 113.665 1.97539 111.042 1.28516 109.875C1.89804 112.302 3.49847 114.511 6.08646 115.805L76.8531 151.188C85.6609 155.592 96.0281 155.592 104.836 151.188Z" fill="url(#paint2_linear_79_3508)"/>
</g>
<g filter="url(#filter3_bi_79_3508)">
<path d="M76.8532 33.632C85.6609 29.2281 96.0282 29.2281 104.836 33.632L175.603 69.0153C182.385 72.4064 182.385 82.0848 175.603 85.4758L104.836 120.859C96.0282 125.263 85.661 125.263 76.8532 120.859L6.08657 85.4758C-0.695516 82.0848 -0.695526 72.4064 6.08656 69.0153L76.8532 33.632Z" fill="#E4E8F3" fill-opacity="0.4"/>
</g>
<g filter="url(#filter4_bi_79_3508)">
<path d="M1 77.2461V81.8469C1.00419 85.1103 2.69971 88.3716 6.08656 90.0651L76.8532 126.369C85.661 130.772 96.0282 130.772 104.836 126.369L175.603 90.0651C178.989 88.3716 180.685 85.1103 180.689 81.8469V77.2661C180.682 80.5268 178.987 83.7843 175.603 85.4763L104.836 120.86C96.0282 125.264 85.661 125.264 76.8532 120.86L6.08657 85.4763C2.69553 83.7808 1 80.5135 1 77.2461Z" fill="#E4E8F3" fill-opacity="0.4"/>
</g>
<g filter="url(#filter5_f_79_3508)">
<path d="M104.836 120.858L175.602 85.4749C178.69 83.9314 180.372 81.0851 180.648 78.1221C178.62 82.7629 177.78 83.0432 175.216 84.5684L104.617 119.498C102.607 120.398 97.1427 122.739 90.4923 122.739C83.8419 122.739 78.7599 120.398 76.9845 119.498C54.3058 108.137 8.27093 85.663 6.08646 84.4991C3.90198 83.3353 1.97539 80.7115 1.28516 79.5451C1.89804 81.9714 3.49847 84.1809 6.08646 85.4749L76.8531 120.858C85.6609 125.262 96.0281 125.262 104.836 120.858Z" fill="url(#paint3_linear_79_3508)"/>
</g>
<g filter="url(#filter6_bi_79_3508)">
<path d="M76.8532 3.30292C85.6609 -1.10097 96.0282 -1.10098 104.836 3.30292L175.603 38.6862C182.385 42.0773 182.385 51.7557 175.603 55.1467L104.836 90.53C96.0282 94.9339 85.661 94.9339 76.8532 90.53L6.08657 55.1467C-0.695516 51.7557 -0.695526 42.0773 6.08656 38.6862L76.8532 3.30292Z" fill="#E4E8F3" fill-opacity="0.4"/>
</g>
<g filter="url(#filter7_bi_79_3508)">
<path d="M1 46.917V51.5178C1.00419 54.7812 2.69971 58.0425 6.08656 59.736L76.8532 96.0394C85.661 100.443 96.0282 100.443 104.836 96.0394L175.603 59.736C178.989 58.0425 180.685 54.7811 180.689 51.5178V46.937C180.682 50.1977 178.987 53.4552 175.603 55.1472L104.836 90.5305C96.0282 94.9344 85.661 94.9344 76.8532 90.5305L6.08657 55.1472C2.69553 53.4517 1 50.1843 1 46.917Z" fill="#E4E8F3" fill-opacity="0.4"/>
</g>
<g filter="url(#filter8_f_79_3508)">
<path d="M104.836 90.5301L175.602 55.1468C178.69 53.6032 180.372 50.757 180.648 47.7939C178.62 52.4347 177.78 52.715 175.216 54.2403L104.617 89.1697C102.607 90.0703 97.1427 92.4108 90.4923 92.4108C83.8419 92.4108 78.7599 90.0703 76.9845 89.1697C54.3058 77.8086 8.27093 55.3348 6.08646 54.171C3.90198 53.0072 1.97539 50.3834 1.28516 49.217C1.89804 51.6433 3.49847 53.8528 6.08646 55.1468L76.8531 90.5301C85.6609 94.934 96.0281 94.934 104.836 90.5301Z" fill="url(#paint4_linear_79_3508)"/>
<path d="M176.073 54.3149C175.985 54.3688 175.895 54.4214 175.805 54.4728C175.839 54.4528 175.872 54.433 175.906 54.4133C175.962 54.3801 176.018 54.3474 176.073 54.3149ZM26.1865 64.6378C42.0153 72.4141 63.4326 82.94 76.7591 89.616C78.5665 90.5327 83.73 92.9108 90.4923 92.9108C97.2517 92.9108 102.795 90.5338 104.821 89.626L104.83 89.6221L104.838 89.6178L171.982 56.398L104.612 90.0829C95.9452 94.4164 85.7437 94.4164 77.0767 90.0829L26.1865 64.6378Z" stroke="white"/>
</g>
<defs>
<filter id="filter0_i_79_3508" x="1" y="107.074" width="179.689" height="52.9258" filterUnits="userSpaceOnUse" color-interpolation-filters="sRGB">
<feFlood flood-opacity="0" result="BackgroundImageFix"/>
<feBlend mode="normal" in="SourceGraphic" in2="BackgroundImageFix" result="shape"/>
<feColorMatrix in="SourceAlpha" type="matrix" values="0 0 0 0 0 0 0 0 0 0 0 0 0 0 0 0 0 0 127 0" result="hardAlpha"/>
<feOffset dy="-0.5"/>
<feGaussianBlur stdDeviation="0.5"/>
<feComposite in2="hardAlpha" operator="arithmetic" k2="-1" k3="1"/>
<feColorMatrix type="matrix" values="0 0 0 0 0 0 0 0 0 0 0 0 0 0 0 0 0 0 0.15 0"/>
<feBlend mode="darken" in2="shape" result="effect1_innerShadow_79_3508"/>
</filter>
<filter id="filter1_i_79_3508" x="1" y="60.6582" width="179.689" height="94.333" filterUnits="userSpaceOnUse" color-interpolation-filters="sRGB">
<feFlood flood-opacity="0" result="BackgroundImageFix"/>
<feBlend mode="normal" in="SourceGraphic" in2="BackgroundImageFix" result="shape"/>
<feColorMatrix in="SourceAlpha" type="matrix" values="0 0 0 0 0 0 0 0 0 0 0 0 0 0 0 0 0 0 127 0" result="hardAlpha"/>
<feOffset dy="0.5"/>
<feGaussianBlur stdDeviation="0.5"/>
<feComposite in2="hardAlpha" operator="arithmetic" k2="-1" k3="1"/>
<feColorMatrix type="matrix" values="0 0 0 0 0 0 0 0 0 0 0 0 0 0 0 0 0 0 0.1 0"/>
<feBlend mode="darken" in2="shape" result="effect1_innerShadow_79_3508"/>
</filter>
<filter id="filter2_f_79_3508" x="0.285156" y="107.452" width="181.363" height="48.0391" filterUnits="userSpaceOnUse" color-interpolation-filters="sRGB">
<feFlood flood-opacity="0" result="BackgroundImageFix"/>
<feBlend mode="normal" in="SourceGraphic" in2="BackgroundImageFix" result="shape"/>
<feGaussianBlur stdDeviation="0.5" result="effect1_foregroundBlur_79_3508"/>
</filter>
<filter id="filter3_bi_79_3508" x="-19" y="10.3291" width="219.689" height="133.833" filterUnits="userSpaceOnUse" color-interpolation-filters="sRGB">
<feFlood flood-opacity="0" result="BackgroundImageFix"/>
<feGaussianBlur in="BackgroundImageFix" stdDeviation="10"/>
<feComposite in2="SourceAlpha" operator="in" result="effect1_backgroundBlur_79_3508"/>
<feBlend mode="normal" in="SourceGraphic" in2="effect1_backgroundBlur_79_3508" result="shape"/>
<feColorMatrix in="SourceAlpha" type="matrix" values="0 0 0 0 0 0 0 0 0 0 0 0 0 0 0 0 0 0 127 0" result="hardAlpha"/>
<feOffset dy="0.5"/>
<feGaussianBlur stdDeviation="0.5"/>
<feComposite in2="hardAlpha" operator="arithmetic" k2="-1" k3="1"/>
<feColorMatrix type="matrix" values="0 0 0 0 0.342674 0 0 0 0 0.352133 0 0 0 0 0.579167 0 0 0 0.1 0"/>
<feBlend mode="darken" in2="shape" result="effect2_innerShadow_79_3508"/>
</filter>
<filter id="filter4_bi_79_3508" x="-19" y="57.2461" width="219.689" height="92.4258" filterUnits="userSpaceOnUse" color-interpolation-filters="sRGB">
<feFlood flood-opacity="0" result="BackgroundImageFix"/>
<feGaussianBlur in="BackgroundImageFix" stdDeviation="10"/>
<feComposite in2="SourceAlpha" operator="in" result="effect1_backgroundBlur_79_3508"/>
<feBlend mode="normal" in="SourceGraphic" in2="effect1_backgroundBlur_79_3508" result="shape"/>
<feColorMatrix in="SourceAlpha" type="matrix" values="0 0 0 0 0 0 0 0 0 0 0 0 0 0 0 0 0 0 127 0" result="hardAlpha"/>
<feOffset dy="-0.5"/>
<feGaussianBlur stdDeviation="0.5"/>
<feComposite in2="hardAlpha" operator="arithmetic" k2="-1" k3="1"/>
<feColorMatrix type="matrix" values="0 0 0 0 0.341176 0 0 0 0 0.352941 0 0 0 0 0.580392 0 0 0 0.25 0"/>
<feBlend mode="darken" in2="shape" result="effect2_innerShadow_79_3508"/>
</filter>
<filter id="filter5_f_79_3508" x="0.285156" y="77.1221" width="181.363" height="48.0391" filterUnits="userSpaceOnUse" color-interpolation-filters="sRGB">
<feFlood flood-opacity="0" result="BackgroundImageFix"/>
<feBlend mode="normal" in="SourceGraphic" in2="BackgroundImageFix" result="shape"/>
<feGaussianBlur stdDeviation="0.5" result="effect1_foregroundBlur_79_3508"/>
</filter>
<filter id="filter6_bi_79_3508" x="-19" y="-20" width="219.689" height="133.833" filterUnits="userSpaceOnUse" color-interpolation-filters="sRGB">
<feFlood flood-opacity="0" result="BackgroundImageFix"/>
<feGaussianBlur in="BackgroundImageFix" stdDeviation="10"/>
<feComposite in2="SourceAlpha" operator="in" result="effect1_backgroundBlur_79_3508"/>
<feBlend mode="normal" in="SourceGraphic" in2="effect1_backgroundBlur_79_3508" result="shape"/>
<feColorMatrix in="SourceAlpha" type="matrix" values="0 0 0 0 0 0 0 0 0 0 0 0 0 0 0 0 0 0 127 0" result="hardAlpha"/>
<feOffset dy="0.5"/>
<feGaussianBlur stdDeviation="0.5"/>
<feComposite in2="hardAlpha" operator="arithmetic" k2="-1" k3="1"/>
<feColorMatrix type="matrix" values="0 0 0 0 0.342674 0 0 0 0 0.352133 0 0 0 0 0.579167 0 0 0 0.1 0"/>
<feBlend mode="darken" in2="shape" result="effect2_innerShadow_79_3508"/>
</filter>
<filter id="filter7_bi_79_3508" x="-19" y="26.917" width="219.689" height="92.4258" filterUnits="userSpaceOnUse" color-interpolation-filters="sRGB">
<feFlood flood-opacity="0" result="BackgroundImageFix"/>
<feGaussianBlur in="BackgroundImageFix" stdDeviation="10"/>
<feComposite in2="SourceAlpha" operator="in" result="effect1_backgroundBlur_79_3508"/>
<feBlend mode="normal" in="SourceGraphic" in2="effect1_backgroundBlur_79_3508" result="shape"/>
<feColorMatrix in="SourceAlpha" type="matrix" values="0 0 0 0 0 0 0 0 0 0 0 0 0 0 0 0 0 0 127 0" result="hardAlpha"/>
<feOffset dy="-0.5"/>
<feGaussianBlur stdDeviation="0.5"/>
<feComposite in2="hardAlpha" operator="arithmetic" k2="-1" k3="1"/>
<feColorMatrix type="matrix" values="0 0 0 0 0.341176 0 0 0 0 0.352941 0 0 0 0 0.580392 0 0 0 0.25 0"/>
<feBlend mode="darken" in2="shape" result="effect2_innerShadow_79_3508"/>
</filter>
<filter id="filter8_f_79_3508" x="0.285156" y="46.7939" width="181.363" height="48.0391" filterUnits="userSpaceOnUse" color-interpolation-filters="sRGB">
<feFlood flood-opacity="0" result="BackgroundImageFix"/>
<feBlend mode="normal" in="SourceGraphic" in2="BackgroundImageFix" result="shape"/>
<feGaussianBlur stdDeviation="0.5" result="effect1_foregroundBlur_79_3508"/>
</filter>
<linearGradient id="paint0_linear_79_3508" x1="1" y1="133.787" x2="180.689" y2="133.787" gradientUnits="userSpaceOnUse">
<stop stop-color="#662D87"/>
<stop offset="1" stop-color="#A8CBF0"/>
</linearGradient>
<radialGradient id="paint1_radial_79_3508" cx="0" cy="0" r="1" gradientUnits="userSpaceOnUse" gradientTransform="translate(28.7333 107.575) scale(115.941 99.6762)">
<stop stop-color="#662D87"/>
<stop offset="1" stop-color="#A8CBF0"/>
</radialGradient>
<linearGradient id="paint2_linear_79_3508" x1="1.28516" y1="108.452" x2="180.648" y2="108.452" gradientUnits="userSpaceOnUse">
<stop stop-color="white" stop-opacity="0.24"/>
<stop offset="0.130208" stop-color="white" stop-opacity="0.865636"/>
<stop offset="0.489583" stop-color="white" stop-opacity="0.494792"/>
<stop offset="1" stop-color="white" stop-opacity="0"/>
</linearGradient>
<linearGradient id="paint3_linear_79_3508" x1="1.28516" y1="78.1221" x2="180.648" y2="78.1221" gradientUnits="userSpaceOnUse">
<stop stop-color="white" stop-opacity="0.24"/>
<stop offset="0.130208" stop-color="white" stop-opacity="0.865636"/>
<stop offset="0.489583" stop-color="white" stop-opacity="0.494792"/>
<stop offset="1" stop-color="white" stop-opacity="0"/>
</linearGradient>
<linearGradient id="paint4_linear_79_3508" x1="1.28516" y1="47.7939" x2="180.648" y2="47.7939" gradientUnits="userSpaceOnUse">
<stop stop-color="white" stop-opacity="0.24"/>
<stop offset="0.130208" stop-color="white" stop-opacity="0.865636"/>
<stop offset="0.489583" stop-color="white" stop-opacity="0.494792"/>
<stop offset="1" stop-color="white" stop-opacity="0"/>
</linearGradient>
</defs>
</svg>
