<svg width="42" height="41" viewBox="0 0 42 41" fill="none" xmlns="http://www.w3.org/2000/svg">
<g filter="url(#filter0_i_1_1644)">
<path d="M1.37004 29.1904C1.13544 28.7708 1.02295 28.2951 1.02295 27.8144V27.3966H40.9769V27.8144C40.9769 28.2951 40.8644 28.7708 40.6298 29.1904C36.6324 36.3403 29.3371 40.5001 20.9999 40.5001C12.6628 40.5001 5.36743 36.3403 1.37004 29.1904Z" fill="url(#paint0_linear_1_1644)"/>
</g>
<g filter="url(#filter1_i_1_1644)">
<path d="M1.02295 27.3966C4.93537 20.4015 12.4154 15.6724 20.9999 15.6724C29.5845 15.6724 37.0644 20.4015 40.9769 27.3966C37.0644 34.3916 29.5845 39.1207 20.9999 39.1207C12.4154 39.1207 4.93537 34.3916 1.02295 27.3966Z" fill="url(#paint1_radial_1_1644)"/>
</g>
<g filter="url(#filter2_f_1_1644)">
<path d="M1.02295 27.3966C1.02295 27.3966 6.724 38.7759 20.9999 38.7759C35.2758 38.7759 40.9769 27.3966 40.9769 27.3966C37.0644 34.3917 29.5845 39.1207 20.9999 39.1207C12.4154 39.1207 4.93537 34.3917 1.02295 27.3966Z" fill="url(#paint2_linear_1_1644)"/>
</g>
<g filter="url(#filter3_bi_1_1644)">
<path d="M1.02295 19.8103C4.93537 12.8153 12.4154 8.08621 20.9999 8.08621C29.5845 8.08621 37.0644 12.8153 40.9769 19.8103C37.0644 26.8054 29.5845 31.5345 20.9999 31.5345C12.4154 31.5345 4.93537 26.8054 1.02295 19.8103Z" fill="#E4E8F3" fill-opacity="0.4"/>
</g>
<g filter="url(#filter4_bi_1_1644)">
<path d="M1.02295 19.8104V20.7916C1.02295 20.9021 1.04958 21.0116 1.10119 21.1093C5.03454 28.5618 12.4722 32.9138 20.9999 32.9138C29.5276 32.9138 36.9653 28.5618 40.8986 21.1093C40.9502 21.0116 40.9769 20.9021 40.9769 20.7916V19.8104C37.0644 26.8054 29.5845 31.5345 20.9999 31.5345C12.4154 31.5345 4.93537 26.8054 1.02295 19.8104Z" fill="#E4E8F3" fill-opacity="0.4"/>
</g>
<g filter="url(#filter5_f_1_1644)">
<path d="M1.02295 19.8104C1.02295 19.8104 6.724 31.1897 20.9999 31.1897C35.2758 31.1897 40.9769 19.8104 40.9769 19.8104C37.0644 26.8054 29.5845 31.5345 20.9999 31.5345C12.4154 31.5345 4.93537 26.8054 1.02295 19.8104Z" fill="url(#paint3_linear_1_1644)"/>
</g>
<g filter="url(#filter6_bi_1_1644)">
<path d="M1.02295 12.2241C4.93537 5.22906 12.4154 0.5 20.9999 0.5C29.5845 0.5 37.0644 5.22906 40.9769 12.2241C37.0644 19.2192 29.5845 23.9483 20.9999 23.9483C12.4154 23.9483 4.93537 19.2192 1.02295 12.2241Z" fill="#E4E8F3" fill-opacity="0.4"/>
</g>
<g filter="url(#filter7_bi_1_1644)">
<path d="M1.02295 12.2241V13.2054C1.02295 13.3159 1.04958 13.4253 1.10119 13.5231C5.03454 20.9755 12.4722 25.3276 20.9999 25.3276C29.5276 25.3276 36.9653 20.9755 40.8986 13.5231C40.9502 13.4253 40.9769 13.3159 40.9769 13.2054V12.2241C37.0644 19.2192 29.5845 23.9483 20.9999 23.9483C12.4154 23.9483 4.93537 19.2192 1.02295 12.2241Z" fill="#E4E8F3" fill-opacity="0.4"/>
</g>
<g filter="url(#filter8_f_1_1644)">
<path d="M1.02295 12.2241C1.02295 12.2241 6.724 23.6034 20.9999 23.6034C35.2758 23.6034 40.9769 12.2241 40.9769 12.2241C37.0644 19.2192 29.5845 23.9483 20.9999 23.9483C12.4154 23.9483 4.93537 19.2192 1.02295 12.2241Z" fill="url(#paint4_linear_1_1644)"/>
</g>
<defs>
<filter id="filter0_i_1_1644" x="1.02295" y="26.8966" width="39.9541" height="13.6034" filterUnits="userSpaceOnUse" color-interpolation-filters="sRGB">
<feFlood flood-opacity="0" result="BackgroundImageFix"/>
<feBlend mode="normal" in="SourceGraphic" in2="BackgroundImageFix" result="shape"/>
<feColorMatrix in="SourceAlpha" type="matrix" values="0 0 0 0 0 0 0 0 0 0 0 0 0 0 0 0 0 0 127 0" result="hardAlpha"/>
<feOffset dy="-0.5"/>
<feGaussianBlur stdDeviation="0.5"/>
<feComposite in2="hardAlpha" operator="arithmetic" k2="-1" k3="1"/>
<feColorMatrix type="matrix" values="0 0 0 0 0 0 0 0 0 0 0 0 0 0 0 0 0 0 0.15 0"/>
<feBlend mode="darken" in2="shape" result="effect1_innerShadow_1_1644"/>
</filter>
<filter id="filter1_i_1_1644" x="1.02295" y="15.6724" width="39.9541" height="23.9483" filterUnits="userSpaceOnUse" color-interpolation-filters="sRGB">
<feFlood flood-opacity="0" result="BackgroundImageFix"/>
<feBlend mode="normal" in="SourceGraphic" in2="BackgroundImageFix" result="shape"/>
<feColorMatrix in="SourceAlpha" type="matrix" values="0 0 0 0 0 0 0 0 0 0 0 0 0 0 0 0 0 0 127 0" result="hardAlpha"/>
<feOffset dy="0.5"/>
<feGaussianBlur stdDeviation="0.5"/>
<feComposite in2="hardAlpha" operator="arithmetic" k2="-1" k3="1"/>
<feColorMatrix type="matrix" values="0 0 0 0 0 0 0 0 0 0 0 0 0 0 0 0 0 0 0.1 0"/>
<feBlend mode="darken" in2="shape" result="effect1_innerShadow_1_1644"/>
</filter>
<filter id="filter2_f_1_1644" x="0.0229492" y="26.3966" width="41.9541" height="13.7241" filterUnits="userSpaceOnUse" color-interpolation-filters="sRGB">
<feFlood flood-opacity="0" result="BackgroundImageFix"/>
<feBlend mode="normal" in="SourceGraphic" in2="BackgroundImageFix" result="shape"/>
<feGaussianBlur stdDeviation="0.5" result="effect1_foregroundBlur_1_1644"/>
</filter>
<filter id="filter3_bi_1_1644" x="-18.9771" y="-11.9138" width="79.9541" height="63.4483" filterUnits="userSpaceOnUse" color-interpolation-filters="sRGB">
<feFlood flood-opacity="0" result="BackgroundImageFix"/>
<feGaussianBlur in="BackgroundImageFix" stdDeviation="10"/>
<feComposite in2="SourceAlpha" operator="in" result="effect1_backgroundBlur_1_1644"/>
<feBlend mode="normal" in="SourceGraphic" in2="effect1_backgroundBlur_1_1644" result="shape"/>
<feColorMatrix in="SourceAlpha" type="matrix" values="0 0 0 0 0 0 0 0 0 0 0 0 0 0 0 0 0 0 127 0" result="hardAlpha"/>
<feOffset dy="0.5"/>
<feGaussianBlur stdDeviation="0.5"/>
<feComposite in2="hardAlpha" operator="arithmetic" k2="-1" k3="1"/>
<feColorMatrix type="matrix" values="0 0 0 0 0.342674 0 0 0 0 0.352133 0 0 0 0 0.579167 0 0 0 0.1 0"/>
<feBlend mode="darken" in2="shape" result="effect2_innerShadow_1_1644"/>
</filter>
<filter id="filter4_bi_1_1644" x="-18.9771" y="-0.189631" width="79.9541" height="53.1034" filterUnits="userSpaceOnUse" color-interpolation-filters="sRGB">
<feFlood flood-opacity="0" result="BackgroundImageFix"/>
<feGaussianBlur in="BackgroundImageFix" stdDeviation="10"/>
<feComposite in2="SourceAlpha" operator="in" result="effect1_backgroundBlur_1_1644"/>
<feBlend mode="normal" in="SourceGraphic" in2="effect1_backgroundBlur_1_1644" result="shape"/>
<feColorMatrix in="SourceAlpha" type="matrix" values="0 0 0 0 0 0 0 0 0 0 0 0 0 0 0 0 0 0 127 0" result="hardAlpha"/>
<feOffset dy="-0.5"/>
<feGaussianBlur stdDeviation="0.5"/>
<feComposite in2="hardAlpha" operator="arithmetic" k2="-1" k3="1"/>
<feColorMatrix type="matrix" values="0 0 0 0 0.341176 0 0 0 0 0.352941 0 0 0 0 0.580392 0 0 0 0.25 0"/>
<feBlend mode="darken" in2="shape" result="effect2_innerShadow_1_1644"/>
</filter>
<filter id="filter5_f_1_1644" x="0.0229492" y="18.8104" width="41.9541" height="13.7241" filterUnits="userSpaceOnUse" color-interpolation-filters="sRGB">
<feFlood flood-opacity="0" result="BackgroundImageFix"/>
<feBlend mode="normal" in="SourceGraphic" in2="BackgroundImageFix" result="shape"/>
<feGaussianBlur stdDeviation="0.5" result="effect1_foregroundBlur_1_1644"/>
</filter>
<filter id="filter6_bi_1_1644" x="-18.9771" y="-19.5" width="79.9541" height="63.4483" filterUnits="userSpaceOnUse" color-interpolation-filters="sRGB">
<feFlood flood-opacity="0" result="BackgroundImageFix"/>
<feGaussianBlur in="BackgroundImageFix" stdDeviation="10"/>
<feComposite in2="SourceAlpha" operator="in" result="effect1_backgroundBlur_1_1644"/>
<feBlend mode="normal" in="SourceGraphic" in2="effect1_backgroundBlur_1_1644" result="shape"/>
<feColorMatrix in="SourceAlpha" type="matrix" values="0 0 0 0 0 0 0 0 0 0 0 0 0 0 0 0 0 0 127 0" result="hardAlpha"/>
<feOffset dy="0.5"/>
<feGaussianBlur stdDeviation="0.5"/>
<feComposite in2="hardAlpha" operator="arithmetic" k2="-1" k3="1"/>
<feColorMatrix type="matrix" values="0 0 0 0 0.342674 0 0 0 0 0.352133 0 0 0 0 0.579167 0 0 0 0.1 0"/>
<feBlend mode="darken" in2="shape" result="effect2_innerShadow_1_1644"/>
</filter>
<filter id="filter7_bi_1_1644" x="-18.9771" y="-7.77586" width="79.9541" height="53.1034" filterUnits="userSpaceOnUse" color-interpolation-filters="sRGB">
<feFlood flood-opacity="0" result="BackgroundImageFix"/>
<feGaussianBlur in="BackgroundImageFix" stdDeviation="10"/>
<feComposite in2="SourceAlpha" operator="in" result="effect1_backgroundBlur_1_1644"/>
<feBlend mode="normal" in="SourceGraphic" in2="effect1_backgroundBlur_1_1644" result="shape"/>
<feColorMatrix in="SourceAlpha" type="matrix" values="0 0 0 0 0 0 0 0 0 0 0 0 0 0 0 0 0 0 127 0" result="hardAlpha"/>
<feOffset dy="-0.5"/>
<feGaussianBlur stdDeviation="0.5"/>
<feComposite in2="hardAlpha" operator="arithmetic" k2="-1" k3="1"/>
<feColorMatrix type="matrix" values="0 0 0 0 0.341176 0 0 0 0 0.352941 0 0 0 0 0.580392 0 0 0 0.25 0"/>
<feBlend mode="darken" in2="shape" result="effect2_innerShadow_1_1644"/>
</filter>
<filter id="filter8_f_1_1644" x="0.0229492" y="11.2241" width="41.9541" height="13.7241" filterUnits="userSpaceOnUse" color-interpolation-filters="sRGB">
<feFlood flood-opacity="0" result="BackgroundImageFix"/>
<feBlend mode="normal" in="SourceGraphic" in2="BackgroundImageFix" result="shape"/>
<feGaussianBlur stdDeviation="0.5" result="effect1_foregroundBlur_1_1644"/>
</filter>
<linearGradient id="paint0_linear_1_1644" x1="1.02295" y1="33.9483" x2="40.9769" y2="33.9483" gradientUnits="userSpaceOnUse">
<stop stop-color="#662D87"/>
<stop offset="1" stop-color="#A8CBF0"/>
</linearGradient>
<radialGradient id="paint1_radial_1_1644" cx="0" cy="0" r="1" gradientUnits="userSpaceOnUse" gradientTransform="translate(7.18946 27.3966) scale(25.7795 24.9085)">
<stop stop-color="#662D87"/>
<stop offset="1" stop-color="#A8CBF0"/>
</radialGradient>
<linearGradient id="paint2_linear_1_1644" x1="-0.187548" y1="3.91391" x2="42.1875" y2="3.91391" gradientUnits="userSpaceOnUse">
<stop stop-color="white" stop-opacity="0.24"/>
<stop offset="0.130208" stop-color="white" stop-opacity="0.865636"/>
<stop offset="0.489583" stop-color="white" stop-opacity="0.494792"/>
<stop offset="1" stop-color="white" stop-opacity="0"/>
</linearGradient>
<linearGradient id="paint3_linear_1_1644" x1="-0.187548" y1="-3.67233" x2="42.1875" y2="-3.67233" gradientUnits="userSpaceOnUse">
<stop stop-color="white" stop-opacity="0.24"/>
<stop offset="0.130208" stop-color="white" stop-opacity="0.865636"/>
<stop offset="0.489583" stop-color="white" stop-opacity="0.494792"/>
<stop offset="1" stop-color="white" stop-opacity="0"/>
</linearGradient>
<linearGradient id="paint4_linear_1_1644" x1="-0.187548" y1="-11.2586" x2="42.1875" y2="-11.2586" gradientUnits="userSpaceOnUse">
<stop stop-color="white" stop-opacity="0.24"/>
<stop offset="0.130208" stop-color="white" stop-opacity="0.865636"/>
<stop offset="0.489583" stop-color="white" stop-opacity="0.494792"/>
<stop offset="1" stop-color="white" stop-opacity="0"/>
</linearGradient>
</defs>
</svg>
