<svg width="67" height="58" viewBox="0 0 67 58" fill="none" xmlns="http://www.w3.org/2000/svg">
<path d="M17.9809 0C16.9455 0 16.1035 0.842838 16.1035 1.87927C16.1035 2.9157 16.9455 3.75854 17.9809 3.75854C19.0162 3.75854 19.8582 2.9157 19.8582 1.87927C19.8582 0.842838 19.0162 0 17.9809 0Z" fill="white"/>
<path d="M48.3246 3.75854C49.3614 3.75854 50.2019 2.91716 50.2019 1.87927C50.2019 0.841377 49.3614 0 48.3246 0C47.2878 0 46.4473 0.841377 46.4473 1.87927C46.4473 2.91716 47.2878 3.75854 48.3246 3.75854Z" fill="white"/>
<path d="M17.9809 18.0801C16.9455 18.0801 16.1035 18.9229 16.1035 19.9593C16.1035 20.9958 16.9455 21.8386 17.9809 21.8386C19.0162 21.8386 19.8582 20.9958 19.8582 19.9593C19.8582 18.9229 19.0162 18.0801 17.9809 18.0801Z" fill="white"/>
<path d="M48.3246 21.8386C49.3614 21.8386 50.2019 20.9972 50.2019 19.9593C50.2019 18.9215 49.3614 18.0801 48.3246 18.0801C47.2878 18.0801 46.4473 18.9215 46.4473 19.9593C46.4473 20.9972 47.2878 21.8386 48.3246 21.8386Z" fill="white"/>
<path d="M17.9809 36.1621C16.9455 36.1621 16.1035 37.0049 16.1035 38.0414C16.1035 39.0778 16.9455 39.9206 17.9809 39.9206C19.0162 39.9206 19.8582 39.0778 19.8582 38.0414C19.8582 37.0049 19.0162 36.1621 17.9809 36.1621Z" fill="white"/>
<path d="M48.3246 39.9206C49.3614 39.9206 50.2019 39.0793 50.2019 38.0414C50.2019 37.0035 49.3614 36.1621 48.3246 36.1621C47.2878 36.1621 46.4473 37.0035 46.4473 38.0414C46.4473 39.0793 47.2878 39.9206 48.3246 39.9206Z" fill="white"/>
<path d="M64.308 31.2986C65.3448 31.2986 66.1853 30.4572 66.1853 29.4193C66.1853 28.3814 65.3448 27.54 64.308 27.54C63.2712 27.54 62.4307 28.3814 62.4307 29.4193C62.4307 30.4572 63.2712 31.2986 64.308 31.2986Z" fill="white"/>
<path d="M33.1856 27.0869C31.9003 27.0869 30.8555 28.1328 30.8555 29.4195C30.8555 30.7062 31.9003 31.752 33.1856 31.752C34.471 31.752 35.5158 30.7062 35.5158 29.4195C35.5158 28.1328 34.471 27.0869 33.1856 27.0869Z" fill="white"/>
<path d="M43.636 31.5253C44.7978 31.5253 45.7397 30.5825 45.7397 29.4194C45.7397 28.2563 44.7978 27.3135 43.636 27.3135C42.4741 27.3135 41.5322 28.2563 41.5322 29.4194C41.5322 30.5825 42.4741 31.5253 43.636 31.5253Z" fill="white"/>
<path d="M22.7571 31.5253C23.9189 31.5253 24.8608 30.5825 24.8608 29.4194C24.8608 28.2563 23.9189 27.3135 22.7571 27.3135C21.5952 27.3135 20.6533 28.2563 20.6533 29.4194C20.6533 30.5825 21.5952 31.5253 22.7571 31.5253Z" fill="white"/>
<path d="M33.1862 13.2915C34.264 13.2915 35.139 12.4156 35.139 11.3367C35.139 10.2577 34.264 9.38184 33.1862 9.38184C32.1084 9.38184 31.2334 10.2577 31.2334 11.3367C31.2334 12.4156 32.1084 13.2915 33.1862 13.2915Z" fill="white"/>
<path d="M33.2477 45.5488C32.1699 45.5488 31.2949 46.4247 31.2949 47.5036C31.2949 48.5826 32.1699 49.4585 33.2477 49.4585C34.3255 49.4585 35.2005 48.5826 35.2005 47.5036C35.2005 46.4247 34.3255 45.5488 33.2477 45.5488Z" fill="white"/>
<path d="M38.5676 35.9639C37.4073 35.9639 36.4639 36.9082 36.4639 38.0698C36.4639 39.2313 37.4073 40.1757 38.5676 40.1757C39.728 40.1757 40.6714 39.2313 40.6714 38.0698C40.6714 36.9082 39.728 35.9639 38.5676 35.9639Z" fill="white"/>
<path d="M28.2756 35.9639C27.1153 35.9639 26.1719 36.9082 26.1719 38.0698C26.1719 39.2313 27.1153 40.1757 28.2756 40.1757C29.436 40.1757 30.3794 39.2313 30.3794 38.0698C30.3794 36.9082 29.436 35.9639 28.2756 35.9639Z" fill="white"/>
<path d="M38.5676 17.8535C37.4073 17.8535 36.4639 18.7979 36.4639 19.9594C36.4639 21.121 37.4073 22.0653 38.5676 22.0653C39.728 22.0653 40.6714 21.121 40.6714 19.9594C40.6714 18.7979 39.728 17.8535 38.5676 17.8535Z" fill="white"/>
<path d="M28.2756 17.8535C27.1153 17.8535 26.1719 18.7979 26.1719 19.9594C26.1719 21.121 27.1153 22.0653 28.2756 22.0653C29.436 22.0653 30.3794 21.121 30.3794 19.9594C30.3794 18.7979 29.436 17.8535 28.2756 17.8535Z" fill="white"/>
<path d="M1.87734 27.54C0.841971 27.54 0 28.3829 0 29.4193C0 30.4557 0.841971 31.2986 1.87734 31.2986C2.9127 31.2986 3.75467 30.4557 3.75467 29.4193C3.75467 28.3829 2.9127 27.54 1.87734 27.54Z" fill="white"/>
<path d="M17.9809 54.2412C16.9455 54.2412 16.1035 55.0841 16.1035 56.1205C16.1035 57.1569 16.9455 57.9997 17.9809 57.9997C19.0162 57.9997 19.8582 57.1569 19.8582 56.1205C19.8582 55.0841 19.0162 54.2412 17.9809 54.2412Z" fill="white"/>
<path d="M48.3246 57.9997C49.3614 57.9997 50.2019 57.1584 50.2019 56.1205C50.2019 55.0826 49.3614 54.2412 48.3246 54.2412C47.2878 54.2412 46.4473 55.0826 46.4473 56.1205C46.4473 57.1584 47.2878 57.9997 48.3246 57.9997Z" fill="white"/>
</svg>
