<svg width="67" height="58" viewBox="0 0 67 58" fill="none" xmlns="http://www.w3.org/2000/svg">
<path d="M17.9809 0C16.9455 0 16.1035 0.842838 16.1035 1.87927C16.1035 2.9157 16.9455 3.75854 17.9809 3.75854C19.0162 3.75854 19.8582 2.9157 19.8582 1.87927C19.8582 0.842838 19.0162 0 17.9809 0Z" fill="white"/>
<path d="M48.3248 3.75854C49.3617 3.75854 50.2022 2.91716 50.2022 1.87927C50.2022 0.841377 49.3617 0 48.3248 0C47.288 0 46.4475 0.841377 46.4475 1.87927C46.4475 2.91716 47.288 3.75854 48.3248 3.75854Z" fill="white"/>
<path d="M17.9809 18.0796C16.9455 18.0796 16.1035 18.9224 16.1035 19.9589C16.1035 20.9953 16.9455 21.8381 17.9809 21.8381C19.0162 21.8381 19.8582 20.9953 19.8582 19.9589C19.8582 18.9224 19.0162 18.0796 17.9809 18.0796Z" fill="white"/>
<path d="M48.3248 21.8381C49.3617 21.8381 50.2022 20.9968 50.2022 19.9589C50.2022 18.921 49.3617 18.0796 48.3248 18.0796C47.288 18.0796 46.4475 18.921 46.4475 19.9589C46.4475 20.9968 47.288 21.8381 48.3248 21.8381Z" fill="white"/>
<path d="M17.9809 36.1616C16.9455 36.1616 16.1035 37.0045 16.1035 38.0409C16.1035 39.0773 16.9455 39.9202 17.9809 39.9202C19.0162 39.9202 19.8582 39.0773 19.8582 38.0409C19.8582 37.0045 19.0162 36.1616 17.9809 36.1616Z" fill="white"/>
<path d="M48.3248 39.9202C49.3617 39.9202 50.2022 39.0788 50.2022 38.0409C50.2022 37.003 49.3617 36.1616 48.3248 36.1616C47.288 36.1616 46.4475 37.003 46.4475 38.0409C46.4475 39.0788 47.288 39.9202 48.3248 39.9202Z" fill="white"/>
<path d="M64.3082 31.2981C65.3451 31.2981 66.1856 30.4567 66.1856 29.4188C66.1856 28.3809 65.3451 27.5396 64.3082 27.5396C63.2714 27.5396 62.4309 28.3809 62.4309 29.4188C62.4309 30.4567 63.2714 31.2981 64.3082 31.2981Z" fill="white"/>
<path d="M33.1859 27.0864C31.9005 27.0864 30.8557 28.1323 30.8557 29.419C30.8557 30.7057 31.9005 31.7515 33.1859 31.7515C34.4712 31.7515 35.516 30.7057 35.516 29.419C35.516 28.1323 34.4712 27.0864 33.1859 27.0864Z" fill="white"/>
<path d="M43.6362 31.5248C44.7981 31.5248 45.74 30.582 45.74 29.4189C45.74 28.2558 44.7981 27.313 43.6362 27.313C42.4744 27.313 41.5325 28.2558 41.5325 29.4189C41.5325 30.582 42.4744 31.5248 43.6362 31.5248Z" fill="white"/>
<path d="M22.7568 31.5248C23.9187 31.5248 24.8606 30.582 24.8606 29.4189C24.8606 28.2558 23.9187 27.313 22.7568 27.313C21.595 27.313 20.6531 28.2558 20.6531 29.4189C20.6531 30.582 21.595 31.5248 22.7568 31.5248Z" fill="white"/>
<path d="M33.186 13.292C34.2638 13.292 35.1388 12.4161 35.1388 11.3371C35.1388 10.2582 34.2638 9.38232 33.186 9.38232C32.1081 9.38232 31.2332 10.2582 31.2332 11.3371C31.2332 12.4161 32.1081 13.292 33.186 13.292Z" fill="white"/>
<path d="M33.2472 45.5488C32.1694 45.5488 31.2944 46.4247 31.2944 47.5036C31.2944 48.5826 32.1694 49.4585 33.2472 49.4585C34.3251 49.4585 35.2 48.5826 35.2 47.5036C35.2 46.4247 34.3251 45.5488 33.2472 45.5488Z" fill="white"/>
<path d="M38.5679 35.9634C37.4075 35.9634 36.4641 36.9077 36.4641 38.0693C36.4641 39.2309 37.4075 40.1752 38.5679 40.1752C39.7282 40.1752 40.6716 39.2309 40.6716 38.0693C40.6716 36.9077 39.7282 35.9634 38.5679 35.9634Z" fill="white"/>
<path d="M28.2756 35.9634C27.1153 35.9634 26.1719 36.9077 26.1719 38.0693C26.1719 39.2309 27.1153 40.1752 28.2756 40.1752C29.436 40.1752 30.3794 39.2309 30.3794 38.0693C30.3794 36.9077 29.436 35.9634 28.2756 35.9634Z" fill="white"/>
<path d="M38.5679 17.853C37.4075 17.853 36.4641 18.7974 36.4641 19.9589C36.4641 21.1205 37.4075 22.0649 38.5679 22.0649C39.7282 22.0649 40.6716 21.1205 40.6716 19.9589C40.6716 18.7974 39.7282 17.853 38.5679 17.853Z" fill="white"/>
<path d="M28.2756 17.853C27.1153 17.853 26.1719 18.7974 26.1719 19.9589C26.1719 21.1205 27.1153 22.0649 28.2756 22.0649C29.436 22.0649 30.3794 21.1205 30.3794 19.9589C30.3794 18.7974 29.436 17.853 28.2756 17.853Z" fill="white"/>
<path d="M1.87734 27.5396C0.841971 27.5396 0 28.3824 0 29.4188C0 30.4553 0.841971 31.2981 1.87734 31.2981C2.9127 31.2981 3.75467 30.4553 3.75467 29.4188C3.75467 28.3824 2.9127 27.5396 1.87734 27.5396Z" fill="white"/>
<path d="M17.9809 54.2417C16.9455 54.2417 16.1035 55.0845 16.1035 56.121C16.1035 57.1574 16.9455 58.0002 17.9809 58.0002C19.0162 58.0002 19.8582 57.1574 19.8582 56.121C19.8582 55.0845 19.0162 54.2417 17.9809 54.2417Z" fill="white"/>
<path d="M48.3248 58.0002C49.3617 58.0002 50.2022 57.1589 50.2022 56.121C50.2022 55.0831 49.3617 54.2417 48.3248 54.2417C47.288 54.2417 46.4475 55.0831 46.4475 56.121C46.4475 57.1589 47.288 58.0002 48.3248 58.0002Z" fill="white"/>
</svg>
