<svg width="48" height="41" viewBox="0 0 48 41" fill="none" xmlns="http://www.w3.org/2000/svg">
<g filter="url(#filter0_i_79_3287)">
<path d="M27.4979 39.6741L45.1895 30.5983C46.0362 30.1749 46.4601 29.3596 46.4612 28.5438V27.3936H1.53894V28.5438C1.53999 29.3596 1.96387 30.1749 2.81058 30.5983L20.5022 39.6741C22.7041 40.7751 25.296 40.7751 27.4979 39.6741Z" fill="url(#paint0_linear_79_3287)"/>
</g>
<g filter="url(#filter1_i_79_3287)">
<path d="M20.5022 16.4903C22.7041 15.3893 25.2959 15.3893 27.4979 16.4903L45.1895 25.3361C46.885 26.1839 46.885 28.6034 45.1895 29.4512L27.4979 38.297C25.296 39.398 22.7042 39.398 20.5022 38.297L2.81058 29.4512C1.11506 28.6034 1.11506 26.1839 2.81058 25.3361L20.5022 16.4903Z" fill="url(#paint1_radial_79_3287)"/>
</g>
<g filter="url(#filter2_f_79_3287)">
<path d="M27.4979 38.2968L45.1895 29.451C45.9613 29.0651 46.3818 28.3535 46.4509 27.6128C45.944 28.773 45.7338 28.8431 45.0928 29.2244L27.4431 37.9567C26.9405 38.1819 25.5746 38.767 23.912 38.767C22.2494 38.767 20.9789 38.1819 20.535 37.9567C14.8654 35.1164 3.35667 29.498 2.81055 29.2071C2.26444 28.9161 1.78279 28.2602 1.61023 27.9686C1.76345 28.5751 2.16356 29.1275 2.81055 29.451L20.5022 38.2968C22.7041 39.3978 25.2959 39.3978 27.4979 38.2968Z" fill="url(#paint2_linear_79_3287)"/>
</g>
<g filter="url(#filter3_bi_79_3287)">
<path d="M20.5022 8.90825C22.7041 7.80728 25.2959 7.80728 27.4979 8.90825L45.1895 17.7541C46.885 18.6018 46.885 21.0214 45.1895 21.8692L27.4979 30.715C25.296 31.816 22.7042 31.816 20.5022 30.715L2.81058 21.8692C1.11506 21.0214 1.11506 18.6018 2.81058 17.7541L20.5022 8.90825Z" fill="#E4E8F3" fill-opacity="0.4"/>
</g>
<g filter="url(#filter4_bi_79_3287)">
<path d="M1.53894 19.8115V20.9617C1.53999 21.7776 1.96387 22.5929 2.81058 23.0163L20.5022 32.0921C22.7041 33.1931 25.2959 33.1931 27.4979 32.0921L45.1895 23.0163C46.0362 22.5929 46.4601 21.7776 46.4612 20.9617V19.8165C46.4594 20.6317 46.0356 21.4461 45.1895 21.8691L27.4979 30.7149C25.296 31.8159 22.7041 31.8159 20.5022 30.7149L2.81058 21.8691C1.96282 21.4452 1.53894 20.6284 1.53894 19.8115Z" fill="#E4E8F3" fill-opacity="0.4"/>
</g>
<g filter="url(#filter5_f_79_3287)">
<path d="M27.4979 30.7148L45.1895 21.869C45.9613 21.4831 46.3818 20.7715 46.4509 20.0308C45.944 21.191 45.7338 21.261 45.0928 21.6423L27.4431 30.3747C26.9405 30.5998 25.5746 31.185 23.912 31.185C22.2494 31.185 20.9789 30.5998 20.535 30.3747C14.8654 27.5344 3.35667 21.916 2.81055 21.625C2.26444 21.3341 1.78279 20.6781 1.61023 20.3865C1.76345 20.9931 2.16356 21.5455 2.81055 21.869L20.5022 30.7148C22.7041 31.8158 25.2959 31.8158 27.4979 30.7148Z" fill="url(#paint3_linear_79_3287)"/>
</g>
<g filter="url(#filter6_bi_79_3287)">
<path d="M20.5022 1.32573C22.7041 0.224758 25.2959 0.224756 27.4979 1.32573L45.1895 10.1715C46.885 11.0193 46.885 13.4389 45.1895 14.2867L27.4979 23.1325C25.296 24.2334 22.7042 24.2334 20.5022 23.1325L2.81058 14.2867C1.11506 13.4389 1.11506 11.0193 2.81058 10.1715L20.5022 1.32573Z" fill="#E4E8F3" fill-opacity="0.4"/>
</g>
<g filter="url(#filter7_bi_79_3287)">
<path d="M1.53894 12.229V13.3792C1.53999 14.195 1.96387 15.0104 2.81058 15.4337L20.5022 24.5096C22.7041 25.6106 25.2959 25.6106 27.4979 24.5096L45.1895 15.4337C46.0362 15.0104 46.4601 14.195 46.4612 13.3792V12.234C46.4594 13.0492 46.0356 13.8635 45.1895 14.2866L27.4979 23.1324C25.296 24.2333 22.7041 24.2333 20.5022 23.1324L2.81058 14.2866C1.96282 13.8627 1.53894 13.0458 1.53894 12.229Z" fill="#E4E8F3" fill-opacity="0.4"/>
</g>
<g filter="url(#filter8_f_79_3287)">
<path d="M27.4979 23.1323L45.1895 14.2865C45.9613 13.9006 46.3818 13.189 46.4509 12.4482C45.944 13.6084 45.7338 13.6785 45.0928 14.0598L27.4431 22.7922C26.9405 23.0173 25.5746 23.6024 23.912 23.6024C22.2494 23.6024 20.9789 23.0173 20.535 22.7922C14.8654 19.9519 3.35667 14.3335 2.81055 14.0425C2.26444 13.7516 1.78279 13.0956 1.61023 12.804C1.76345 13.4106 2.16356 13.963 2.81055 14.2865L20.5022 23.1323C22.7041 24.2332 25.2959 24.2332 27.4979 23.1323Z" fill="url(#paint4_linear_79_3287)"/>
</g>
<defs>
<filter id="filter0_i_79_3287" x="1.53894" y="26.8936" width="44.9222" height="13.6064" filterUnits="userSpaceOnUse" color-interpolation-filters="sRGB">
<feFlood flood-opacity="0" result="BackgroundImageFix"/>
<feBlend mode="normal" in="SourceGraphic" in2="BackgroundImageFix" result="shape"/>
<feColorMatrix in="SourceAlpha" type="matrix" values="0 0 0 0 0 0 0 0 0 0 0 0 0 0 0 0 0 0 127 0" result="hardAlpha"/>
<feOffset dy="-0.5"/>
<feGaussianBlur stdDeviation="0.5"/>
<feComposite in2="hardAlpha" operator="arithmetic" k2="-1" k3="1"/>
<feColorMatrix type="matrix" values="0 0 0 0 0 0 0 0 0 0 0 0 0 0 0 0 0 0 0.15 0"/>
<feBlend mode="darken" in2="shape" result="effect1_innerShadow_79_3287"/>
</filter>
<filter id="filter1_i_79_3287" x="1.53894" y="15.6646" width="44.9222" height="23.958" filterUnits="userSpaceOnUse" color-interpolation-filters="sRGB">
<feFlood flood-opacity="0" result="BackgroundImageFix"/>
<feBlend mode="normal" in="SourceGraphic" in2="BackgroundImageFix" result="shape"/>
<feColorMatrix in="SourceAlpha" type="matrix" values="0 0 0 0 0 0 0 0 0 0 0 0 0 0 0 0 0 0 127 0" result="hardAlpha"/>
<feOffset dy="0.5"/>
<feGaussianBlur stdDeviation="0.5"/>
<feComposite in2="hardAlpha" operator="arithmetic" k2="-1" k3="1"/>
<feColorMatrix type="matrix" values="0 0 0 0 0 0 0 0 0 0 0 0 0 0 0 0 0 0 0.1 0"/>
<feBlend mode="darken" in2="shape" result="effect1_innerShadow_79_3287"/>
</filter>
<filter id="filter2_f_79_3287" x="0.610229" y="26.6128" width="46.8407" height="13.5098" filterUnits="userSpaceOnUse" color-interpolation-filters="sRGB">
<feFlood flood-opacity="0" result="BackgroundImageFix"/>
<feBlend mode="normal" in="SourceGraphic" in2="BackgroundImageFix" result="shape"/>
<feGaussianBlur stdDeviation="0.5" result="effect1_foregroundBlur_79_3287"/>
</filter>
<filter id="filter3_bi_79_3287" x="-18.4611" y="-11.9175" width="84.9222" height="63.458" filterUnits="userSpaceOnUse" color-interpolation-filters="sRGB">
<feFlood flood-opacity="0" result="BackgroundImageFix"/>
<feGaussianBlur in="BackgroundImageFix" stdDeviation="10"/>
<feComposite in2="SourceAlpha" operator="in" result="effect1_backgroundBlur_79_3287"/>
<feBlend mode="normal" in="SourceGraphic" in2="effect1_backgroundBlur_79_3287" result="shape"/>
<feColorMatrix in="SourceAlpha" type="matrix" values="0 0 0 0 0 0 0 0 0 0 0 0 0 0 0 0 0 0 127 0" result="hardAlpha"/>
<feOffset dy="0.5"/>
<feGaussianBlur stdDeviation="0.5"/>
<feComposite in2="hardAlpha" operator="arithmetic" k2="-1" k3="1"/>
<feColorMatrix type="matrix" values="0 0 0 0 0.342674 0 0 0 0 0.352133 0 0 0 0 0.579167 0 0 0 0.1 0"/>
<feBlend mode="darken" in2="shape" result="effect2_innerShadow_79_3287"/>
</filter>
<filter id="filter4_bi_79_3287" x="-18.4611" y="-0.188477" width="84.9222" height="53.1064" filterUnits="userSpaceOnUse" color-interpolation-filters="sRGB">
<feFlood flood-opacity="0" result="BackgroundImageFix"/>
<feGaussianBlur in="BackgroundImageFix" stdDeviation="10"/>
<feComposite in2="SourceAlpha" operator="in" result="effect1_backgroundBlur_79_3287"/>
<feBlend mode="normal" in="SourceGraphic" in2="effect1_backgroundBlur_79_3287" result="shape"/>
<feColorMatrix in="SourceAlpha" type="matrix" values="0 0 0 0 0 0 0 0 0 0 0 0 0 0 0 0 0 0 127 0" result="hardAlpha"/>
<feOffset dy="-0.5"/>
<feGaussianBlur stdDeviation="0.5"/>
<feComposite in2="hardAlpha" operator="arithmetic" k2="-1" k3="1"/>
<feColorMatrix type="matrix" values="0 0 0 0 0.341176 0 0 0 0 0.352941 0 0 0 0 0.580392 0 0 0 0.25 0"/>
<feBlend mode="darken" in2="shape" result="effect2_innerShadow_79_3287"/>
</filter>
<filter id="filter5_f_79_3287" x="0.610229" y="19.0308" width="46.8407" height="13.5098" filterUnits="userSpaceOnUse" color-interpolation-filters="sRGB">
<feFlood flood-opacity="0" result="BackgroundImageFix"/>
<feBlend mode="normal" in="SourceGraphic" in2="BackgroundImageFix" result="shape"/>
<feGaussianBlur stdDeviation="0.5" result="effect1_foregroundBlur_79_3287"/>
</filter>
<filter id="filter6_bi_79_3287" x="-18.4611" y="-19.5" width="84.9222" height="63.458" filterUnits="userSpaceOnUse" color-interpolation-filters="sRGB">
<feFlood flood-opacity="0" result="BackgroundImageFix"/>
<feGaussianBlur in="BackgroundImageFix" stdDeviation="10"/>
<feComposite in2="SourceAlpha" operator="in" result="effect1_backgroundBlur_79_3287"/>
<feBlend mode="normal" in="SourceGraphic" in2="effect1_backgroundBlur_79_3287" result="shape"/>
<feColorMatrix in="SourceAlpha" type="matrix" values="0 0 0 0 0 0 0 0 0 0 0 0 0 0 0 0 0 0 127 0" result="hardAlpha"/>
<feOffset dy="0.5"/>
<feGaussianBlur stdDeviation="0.5"/>
<feComposite in2="hardAlpha" operator="arithmetic" k2="-1" k3="1"/>
<feColorMatrix type="matrix" values="0 0 0 0 0.342674 0 0 0 0 0.352133 0 0 0 0 0.579167 0 0 0 0.1 0"/>
<feBlend mode="darken" in2="shape" result="effect2_innerShadow_79_3287"/>
</filter>
<filter id="filter7_bi_79_3287" x="-18.4611" y="-7.771" width="84.9222" height="53.1064" filterUnits="userSpaceOnUse" color-interpolation-filters="sRGB">
<feFlood flood-opacity="0" result="BackgroundImageFix"/>
<feGaussianBlur in="BackgroundImageFix" stdDeviation="10"/>
<feComposite in2="SourceAlpha" operator="in" result="effect1_backgroundBlur_79_3287"/>
<feBlend mode="normal" in="SourceGraphic" in2="effect1_backgroundBlur_79_3287" result="shape"/>
<feColorMatrix in="SourceAlpha" type="matrix" values="0 0 0 0 0 0 0 0 0 0 0 0 0 0 0 0 0 0 127 0" result="hardAlpha"/>
<feOffset dy="-0.5"/>
<feGaussianBlur stdDeviation="0.5"/>
<feComposite in2="hardAlpha" operator="arithmetic" k2="-1" k3="1"/>
<feColorMatrix type="matrix" values="0 0 0 0 0.341176 0 0 0 0 0.352941 0 0 0 0 0.580392 0 0 0 0.25 0"/>
<feBlend mode="darken" in2="shape" result="effect2_innerShadow_79_3287"/>
</filter>
<filter id="filter8_f_79_3287" x="0.610229" y="11.4482" width="46.8407" height="13.5098" filterUnits="userSpaceOnUse" color-interpolation-filters="sRGB">
<feFlood flood-opacity="0" result="BackgroundImageFix"/>
<feBlend mode="normal" in="SourceGraphic" in2="BackgroundImageFix" result="shape"/>
<feGaussianBlur stdDeviation="0.5" result="effect1_foregroundBlur_79_3287"/>
</filter>
<linearGradient id="paint0_linear_79_3287" x1="1.53894" y1="33.9467" x2="46.4611" y2="33.9467" gradientUnits="userSpaceOnUse">
<stop stop-color="#662D87"/>
<stop offset="1" stop-color="#A8CBF0"/>
</linearGradient>
<radialGradient id="paint1_radial_79_3287" cx="0" cy="0" r="1" gradientUnits="userSpaceOnUse" gradientTransform="translate(8.47226 27.3937) scale(28.9853)">
<stop stop-color="#662D87"/>
<stop offset="1" stop-color="#A8CBF0"/>
</radialGradient>
<linearGradient id="paint2_linear_79_3287" x1="1.61023" y1="27.6128" x2="46.4509" y2="27.6128" gradientUnits="userSpaceOnUse">
<stop stop-color="white" stop-opacity="0.24"/>
<stop offset="0.130208" stop-color="white" stop-opacity="0.865636"/>
<stop offset="0.489583" stop-color="white" stop-opacity="0.494792"/>
<stop offset="1" stop-color="white" stop-opacity="0"/>
</linearGradient>
<linearGradient id="paint3_linear_79_3287" x1="1.61023" y1="20.0308" x2="46.4509" y2="20.0308" gradientUnits="userSpaceOnUse">
<stop stop-color="white" stop-opacity="0.24"/>
<stop offset="0.130208" stop-color="white" stop-opacity="0.865636"/>
<stop offset="0.489583" stop-color="white" stop-opacity="0.494792"/>
<stop offset="1" stop-color="white" stop-opacity="0"/>
</linearGradient>
<linearGradient id="paint4_linear_79_3287" x1="1.6102" y1="12.4482" x2="46.4509" y2="12.4482" gradientUnits="userSpaceOnUse">
<stop stop-color="white" stop-opacity="0.24"/>
<stop offset="0.130208" stop-color="white" stop-opacity="0.865636"/>
<stop offset="0.489583" stop-color="white" stop-opacity="0.494792"/>
<stop offset="1" stop-color="white" stop-opacity="0"/>
</linearGradient>
</defs>
</svg>
