<svg width="67" height="58" viewBox="0 0 67 58" fill="none" xmlns="http://www.w3.org/2000/svg">
<path d="M17.9809 0C16.9455 0 16.1035 0.842838 16.1035 1.87927C16.1035 2.9157 16.9455 3.75854 17.9809 3.75854C19.0162 3.75854 19.8582 2.9157 19.8582 1.87927C19.8582 0.842838 19.0162 0 17.9809 0Z" fill="white"/>
<path d="M48.3246 3.75854C49.3614 3.75854 50.2019 2.91716 50.2019 1.87927C50.2019 0.841377 49.3614 0 48.3246 0C47.2878 0 46.4473 0.841377 46.4473 1.87927C46.4473 2.91716 47.2878 3.75854 48.3246 3.75854Z" fill="white"/>
<path d="M17.9809 18.0796C16.9455 18.0796 16.1035 18.9224 16.1035 19.9589C16.1035 20.9953 16.9455 21.8381 17.9809 21.8381C19.0162 21.8381 19.8582 20.9953 19.8582 19.9589C19.8582 18.9224 19.0162 18.0796 17.9809 18.0796Z" fill="white"/>
<path d="M48.3246 21.8381C49.3614 21.8381 50.2019 20.9968 50.2019 19.9589C50.2019 18.921 49.3614 18.0796 48.3246 18.0796C47.2878 18.0796 46.4473 18.921 46.4473 19.9589C46.4473 20.9968 47.2878 21.8381 48.3246 21.8381Z" fill="white"/>
<path d="M17.9809 36.1619C16.9455 36.1619 16.1035 37.0047 16.1035 38.0411C16.1035 39.0776 16.9455 39.9204 17.9809 39.9204C19.0162 39.9204 19.8582 39.0776 19.8582 38.0411C19.8582 37.0047 19.0162 36.1619 17.9809 36.1619Z" fill="white"/>
<path d="M48.3246 39.9204C49.3614 39.9204 50.2019 39.079 50.2019 38.0411C50.2019 37.0032 49.3614 36.1619 48.3246 36.1619C47.2878 36.1619 46.4473 37.0032 46.4473 38.0411C46.4473 39.079 47.2878 39.9204 48.3246 39.9204Z" fill="white"/>
<path d="M64.308 31.2983C65.3448 31.2983 66.1853 30.457 66.1853 29.4191C66.1853 28.3812 65.3448 27.5398 64.308 27.5398C63.2712 27.5398 62.4307 28.3812 62.4307 29.4191C62.4307 30.457 63.2712 31.2983 64.308 31.2983Z" fill="white"/>
<path d="M33.1856 27.0864C31.9003 27.0864 30.8555 28.1323 30.8555 29.419C30.8555 30.7057 31.9003 31.7515 33.1856 31.7515C34.471 31.7515 35.5158 30.7057 35.5158 29.419C35.5158 28.1323 34.471 27.0864 33.1856 27.0864Z" fill="white"/>
<path d="M43.636 31.5251C44.7978 31.5251 45.7397 30.5822 45.7397 29.4191C45.7397 28.2561 44.7978 27.3132 43.636 27.3132C42.4741 27.3132 41.5322 28.2561 41.5322 29.4191C41.5322 30.5822 42.4741 31.5251 43.636 31.5251Z" fill="white"/>
<path d="M22.7571 31.5251C23.9189 31.5251 24.8608 30.5822 24.8608 29.4191C24.8608 28.2561 23.9189 27.3132 22.7571 27.3132C21.5952 27.3132 20.6533 28.2561 20.6533 29.4191C20.6533 30.5822 21.5952 31.5251 22.7571 31.5251Z" fill="white"/>
<path d="M33.1862 13.2917C34.264 13.2917 35.139 12.4158 35.139 11.3369C35.139 10.258 34.264 9.38208 33.1862 9.38208C32.1084 9.38208 31.2334 10.258 31.2334 11.3369C31.2334 12.4158 32.1084 13.2917 33.1862 13.2917Z" fill="white"/>
<path d="M33.2477 45.5486C32.1699 45.5486 31.2949 46.4245 31.2949 47.5034C31.2949 48.5823 32.1699 49.4582 33.2477 49.4582C34.3255 49.4582 35.2005 48.5823 35.2005 47.5034C35.2005 46.4245 34.3255 45.5486 33.2477 45.5486Z" fill="white"/>
<path d="M38.5676 35.9634C37.4073 35.9634 36.4639 36.9077 36.4639 38.0693C36.4639 39.2309 37.4073 40.1752 38.5676 40.1752C39.728 40.1752 40.6714 39.2309 40.6714 38.0693C40.6714 36.9077 39.728 35.9634 38.5676 35.9634Z" fill="white"/>
<path d="M28.2756 35.9634C27.1153 35.9634 26.1719 36.9077 26.1719 38.0693C26.1719 39.2309 27.1153 40.1752 28.2756 40.1752C29.436 40.1752 30.3794 39.2309 30.3794 38.0693C30.3794 36.9077 29.436 35.9634 28.2756 35.9634Z" fill="white"/>
<path d="M38.5676 17.853C37.4073 17.853 36.4639 18.7974 36.4639 19.9589C36.4639 21.1205 37.4073 22.0649 38.5676 22.0649C39.728 22.0649 40.6714 21.1205 40.6714 19.9589C40.6714 18.7974 39.728 17.853 38.5676 17.853Z" fill="white"/>
<path d="M28.2756 17.853C27.1153 17.853 26.1719 18.7974 26.1719 19.9589C26.1719 21.1205 27.1153 22.0649 28.2756 22.0649C29.436 22.0649 30.3794 21.1205 30.3794 19.9589C30.3794 18.7974 29.436 17.853 28.2756 17.853Z" fill="white"/>
<path d="M1.87734 27.5398C0.841971 27.5398 0 28.3826 0 29.4191C0 30.4555 0.841971 31.2983 1.87734 31.2983C2.9127 31.2983 3.75467 30.4555 3.75467 29.4191C3.75467 28.3826 2.9127 27.5398 1.87734 27.5398Z" fill="white"/>
<path d="M17.9809 54.2415C16.9455 54.2415 16.1035 55.0843 16.1035 56.1207C16.1035 57.1572 16.9455 58 17.9809 58C19.0162 58 19.8582 57.1572 19.8582 56.1207C19.8582 55.0843 19.0162 54.2415 17.9809 54.2415Z" fill="white"/>
<path d="M48.3246 58C49.3614 58 50.2019 57.1586 50.2019 56.1207C50.2019 55.0828 49.3614 54.2415 48.3246 54.2415C47.2878 54.2415 46.4473 55.0828 46.4473 56.1207C46.4473 57.1586 47.2878 58 48.3246 58Z" fill="white"/>
</svg>
