<svg width="20" height="16" viewBox="0 0 20 16" fill="none" xmlns="http://www.w3.org/2000/svg">
<path d="M16.6098 1.66704C18.7294 4.82513 19.7838 8.36372 19.4339 12.4288C17.9338 13.5054 16.4782 14.1941 15.0405 14.6674C14.8373 14.3701 14.6458 14.064 14.4675 13.7493C14.8714 13.5757 15.262 13.3789 15.6418 13.1569C15.9983 12.9487 16.0105 12.4534 15.6937 12.2176L15.6936 12.2175C15.5952 12.1444 15.4969 12.067 15.4026 11.9892L15.4026 11.9892L15.3963 11.9841C15.2354 11.8558 15.008 11.8199 14.8073 11.9142C11.7072 13.3458 8.31692 13.3465 5.17561 11.9123L5.17203 11.9107C4.98022 11.8249 4.75119 11.852 4.5835 11.9915L4.84216 12.3024L4.71292 12.5278C4.67327 12.5585 4.63337 12.5888 4.59347 12.6187M16.6098 1.66704L15.0169 12.3626C14.999 12.3728 14.9811 12.3828 14.9631 12.3929C11.7707 13.8492 8.28115 13.853 5.04976 12.4042C5.02344 12.3897 4.99716 12.3752 4.97093 12.3606C4.97092 12.3606 4.9709 12.3606 4.97089 12.3606C4.92997 12.3377 4.88918 12.3147 4.84849 12.2913L4.84238 12.302L4.58524 11.9901C4.49215 12.0668 4.3935 12.1438 4.29364 12.2186M16.6098 1.66704C15.4985 1.16745 14.3164 0.788242 13.0843 0.550331C12.9625 0.788481 12.8409 1.04973 12.7477 1.26889L12.5962 1.62498L12.2135 1.56769C10.7249 1.34482 9.24595 1.34505 7.79081 1.56746L7.40399 1.62658L7.25365 1.26531C7.16272 1.04681 7.03835 0.788693 6.91296 0.549761C5.68057 0.787065 4.49753 1.1665 3.38477 1.66715C0.960495 5.3353 0.26984 8.9005 0.563314 12.4293C2.06364 13.5059 3.51934 14.1947 4.95129 14.668M16.6098 1.66704L4.59977 12.7251C4.56037 12.7021 4.55721 12.6457 4.59347 12.6187M4.59347 12.6187L4.29491 12.2176C4.29449 12.218 4.29406 12.2183 4.29364 12.2186M4.59347 12.6187L4.29364 12.2186M4.29364 12.2186C3.96889 12.4617 4.00171 12.9548 4.34763 13.1569L4.35106 13.1588C4.72903 13.3756 5.11962 13.5744 5.52521 13.7503C5.34884 14.065 5.15712 14.3709 4.95129 14.668M13.8288 13.4679C14.2315 13.3159 14.6196 13.1418 14.996 12.9437C15.0294 12.9693 15.063 12.9948 15.0968 13.0199L15.2611 12.799C15.3041 12.7747 15.347 12.75 15.3897 12.7251C15.4291 12.7021 15.4314 12.6457 15.3952 12.6187C15.3545 12.5884 15.3138 12.5575 15.2736 12.5263C15.2735 12.5263 15.2734 12.5262 15.2734 12.5261C15.2093 12.4764 15.146 12.4257 15.0846 12.3751C15.0739 12.3666 15.0613 12.3619 15.0485 12.3612C15.0742 12.3359 15.1039 12.313 15.1375 12.2933L15.1373 12.2934C15.0974 12.3168 15.0573 12.3398 15.017 12.3626L0.0826501 12.6703C-0.265792 8.93875 0.444493 5.16033 3.03732 1.28669C3.04361 1.27638 3.05307 1.26844 3.06411 1.26368C4.33963 0.677987 5.70659 0.247058 7.13504 0.00103534M13.8288 13.4679C13.7933 13.4814 13.7775 13.5227 13.7949 13.5568M13.8288 13.4679L13.8513 13.5276M13.8288 13.4679L13.8515 13.5276L13.8513 13.5276M13.7949 13.5568C14.0952 14.1385 14.4381 14.6924 14.8157 15.2178C14.8315 15.24 14.8599 15.2496 14.8859 15.2416M13.7949 13.5568L13.8513 13.5276M13.7949 13.5568L13.8514 13.528L13.8513 13.5276M14.8859 15.2416C16.5201 14.7361 18.1772 13.9734 19.8879 12.7171C19.9028 12.706 19.9123 12.6894 19.9139 12.6711C20.3309 8.357 19.2154 4.60956 16.9568 1.28748C16.9513 1.27638 16.9419 1.26844 16.9308 1.26368C15.6561 0.678776 14.2892 0.247847 12.8599 0.00103534C12.8339 -0.00372804 12.8079 0.00817591 12.7945 0.0319844C12.6187 0.344664 12.4239 0.752579 12.2876 1.0732C10.7503 0.843058 9.22099 0.843058 7.71527 1.0732C7.57887 0.745452 7.37707 0.344664 7.20048 0.0319844M14.8859 15.2416L14.8675 15.1811L14.8673 15.1807L14.74 14.7634C14.917 14.7094 15.1114 14.7727 15.2218 14.926M14.8859 15.2416L15.2218 14.926M7.20048 0.0319844C7.18707 0.00897027 7.16107 -0.00293367 7.13504 0.00103534M7.20048 0.0319844L7.1457 0.0629216L7.13504 0.00103534M7.20048 0.0319844L7.14585 0.0638107L7.14458 0.0635569L7.13504 0.00103534M4.95129 14.668C4.89186 14.7538 4.83125 14.8389 4.7695 14.9232L5.12129 15.1808L5.12209 15.1793L5.25115 14.7642C5.15131 14.7331 5.05135 14.7011 4.95129 14.668ZM15.2218 14.926L15.2235 14.9284L15.2235 14.9284L15.2218 14.926ZM15.0966 13.0198C15.0635 12.9951 15.0349 12.9667 15.0111 12.9357C15.0706 12.9042 15.1299 12.8721 15.1888 12.8394C15.2022 12.8333 15.2155 12.8272 15.2288 12.821L15.2289 12.8211L15.237 12.8172C15.2343 12.8185 15.2316 12.8198 15.2288 12.821C15.2196 12.8253 15.2103 12.8292 15.2009 12.8327C15.2097 12.8278 15.2186 12.8229 15.2274 12.8179C15.23 12.8165 15.2326 12.815 15.2353 12.8135C15.2438 12.8087 15.2524 12.8039 15.2609 12.7991L15.0966 13.0198ZM7.14472 0.0644738L7.21042 0.495322C7.03973 0.521349 6.86147 0.443344 6.76846 0.283693L7.14472 0.0644738ZM0.580807 12.6273L0.580484 12.6238L0.580807 12.6273ZM5.24869 14.7634L5.12181 15.1791L4.77725 14.9129C4.88132 14.7782 5.06593 14.7076 5.24869 14.7634ZM4.89202 13.0198L4.89329 13.0189L4.89202 13.0198ZM13.8516 13.5279L14.2405 13.3301C14.3562 13.5575 14.2525 13.8417 14.0066 13.9352L13.8516 13.5279ZM4.38594 8.38241C4.38594 9.71518 5.37031 10.8982 6.68335 10.8982C8.01361 10.8982 8.97902 9.71428 8.98073 8.38595C8.99795 7.05589 8.01813 5.86664 6.68335 5.86664C5.35189 5.86664 4.38594 7.05264 4.38594 8.38241ZM11.0316 8.38241C11.0316 9.71517 12.0159 10.8982 13.329 10.8982C14.6684 10.8982 15.6246 9.71282 15.6264 8.386C15.6436 7.05593 14.6638 5.86664 13.329 5.86664C11.9975 5.86664 11.0316 7.05265 11.0316 8.38241Z" stroke="white"/>
</svg>
