<svg width="502" height="472" viewBox="0 0 502 472" fill="none" xmlns="http://www.w3.org/2000/svg">
<g filter="url(#filter0_i_28_1396)">
<path d="M500.996 420.204V437.714C500.996 455.081 483.141 471.249 457.553 471.249H44.4446C18.2573 471.249 1.01707 454.196 1.01709 436.495L1.01742 420.567L500.996 420.204Z" fill="url(#paint0_linear_28_1396)"/>
</g>
<g filter="url(#filter1_i_28_1396)">
<path d="M216.625 191.781C233.984 174.262 268.015 174.262 285.374 191.781L491.928 400.239C513.861 422.374 493.531 454.419 457.553 454.419H44.445C8.46767 454.419 -11.8629 422.374 10.0706 400.239L216.625 191.781Z" fill="url(#paint1_radial_28_1396)"/>
</g>
<g filter="url(#filter2_f_28_1396)">
<path d="M1.08617 418.511C-0.40894 436.699 17.692 454.418 44.4449 454.418H457.553C484.306 454.418 502.407 436.699 500.912 418.511C499.553 435.129 482.235 451.284 457.553 451.284H44.4449C19.763 451.284 2.44547 435.129 1.08617 418.511Z" fill="url(#paint2_linear_28_1396)"/>
</g>
<g filter="url(#filter3_bi_28_1396)">
<path d="M1.0174 332.86L1.01709 347.792C1.01707 365.494 18.2573 382.546 44.4446 382.546H457.553C483.141 382.546 500.996 366.378 500.996 349.011V332.212C500.794 349.526 483.126 365.716 457.553 365.716H44.4449C19.1913 365.716 1.64694 349.928 1.0174 332.86Z" fill="#E4E8F3" fill-opacity="0.4"/>
<path d="M500.996 331.501V331.61C500.996 331.573 500.997 331.537 500.996 331.501Z" fill="#E4E8F3" fill-opacity="0.4"/>
</g>
<g filter="url(#filter4_bi_28_1396)">
<path d="M216.625 103.079C233.984 85.5598 268.015 85.5597 285.374 103.079L491.928 311.536C513.861 333.672 493.531 365.716 457.553 365.716H44.445C8.46767 365.716 -11.8629 333.672 10.0706 311.536L216.625 103.079Z" fill="#E4E8F3" fill-opacity="0.4"/>
</g>
<g filter="url(#filter5_f_28_1396)">
<path d="M1.08617 329.809C-0.40894 347.997 17.692 365.716 44.4449 365.716H457.553C484.306 365.716 502.407 347.997 500.912 329.809C499.553 346.426 482.235 362.581 457.553 362.581H44.4449C19.763 362.581 2.44547 346.426 1.08617 329.809Z" fill="url(#paint3_linear_28_1396)"/>
</g>
<g filter="url(#filter6_bi_28_1396)">
<path d="M1.0174 243.525L1.01709 258.458C1.01707 276.159 18.2573 293.212 44.4446 293.212H457.553C483.141 293.212 500.996 277.044 500.996 259.677V242.877C500.794 260.191 483.126 276.382 457.553 276.382H44.4449C19.1913 276.382 1.64694 260.593 1.0174 243.525Z" fill="#E4E8F3" fill-opacity="0.4"/>
<path d="M500.996 242.167V242.275C500.996 242.239 500.997 242.203 500.996 242.167Z" fill="#E4E8F3" fill-opacity="0.4"/>
</g>
<g filter="url(#filter7_bi_28_1396)">
<path d="M216.625 13.7442C233.984 -3.77472 268.015 -3.77478 285.374 13.7441L491.928 222.203C513.861 244.338 493.531 276.383 457.553 276.383H44.445C8.46767 276.383 -11.8629 244.338 10.0706 222.203L216.625 13.7442Z" fill="#E4E8F3" fill-opacity="0.4"/>
</g>
<g filter="url(#filter8_f_28_1396)">
<path d="M1.08617 240.477C-0.40894 258.665 17.692 276.384 44.4449 276.384H457.553C484.306 276.384 502.407 258.665 500.912 240.477C499.553 257.095 482.235 273.25 457.553 273.25H44.4449C19.763 273.25 2.44547 257.095 1.08617 240.477Z" fill="url(#paint4_linear_28_1396)"/>
</g>
<defs>
<filter id="filter0_i_28_1396" x="1.01709" y="419.704" width="499.979" height="51.5449" filterUnits="userSpaceOnUse" color-interpolation-filters="sRGB">
<feFlood flood-opacity="0" result="BackgroundImageFix"/>
<feBlend mode="normal" in="SourceGraphic" in2="BackgroundImageFix" result="shape"/>
<feColorMatrix in="SourceAlpha" type="matrix" values="0 0 0 0 0 0 0 0 0 0 0 0 0 0 0 0 0 0 127 0" result="hardAlpha"/>
<feOffset dy="-0.5"/>
<feGaussianBlur stdDeviation="0.5"/>
<feComposite in2="hardAlpha" operator="arithmetic" k2="-1" k3="1"/>
<feColorMatrix type="matrix" values="0 0 0 0 0 0 0 0 0 0 0 0 0 0 0 0 0 0 0.15 0"/>
<feBlend mode="darken" in2="shape" result="effect1_innerShadow_28_1396"/>
</filter>
<filter id="filter1_i_28_1396" x="1" y="178.642" width="499.999" height="276.277" filterUnits="userSpaceOnUse" color-interpolation-filters="sRGB">
<feFlood flood-opacity="0" result="BackgroundImageFix"/>
<feBlend mode="normal" in="SourceGraphic" in2="BackgroundImageFix" result="shape"/>
<feColorMatrix in="SourceAlpha" type="matrix" values="0 0 0 0 0 0 0 0 0 0 0 0 0 0 0 0 0 0 127 0" result="hardAlpha"/>
<feOffset dy="0.5"/>
<feGaussianBlur stdDeviation="0.5"/>
<feComposite in2="hardAlpha" operator="arithmetic" k2="-1" k3="1"/>
<feColorMatrix type="matrix" values="0 0 0 0 0 0 0 0 0 0 0 0 0 0 0 0 0 0 0.1 0"/>
<feBlend mode="darken" in2="shape" result="effect1_innerShadow_28_1396"/>
</filter>
<filter id="filter2_f_28_1396" x="0" y="417.511" width="501.999" height="37.9065" filterUnits="userSpaceOnUse" color-interpolation-filters="sRGB">
<feFlood flood-opacity="0" result="BackgroundImageFix"/>
<feBlend mode="normal" in="SourceGraphic" in2="BackgroundImageFix" result="shape"/>
<feGaussianBlur stdDeviation="0.5" result="effect1_foregroundBlur_28_1396"/>
</filter>
<filter id="filter3_bi_28_1396" x="-18.9829" y="311.501" width="539.979" height="91.0449" filterUnits="userSpaceOnUse" color-interpolation-filters="sRGB">
<feFlood flood-opacity="0" result="BackgroundImageFix"/>
<feGaussianBlur in="BackgroundImageFix" stdDeviation="10"/>
<feComposite in2="SourceAlpha" operator="in" result="effect1_backgroundBlur_28_1396"/>
<feBlend mode="normal" in="SourceGraphic" in2="effect1_backgroundBlur_28_1396" result="shape"/>
<feColorMatrix in="SourceAlpha" type="matrix" values="0 0 0 0 0 0 0 0 0 0 0 0 0 0 0 0 0 0 127 0" result="hardAlpha"/>
<feOffset dy="-0.5"/>
<feGaussianBlur stdDeviation="0.5"/>
<feComposite in2="hardAlpha" operator="arithmetic" k2="-1" k3="1"/>
<feColorMatrix type="matrix" values="0 0 0 0 0.341176 0 0 0 0 0.352941 0 0 0 0 0.580392 0 0 0 0.25 0"/>
<feBlend mode="darken" in2="shape" result="effect2_innerShadow_28_1396"/>
</filter>
<filter id="filter4_bi_28_1396" x="-19" y="69.9395" width="539.999" height="315.777" filterUnits="userSpaceOnUse" color-interpolation-filters="sRGB">
<feFlood flood-opacity="0" result="BackgroundImageFix"/>
<feGaussianBlur in="BackgroundImageFix" stdDeviation="10"/>
<feComposite in2="SourceAlpha" operator="in" result="effect1_backgroundBlur_28_1396"/>
<feBlend mode="normal" in="SourceGraphic" in2="effect1_backgroundBlur_28_1396" result="shape"/>
<feColorMatrix in="SourceAlpha" type="matrix" values="0 0 0 0 0 0 0 0 0 0 0 0 0 0 0 0 0 0 127 0" result="hardAlpha"/>
<feOffset dy="0.5"/>
<feGaussianBlur stdDeviation="0.5"/>
<feComposite in2="hardAlpha" operator="arithmetic" k2="-1" k3="1"/>
<feColorMatrix type="matrix" values="0 0 0 0 0.342674 0 0 0 0 0.352133 0 0 0 0 0.579167 0 0 0 0.1 0"/>
<feBlend mode="darken" in2="shape" result="effect2_innerShadow_28_1396"/>
</filter>
<filter id="filter5_f_28_1396" x="0" y="328.809" width="501.999" height="37.9065" filterUnits="userSpaceOnUse" color-interpolation-filters="sRGB">
<feFlood flood-opacity="0" result="BackgroundImageFix"/>
<feBlend mode="normal" in="SourceGraphic" in2="BackgroundImageFix" result="shape"/>
<feGaussianBlur stdDeviation="0.5" result="effect1_foregroundBlur_28_1396"/>
</filter>
<filter id="filter6_bi_28_1396" x="-18.9829" y="222.167" width="539.979" height="91.0452" filterUnits="userSpaceOnUse" color-interpolation-filters="sRGB">
<feFlood flood-opacity="0" result="BackgroundImageFix"/>
<feGaussianBlur in="BackgroundImageFix" stdDeviation="10"/>
<feComposite in2="SourceAlpha" operator="in" result="effect1_backgroundBlur_28_1396"/>
<feBlend mode="normal" in="SourceGraphic" in2="effect1_backgroundBlur_28_1396" result="shape"/>
<feColorMatrix in="SourceAlpha" type="matrix" values="0 0 0 0 0 0 0 0 0 0 0 0 0 0 0 0 0 0 127 0" result="hardAlpha"/>
<feOffset dy="-0.5"/>
<feGaussianBlur stdDeviation="0.5"/>
<feComposite in2="hardAlpha" operator="arithmetic" k2="-1" k3="1"/>
<feColorMatrix type="matrix" values="0 0 0 0 0.341176 0 0 0 0 0.352941 0 0 0 0 0.580392 0 0 0 0.25 0"/>
<feBlend mode="darken" in2="shape" result="effect2_innerShadow_28_1396"/>
</filter>
<filter id="filter7_bi_28_1396" x="-19" y="-19.395" width="539.999" height="315.778" filterUnits="userSpaceOnUse" color-interpolation-filters="sRGB">
<feFlood flood-opacity="0" result="BackgroundImageFix"/>
<feGaussianBlur in="BackgroundImageFix" stdDeviation="10"/>
<feComposite in2="SourceAlpha" operator="in" result="effect1_backgroundBlur_28_1396"/>
<feBlend mode="normal" in="SourceGraphic" in2="effect1_backgroundBlur_28_1396" result="shape"/>
<feColorMatrix in="SourceAlpha" type="matrix" values="0 0 0 0 0 0 0 0 0 0 0 0 0 0 0 0 0 0 127 0" result="hardAlpha"/>
<feOffset dy="0.5"/>
<feGaussianBlur stdDeviation="0.5"/>
<feComposite in2="hardAlpha" operator="arithmetic" k2="-1" k3="1"/>
<feColorMatrix type="matrix" values="0 0 0 0 0.342674 0 0 0 0 0.352133 0 0 0 0 0.579167 0 0 0 0.1 0"/>
<feBlend mode="darken" in2="shape" result="effect2_innerShadow_28_1396"/>
</filter>
<filter id="filter8_f_28_1396" x="0" y="239.477" width="501.999" height="37.9067" filterUnits="userSpaceOnUse" color-interpolation-filters="sRGB">
<feFlood flood-opacity="0" result="BackgroundImageFix"/>
<feBlend mode="normal" in="SourceGraphic" in2="BackgroundImageFix" result="shape"/>
<feGaussianBlur stdDeviation="0.5" result="effect1_foregroundBlur_28_1396"/>
</filter>
<linearGradient id="paint0_linear_28_1396" x1="1.01709" y1="445.726" x2="500.996" y2="445.726" gradientUnits="userSpaceOnUse">
<stop stop-color="#662D87"/>
<stop offset="1" stop-color="#A8CBF0"/>
</linearGradient>
<radialGradient id="paint1_radial_28_1396" cx="0" cy="0" r="1" gradientUnits="userSpaceOnUse" gradientTransform="translate(78.17 316.531) scale(322.615 292.95)">
<stop stop-color="#662D87"/>
<stop offset="1" stop-color="#A8CBF0"/>
</radialGradient>
<linearGradient id="paint2_linear_28_1396" x1="-14.1486" y1="346.593" x2="516.149" y2="346.593" gradientUnits="userSpaceOnUse">
<stop stop-color="white" stop-opacity="0.24"/>
<stop offset="0.130208" stop-color="white" stop-opacity="0.865636"/>
<stop offset="0.489583" stop-color="white" stop-opacity="0.494792"/>
<stop offset="1" stop-color="white" stop-opacity="0"/>
</linearGradient>
<linearGradient id="paint3_linear_28_1396" x1="-14.1486" y1="257.89" x2="516.149" y2="257.89" gradientUnits="userSpaceOnUse">
<stop stop-color="white" stop-opacity="0.24"/>
<stop offset="0.130208" stop-color="white" stop-opacity="0.865636"/>
<stop offset="0.489583" stop-color="white" stop-opacity="0.494792"/>
<stop offset="1" stop-color="white" stop-opacity="0"/>
</linearGradient>
<linearGradient id="paint4_linear_28_1396" x1="-14.1486" y1="168.558" x2="516.149" y2="168.558" gradientUnits="userSpaceOnUse">
<stop stop-color="white" stop-opacity="0.24"/>
<stop offset="0.130208" stop-color="white" stop-opacity="0.865636"/>
<stop offset="0.489583" stop-color="white" stop-opacity="0.494792"/>
<stop offset="1" stop-color="white" stop-opacity="0"/>
</linearGradient>
</defs>
</svg>
