<svg width="48" height="41" viewBox="0 0 48 41" fill="none" xmlns="http://www.w3.org/2000/svg">
<g filter="url(#filter0_i_1_1595)">
<path d="M27.498 39.6744L45.1896 30.5985C46.0364 30.1751 46.4602 29.3598 46.4613 28.544V27.3938H1.53906V28.544C1.54011 29.3598 1.96399 30.1751 2.8107 30.5985L20.5023 39.6744C22.7043 40.7753 25.2961 40.7753 27.498 39.6744Z" fill="url(#paint0_linear_1_1595)"/>
</g>
<g filter="url(#filter1_i_1_1595)">
<path d="M20.5023 16.4904C22.7043 15.3895 25.2961 15.3895 27.498 16.4904L45.1896 25.3363C46.8852 26.184 46.8852 28.6036 45.1896 29.4514L27.498 38.2972C25.2961 39.3982 22.7043 39.3982 20.5023 38.2972L2.8107 29.4514C1.11518 28.6036 1.11518 26.184 2.8107 25.3363L20.5023 16.4904Z" fill="url(#paint1_radial_1_1595)"/>
</g>
<g filter="url(#filter2_f_1_1595)">
<path d="M27.498 38.2972L45.1896 29.4514C45.9614 29.0655 46.3819 28.3539 46.451 27.6132C45.9441 28.7734 45.7339 28.8434 45.0929 29.2247L27.4432 37.9571C26.9407 38.1822 25.5747 38.7674 23.9121 38.7674C22.2495 38.7674 20.979 38.1822 20.5351 37.9571C14.8655 35.1168 3.35679 29.4984 2.81068 29.2074C2.26456 28.9165 1.78291 28.2605 1.61035 27.9689C1.76357 28.5755 2.16368 29.1279 2.81068 29.4514L20.5023 38.2972C22.7042 39.3982 25.2961 39.3982 27.498 38.2972Z" fill="url(#paint2_linear_1_1595)"/>
</g>
<g filter="url(#filter3_bi_1_1595)">
<path d="M20.5023 8.90804C22.7043 7.80706 25.2961 7.80706 27.498 8.90803L45.1896 17.7538C46.8852 18.6016 46.8852 21.0212 45.1896 21.869L27.498 30.7148C25.2961 31.8157 22.7043 31.8157 20.5023 30.7148L2.8107 21.869C1.11518 21.0212 1.11518 18.6016 2.8107 17.7538L20.5023 8.90804Z" fill="#E4E8F3" fill-opacity="0.4"/>
</g>
<g filter="url(#filter4_bi_1_1595)">
<path d="M1.53906 19.8113V20.9615C1.54011 21.7773 1.96399 22.5927 2.8107 23.016L20.5023 32.0919C22.7043 33.1929 25.2961 33.1929 27.498 32.0919L45.1896 23.016C46.0364 22.5927 46.4602 21.7773 46.4613 20.9615V19.8163C46.4596 20.6315 46.0357 21.4458 45.1896 21.8689L27.498 30.7147C25.2961 31.8156 22.7043 31.8156 20.5023 30.7147L2.8107 21.8689C1.96294 21.445 1.53906 20.6281 1.53906 19.8113Z" fill="#E4E8F3" fill-opacity="0.4"/>
</g>
<g filter="url(#filter5_f_1_1595)">
<path d="M27.498 30.7147L45.1896 21.8689C45.9614 21.483 46.3819 20.7715 46.451 20.0307C45.9441 21.1909 45.7339 21.261 45.0929 21.6423L27.4432 30.3746C26.9407 30.5998 25.5747 31.1849 23.9121 31.1849C22.2495 31.1849 20.979 30.5998 20.5351 30.3746C14.8655 27.5344 3.35679 21.9159 2.81068 21.625C2.26456 21.334 1.78291 20.6781 1.61035 20.3865C1.76357 20.9931 2.16368 21.5454 2.81068 21.8689L20.5023 30.7147C22.7042 31.8157 25.2961 31.8157 27.498 30.7147Z" fill="url(#paint3_linear_1_1595)"/>
</g>
<g filter="url(#filter6_bi_1_1595)">
<path d="M20.5023 1.32573C22.7043 0.224758 25.2961 0.224756 27.498 1.32573L45.1896 10.1715C46.8852 11.0193 46.8852 13.4389 45.1896 14.2867L27.498 23.1325C25.2961 24.2334 22.7043 24.2334 20.5023 23.1325L2.8107 14.2867C1.11518 13.4389 1.11518 11.0193 2.8107 10.1715L20.5023 1.32573Z" fill="#E4E8F3" fill-opacity="0.4"/>
</g>
<g filter="url(#filter7_bi_1_1595)">
<path d="M1.53906 12.2292V13.3794C1.54011 14.1952 1.96399 15.0106 2.8107 15.4339L20.5023 24.5098C22.7043 25.6107 25.2961 25.6107 27.498 24.5098L45.1896 15.4339C46.0364 15.0106 46.4602 14.1952 46.4613 13.3794V12.2342C46.4596 13.0493 46.0357 13.8637 45.1896 14.2867L27.498 23.1325C25.2961 24.2335 22.7043 24.2335 20.5023 23.1325L2.8107 14.2867C1.96294 13.8628 1.53906 13.046 1.53906 12.2292Z" fill="#E4E8F3" fill-opacity="0.4"/>
</g>
<g filter="url(#filter8_f_1_1595)">
<path d="M27.498 23.1324L45.1896 14.2866C45.9614 13.9007 46.3819 13.1892 46.451 12.4484C45.9441 13.6086 45.7339 13.6787 45.0929 14.06L27.4432 22.7923C26.9407 23.0175 25.5747 23.6026 23.9121 23.6026C22.2495 23.6026 20.979 23.0175 20.5351 22.7923C14.8655 19.9521 3.35679 14.3336 2.81068 14.0427C2.26456 13.7517 1.78291 13.0958 1.61035 12.8042C1.76357 13.4108 2.16368 13.9631 2.81068 14.2866L20.5023 23.1324C22.7042 24.2334 25.2961 24.2334 27.498 23.1324Z" fill="url(#paint4_linear_1_1595)"/>
</g>
<defs>
<filter id="filter0_i_1_1595" x="1.53906" y="26.8938" width="44.9224" height="13.6063" filterUnits="userSpaceOnUse" color-interpolation-filters="sRGB">
<feFlood flood-opacity="0" result="BackgroundImageFix"/>
<feBlend mode="normal" in="SourceGraphic" in2="BackgroundImageFix" result="shape"/>
<feColorMatrix in="SourceAlpha" type="matrix" values="0 0 0 0 0 0 0 0 0 0 0 0 0 0 0 0 0 0 127 0" result="hardAlpha"/>
<feOffset dy="-0.5"/>
<feGaussianBlur stdDeviation="0.5"/>
<feComposite in2="hardAlpha" operator="arithmetic" k2="-1" k3="1"/>
<feColorMatrix type="matrix" values="0 0 0 0 0 0 0 0 0 0 0 0 0 0 0 0 0 0 0.15 0"/>
<feBlend mode="darken" in2="shape" result="effect1_innerShadow_1_1595"/>
</filter>
<filter id="filter1_i_1_1595" x="1.53906" y="15.6647" width="44.9224" height="23.9582" filterUnits="userSpaceOnUse" color-interpolation-filters="sRGB">
<feFlood flood-opacity="0" result="BackgroundImageFix"/>
<feBlend mode="normal" in="SourceGraphic" in2="BackgroundImageFix" result="shape"/>
<feColorMatrix in="SourceAlpha" type="matrix" values="0 0 0 0 0 0 0 0 0 0 0 0 0 0 0 0 0 0 127 0" result="hardAlpha"/>
<feOffset dy="0.5"/>
<feGaussianBlur stdDeviation="0.5"/>
<feComposite in2="hardAlpha" operator="arithmetic" k2="-1" k3="1"/>
<feColorMatrix type="matrix" values="0 0 0 0 0 0 0 0 0 0 0 0 0 0 0 0 0 0 0.1 0"/>
<feBlend mode="darken" in2="shape" result="effect1_innerShadow_1_1595"/>
</filter>
<filter id="filter2_f_1_1595" x="0.610352" y="26.6132" width="46.8408" height="13.5098" filterUnits="userSpaceOnUse" color-interpolation-filters="sRGB">
<feFlood flood-opacity="0" result="BackgroundImageFix"/>
<feBlend mode="normal" in="SourceGraphic" in2="BackgroundImageFix" result="shape"/>
<feGaussianBlur stdDeviation="0.5" result="effect1_foregroundBlur_1_1595"/>
</filter>
<filter id="filter3_bi_1_1595" x="-18.4609" y="-11.9177" width="84.9224" height="63.4582" filterUnits="userSpaceOnUse" color-interpolation-filters="sRGB">
<feFlood flood-opacity="0" result="BackgroundImageFix"/>
<feGaussianBlur in="BackgroundImageFix" stdDeviation="10"/>
<feComposite in2="SourceAlpha" operator="in" result="effect1_backgroundBlur_1_1595"/>
<feBlend mode="normal" in="SourceGraphic" in2="effect1_backgroundBlur_1_1595" result="shape"/>
<feColorMatrix in="SourceAlpha" type="matrix" values="0 0 0 0 0 0 0 0 0 0 0 0 0 0 0 0 0 0 127 0" result="hardAlpha"/>
<feOffset dy="0.5"/>
<feGaussianBlur stdDeviation="0.5"/>
<feComposite in2="hardAlpha" operator="arithmetic" k2="-1" k3="1"/>
<feColorMatrix type="matrix" values="0 0 0 0 0.342674 0 0 0 0 0.352133 0 0 0 0 0.579167 0 0 0 0.1 0"/>
<feBlend mode="darken" in2="shape" result="effect2_innerShadow_1_1595"/>
</filter>
<filter id="filter4_bi_1_1595" x="-18.4609" y="-0.18869" width="84.9224" height="53.1063" filterUnits="userSpaceOnUse" color-interpolation-filters="sRGB">
<feFlood flood-opacity="0" result="BackgroundImageFix"/>
<feGaussianBlur in="BackgroundImageFix" stdDeviation="10"/>
<feComposite in2="SourceAlpha" operator="in" result="effect1_backgroundBlur_1_1595"/>
<feBlend mode="normal" in="SourceGraphic" in2="effect1_backgroundBlur_1_1595" result="shape"/>
<feColorMatrix in="SourceAlpha" type="matrix" values="0 0 0 0 0 0 0 0 0 0 0 0 0 0 0 0 0 0 127 0" result="hardAlpha"/>
<feOffset dy="-0.5"/>
<feGaussianBlur stdDeviation="0.5"/>
<feComposite in2="hardAlpha" operator="arithmetic" k2="-1" k3="1"/>
<feColorMatrix type="matrix" values="0 0 0 0 0.341176 0 0 0 0 0.352941 0 0 0 0 0.580392 0 0 0 0.25 0"/>
<feBlend mode="darken" in2="shape" result="effect2_innerShadow_1_1595"/>
</filter>
<filter id="filter5_f_1_1595" x="0.610352" y="19.0307" width="46.8408" height="13.5098" filterUnits="userSpaceOnUse" color-interpolation-filters="sRGB">
<feFlood flood-opacity="0" result="BackgroundImageFix"/>
<feBlend mode="normal" in="SourceGraphic" in2="BackgroundImageFix" result="shape"/>
<feGaussianBlur stdDeviation="0.5" result="effect1_foregroundBlur_1_1595"/>
</filter>
<filter id="filter6_bi_1_1595" x="-18.4609" y="-19.5" width="84.9224" height="63.4582" filterUnits="userSpaceOnUse" color-interpolation-filters="sRGB">
<feFlood flood-opacity="0" result="BackgroundImageFix"/>
<feGaussianBlur in="BackgroundImageFix" stdDeviation="10"/>
<feComposite in2="SourceAlpha" operator="in" result="effect1_backgroundBlur_1_1595"/>
<feBlend mode="normal" in="SourceGraphic" in2="effect1_backgroundBlur_1_1595" result="shape"/>
<feColorMatrix in="SourceAlpha" type="matrix" values="0 0 0 0 0 0 0 0 0 0 0 0 0 0 0 0 0 0 127 0" result="hardAlpha"/>
<feOffset dy="0.5"/>
<feGaussianBlur stdDeviation="0.5"/>
<feComposite in2="hardAlpha" operator="arithmetic" k2="-1" k3="1"/>
<feColorMatrix type="matrix" values="0 0 0 0 0.342674 0 0 0 0 0.352133 0 0 0 0 0.579167 0 0 0 0.1 0"/>
<feBlend mode="darken" in2="shape" result="effect2_innerShadow_1_1595"/>
</filter>
<filter id="filter7_bi_1_1595" x="-18.4609" y="-7.77083" width="84.9224" height="53.1063" filterUnits="userSpaceOnUse" color-interpolation-filters="sRGB">
<feFlood flood-opacity="0" result="BackgroundImageFix"/>
<feGaussianBlur in="BackgroundImageFix" stdDeviation="10"/>
<feComposite in2="SourceAlpha" operator="in" result="effect1_backgroundBlur_1_1595"/>
<feBlend mode="normal" in="SourceGraphic" in2="effect1_backgroundBlur_1_1595" result="shape"/>
<feColorMatrix in="SourceAlpha" type="matrix" values="0 0 0 0 0 0 0 0 0 0 0 0 0 0 0 0 0 0 127 0" result="hardAlpha"/>
<feOffset dy="-0.5"/>
<feGaussianBlur stdDeviation="0.5"/>
<feComposite in2="hardAlpha" operator="arithmetic" k2="-1" k3="1"/>
<feColorMatrix type="matrix" values="0 0 0 0 0.341176 0 0 0 0 0.352941 0 0 0 0 0.580392 0 0 0 0.25 0"/>
<feBlend mode="darken" in2="shape" result="effect2_innerShadow_1_1595"/>
</filter>
<filter id="filter8_f_1_1595" x="0.610352" y="11.4484" width="46.8408" height="13.5098" filterUnits="userSpaceOnUse" color-interpolation-filters="sRGB">
<feFlood flood-opacity="0" result="BackgroundImageFix"/>
<feBlend mode="normal" in="SourceGraphic" in2="BackgroundImageFix" result="shape"/>
<feGaussianBlur stdDeviation="0.5" result="effect1_foregroundBlur_1_1595"/>
</filter>
<linearGradient id="paint0_linear_1_1595" x1="1.53906" y1="33.9469" x2="46.4613" y2="33.9469" gradientUnits="userSpaceOnUse">
<stop stop-color="#662D87"/>
<stop offset="1" stop-color="#A8CBF0"/>
</linearGradient>
<radialGradient id="paint1_radial_1_1595" cx="0" cy="0" r="1" gradientUnits="userSpaceOnUse" gradientTransform="translate(8.47238 27.3938) scale(28.9853)">
<stop stop-color="#662D87"/>
<stop offset="1" stop-color="#A8CBF0"/>
</radialGradient>
<linearGradient id="paint2_linear_1_1595" x1="1.61035" y1="27.6132" x2="46.4511" y2="27.6132" gradientUnits="userSpaceOnUse">
<stop stop-color="white" stop-opacity="0.24"/>
<stop offset="0.130208" stop-color="white" stop-opacity="0.865636"/>
<stop offset="0.489583" stop-color="white" stop-opacity="0.494792"/>
<stop offset="1" stop-color="white" stop-opacity="0"/>
</linearGradient>
<linearGradient id="paint3_linear_1_1595" x1="1.61035" y1="20.0307" x2="46.4511" y2="20.0307" gradientUnits="userSpaceOnUse">
<stop stop-color="white" stop-opacity="0.24"/>
<stop offset="0.130208" stop-color="white" stop-opacity="0.865636"/>
<stop offset="0.489583" stop-color="white" stop-opacity="0.494792"/>
<stop offset="1" stop-color="white" stop-opacity="0"/>
</linearGradient>
<linearGradient id="paint4_linear_1_1595" x1="1.61032" y1="12.4484" x2="46.451" y2="12.4484" gradientUnits="userSpaceOnUse">
<stop stop-color="white" stop-opacity="0.24"/>
<stop offset="0.130208" stop-color="white" stop-opacity="0.865636"/>
<stop offset="0.489583" stop-color="white" stop-opacity="0.494792"/>
<stop offset="1" stop-color="white" stop-opacity="0"/>
</linearGradient>
</defs>
</svg>
