<svg width="502" height="446" viewBox="0 0 502 446" fill="none" xmlns="http://www.w3.org/2000/svg">
<g filter="url(#filter0_i_28_1290)">
<path d="M289.932 436.025L486.846 335.007C496.27 330.295 500.988 321.22 501 312.14V299.337H1V312.14C1.01165 321.22 5.72958 330.295 15.1538 335.007L212.068 436.025C236.576 448.279 265.424 448.279 289.932 436.025Z" fill="url(#paint0_linear_28_1290)"/>
</g>
<g filter="url(#filter1_i_28_1290)">
<path d="M212.068 177.979C236.576 165.725 265.424 165.725 289.932 177.979L486.846 276.436C505.718 285.872 505.718 312.803 486.846 322.239L289.932 420.696C265.424 432.95 236.576 432.95 212.068 420.696L15.1538 322.239C-3.71791 312.803 -3.71794 285.872 15.1538 276.436L212.068 177.979Z" fill="url(#paint1_radial_28_1290)"/>
</g>
<g filter="url(#filter2_f_28_1290)">
<path d="M289.932 420.696L486.846 322.239C495.436 317.944 500.116 310.024 500.886 301.779C495.244 314.692 492.904 315.472 485.77 319.716L289.322 416.91C283.729 419.416 268.525 425.929 250.02 425.929C231.515 425.929 217.373 419.416 212.433 416.91C149.328 385.297 21.232 322.762 15.1535 319.524C9.07499 316.285 3.7141 308.984 1.79346 305.739C3.49885 312.49 7.95219 318.638 15.1535 322.239L212.067 420.696C236.576 432.95 265.424 432.95 289.932 420.696Z" fill="url(#paint2_linear_28_1290)"/>
</g>
<g filter="url(#filter3_bi_28_1290)">
<path d="M212.068 93.584C236.576 81.3298 265.424 81.3298 289.932 93.584L486.846 192.041C505.718 201.477 505.718 228.408 486.846 237.844L289.932 336.301C265.424 348.555 236.576 348.555 212.068 336.301L15.1538 237.844C-3.71791 228.408 -3.71794 201.477 15.1538 192.041L212.068 93.584Z" fill="#E4E8F3" fill-opacity="0.4"/>
</g>
<g filter="url(#filter4_bi_28_1290)">
<path d="M1 214.941V227.744C1.01165 236.824 5.72958 245.899 15.1538 250.611L212.068 351.629C236.576 363.883 265.424 363.883 289.932 351.629L486.846 250.611C496.27 245.899 500.988 236.824 501 227.744V214.997C500.981 224.07 496.263 233.134 486.846 237.843L289.932 336.3C265.424 348.554 236.576 348.554 212.068 336.3L15.1538 237.843C5.71795 233.125 1.00001 224.033 1 214.941Z" fill="#E4E8F3" fill-opacity="0.4"/>
</g>
<g filter="url(#filter5_f_28_1290)">
<path d="M289.932 336.3L486.846 237.843C495.436 233.548 500.116 225.628 500.886 217.384C495.244 230.297 492.904 231.077 485.77 235.321L289.322 332.515C283.729 335.021 268.525 341.534 250.02 341.534C231.515 341.534 217.373 335.021 212.433 332.515C149.328 300.902 21.232 238.367 15.1535 235.128C9.07499 231.89 3.7141 224.589 1.79346 221.343C3.49885 228.095 7.95219 234.243 15.1535 237.844L212.067 336.3C236.576 348.555 265.424 348.555 289.932 336.3Z" fill="url(#paint3_linear_28_1290)"/>
</g>
<g filter="url(#filter6_bi_28_1290)">
<path d="M212.068 9.19066C236.576 -3.06354 265.424 -3.06356 289.932 9.19064L486.846 107.648C505.718 117.083 505.718 144.014 486.846 153.45L289.932 251.907C265.424 264.161 236.576 264.161 212.068 251.907L15.1538 153.45C-3.71791 144.014 -3.71794 117.084 15.1538 107.648L212.068 9.19066Z" fill="#E4E8F3" fill-opacity="0.4"/>
</g>
<g filter="url(#filter7_bi_28_1290)">
<path d="M1 130.55V143.352C1.01165 152.433 5.72957 161.508 15.1538 166.22L212.068 267.237C236.576 279.491 265.424 279.491 289.932 267.237L486.846 166.22C496.27 161.508 500.988 152.433 501 143.352V130.605C500.981 139.679 496.263 148.743 486.846 153.451L289.932 251.908C265.424 264.162 236.576 264.162 212.068 251.908L15.1538 153.451C5.71795 148.733 1.00001 139.642 1 130.55Z" fill="#E4E8F3" fill-opacity="0.4"/>
</g>
<g filter="url(#filter8_f_28_1290)">
<path d="M289.932 251.907L486.846 153.45C495.436 149.155 500.116 141.235 500.886 132.99C495.244 145.904 492.904 146.683 485.77 150.928L289.322 248.122C283.729 250.627 268.525 257.14 250.02 257.14C231.515 257.14 217.373 250.627 212.433 248.122C149.328 216.508 21.232 153.973 15.1535 150.735C9.07499 147.496 3.7141 140.196 1.79346 136.95C3.49885 143.701 7.95219 149.849 15.1535 153.45L212.067 251.907C236.576 264.161 265.424 264.161 289.932 251.907Z" fill="url(#paint4_linear_28_1290)"/>
</g>
<defs>
<filter id="filter0_i_28_1290" x="1" y="298.837" width="500" height="146.378" filterUnits="userSpaceOnUse" color-interpolation-filters="sRGB">
<feFlood flood-opacity="0" result="BackgroundImageFix"/>
<feBlend mode="normal" in="SourceGraphic" in2="BackgroundImageFix" result="shape"/>
<feColorMatrix in="SourceAlpha" type="matrix" values="0 0 0 0 0 0 0 0 0 0 0 0 0 0 0 0 0 0 127 0" result="hardAlpha"/>
<feOffset dy="-0.5"/>
<feGaussianBlur stdDeviation="0.5"/>
<feComposite in2="hardAlpha" operator="arithmetic" k2="-1" k3="1"/>
<feColorMatrix type="matrix" values="0 0 0 0 0 0 0 0 0 0 0 0 0 0 0 0 0 0 0.15 0"/>
<feBlend mode="darken" in2="shape" result="effect1_innerShadow_28_1290"/>
</filter>
<filter id="filter1_i_28_1290" x="1" y="168.789" width="500" height="261.598" filterUnits="userSpaceOnUse" color-interpolation-filters="sRGB">
<feFlood flood-opacity="0" result="BackgroundImageFix"/>
<feBlend mode="normal" in="SourceGraphic" in2="BackgroundImageFix" result="shape"/>
<feColorMatrix in="SourceAlpha" type="matrix" values="0 0 0 0 0 0 0 0 0 0 0 0 0 0 0 0 0 0 127 0" result="hardAlpha"/>
<feOffset dy="0.5"/>
<feGaussianBlur stdDeviation="0.5"/>
<feComposite in2="hardAlpha" operator="arithmetic" k2="-1" k3="1"/>
<feColorMatrix type="matrix" values="0 0 0 0 0 0 0 0 0 0 0 0 0 0 0 0 0 0 0.1 0"/>
<feBlend mode="darken" in2="shape" result="effect1_innerShadow_28_1290"/>
</filter>
<filter id="filter2_f_28_1290" x="0.793457" y="300.779" width="501.093" height="130.108" filterUnits="userSpaceOnUse" color-interpolation-filters="sRGB">
<feFlood flood-opacity="0" result="BackgroundImageFix"/>
<feBlend mode="normal" in="SourceGraphic" in2="BackgroundImageFix" result="shape"/>
<feGaussianBlur stdDeviation="0.5" result="effect1_foregroundBlur_28_1290"/>
</filter>
<filter id="filter3_bi_28_1290" x="-19" y="64.3934" width="540" height="301.098" filterUnits="userSpaceOnUse" color-interpolation-filters="sRGB">
<feFlood flood-opacity="0" result="BackgroundImageFix"/>
<feGaussianBlur in="BackgroundImageFix" stdDeviation="10"/>
<feComposite in2="SourceAlpha" operator="in" result="effect1_backgroundBlur_28_1290"/>
<feBlend mode="normal" in="SourceGraphic" in2="effect1_backgroundBlur_28_1290" result="shape"/>
<feColorMatrix in="SourceAlpha" type="matrix" values="0 0 0 0 0 0 0 0 0 0 0 0 0 0 0 0 0 0 127 0" result="hardAlpha"/>
<feOffset dy="0.5"/>
<feGaussianBlur stdDeviation="0.5"/>
<feComposite in2="hardAlpha" operator="arithmetic" k2="-1" k3="1"/>
<feColorMatrix type="matrix" values="0 0 0 0 0.342674 0 0 0 0 0.352133 0 0 0 0 0.579167 0 0 0 0.1 0"/>
<feBlend mode="darken" in2="shape" result="effect2_innerShadow_28_1290"/>
</filter>
<filter id="filter4_bi_28_1290" x="-19" y="194.941" width="540" height="185.878" filterUnits="userSpaceOnUse" color-interpolation-filters="sRGB">
<feFlood flood-opacity="0" result="BackgroundImageFix"/>
<feGaussianBlur in="BackgroundImageFix" stdDeviation="10"/>
<feComposite in2="SourceAlpha" operator="in" result="effect1_backgroundBlur_28_1290"/>
<feBlend mode="normal" in="SourceGraphic" in2="effect1_backgroundBlur_28_1290" result="shape"/>
<feColorMatrix in="SourceAlpha" type="matrix" values="0 0 0 0 0 0 0 0 0 0 0 0 0 0 0 0 0 0 127 0" result="hardAlpha"/>
<feOffset dy="-0.5"/>
<feGaussianBlur stdDeviation="0.5"/>
<feComposite in2="hardAlpha" operator="arithmetic" k2="-1" k3="1"/>
<feColorMatrix type="matrix" values="0 0 0 0 0.341176 0 0 0 0 0.352941 0 0 0 0 0.580392 0 0 0 0.25 0"/>
<feBlend mode="darken" in2="shape" result="effect2_innerShadow_28_1290"/>
</filter>
<filter id="filter5_f_28_1290" x="0.793457" y="216.384" width="501.093" height="130.108" filterUnits="userSpaceOnUse" color-interpolation-filters="sRGB">
<feFlood flood-opacity="0" result="BackgroundImageFix"/>
<feBlend mode="normal" in="SourceGraphic" in2="BackgroundImageFix" result="shape"/>
<feGaussianBlur stdDeviation="0.5" result="effect1_foregroundBlur_28_1290"/>
</filter>
<filter id="filter6_bi_28_1290" x="-19" y="-20" width="540" height="301.098" filterUnits="userSpaceOnUse" color-interpolation-filters="sRGB">
<feFlood flood-opacity="0" result="BackgroundImageFix"/>
<feGaussianBlur in="BackgroundImageFix" stdDeviation="10"/>
<feComposite in2="SourceAlpha" operator="in" result="effect1_backgroundBlur_28_1290"/>
<feBlend mode="normal" in="SourceGraphic" in2="effect1_backgroundBlur_28_1290" result="shape"/>
<feColorMatrix in="SourceAlpha" type="matrix" values="0 0 0 0 0 0 0 0 0 0 0 0 0 0 0 0 0 0 127 0" result="hardAlpha"/>
<feOffset dy="0.5"/>
<feGaussianBlur stdDeviation="0.5"/>
<feComposite in2="hardAlpha" operator="arithmetic" k2="-1" k3="1"/>
<feColorMatrix type="matrix" values="0 0 0 0 0.342674 0 0 0 0 0.352133 0 0 0 0 0.579167 0 0 0 0.1 0"/>
<feBlend mode="darken" in2="shape" result="effect2_innerShadow_28_1290"/>
</filter>
<filter id="filter7_bi_28_1290" x="-19" y="110.55" width="540" height="185.878" filterUnits="userSpaceOnUse" color-interpolation-filters="sRGB">
<feFlood flood-opacity="0" result="BackgroundImageFix"/>
<feGaussianBlur in="BackgroundImageFix" stdDeviation="10"/>
<feComposite in2="SourceAlpha" operator="in" result="effect1_backgroundBlur_28_1290"/>
<feBlend mode="normal" in="SourceGraphic" in2="effect1_backgroundBlur_28_1290" result="shape"/>
<feColorMatrix in="SourceAlpha" type="matrix" values="0 0 0 0 0 0 0 0 0 0 0 0 0 0 0 0 0 0 127 0" result="hardAlpha"/>
<feOffset dy="-0.5"/>
<feGaussianBlur stdDeviation="0.5"/>
<feComposite in2="hardAlpha" operator="arithmetic" k2="-1" k3="1"/>
<feColorMatrix type="matrix" values="0 0 0 0 0.341176 0 0 0 0 0.352941 0 0 0 0 0.580392 0 0 0 0.25 0"/>
<feBlend mode="darken" in2="shape" result="effect2_innerShadow_28_1290"/>
</filter>
<filter id="filter8_f_28_1290" x="0.793457" y="131.99" width="501.093" height="130.108" filterUnits="userSpaceOnUse" color-interpolation-filters="sRGB">
<feFlood flood-opacity="0" result="BackgroundImageFix"/>
<feBlend mode="normal" in="SourceGraphic" in2="BackgroundImageFix" result="shape"/>
<feGaussianBlur stdDeviation="0.5" result="effect1_foregroundBlur_28_1290"/>
</filter>
<linearGradient id="paint0_linear_28_1290" x1="1" y1="372.276" x2="501" y2="372.276" gradientUnits="userSpaceOnUse">
<stop stop-color="#662D87"/>
<stop offset="1" stop-color="#A8CBF0"/>
</linearGradient>
<radialGradient id="paint1_radial_28_1290" cx="0" cy="0" r="1" gradientUnits="userSpaceOnUse" gradientTransform="translate(78.1703 299.338) scale(322.616 322.616)">
<stop stop-color="#662D87"/>
<stop offset="1" stop-color="#A8CBF0"/>
</radialGradient>
<linearGradient id="paint2_linear_28_1290" x1="1.79346" y1="301.779" x2="500.886" y2="301.779" gradientUnits="userSpaceOnUse">
<stop stop-color="white" stop-opacity="0.24"/>
<stop offset="0.130208" stop-color="white" stop-opacity="0.865636"/>
<stop offset="0.489583" stop-color="white" stop-opacity="0.494792"/>
<stop offset="1" stop-color="white" stop-opacity="0"/>
</linearGradient>
<linearGradient id="paint3_linear_28_1290" x1="1.79346" y1="217.384" x2="500.886" y2="217.384" gradientUnits="userSpaceOnUse">
<stop stop-color="white" stop-opacity="0.24"/>
<stop offset="0.130208" stop-color="white" stop-opacity="0.865636"/>
<stop offset="0.489583" stop-color="white" stop-opacity="0.494792"/>
<stop offset="1" stop-color="white" stop-opacity="0"/>
</linearGradient>
<linearGradient id="paint4_linear_28_1290" x1="1.79312" y1="132.99" x2="500.886" y2="132.99" gradientUnits="userSpaceOnUse">
<stop stop-color="white" stop-opacity="0.24"/>
<stop offset="0.130208" stop-color="white" stop-opacity="0.865636"/>
<stop offset="0.489583" stop-color="white" stop-opacity="0.494792"/>
<stop offset="1" stop-color="white" stop-opacity="0"/>
</linearGradient>
</defs>
</svg>
