<svg width="20" height="20" viewBox="0 0 20 20" fill="none" xmlns="http://www.w3.org/2000/svg">
<path d="M19.1666 2.50057C18.3686 3.06347 17.485 3.49399 16.5499 3.77557C16.048 3.19849 15.381 2.78948 14.6391 2.60384C13.8972 2.4182 13.1162 2.4649 12.4017 2.73761C11.6871 3.01033 11.0736 3.4959 10.6441 4.12866C10.2145 4.76143 9.98967 5.51085 9.99992 6.27557V7.1089C8.53545 7.14687 7.08431 6.82208 5.77576 6.16344C4.4672 5.5048 3.34185 4.53276 2.49992 3.3339C2.49992 3.3339 -0.833415 10.8339 6.66658 14.1672C4.95036 15.3322 2.90588 15.9163 0.833252 15.8339C8.33325 20.0006 17.4999 15.8339 17.4999 6.25057C17.4991 6.01845 17.4768 5.7869 17.4333 5.5589C18.2838 4.72015 18.8839 3.66116 19.1666 2.50057Z" stroke="white" stroke-linecap="round" stroke-linejoin="round"/>
</svg>
