<svg width="20" height="20" viewBox="0 0 20 20" fill="none" xmlns="http://www.w3.org/2000/svg">
<path d="M13.3335 6.66602C14.6596 6.66602 15.9313 7.1928 16.869 8.13048C17.8067 9.06816 18.3335 10.3399 18.3335 11.666V17.4993H15.0002V11.666C15.0002 11.224 14.8246 10.8001 14.512 10.4875C14.1994 10.1749 13.7755 9.99935 13.3335 9.99935C12.8915 9.99935 12.4675 10.1749 12.155 10.4875C11.8424 10.8001 11.6668 11.224 11.6668 11.666V17.4993H8.3335V11.666C8.3335 10.3399 8.86028 9.06816 9.79796 8.13048C10.7356 7.1928 12.0074 6.66602 13.3335 6.66602V6.66602Z" stroke="white" stroke-linecap="round" stroke-linejoin="round"/>
<path d="M4.99984 7.5H1.6665V17.5H4.99984V7.5Z" stroke="white" stroke-linecap="round" stroke-linejoin="round"/>
<path d="M3.33317 4.99935C4.25365 4.99935 4.99984 4.25316 4.99984 3.33268C4.99984 2.41221 4.25365 1.66602 3.33317 1.66602C2.4127 1.66602 1.6665 2.41221 1.6665 3.33268C1.6665 4.25316 2.4127 4.99935 3.33317 4.99935Z" stroke="white" stroke-linecap="round" stroke-linejoin="round"/>
</svg>
