<svg width="20" height="20" viewBox="0 0 20 20" fill="none" xmlns="http://www.w3.org/2000/svg">
<path d="M13.3333 6.66602C14.6593 6.66602 15.9311 7.1928 16.8688 8.13048C17.8065 9.06816 18.3333 10.3399 18.3333 11.666V17.4993H14.9999V11.666C14.9999 11.224 14.8243 10.8001 14.5118 10.4875C14.1992 10.1749 13.7753 9.99935 13.3333 9.99935C12.8912 9.99935 12.4673 10.1749 12.1547 10.4875C11.8422 10.8001 11.6666 11.224 11.6666 11.666V17.4993H8.33325V11.666C8.33325 10.3399 8.86004 9.06816 9.79772 8.13048C10.7354 7.1928 12.0072 6.66602 13.3333 6.66602V6.66602Z" stroke="white" stroke-linecap="round" stroke-linejoin="round"/>
<path d="M5.00008 7.5H1.66675V17.5H5.00008V7.5Z" stroke="white" stroke-linecap="round" stroke-linejoin="round"/>
<path d="M3.33341 4.99935C4.25389 4.99935 5.00008 4.25316 5.00008 3.33268C5.00008 2.41221 4.25389 1.66602 3.33341 1.66602C2.41294 1.66602 1.66675 2.41221 1.66675 3.33268C1.66675 4.25316 2.41294 4.99935 3.33341 4.99935Z" stroke="white" stroke-linecap="round" stroke-linejoin="round"/>
</svg>
