<svg width="690" height="562" viewBox="0 0 690 562" fill="none" xmlns="http://www.w3.org/2000/svg">
<mask id="mask0_1_1458" style="mask-type:alpha" maskUnits="userSpaceOnUse" x="0" y="0" width="690" height="562">
<rect width="690" height="562" fill="white"/>
</mask>
<g mask="url(#mask0_1_1458)">
<rect opacity="0.02" width="690" height="562" fill="#00002A"/>
<g opacity="0.06">
<path d="M0 0L690 562" stroke="#00002A"/>
<path d="M26.9531 -21.9531L716.953 540.047" stroke="#00002A"/>
<path d="M53.9062 -43.9062L743.906 518.094" stroke="#00002A"/>
<path d="M80.8594 -65.8594L770.859 496.141" stroke="#00002A"/>
<path d="M107.812 -87.8125L797.812 474.188" stroke="#00002A"/>
<path d="M134.766 -109.766L824.766 452.234" stroke="#00002A"/>
<path d="M161.719 -131.719L851.719 430.281" stroke="#00002A"/>
<path d="M188.672 -153.672L878.672 408.328" stroke="#00002A"/>
<path d="M215.625 -175.625L905.625 386.375" stroke="#00002A"/>
<path d="M242.578 -197.578L932.578 364.422" stroke="#00002A"/>
<path d="M269.531 -219.531L959.531 342.469" stroke="#00002A"/>
<path d="M296.484 -241.484L986.484 320.516" stroke="#00002A"/>
<path d="M323.438 -263.438L1013.44 298.562" stroke="#00002A"/>
<path d="M-26.9531 21.9531L663.047 583.953" stroke="#00002A"/>
<path d="M-53.9062 43.9062L636.094 605.906" stroke="#00002A"/>
<path d="M-80.8594 65.8594L609.141 627.859" stroke="#00002A"/>
<path d="M-107.812 87.8125L582.188 649.812" stroke="#00002A"/>
<path d="M-134.766 109.766L555.234 671.766" stroke="#00002A"/>
<path d="M-161.719 131.719L528.281 693.719" stroke="#00002A"/>
<path d="M-188.672 153.672L501.328 715.672" stroke="#00002A"/>
<path d="M-215.625 175.625L474.375 737.625" stroke="#00002A"/>
<path d="M-242.578 197.578L447.422 759.578" stroke="#00002A"/>
<path d="M-269.531 219.531L420.469 781.531" stroke="#00002A"/>
<path d="M-296.484 241.484L393.516 803.484" stroke="#00002A"/>
<path d="M-323.438 263.438L366.562 825.438" stroke="#00002A"/>
<path d="M-350.391 285.391L339.609 847.391" stroke="#00002A"/>
</g>
<g opacity="0.06">
<path d="M13.4766 -10.9766L703.477 551.023" stroke="#00002A"/>
<path d="M40.4297 -32.9297L730.43 529.07" stroke="#00002A"/>
<path d="M67.3828 -54.8828L757.383 507.117" stroke="#00002A"/>
<path d="M94.3359 -76.8359L784.336 485.164" stroke="#00002A"/>
<path d="M121.289 -98.7891L811.289 463.211" stroke="#00002A"/>
<path d="M148.242 -120.742L838.242 441.258" stroke="#00002A"/>
<path d="M175.195 -142.695L865.195 419.305" stroke="#00002A"/>
<path d="M202.148 -164.648L892.148 397.352" stroke="#00002A"/>
<path d="M229.102 -186.602L919.102 375.398" stroke="#00002A"/>
<path d="M256.055 -208.555L946.055 353.445" stroke="#00002A"/>
<path d="M283.008 -230.508L973.008 331.492" stroke="#00002A"/>
<path d="M309.961 -252.461L999.961 309.539" stroke="#00002A"/>
<path d="M336.914 -274.414L1026.91 287.586" stroke="#00002A"/>
<path d="M-13.4766 10.9766L676.523 572.977" stroke="#00002A"/>
<path d="M-40.4297 32.9297L649.57 594.93" stroke="#00002A"/>
<path d="M-67.3828 54.8828L622.617 616.883" stroke="#00002A"/>
<path d="M-94.3359 76.8359L595.664 638.836" stroke="#00002A"/>
<path d="M-121.289 98.7891L568.711 660.789" stroke="#00002A"/>
<path d="M-148.242 120.742L541.758 682.742" stroke="#00002A"/>
<path d="M-175.195 142.695L514.805 704.695" stroke="#00002A"/>
<path d="M-202.148 164.648L487.852 726.648" stroke="#00002A"/>
<path d="M-229.102 186.602L460.898 748.602" stroke="#00002A"/>
<path d="M-256.055 208.555L433.945 770.555" stroke="#00002A"/>
<path d="M-283.008 230.508L406.992 792.508" stroke="#00002A"/>
<path d="M-309.961 252.461L380.039 814.461" stroke="#00002A"/>
<path d="M-336.914 274.414L353.086 836.414" stroke="#00002A"/>
</g>
</g>
<g opacity="0.5">
<path d="M356.667 266H333.333C331.492 266 330 267.492 330 269.333V292.667C330 294.508 331.492 296 333.333 296H356.667C358.508 296 360 294.508 360 292.667V269.333C360 267.492 358.508 266 356.667 266Z" stroke="#00002A" stroke-width="1.5" stroke-linecap="round" stroke-linejoin="round"/>
<path d="M339.167 277.667C340.547 277.667 341.667 276.547 341.667 275.167C341.667 273.786 340.547 272.667 339.167 272.667C337.786 272.667 336.667 273.786 336.667 275.167C336.667 276.547 337.786 277.667 339.167 277.667Z" stroke="#00002A" stroke-width="1.5" stroke-linecap="round" stroke-linejoin="round"/>
<path d="M360 286L351.667 277.667L333.333 296" stroke="#00002A" stroke-width="1.5" stroke-linecap="round" stroke-linejoin="round"/>
</g>
</svg>
