<svg width="335" height="260" viewBox="0 0 335 260" fill="none" xmlns="http://www.w3.org/2000/svg">
<mask id="mask0_77_4602" style="mask-type:alpha" maskUnits="userSpaceOnUse" x="0" y="0" width="335" height="260">
<rect width="335" height="260" fill="white"/>
</mask>
<g mask="url(#mask0_77_4602)">
<rect opacity="0.02" width="335" height="260" fill="#662D87"/>
<g opacity="0.06">
<path d="M0 0L335 260" stroke="#662D87"/>
<path d="M13.0859 -10.1562L348.086 249.844" stroke="#662D87"/>
<path d="M26.1719 -20.3125L361.172 239.688" stroke="#662D87"/>
<path d="M39.2578 -30.4688L374.258 229.531" stroke="#662D87"/>
<path d="M52.3438 -40.625L387.344 219.375" stroke="#662D87"/>
<path d="M65.4297 -50.7812L400.43 209.219" stroke="#662D87"/>
<path d="M78.5156 -60.9375L413.516 199.062" stroke="#662D87"/>
<path d="M91.6016 -71.0938L426.602 188.906" stroke="#662D87"/>
<path d="M104.688 -81.25L439.688 178.75" stroke="#662D87"/>
<path d="M117.773 -91.4062L452.773 168.594" stroke="#662D87"/>
<path d="M130.859 -101.562L465.859 158.438" stroke="#662D87"/>
<path d="M143.945 -111.719L478.945 148.281" stroke="#662D87"/>
<path d="M157.031 -121.875L492.031 138.125" stroke="#662D87"/>
<path d="M-13.0859 10.1562L321.914 270.156" stroke="#662D87"/>
<path d="M-26.1719 20.3125L308.828 280.312" stroke="#662D87"/>
<path d="M-39.2578 30.4688L295.742 290.469" stroke="#662D87"/>
<path d="M-52.3438 40.625L282.656 300.625" stroke="#662D87"/>
<path d="M-65.4297 50.7812L269.57 310.781" stroke="#662D87"/>
<path d="M-78.5156 60.9375L256.484 320.938" stroke="#662D87"/>
<path d="M-91.6016 71.0938L243.398 331.094" stroke="#662D87"/>
<path d="M-104.688 81.25L230.312 341.25" stroke="#662D87"/>
<path d="M-117.773 91.4062L217.227 351.406" stroke="#662D87"/>
<path d="M-130.859 101.562L204.141 361.562" stroke="#662D87"/>
<path d="M-143.945 111.719L191.055 371.719" stroke="#662D87"/>
<path d="M-157.031 121.875L177.969 381.875" stroke="#662D87"/>
<path d="M-170.117 132.031L164.883 392.031" stroke="#662D87"/>
</g>
<g opacity="0.06">
<path d="M6.54297 -5.07812L341.543 254.922" stroke="#662D87"/>
<path d="M19.6289 -15.2344L354.629 244.766" stroke="#662D87"/>
<path d="M32.7148 -25.3906L367.715 234.609" stroke="#662D87"/>
<path d="M45.8008 -35.5469L380.801 224.453" stroke="#662D87"/>
<path d="M58.8867 -45.7031L393.887 214.297" stroke="#662D87"/>
<path d="M71.9727 -55.8594L406.973 204.141" stroke="#662D87"/>
<path d="M85.0586 -66.0156L420.059 193.984" stroke="#662D87"/>
<path d="M98.1445 -76.1719L433.145 183.828" stroke="#662D87"/>
<path d="M111.23 -86.3281L446.23 173.672" stroke="#662D87"/>
<path d="M124.316 -96.4844L459.316 163.516" stroke="#662D87"/>
<path d="M137.402 -106.641L472.402 153.359" stroke="#662D87"/>
<path d="M150.488 -116.797L485.488 143.203" stroke="#662D87"/>
<path d="M163.574 -126.953L498.574 133.047" stroke="#662D87"/>
<path d="M-6.54297 5.07812L328.457 265.078" stroke="#662D87"/>
<path d="M-19.6289 15.2344L315.371 275.234" stroke="#662D87"/>
<path d="M-32.7148 25.3906L302.285 285.391" stroke="#662D87"/>
<path d="M-45.8008 35.5469L289.199 295.547" stroke="#662D87"/>
<path d="M-58.8867 45.7031L276.113 305.703" stroke="#662D87"/>
<path d="M-71.9727 55.8594L263.027 315.859" stroke="#662D87"/>
<path d="M-85.0586 66.0156L249.941 326.016" stroke="#662D87"/>
<path d="M-98.1445 76.1719L236.855 336.172" stroke="#662D87"/>
<path d="M-111.23 86.3281L223.77 346.328" stroke="#662D87"/>
<path d="M-124.316 96.4844L210.684 356.484" stroke="#662D87"/>
<path d="M-137.402 106.641L197.598 366.641" stroke="#662D87"/>
<path d="M-150.488 116.797L184.512 376.797" stroke="#662D87"/>
<path d="M-163.574 126.953L171.426 386.953" stroke="#662D87"/>
</g>
</g>
<g opacity="0.5">
<path d="M179.667 115H156.333C154.492 115 153 116.492 153 118.333V141.667C153 143.508 154.492 145 156.333 145H179.667C181.508 145 183 143.508 183 141.667V118.333C183 116.492 181.508 115 179.667 115Z" stroke="#662D87" stroke-width="1.5" stroke-linecap="round" stroke-linejoin="round"/>
<path d="M162.167 126.667C163.548 126.667 164.667 125.547 164.667 124.167C164.667 122.786 163.548 121.667 162.167 121.667C160.786 121.667 159.667 122.786 159.667 124.167C159.667 125.547 160.786 126.667 162.167 126.667Z" stroke="#662D87" stroke-width="1.5" stroke-linecap="round" stroke-linejoin="round"/>
<path d="M183 135L174.666 126.667L156.333 145" stroke="#662D87" stroke-width="1.5" stroke-linecap="round" stroke-linejoin="round"/>
</g>
</svg>
