<svg width="334" height="260" viewBox="0 0 334 260" fill="none" xmlns="http://www.w3.org/2000/svg">
<mask id="mask0_77_4597" style="mask-type:alpha" maskUnits="userSpaceOnUse" x="0" y="0" width="334" height="260">
<rect width="334" height="260" fill="white"/>
</mask>
<g mask="url(#mask0_77_4597)">
<rect opacity="0.02" width="334" height="260" fill="#662D87"/>
<g opacity="0.06">
<path d="M0 0L334 260" stroke="#662D87"/>
<path d="M13.0469 -10.1562L347.047 249.844" stroke="#662D87"/>
<path d="M26.0938 -20.3125L360.094 239.688" stroke="#662D87"/>
<path d="M39.1406 -30.4688L373.141 229.531" stroke="#662D87"/>
<path d="M52.1875 -40.625L386.188 219.375" stroke="#662D87"/>
<path d="M65.2344 -50.7812L399.234 209.219" stroke="#662D87"/>
<path d="M78.2812 -60.9375L412.281 199.062" stroke="#662D87"/>
<path d="M91.3281 -71.0938L425.328 188.906" stroke="#662D87"/>
<path d="M104.375 -81.25L438.375 178.75" stroke="#662D87"/>
<path d="M117.422 -91.4062L451.422 168.594" stroke="#662D87"/>
<path d="M130.469 -101.562L464.469 158.438" stroke="#662D87"/>
<path d="M143.516 -111.719L477.516 148.281" stroke="#662D87"/>
<path d="M156.562 -121.875L490.562 138.125" stroke="#662D87"/>
<path d="M-13.0469 10.1562L320.953 270.156" stroke="#662D87"/>
<path d="M-26.0938 20.3125L307.906 280.312" stroke="#662D87"/>
<path d="M-39.1406 30.4688L294.859 290.469" stroke="#662D87"/>
<path d="M-52.1875 40.625L281.812 300.625" stroke="#662D87"/>
<path d="M-65.2344 50.7812L268.766 310.781" stroke="#662D87"/>
<path d="M-78.2812 60.9375L255.719 320.938" stroke="#662D87"/>
<path d="M-91.3281 71.0938L242.672 331.094" stroke="#662D87"/>
<path d="M-104.375 81.25L229.625 341.25" stroke="#662D87"/>
<path d="M-117.422 91.4062L216.578 351.406" stroke="#662D87"/>
<path d="M-130.469 101.562L203.531 361.562" stroke="#662D87"/>
<path d="M-143.516 111.719L190.484 371.719" stroke="#662D87"/>
<path d="M-156.562 121.875L177.438 381.875" stroke="#662D87"/>
<path d="M-169.609 132.031L164.391 392.031" stroke="#662D87"/>
</g>
<g opacity="0.06">
<path d="M6.52344 -5.07812L340.523 254.922" stroke="#662D87"/>
<path d="M19.5703 -15.2344L353.57 244.766" stroke="#662D87"/>
<path d="M32.6172 -25.3906L366.617 234.609" stroke="#662D87"/>
<path d="M45.6641 -35.5469L379.664 224.453" stroke="#662D87"/>
<path d="M58.7109 -45.7031L392.711 214.297" stroke="#662D87"/>
<path d="M71.7578 -55.8594L405.758 204.141" stroke="#662D87"/>
<path d="M84.8047 -66.0156L418.805 193.984" stroke="#662D87"/>
<path d="M97.8516 -76.1719L431.852 183.828" stroke="#662D87"/>
<path d="M110.898 -86.3281L444.898 173.672" stroke="#662D87"/>
<path d="M123.945 -96.4844L457.945 163.516" stroke="#662D87"/>
<path d="M136.992 -106.641L470.992 153.359" stroke="#662D87"/>
<path d="M150.039 -116.797L484.039 143.203" stroke="#662D87"/>
<path d="M163.086 -126.953L497.086 133.047" stroke="#662D87"/>
<path d="M-6.52344 5.07812L327.477 265.078" stroke="#662D87"/>
<path d="M-19.5703 15.2344L314.43 275.234" stroke="#662D87"/>
<path d="M-32.6172 25.3906L301.383 285.391" stroke="#662D87"/>
<path d="M-45.6641 35.5469L288.336 295.547" stroke="#662D87"/>
<path d="M-58.7109 45.7031L275.289 305.703" stroke="#662D87"/>
<path d="M-71.7578 55.8594L262.242 315.859" stroke="#662D87"/>
<path d="M-84.8047 66.0156L249.195 326.016" stroke="#662D87"/>
<path d="M-97.8516 76.1719L236.148 336.172" stroke="#662D87"/>
<path d="M-110.898 86.3281L223.102 346.328" stroke="#662D87"/>
<path d="M-123.945 96.4844L210.055 356.484" stroke="#662D87"/>
<path d="M-136.992 106.641L197.008 366.641" stroke="#662D87"/>
<path d="M-150.039 116.797L183.961 376.797" stroke="#662D87"/>
<path d="M-163.086 126.953L170.914 386.953" stroke="#662D87"/>
</g>
</g>
<g opacity="0.5">
<path d="M178.667 115H155.333C153.492 115 152 116.492 152 118.333V141.667C152 143.508 153.492 145 155.333 145H178.667C180.508 145 182 143.508 182 141.667V118.333C182 116.492 180.508 115 178.667 115Z" stroke="#662D87" stroke-width="1.5" stroke-linecap="round" stroke-linejoin="round"/>
<path d="M161.167 126.667C162.548 126.667 163.667 125.547 163.667 124.167C163.667 122.786 162.548 121.667 161.167 121.667C159.786 121.667 158.667 122.786 158.667 124.167C158.667 125.547 159.786 126.667 161.167 126.667Z" stroke="#662D87" stroke-width="1.5" stroke-linecap="round" stroke-linejoin="round"/>
<path d="M182 135L173.666 126.667L155.333 145" stroke="#662D87" stroke-width="1.5" stroke-linecap="round" stroke-linejoin="round"/>
</g>
</svg>
