<svg xmlns="http://www.w3.org/2000/svg" viewBox="0 0 210 29.28"><defs><style>.cls-1,.cls-2{fill:#fff;}.cls-2{fill-rule:evenodd;}</style></defs><g id="Layer_2" data-name="Layer 2"><g id="Layer_1-2" data-name="Layer 1"><path class="cls-1" d="M56.28,2.23V1l6,.16c.73,0,1.88,0,3.43-.08q3-.12,3.51-.12a15.76,15.76,0,0,1,5.4.67,5.26,5.26,0,0,1,2.63,2.14A6,6,0,0,1,78.21,7a6.74,6.74,0,0,1-.87,3.24,7.36,7.36,0,0,1-2.53,2.68,13.12,13.12,0,0,1-4.32,1.66c.33.45,1.09,1.46,2.29,3l4.89,6.45c1.4,1.8,2.21,2.8,2.44,3a1.22,1.22,0,0,0,.35.2,5.3,5.3,0,0,0,1.28.1V28.6c-.86-.07-1.72-.11-2.58-.11s-1.7,0-2.81.11q-1.26-1.46-4.23-5.69-1.38-2-2.9-3.93c-1.25-1.6-2.55-3.18-3.88-4.72l.19-.58c.67,0,1.18.05,1.53.05a7.67,7.67,0,0,0,5.35-1.66,5.71,5.71,0,0,0,1.83-4.42,4.81,4.81,0,0,0-1.57-3.79,6.93,6.93,0,0,0-4.75-1.41,13.08,13.08,0,0,0-3.92.6c0,.7-.08,1.35-.11,2,0,.18-.06,2.07-.14,5.66V19.3c0,1.76,0,3.47.08,5.15a6.14,6.14,0,0,0,.26,2.19,1.33,1.33,0,0,0,.73.52,13.54,13.54,0,0,0,2.79.2v1.25c-1.83-.1-3.52-.16-5.06-.16-1.24,0-3.33.06-6.26.16V27.35a13.38,13.38,0,0,0,2.79-.2,1.28,1.28,0,0,0,.7-.46,5.06,5.06,0,0,0,.29-1.88c0-.28,0-2.12.08-5.52v-9c0-1.76,0-3.48-.06-5.16a6,6,0,0,0-.29-2.19,1.31,1.31,0,0,0-.71-.51A13.64,13.64,0,0,0,56.28,2.23Zm28.9,0V1l6,.16c.74,0,1.88,0,3.43-.08q3-.12,3.51-.12a15.76,15.76,0,0,1,5.4.67,5.26,5.26,0,0,1,2.63,2.14A6,6,0,0,1,107.11,7a6.74,6.74,0,0,1-.87,3.24,7.31,7.31,0,0,1-2.53,2.68,13.12,13.12,0,0,1-4.32,1.66c.32.45,1.09,1.46,2.29,3l4.88,6.45c1.4,1.8,2.21,2.8,2.45,3a1.1,1.1,0,0,0,.35.2,5.26,5.26,0,0,0,1.27.1V28.6c-.85-.07-1.71-.11-2.57-.11s-1.7,0-2.81.11Q104,27.14,101,22.91q-1.39-2-2.91-3.93c-1.25-1.6-2.54-3.18-3.88-4.72l.2-.58c.67,0,1.18.05,1.53.05a7.69,7.69,0,0,0,5.35-1.66,5.74,5.74,0,0,0,1.82-4.42,4.81,4.81,0,0,0-1.57-3.79,6.93,6.93,0,0,0-4.75-1.41,13.08,13.08,0,0,0-3.92.6c0,.7-.09,1.35-.12,2,0,.18-.06,2.07-.13,5.66V19.3c0,1.76,0,3.47.07,5.15A6,6,0,0,0,93,26.64a1.25,1.25,0,0,0,.72.52,13.54,13.54,0,0,0,2.79.2v1.25c-1.83-.1-3.52-.16-5.06-.16-1.24,0-3.32.06-6.26.16V27.35a13.38,13.38,0,0,0,2.79-.2,1.3,1.3,0,0,0,.7-.46,5,5,0,0,0,.3-1.88c0-.28,0-2.12.07-5.52v-9Q89,7.65,89,5.13a6.13,6.13,0,0,0-.28-2.19A1.37,1.37,0,0,0,88,2.43,13.15,13.15,0,0,0,85.18,2.23Z"/><path class="cls-2" d="M112.73,20.48a12.81,12.81,0,0,0,2.78,4.75A11.52,11.52,0,0,0,120,28.17a16,16,0,0,0,5.68,1,15.11,15.11,0,0,0,11.08-4.35,14.75,14.75,0,0,0,4.39-10.9,16.16,16.16,0,0,0-.44-3.83A12.84,12.84,0,0,0,139.51,7a12.24,12.24,0,0,0-2.65-3.25,12.55,12.55,0,0,0-4.3-2.39,17.64,17.64,0,0,0-5.81-.9,16.91,16.91,0,0,0-6.17,1.05,14.74,14.74,0,0,0-4.83,3.14,12.26,12.26,0,0,0-3,4.68A17.13,17.13,0,0,0,112.73,20.48ZM28.52,28.42c1.09,0,2.72.06,4.91.18V27.27a13.79,13.79,0,0,1-2.53-.17,1.16,1.16,0,0,1-.66-.35.65.65,0,0,1-.15-.45,5.78,5.78,0,0,1,.56-2l2.11-5H44l2.38,5.94a3.07,3.07,0,0,1,.27,1.11.65.65,0,0,1-.16.46,1.23,1.23,0,0,1-.63.28,21.91,21.91,0,0,1-2.64.13V28.6l6.24-.2c.8,0,2.21.06,4.23.2V27.27a5.74,5.74,0,0,1-2-.23,2,2,0,0,1-.8-.89q-.66-1.21-2.68-5.95L40,.71H38.69Q37,4.75,35.3,8.76l-4.84,11q-2.17,4.74-2.52,5.46A6.32,6.32,0,0,1,27,26.74a1.78,1.78,0,0,1-.7.41,9.94,9.94,0,0,1-1.91.13V28.6Q26.63,28.42,28.52,28.42Zm-23.44,0,5.62.16a13.51,13.51,0,0,0,4.83-.78A10.3,10.3,0,0,0,20,24.58a7.92,7.92,0,0,0,1.73-5.06,7,7,0,0,0-.48-2.64,5.53,5.53,0,0,0-3.76-3.25A19.86,19.86,0,0,0,13.82,13a13.52,13.52,0,0,0,2.76-.94,7.29,7.29,0,0,0,1.92-1.34,6.17,6.17,0,0,0,1.38-2,5.76,5.76,0,0,0,.52-2.41,5.2,5.2,0,0,0-.87-2.93,4.84,4.84,0,0,0-2.39-1.89A12.79,12.79,0,0,0,12.78,1l-7.14.17L1.61,1C1,1,.43,1,0,1V2.21a8.42,8.42,0,0,1,2.66.29.8.8,0,0,1,.4.37,6.88,6.88,0,0,1,.28,2c.07,1.71.11,3.2.11,4.47V21.06q0,1-.09,2.88a21.19,21.19,0,0,1-.2,2.48,1.11,1.11,0,0,1-.21.52,8.34,8.34,0,0,1-1.34.74v.92C3.31,28.49,4.47,28.44,5.08,28.44ZM7.31,2.83a16.37,16.37,0,0,1,3.12-.29,7.84,7.84,0,0,1,4.51,1.08,4,4,0,0,1,1.54,3.5A5.79,5.79,0,0,1,16,9.53a4.59,4.59,0,0,1-1.2,1.63,5.29,5.29,0,0,1-2,1,14.29,14.29,0,0,1-3.72.37c-.55,0-1.2,0-1.93-.06V7.82A48.94,48.94,0,0,1,7.31,2.83ZM7.13,21.41V14C8,14,8.71,14,9.26,14a14.74,14.74,0,0,1,5.21.66c2.11.9,3.17,2.77,3.17,5.49a7.75,7.75,0,0,1-.84,3.66,5.51,5.51,0,0,1-2.42,2.38,9.28,9.28,0,0,1-4.12.78,12.69,12.69,0,0,1-3.07-.35C7.15,23.85,7.13,22.12,7.13,21.41Zm36.08-3.72H33.42L38.37,6ZM120.49,3.45a8.52,8.52,0,0,0-3.5,4,14.14,14.14,0,0,0-1.17,5.91,19.69,19.69,0,0,0,.36,3.75,17.81,17.81,0,0,0,.94,3.28,12,12,0,0,0,2.43,3.92,9.63,9.63,0,0,0,3.35,2.33,10.84,10.84,0,0,0,4.1.75,9.61,9.61,0,0,0,5.43-1.53,9.09,9.09,0,0,0,3.44-4.29A16.7,16.7,0,0,0,137,15.19a18.83,18.83,0,0,0-.81-5.7,10.78,10.78,0,0,0-3.32-5.14,10.07,10.07,0,0,0-3-1.62,11.69,11.69,0,0,0-4-.66A10.39,10.39,0,0,0,120.49,3.45Z"/><path class="cls-1" d="M143.14,28.59V27.37a8,8,0,0,0,2.68-.31.72.72,0,0,0,.38-.37,6.82,6.82,0,0,0,.27-2c.08-1.71.12-3.19.12-4.43V4.39a3,3,0,0,0-.08-.84,2.76,2.76,0,0,0-.69-.83,1.72,1.72,0,0,0-.81-.4,15.83,15.83,0,0,0-2-.11V1c2.16.06,3.52.08,4.07.08.95,0,1.88,0,2.81-.08,1.11,1.44,1.91,2.5,2.43,3.19l4,5,5.86,7.07c1.87,2.25,3.38,4,4.51,5.32.73.86,1.34,1.54,1.83,2V9.34c0-1.27-.05-2.76-.14-4.47a7.76,7.76,0,0,0-.25-2,.78.78,0,0,0-.41-.37,8.35,8.35,0,0,0-2.65-.29V1c1.52.06,3.06.08,4.63.08s2.81,0,4-.08V2.21A8.3,8.3,0,0,0,171,2.5a.78.78,0,0,0-.24.16.61.61,0,0,0-.15.23,6.64,6.64,0,0,0-.27,2q-.12,2.56-.12,4.41v9.35q0,2.83.09,10.59l-2-.59-.47-.09a.88.88,0,0,1-.21-.12,7.83,7.83,0,0,1-.74-.78c-.8-.9-1.59-1.82-2.35-2.76l-2.51-3.16L148.34,5.32v14.9c0,1.27,0,2.76.13,4.49a7.47,7.47,0,0,0,.25,2,.86.86,0,0,0,.41.39,8.35,8.35,0,0,0,2.65.29v1.22A70.63,70.63,0,0,0,143.14,28.59Zm48.42-.95a42.92,42.92,0,0,0,.37-6h1.32a14.12,14.12,0,0,0,.32,3.35,3,3,0,0,0,1.08,1.1,8.71,8.71,0,0,0,2.28,1,9,9,0,0,0,2.78.46,7.4,7.4,0,0,0,3.6-.9,5.71,5.71,0,0,0,2.4-2.37,6.62,6.62,0,0,0,.76-3.14,4.32,4.32,0,0,0-1.53-3.72,4.81,4.81,0,0,0-1.92-.81c-1-.14-1.91-.27-2.87-.39q-1.85-.22-3.66-.6a8,8,0,0,1-3-1.46A6.1,6.1,0,0,1,192,12,7.25,7.25,0,0,1,191.39,9a8.42,8.42,0,0,1,1.19-4.32,8,8,0,0,1,3.53-3.16A11.45,11.45,0,0,1,201.18.42a16.57,16.57,0,0,1,3.6.44,16,16,0,0,1,3.64,1.27A22.43,22.43,0,0,0,208,4.42c-.08.71-.14,1.75-.18,3.11h-1.32a23.71,23.71,0,0,0-.17-3.26A4.94,4.94,0,0,0,205,3a8.39,8.39,0,0,0-4.17-1.13,6,6,0,0,0-4.49,1.72,6.16,6.16,0,0,0-1.67,4.46,4.64,4.64,0,0,0,.6,2.56,4.14,4.14,0,0,0,2.15,1.45,20.8,20.8,0,0,0,3.49.69c1.61.21,3.06.44,4.36.68a7.56,7.56,0,0,1,2.69,1.3,5.52,5.52,0,0,1,1.44,2,6.8,6.8,0,0,1,.56,2.85,8.81,8.81,0,0,1-3.2,6.74,11.89,11.89,0,0,1-8.28,2.87A15.62,15.62,0,0,1,191.56,27.64Zm-12.38-18s2.94-5.75,2.72-8.11c0,0,3.16-1.1,4.12-1.55,0,0-1.18,6.86-6,11.05Z"/></g></g></svg>