<svg xmlns="http://www.w3.org/2000/svg" viewBox="0 0 21 16.75"><defs><style>.cls-1{fill:none;stroke:#fff;}</style></defs><g id="Layer_2" data-name="Layer 2"><g id="Layer_1-2" data-name="Layer 1"><path class="cls-1" d="M17.11,2.4a16.26,16.26,0,0,1,2.82,10.77,16.3,16.3,0,0,1-4.39,2.24c-.2-.3-.39-.61-.57-.92a10.76,10.76,0,0,0,1.17-.6.55.55,0,0,0,.05-.93h0l-.29-.23h0a.57.57,0,0,0-.59-.07,11.34,11.34,0,0,1-9.63,0h0a.56.56,0,0,0-.59.08l.26.31-.13.23-.12.09m12-11L15.52,13.1l-.06,0a11.79,11.79,0,0,1-9.91,0l-.08,0h0L5.35,13h0l-.25-.31-.3.23M17.11,2.4a16.5,16.5,0,0,0-3.53-1.11c-.12.24-.24.5-.33.72l-.15.35-.39,0a14.24,14.24,0,0,0-4.42,0l-.39,0L7.75,2a7.52,7.52,0,0,0-.34-.71A15.76,15.76,0,0,0,3.88,2.4,16.41,16.41,0,0,0,1.06,13.17a16.45,16.45,0,0,0,4.39,2.24m11.66-13L5.1,13.46a.06.06,0,0,1,0-.1m0,0-.3-.4h0m.3.4-.3-.4m0,0a.56.56,0,0,0,.06.93h0c.38.21.77.41,1.18.59-.18.31-.37.62-.58.92m8.88-1.2a12.31,12.31,0,0,0,1.17-.53l.1.08.16-.22.13-.08a.06.06,0,0,0,0-.1l-.13-.1h0l-.19-.15h0a.22.22,0,0,1,.09-.07h0l-.12.07L.58,13.41A16.86,16.86,0,0,1,3.54,2s0,0,0,0A16.53,16.53,0,0,1,7.64.74m6.69,13.47a.06.06,0,0,0,0,.08m0-.08,0,.06m0-.06,0,.06h0m-.06,0a14.11,14.11,0,0,0,1,1.67.06.06,0,0,0,.07,0m-1.1-1.69.06,0m-.06,0,.06,0h0m1,1.71a16.6,16.6,0,0,0,5-2.53.05.05,0,0,0,0,0A16.72,16.72,0,0,0,17.46,2l0,0A16.76,16.76,0,0,0,13.36.74s0,0-.07,0a11,11,0,0,0-.5,1,15.22,15.22,0,0,0-4.57,0,10.09,10.09,0,0,0-.52-1M15.39,16l0-.06h0l-.13-.42a.44.44,0,0,1,.48.16m-.33.32.33-.32M7.7.77s0,0-.06,0m.06,0,0,0V.74m.06,0,0,0h0V.74M5.45,15.41l-.18.25.35.26h0l.13-.42ZM15.6,13.76l-.09-.09.18-.09,0,0h0Zm-8-13,.07.43A.42.42,0,0,1,7.27,1ZM5.75,15.5l-.13.42-.34-.27A.45.45,0,0,1,5.75,15.5Zm8.6-1.23.39-.2a.43.43,0,0,1-.23.6ZM4.89,9.12a2.42,2.42,0,0,0,2.29,2.52,2.42,2.42,0,0,0,2.3-2.52A2.4,2.4,0,0,0,7.18,6.6,2.41,2.41,0,0,0,4.89,9.12Zm6.64,0a2.43,2.43,0,0,0,2.3,2.52,2.42,2.42,0,0,0,2.3-2.52,2.41,2.41,0,0,0-2.3-2.52A2.42,2.42,0,0,0,11.53,9.12Z"/></g></g></svg>