<svg xmlns="http://www.w3.org/2000/svg" viewBox="0 0 154.24 38.72"><defs><style>.cls-1{fill:#fff;}</style></defs><g id="Layer_2" data-name="Layer 2"><g id="Layer_1-2" data-name="Layer 1"><path class="cls-1" d="M94,11a12.57,12.57,0,0,0-6.38,1.6c0-5.68,0-10.83.17-12.61L75.88,2.13V3.2l1.24.17c1.59.36,2.13,1.25,2.48,3.38.35,4.26.17,27,0,30.73a46.06,46.06,0,0,0,9.93,1.24c9.39,0,15.06-5.86,15.06-15.1C104.59,16.34,100,11,94,11ZM89.88,36.77a7.84,7.84,0,0,1-2.13-.18c-.18-2.49-.35-13-.18-22.2a7.82,7.82,0,0,1,2.66-.54c3.91,0,6,4.62,6,10.3C96.26,31.26,93.6,36.77,89.88,36.77ZM31.2.71H0v1.6l1.77.18C4.08,2.84,5,4.26,5.32,7.64a208.12,208.12,0,0,1,0,23.44c-.36,3.38-1.24,5-3.55,5.15L0,36.59V38H20V36.59l-2.13-.36c-2.3-.18-3.19-1.77-3.54-5.15-.18-2.31-.36-6-.36-10.66l4.26.18c2.66,0,3.9,2.13,4.43,5.15h1.6V13.14h-1.6c-.53,3-1.77,5.15-4.43,5.15L14,18.47c0-6,.17-11.72.35-15.1h6.2c4.79,0,7.27,3,9.05,8.35l1.77-.53Z"/><path class="cls-1" d="M41.31,10.66c8.86,0,13.29,6,13.29,14,0,7.64-5,14-13.83,14s-13.29-6-13.29-14C27.48,17.05,32.44,10.66,41.31,10.66Zm-.54,1.77c-3.9,0-5,5.33-5,12.26,0,6.75,1.77,12.25,5.32,12.25,4.07,0,5.14-5.33,5.14-12.25C46.27,17.94,44.5,12.43,40.77,12.43ZM106.9,24.87c0-7.29,4.61-14.21,13.65-14.21,7.44,0,11,5.5,11,12.79H115.05c-.18,6.57,3,11.36,9.4,11.36a9.15,9.15,0,0,0,6-2l.7.89a13.27,13.27,0,0,1-10.63,5C112.57,38.72,106.9,33,106.9,24.87Zm8.15-3.38,8.33-.18c0-3.55-.53-8.88-3.54-8.88S115.23,17.41,115.05,21.49Zm37.59-9.41a21.66,21.66,0,0,0-8.16-1.42c-6.55,0-10.63,3.9-10.63,8.52s3,6.57,7.27,8c4.43,1.59,5.67,2.84,5.67,5a4.11,4.11,0,0,1-4.43,4.08c-3.37,0-5.85-1.95-7.8-7.28l-1.25.36.18,7.81a27.93,27.93,0,0,0,9.4,1.6c6.91,0,11.35-3.55,11.35-9.06,0-3.73-2-5.86-6.56-7.64-5-1.95-6.74-3.19-6.74-5.5a3.69,3.69,0,0,1,3.72-3.91c3.19,0,5.32,2,6.92,6.75l1.24-.36Zm-75-.71c-3-1.78-8.33-.89-11.17,5.5l.18-6.21L54.78,13V14l1.24.18c1.6.18,2.3,1.07,2.48,3.38A147.35,147.35,0,0,1,58.5,33c-.18,2.13-.88,3.19-2.48,3.37l-1.24.18V38H71.27V36.59l-2.13-.18c-1.77-.18-2.31-1.24-2.48-3.37a125.14,125.14,0,0,1-.18-14.39c.89-1.24,4.79-2.31,8.33,0Z"/></g></g></svg>