<svg xmlns="http://www.w3.org/2000/svg" xmlns:xlink="http://www.w3.org/1999/xlink" viewBox="0 0 179.69 160"><defs><style>.cls-1{fill:url(#linear-gradient);}.cls-2{fill:url(#radial-gradient);}.cls-3{fill:url(#linear-gradient-2);}.cls-4{fill:#e4e8f3;fill-opacity:0.4;}.cls-5{fill:url(#linear-gradient-3);}.cls-6{fill:url(#linear-gradient-4);}.cls-7{fill:none;stroke:#fff;}</style><linearGradient id="linear-gradient" x1="-539.04" y1="-31.53" x2="-359.35" y2="-31.53" gradientTransform="matrix(1, 0, 0, -1, 539.04, 102.25)" gradientUnits="userSpaceOnUse"><stop offset="0" stop-color="#662d87"/><stop offset="1" stop-color="#a8cbf0"/></linearGradient><radialGradient id="radial-gradient" cx="-785.21" cy="466.27" r="1" gradientTransform="matrix(115.94, 0, 0, -99.68, 91066.2, 46583.45)" xlink:href="#linear-gradient"/><linearGradient id="linear-gradient-2" x1="-538.75" y1="-29.22" x2="-359.39" y2="-29.22" gradientTransform="matrix(1, 0, 0, -1, 539.04, 102.25)" gradientUnits="userSpaceOnUse"><stop offset="0" stop-color="#fff" stop-opacity="0.24"/><stop offset="0.13" stop-color="#fff" stop-opacity="0.87"/><stop offset="0.49" stop-color="#fff" stop-opacity="0.49"/><stop offset="1" stop-color="#fff" stop-opacity="0"/></linearGradient><linearGradient id="linear-gradient-3" x1="-538.75" y1="1.11" x2="-359.39" y2="1.11" xlink:href="#linear-gradient-2"/><linearGradient id="linear-gradient-4" x1="-538.75" y1="31.44" x2="-359.39" y2="31.44" xlink:href="#linear-gradient-2"/></defs><g id="Layer_2" data-name="Layer 2"><g id="Layer_1-2" data-name="Layer 1"><path class="cls-1" d="M103.84,156.7l70.76-36.31a9.09,9.09,0,0,0,5.09-8.21v-4.61H0v4.61a9.07,9.07,0,0,0,5.09,8.21L75.85,156.7A31.33,31.33,0,0,0,103.84,156.7Z"/><path class="cls-2" d="M75.85,64a31.33,31.33,0,0,1,28,0L174.6,99.34a9.21,9.21,0,0,1,0,16.47l-70.76,35.38a31.33,31.33,0,0,1-28,0L5.09,115.81a9.2,9.2,0,0,1,0-16.47Z"/><path class="cls-3" d="M103.84,151.19l70.76-35.38a9.09,9.09,0,0,0,5.05-7.36c-2,4.64-2.87,4.92-5.43,6.45l-70.6,34.93a35.16,35.16,0,0,1-14.13,3.24A30.51,30.51,0,0,1,76,149.83C53.31,138.47,7.27,116,5.09,114.83a14.73,14.73,0,0,1-4.8-5,9.06,9.06,0,0,0,4.8,5.93l70.76,35.38A31.33,31.33,0,0,0,103.84,151.19Z"/><path class="cls-4" d="M75.85,33.63a31.33,31.33,0,0,1,28,0L174.6,69a9.2,9.2,0,0,1,0,16.46l-70.76,35.38a31.33,31.33,0,0,1-28,0L5.09,85.48A9.2,9.2,0,0,1,5.09,69Z"/><path class="cls-4" d="M0,77.25v4.6a9.1,9.1,0,0,0,5.09,8.22l70.76,36.3a31.33,31.33,0,0,0,28,0l70.76-36.3a9.12,9.12,0,0,0,5.09-8.22V77.27a9.1,9.1,0,0,1-5.09,8.21l-70.76,35.38a31.33,31.33,0,0,1-28,0L5.09,85.48A9.11,9.11,0,0,1,0,77.25Z"/><path class="cls-5" d="M103.84,120.86,174.6,85.47a9.06,9.06,0,0,0,5.05-7.35c-2,4.64-2.87,4.92-5.43,6.45l-70.6,34.93a35.16,35.16,0,0,1-14.13,3.24A30.51,30.51,0,0,1,76,119.5C53.31,108.14,7.27,85.66,5.09,84.5a14.73,14.73,0,0,1-4.8-5,9,9,0,0,0,4.8,5.92l70.76,35.39A31.33,31.33,0,0,0,103.84,120.86Z"/><path class="cls-4" d="M75.85,3.3a31.33,31.33,0,0,1,28,0L174.6,38.69a9.2,9.2,0,0,1,0,16.46L103.84,90.53a31.33,31.33,0,0,1-28,0L5.09,55.15a9.2,9.2,0,0,1,0-16.46Z"/><path class="cls-4" d="M0,46.92v4.6a9.1,9.1,0,0,0,5.09,8.22L75.85,96a31.33,31.33,0,0,0,28,0l70.76-36.3a9.12,9.12,0,0,0,5.09-8.22V46.94a9.09,9.09,0,0,1-5.09,8.21L103.84,90.53a31.33,31.33,0,0,1-28,0L5.09,55.15A9.11,9.11,0,0,1,0,46.92Z"/><path class="cls-6" d="M103.84,90.53,174.6,55.15a9.09,9.09,0,0,0,5.05-7.36c-2,4.64-2.87,4.93-5.43,6.45l-70.6,34.93a35.16,35.16,0,0,1-14.13,3.24A30.51,30.51,0,0,1,76,89.17C53.31,77.81,7.27,55.33,5.09,54.17a14.73,14.73,0,0,1-4.8-5,9.06,9.06,0,0,0,4.8,5.93L75.85,90.53A31.33,31.33,0,0,0,103.84,90.53Z"/><path class="cls-7" d="M175.07,54.31a1.75,1.75,0,0,1-.27.16l.11-.06ZM25.19,64.64c15.83,7.77,37.24,18.3,50.57,25a31.08,31.08,0,0,0,13.73,3.29,35.79,35.79,0,0,0,14.33-3.28h0L171,56.4,103.61,90.08a30.73,30.73,0,0,1-27.53,0Z"/></g></g></svg>