<svg xmlns="http://www.w3.org/2000/svg" viewBox="0 0 17.67 16.83"><defs><style>.cls-1{fill:none;stroke:#fff;stroke-linecap:round;stroke-linejoin:round;}</style></defs><g id="Layer_2" data-name="Layer 2"><g id="Layer_1-2" data-name="Layer 1"><path class="cls-1" d="M12.17,5.5a5,5,0,0,1,5,5v5.83H13.83V10.5a1.67,1.67,0,0,0-.48-1.18,1.7,1.7,0,0,0-1.18-.49A1.66,1.66,0,0,0,11,9.32a1.68,1.68,0,0,0-.49,1.18v5.83H7.17V10.5a5,5,0,0,1,5-5Z"/><path class="cls-1" d="M3.83,6.33H.5v10H3.83Z"/><path class="cls-1" d="M2.17,3.83A1.67,1.67,0,0,0,2.17.5a1.67,1.67,0,1,0,0,3.33Z"/></g></g></svg>