<svg xmlns="http://www.w3.org/2000/svg" viewBox="0 0 210 32.79"><defs><style>.cls-1{fill:#fff;fill-rule:evenodd;}</style></defs><g id="Layer_2" data-name="Layer 2"><g id="Layer_1-2" data-name="Layer 1"><path class="cls-1" d="M28.81,25.3a15.71,15.71,0,0,0,3.1-9.41,15.93,15.93,0,1,0-6.67,12.92l4,4,3.55-3.53-4-4ZM25.2,21.71l-5.9-5.88-3.55,3.54,5.87,5.84A10.81,10.81,0,0,1,16,26.79,10.9,10.9,0,1,1,26.89,15.9a10.81,10.81,0,0,1-1.69,5.81Z"/><path class="cls-1" d="M175.32.63v5h-9.44V30.9h-5.1V5.67h-9.43v-5Z"/><path class="cls-1" d="M96.1.63H89.93L78.2,30.9h5.38l2.2-5.9h14.47l2.2,5.9h5.39ZM87.74,20.29,93,6.62l5.27,13.67Z"/><path class="cls-1" d="M210,5.63,193.26,25.78H210V30.9H186.67V25.51l16.8-19.88H187.83v-5H210Z"/><path class="cls-1" d="M68.74.63V19.77a12,12,0,0,1-24,0V.63H50V19.77a6.81,6.81,0,0,0,13.61,0V.63Z"/><path class="cls-1" d="M134.91,20.86a10.66,10.66,0,0,0,5.88-9.5A10.8,10.8,0,0,0,130.46.63H119.19V31.22h5.14V22H129l10.59,10.78,3.57-3.54-8.24-8.39ZM130.09,17h-5.76V5.76h5.76a5.6,5.6,0,1,1,0,11.2Z"/></g></g></svg>