<svg xmlns="http://www.w3.org/2000/svg" viewBox="0 0 210 60"><defs><style>.cls-1{fill:#fff;}</style></defs><g id="Layer_2" data-name="Layer 2"><g id="Layer_1-2" data-name="Layer 1"><path class="cls-1" d="M95.38,40.75H91.91c-.31,0-.42-.31-.56-.61L87.26,32.8h-.63c-.74,0-3-.08-3.68-.12v7.46a.58.58,0,0,1-.55.61H79.57a.55.55,0,0,1-.4-.18.61.61,0,0,1-.17-.43V20.3c0-.61.34-.82.91-.91A55,55,0,0,1,86.63,19C91,19,95,20.67,95,25.84v.28A5.81,5.81,0,0,1,91.21,32l4.45,8.1a.42.42,0,0,1,.06.25A.33.33,0,0,1,95.38,40.75ZM91.12,25.84c0-2.27-1.65-3.24-4.49-3.24-.6,0-3.18.06-3.68.12v6.57c.44,0,3.19.09,3.68.09,2.92,0,4.49-.6,4.49-3.26Zm12.16,8.94c0,2.54.09,2.61,2.24,2.61h7.18a.52.52,0,0,1,.4.18.59.59,0,0,1,.17.42v1.94c0,.42-.14.58-.57.63a34.44,34.44,0,0,1-6.13.43c-4.71,0-7.21,0-7.21-6.21V25.2c0-6.23,2.5-6.2,7.21-6.2a35.93,35.93,0,0,1,6.13.42c.43.06.57.22.57.64V22a.58.58,0,0,1-.57.6h-7.18c-2.15,0-2.24.07-2.24,2.6V28h9.08a.55.55,0,0,1,.4.18.59.59,0,0,1,.17.42v2.19a.63.63,0,0,1-.17.43.54.54,0,0,1-.4.17h-9.08ZM126,41c-4.56,0-8.5-2.12-8.5-8.57V19.82a.57.57,0,0,1,.58-.58h2.8a.56.56,0,0,1,.57.58v12.6c0,3.45,1.49,5.09,4.55,5.09s4.56-1.64,4.56-5.09V19.82a.57.57,0,0,1,.57-.58H134a.57.57,0,0,1,.57.58v12.6C134.52,38.87,130.58,41,126,41Zm27.16-18.24h-5.66V40.14a.61.61,0,0,1-.17.43.55.55,0,0,1-.4.18h-2.81a.57.57,0,0,1-.4-.18.61.61,0,0,1-.17-.43V22.75H137.9a.54.54,0,0,1-.57-.54V19.82a.57.57,0,0,1,.57-.58h15.27a.57.57,0,0,1,.57.58v2.39A.54.54,0,0,1,153.17,22.75Zm38.54,18h-3.47c-.31,0-.42-.31-.56-.61l-4.09-7.34H183c-.74,0-3-.08-3.69-.12v7.46a.57.57,0,0,1-.53.61H175.9a.57.57,0,0,1-.4-.18.61.61,0,0,1-.17-.43V20.3c0-.61.34-.82.91-.91A54.82,54.82,0,0,1,183,19c4.38,0,8.41,1.67,8.41,6.84v.28A5.81,5.81,0,0,1,187.53,32l4.46,8.1a.54.54,0,0,1,.06.25A.33.33,0,0,1,191.71,40.75Zm-4.26-14.91c0-2.27-1.65-3.24-4.49-3.24-.6,0-3.18.06-3.69.12v6.57c.46,0,3.21.09,3.69.09,2.92,0,4.49-.6,4.49-3.26ZM202.54,41a29.49,29.49,0,0,1-6.42-.79.63.63,0,0,1-.54-.61V37.42a.56.56,0,0,1,.54-.57h.06a49,49,0,0,0,6.41.54c2.53,0,3.3-1,3.3-2.72,0-2.27-5.08-3.52-7.56-4.61a5.44,5.44,0,0,1-3.34-5.3c0-3.33,2.51-5.75,7.79-5.75a26.69,26.69,0,0,1,6.14.79.61.61,0,0,1,.51.58v2.24a.5.5,0,0,1-.48.54h-.06a57,57,0,0,0-6.28-.55c-2.1,0-3.68.79-3.68,2.15,0,1,1.07,1.91,2.33,2.45s2.91,1.21,4.8,2c2.39,1,3.94,2.54,3.94,5.44C210,37.73,208.21,41,202.54,41Zm-42-6.22c0,2.54.09,2.61,2.24,2.61H170a.57.57,0,0,1,.4.18.63.63,0,0,1,.16.42v1.94c0,.42-.14.58-.56.63a34.64,34.64,0,0,1-6.13.43c-4.72,0-7.22,0-7.22-6.21V25.2c0-6.23,2.5-6.2,7.22-6.2a36.15,36.15,0,0,1,6.13.42c.42.06.56.22.56.64V22a.59.59,0,0,1-.56.6h-7.19c-2.15,0-2.24.07-2.24,2.6V28h9.08a.59.59,0,0,1,.57.6v2.19a.63.63,0,0,1-.17.43.54.54,0,0,1-.4.17h-9.08Z"/><path class="cls-1" d="M29,20.56a1.37,1.37,0,0,1-.52,1.82,1.3,1.3,0,0,1-1,.11,1.32,1.32,0,0,1-.77-.66A1.36,1.36,0,0,1,27.27,20a1.4,1.4,0,0,1,.49-.15,1.27,1.27,0,0,1,.51.05,1.18,1.18,0,0,1,.45.25A1.38,1.38,0,0,1,29,20.56ZM22.59,31.09a.81.81,0,0,0-.3,1.07.72.72,0,0,0,.19.24.73.73,0,0,0,.26.14.71.71,0,0,0,.59-.07.69.69,0,0,0,.23-.19A.87.87,0,0,0,23.7,32a.82.82,0,0,0,0-.31.75.75,0,0,0-.09-.29.77.77,0,0,0-.46-.39A.76.76,0,0,0,22.59,31.09Zm-.13-3.24a.9.9,0,0,0-.42.55.91.91,0,0,0,1.28,1.07,1,1,0,0,0,.37-1.25,1,1,0,0,0-.23-.28.94.94,0,0,0-.31-.17,1,1,0,0,0-.35,0A.85.85,0,0,0,22.46,27.85Zm.82-3.11a1.06,1.06,0,0,0-.5.62,1.14,1.14,0,0,0,.08.81,1,1,0,0,0,1.39.42,1,1,0,0,0,.31-.26,1,1,0,0,0,.18-.36,1,1,0,0,0,0-.41,1,1,0,0,0-.72-.9A1,1,0,0,0,23.28,24.74ZM24.94,22a1.43,1.43,0,0,0-.35.3,1.21,1.21,0,0,0-.25.88,1.17,1.17,0,0,0,.13.44,1.13,1.13,0,0,0,1.55.48,1.11,1.11,0,0,0,.35-.29,1.25,1.25,0,0,0,.22-.41,1.44,1.44,0,0,0,0-.46,1.37,1.37,0,0,0-.13-.45,1.12,1.12,0,0,0-.29-.36,1.07,1.07,0,0,0-.84-.26A1.08,1.08,0,0,0,24.94,22ZM23.67,34.15a.78.78,0,0,0-.2.16.7.7,0,0,0-.11.23.8.8,0,0,0,0,.26.73.73,0,0,0,.08.25.67.67,0,0,0,.38.32.64.64,0,0,0,.49,0,.69.69,0,0,0,.31-.4.67.67,0,0,0-.06-.5.61.61,0,0,0-.38-.32A.62.62,0,0,0,23.67,34.15Zm14.84-11a.75.75,0,0,0,.46.38.72.72,0,0,0,.59-.05.82.82,0,0,0,.37-.48.88.88,0,0,0-.06-.6,1.12,1.12,0,0,0-.19-.24.59.59,0,0,0-.27-.14.77.77,0,0,0-.3,0,.71.71,0,0,0-.28.09.88.88,0,0,0-.24.19,1,1,0,0,0-.14.28.8.8,0,0,0,0,.31A.75.75,0,0,0,38.51,23.13ZM35.9,21.42a.87.87,0,0,0,1.21.37.92.92,0,0,0,.37-1.25.88.88,0,0,0-1.64.18A1,1,0,0,0,35.9,21.42Zm-3-.83a1.11,1.11,0,0,0,.25.32,1,1,0,0,0,1.13.1.93.93,0,0,0,.3-.26,1,1,0,0,0,.19-.36.94.94,0,0,0,0-.41,1,1,0,0,0-.11-.39,1,1,0,0,0-.26-.32.92.92,0,0,0-.35-.19.9.9,0,0,0-.4,0,1.05,1.05,0,0,0-.38.12,1.14,1.14,0,0,0-.31.27,1.11,1.11,0,0,0-.18.36,1.12,1.12,0,0,0,0,.41A.89.89,0,0,0,32.89,20.59Zm-3.15.13a1.12,1.12,0,0,0,.29.36,1.2,1.2,0,0,0,.4.22,1.19,1.19,0,0,0,.88-.09,1.23,1.23,0,0,0,.55-.71,1.25,1.25,0,0,0-.09-.91,1.2,1.2,0,0,0-.68-.55,1.17,1.17,0,0,0-.86.1,1.2,1.2,0,0,0-.56.69A1.25,1.25,0,0,0,29.74,20.72Zm10.73,4.83a.61.61,0,0,0,.85.27.62.62,0,0,0,.2-.16.84.84,0,0,0,.12-.23.71.71,0,0,0,0-.25.57.57,0,0,0-.08-.25.65.65,0,0,0-.37-.32.64.64,0,0,0-.49,0A.68.68,0,0,0,40.47,25.55ZM38.25,38.14a1.3,1.3,0,0,0-.32-.41,1.43,1.43,0,0,0-.45-.25,1.48,1.48,0,0,0-.51,0,1.35,1.35,0,0,0-.49.16,1.32,1.32,0,0,0-.4.34,1.11,1.11,0,0,0-.23.46,1.32,1.32,0,0,0-.05.52,1.39,1.39,0,0,0,.15.5,1.32,1.32,0,0,0,1.78.55A1.37,1.37,0,0,0,38.25,38.14Zm-11.77-1.3a.75.75,0,0,0-1-.32.71.71,0,0,0-.23.19.64.64,0,0,0-.14.27.82.82,0,0,0,0,.31.86.86,0,0,0,.09.3.84.84,0,0,0,.18.24.87.87,0,0,0,.27.14.77.77,0,0,0,.3,0,.73.73,0,0,0,.28-.1.71.71,0,0,0,.23-.19.78.78,0,0,0,.14-.27.82.82,0,0,0,0-.31A.75.75,0,0,0,26.48,36.84Zm2.61,1.71a.88.88,0,0,0-.53-.45.86.86,0,0,0-.68.08.93.93,0,0,0-.27.22,1.07,1.07,0,0,0-.16.32.74.74,0,0,0,0,.36.9.9,0,0,0,1.31.73.94.94,0,0,0,.43-.56A.9.9,0,0,0,29.09,38.55Zm3,.83A1,1,0,0,0,30.72,39a1.08,1.08,0,0,0-.41,1.43,1,1,0,0,0,1.39.43,1,1,0,0,0,.31-.26,1.24,1.24,0,0,0,.19-.36,1,1,0,0,0,0-.42A.89.89,0,0,0,32.11,39.38Zm3.14-.13a1.14,1.14,0,0,0-1.56-.48,1.19,1.19,0,0,0-.45,1.61,1.21,1.21,0,0,0,.28.36,1.18,1.18,0,0,0,.4.21.93.93,0,0,0,.44,0,1,1,0,0,0,.43-.14A1.19,1.19,0,0,0,35.25,39.25Zm7.14-10.36a.83.83,0,0,0,.33-1.08.91.91,0,0,0-.2-.24.72.72,0,0,0-.26-.14.77.77,0,0,0-.3,0,.66.66,0,0,0-.28.09.91.91,0,0,0-.24.2.87.87,0,0,0-.14.27.82.82,0,0,0,0,.31.86.86,0,0,0,.09.3.8.8,0,0,0,.45.38A.74.74,0,0,0,42.39,28.89Zm.14,3.23a.93.93,0,0,0,.36-1.25,1,1,0,0,0-.22-.27.79.79,0,0,0-.31-.17.82.82,0,0,0-.35,0,1,1,0,0,0-.33.11,1,1,0,0,0-.43.55,1,1,0,0,0,.06.71A.89.89,0,0,0,42.53,32.12Zm-.82,3.11a1.07,1.07,0,0,0,.43-1.43,1.06,1.06,0,0,0-.61-.51,1,1,0,0,0-.78.08,1.08,1.08,0,0,0-.5.63,1.14,1.14,0,0,0,.08.81,1,1,0,0,0,.61.5A.94.94,0,0,0,41.71,35.23Zm-1.65,2.69a1.21,1.21,0,0,0,.47-1.61A1.14,1.14,0,0,0,39,35.83a1.43,1.43,0,0,0-.35.3,1.44,1.44,0,0,0-.21.41,1.18,1.18,0,0,0,0,.46,1.39,1.39,0,0,0,.13.44,1.12,1.12,0,0,0,.29.36,1.2,1.2,0,0,0,.4.22,1.33,1.33,0,0,0,.45,0A1.23,1.23,0,0,0,40.06,37.92Z"/><path class="cls-1" d="M37.31,18.36a1.56,1.56,0,0,1-.3.55,1.73,1.73,0,0,1-.5.39,1.65,1.65,0,0,1-.62.18,1.53,1.53,0,0,1-.64-.05,1.76,1.76,0,0,1-.58-.29,1.62,1.62,0,0,1-.42-.48,1.52,1.52,0,0,1-.19-.59,1.62,1.62,0,0,1,.06-.62,1.57,1.57,0,0,1,.8-.95,1.65,1.65,0,0,1,.62-.18,1.58,1.58,0,0,1,.65.05,1.71,1.71,0,0,1,.57.29,1.91,1.91,0,0,1,.42.48,1.62,1.62,0,0,1,.19.6A1.64,1.64,0,0,1,37.31,18.36Zm-16,3.76a.84.84,0,0,0-.62.07.77.77,0,0,0-.4.47.79.79,0,0,0,.08.58.84.84,0,0,0,.48.37.94.94,0,0,0,.62-.06.84.84,0,0,0,.4-.45A.79.79,0,0,0,21.35,22.12Zm2.89-3a1.07,1.07,0,0,0-.4,0,1.15,1.15,0,0,0-.37.12,1,1,0,0,0-.31.24,1.11,1.11,0,0,0-.18.34.81.81,0,0,0,0,.38.94.94,0,0,0,.11.36,1,1,0,0,0,.26.29.88.88,0,0,0,.35.17,1,1,0,0,0,1.26-.65,1,1,0,0,0-.09-.74A1,1,0,0,0,24.24,19.08Zm3.7-2.14a1.29,1.29,0,0,0-1,.1,1.26,1.26,0,0,0-.63.73,1.24,1.24,0,0,0,.11.94,1.3,1.3,0,0,0,.77.59,1.44,1.44,0,0,0,.5.05,1.29,1.29,0,0,0,.48-.15,1.16,1.16,0,0,0,.39-.31,1,1,0,0,0,.23-.42,1.15,1.15,0,0,0-.11-.94A1.25,1.25,0,0,0,27.94,16.94Zm4.1-.88a1.58,1.58,0,0,0-.57,0,1.47,1.47,0,0,0-.54.16,1.33,1.33,0,0,0-.43.35,1.42,1.42,0,0,0-.27.48,1.4,1.4,0,0,0-.05.54,1.34,1.34,0,0,0,.17.51,1.32,1.32,0,0,0,.36.42,1.52,1.52,0,0,0,1.61.14,1.42,1.42,0,0,0,.69-.83,1.22,1.22,0,0,0,.06-.54,1.34,1.34,0,0,0-.17-.51,1.32,1.32,0,0,0-.36-.42A1.38,1.38,0,0,0,32,16.06ZM19.53,25.88a.65.65,0,0,0-.24,0,.62.62,0,0,0-.23.07.65.65,0,0,0-.18.15.49.49,0,0,0-.11.2.58.58,0,0,0,0,.23.47.47,0,0,0,.07.22.52.52,0,0,0,.15.18.68.68,0,0,0,.21.1.62.62,0,0,0,.76-.4.58.58,0,0,0,0-.23.65.65,0,0,0-.08-.22.8.8,0,0,0-.15-.17A.61.61,0,0,0,19.53,25.88Zm24.86,3.54a.8.8,0,0,0,0,.31.75.75,0,0,0,.09.29,1.21,1.21,0,0,0,.21.24,1,1,0,0,0,.29.14.84.84,0,0,0,.62-.07.81.81,0,0,0,.4-.47.76.76,0,0,0-.07-.59.79.79,0,0,0-.49-.38.86.86,0,0,0-.63.06A.79.79,0,0,0,44.39,29.42Zm-1-3.93a1,1,0,0,0,0,.38.81.81,0,0,0,.12.36,1,1,0,0,0,.25.29,1.22,1.22,0,0,0,.36.18A1,1,0,0,0,45.39,26a1,1,0,0,0-.69-1.2,1,1,0,0,0-.39,0,1,1,0,0,0-.38.11,1,1,0,0,0-.31.24A1,1,0,0,0,43.44,25.49ZM41.2,22a1.11,1.11,0,0,0,0,.48,1,1,0,0,0,.15.46,1.25,1.25,0,0,0,.76.59,1.43,1.43,0,0,0,.5,0,1.3,1.3,0,0,0,.87-.45,1.19,1.19,0,0,0,.23-.43,1.11,1.11,0,0,0,0-.48,1.31,1.31,0,0,0-.15-.46,1.13,1.13,0,0,0-.33-.36,1.08,1.08,0,0,0-.44-.22,1.29,1.29,0,0,0-1,.1A1.24,1.24,0,0,0,41.2,22ZM38.05,19.2a1.33,1.33,0,0,0,.12,1.05,1.43,1.43,0,0,0,.87.67,1.5,1.5,0,0,0,1.1-.12,1.33,1.33,0,0,0,.69-.82,1.25,1.25,0,0,0,.06-.54,1.38,1.38,0,0,0-.17-.52,1.61,1.61,0,0,0-.36-.42,1.8,1.8,0,0,0-.5-.25,1.53,1.53,0,0,0-1.11.12A1.4,1.4,0,0,0,38.05,19.2Zm6,14.19a.59.59,0,0,0,.06.45.61.61,0,0,0,.36.28.63.63,0,0,0,.24,0,.68.68,0,0,0,.23-.07.49.49,0,0,0,.18-.14.53.53,0,0,0,.11-.21.58.58,0,0,0,0-.23.63.63,0,0,0-.07-.22A.8.8,0,0,0,45,33.1a.65.65,0,0,0-.22-.11.67.67,0,0,0-.46,0A.64.64,0,0,0,44.05,33.39ZM29.88,42.56a1.32,1.32,0,0,0,.06-.62,1.41,1.41,0,0,0-.19-.6,1.49,1.49,0,0,0-.42-.48,1.76,1.76,0,0,0-.58-.29,1.55,1.55,0,0,0-.64,0A1.65,1.65,0,0,0,27,41.1a1.48,1.48,0,0,0-.3.55,1.56,1.56,0,0,0,.13,1.22,1.67,1.67,0,0,0,1,.77A1.69,1.69,0,0,0,29.88,42.56Zm-10.27-12a.78.78,0,0,0-.06-.6.85.85,0,0,0-.49-.38.86.86,0,0,0-.63.07.84.84,0,0,0-.4.47.77.77,0,0,0,0,.3,1,1,0,0,0,.1.29.79.79,0,0,0,.21.24.92.92,0,0,0,.28.14.87.87,0,0,0,.32,0,.85.85,0,0,0,.31-.09.78.78,0,0,0,.24-.2A.72.72,0,0,0,19.61,30.58Zm.95,3.93a.94.94,0,0,0,0-.37.77.77,0,0,0-.12-.36.88.88,0,0,0-.25-.29,1.16,1.16,0,0,0-.35-.18,1.07,1.07,0,0,0-.4,0,1,1,0,0,0-.38.11,1,1,0,0,0-.3.24,1,1,0,0,0-.18.34.92.92,0,0,0,.08.74,1,1,0,0,0,.61.46,1.08,1.08,0,0,0,.77-.08A1,1,0,0,0,20.56,34.51Zm2.24,3.54a1.15,1.15,0,0,0-.11-.94,1.25,1.25,0,0,0-.77-.59,1.29,1.29,0,0,0-1,.1,1.25,1.25,0,0,0-.61.74,1.1,1.1,0,0,0,0,.48,1.31,1.31,0,0,0,.15.46,1.22,1.22,0,0,0,.32.36,1.37,1.37,0,0,0,.45.23,1.4,1.4,0,0,0,.5,0,1.16,1.16,0,0,0,.48-.14,1.3,1.3,0,0,0,.39-.31A1,1,0,0,0,22.8,38.05ZM26,40.81a1.31,1.31,0,0,0-.12-1.06,1.48,1.48,0,0,0-.87-.67,1.75,1.75,0,0,0-.56,0,1.48,1.48,0,0,0-.54.17,1.33,1.33,0,0,0-.43.35,1.25,1.25,0,0,0-.26.48,1.4,1.4,0,0,0-.05.54,1.34,1.34,0,0,0,.17.51,1.44,1.44,0,0,0,.36.42,1.57,1.57,0,0,0,.5.25,1.5,1.5,0,0,0,1.1-.12A1.38,1.38,0,0,0,26,40.81Zm16.69-2.93a.91.91,0,0,0,.63-.06.77.77,0,0,0,.4-.47.74.74,0,0,0-.07-.6.79.79,0,0,0-.49-.38.83.83,0,0,0-1,.53.79.79,0,0,0,.07.6A.83.83,0,0,0,42.64,37.88Zm-2.88,3a1,1,0,0,0,.77-.08,1,1,0,0,0,.49-.57,1,1,0,0,0,0-.38,1.09,1.09,0,0,0-.12-.36,1,1,0,0,0-.25-.29.9.9,0,0,0-.35-.18,1.06,1.06,0,0,0-.78.08,1,1,0,0,0-.49.58.94.94,0,0,0,.09.73A1,1,0,0,0,39.76,40.92Zm-3.7,2.15a1.43,1.43,0,0,0,.5,0,1.63,1.63,0,0,0,.49-.14,1.29,1.29,0,0,0,.38-.31,1.15,1.15,0,0,0,.28-.91,1.25,1.25,0,0,0-.15-.46,1.26,1.26,0,0,0-.32-.37,1.45,1.45,0,0,0-.45-.22,1.2,1.2,0,0,0-.5,0,1.24,1.24,0,0,0-.86.45,1.18,1.18,0,0,0-.24.42,1.12,1.12,0,0,0,0,.48,1,1,0,0,0,.15.46,1.14,1.14,0,0,0,.32.37A1.42,1.42,0,0,0,36.06,43.07ZM32,43.94a1.51,1.51,0,0,0,.56.05,1.47,1.47,0,0,0,.54-.16,1.34,1.34,0,0,0,.44-.34,1.72,1.72,0,0,0,.26-.48,1.42,1.42,0,0,0,0-.54,1.38,1.38,0,0,0-.17-.52,1.48,1.48,0,0,0-2-.55,1.37,1.37,0,0,0-.7.83,1.33,1.33,0,0,0,.13,1.05A1.4,1.4,0,0,0,32,43.94Z"/><path class="cls-1" d="M45.82,19.32a2.15,2.15,0,0,1-3,.08,2.15,2.15,0,0,1-.48-.64A2,2,0,0,1,42.2,18a1.85,1.85,0,0,1,.14-.77,2,2,0,0,1,.44-.67,2.06,2.06,0,0,1,.66-.46,2,2,0,0,1,.8-.17,2,2,0,0,1,1.58,3.4ZM25,14.74a1.06,1.06,0,0,0-.74-.27,1,1,0,0,0-.72.31,1,1,0,0,0-.28.71.94.94,0,0,0,.32.69,1,1,0,0,0,.74.27,1.08,1.08,0,0,0,.72-.31,1,1,0,0,0,.28-.71A1,1,0,0,0,25,14.74Zm5.23-1.92a1.32,1.32,0,0,0-1.8,0,1.22,1.22,0,0,0-.27.41,1.26,1.26,0,0,0-.08.47,1.29,1.29,0,0,0,.11.47,1.24,1.24,0,0,0,.29.39,1.32,1.32,0,0,0,1.8,0,1.2,1.2,0,0,0,0-1.74Zm5.61-.4A1.69,1.69,0,0,0,34.64,12a1.63,1.63,0,0,0-1.13.49,1.51,1.51,0,0,0-.41,1.1,1.53,1.53,0,0,0,.51,1.07,1.66,1.66,0,0,0,2.26,0,1.51,1.51,0,0,0,.43-1.12A1.55,1.55,0,0,0,35.8,12.42Zm5.3,1.31a1.66,1.66,0,0,0-.6-.36,2.06,2.06,0,0,0-.7-.12,1.83,1.83,0,0,0-.69.16,1.67,1.67,0,0,0-.58.4,1.77,1.77,0,0,0-.38.58,1.89,1.89,0,0,0-.12.67,1.73,1.73,0,0,0,.16.67,1.88,1.88,0,0,0,.41.56,1.89,1.89,0,0,0,2.58-.08A1.68,1.68,0,0,0,41.67,15,1.72,1.72,0,0,0,41.1,13.73ZM20.52,18.1a.74.74,0,0,0-.55-.2.72.72,0,0,0-.53.23.63.63,0,0,0-.16.24.72.72,0,0,0-.06.29,1,1,0,0,0,.07.28.58.58,0,0,0,.18.23.72.72,0,0,0,.25.16.93.93,0,0,0,.29.05.73.73,0,0,0,.3-.07.78.78,0,0,0,.24-.16.74.74,0,0,0,.21-.54A.69.69,0,0,0,20.52,18.1ZM47.31,36.4a1,1,0,0,0-.28.71.94.94,0,0,0,.32.7,1.06,1.06,0,0,0,.73.25,1,1,0,0,0,.71-.31.93.93,0,0,0,.28-.7,1,1,0,0,0-.3-.7,1.05,1.05,0,0,0-.74-.26A1,1,0,0,0,47.31,36.4Zm1.32-5.14a1.21,1.21,0,0,0-.34.88,1.18,1.18,0,0,0,.4.85,1.14,1.14,0,0,0,.42.26,1.36,1.36,0,0,0,.49.08,1.3,1.3,0,0,0,.48-.11,1.15,1.15,0,0,0,.41-.28,1.2,1.2,0,0,0,.26-.4,1.32,1.32,0,0,0,.09-.48,1.21,1.21,0,0,0-.12-.46,1.11,1.11,0,0,0-.29-.39,1.25,1.25,0,0,0-.91-.33A1.27,1.27,0,0,0,48.63,31.26Zm-.41-5.41a1.54,1.54,0,0,0-.33.51,1.61,1.61,0,0,0-.11.61,1.56,1.56,0,0,0,.15.59,1.45,1.45,0,0,0,.36.49,1.63,1.63,0,0,0,1.16.43,1.92,1.92,0,0,0,.62-.14,1.6,1.6,0,0,0,.51-.35A1.52,1.52,0,0,0,51,26.88a1.56,1.56,0,0,0-.51-1.08,1.64,1.64,0,0,0-1.14-.42A1.68,1.68,0,0,0,48.22,25.85Zm-2-5a1.81,1.81,0,0,0-.47.92,1.68,1.68,0,0,0,.14,1,1.85,1.85,0,0,0,.7.77,1.89,1.89,0,0,0,1,.26,1.85,1.85,0,0,0,1-.32,1.8,1.8,0,0,0,.64-.81,1.62,1.62,0,0,0,.07-1,1.69,1.69,0,0,0-.52-.88A1.88,1.88,0,0,0,46.26,20.83Zm-1.8,20a.74.74,0,0,0,0,1,.8.8,0,0,0,.55.2,1,1,0,0,0,.29-.07.81.81,0,0,0,.24-.17.63.63,0,0,0,.16-.24.59.59,0,0,0,0-.29.67.67,0,0,0-.06-.28.84.84,0,0,0-.18-.23.82.82,0,0,0-.25-.16,1,1,0,0,0-.3-.05,1,1,0,0,0-.29.07A.85.85,0,0,0,44.46,40.86ZM22.25,43.45a2,2,0,0,0-.1-2.84,2.15,2.15,0,0,0-2.95.07,2,2,0,0,0,.13,2.81A2.11,2.11,0,0,0,20.8,44,2.17,2.17,0,0,0,22.25,43.45ZM17.72,23.6a1,1,0,0,0,.21-.33,1,1,0,0,0,.07-.38,1.24,1.24,0,0,0-.09-.38,1.08,1.08,0,0,0-.24-.32.9.9,0,0,0-.34-.2,1.09,1.09,0,0,0-.4-.07,1.38,1.38,0,0,0-.39.09,1.19,1.19,0,0,0-.33.22,1,1,0,0,0,.05,1.41A1.07,1.07,0,0,0,17.72,23.6Zm-1.33,5.14a1.21,1.21,0,0,0,.34-.88,1.25,1.25,0,0,0-.39-.86,1.36,1.36,0,0,0-.91-.31,1.26,1.26,0,0,0-.87.39,1.17,1.17,0,0,0-.35.86,1.21,1.21,0,0,0,.37.85,1.39,1.39,0,0,0,.92.34A1.32,1.32,0,0,0,16.39,28.74Zm.41,5.41A1.55,1.55,0,0,0,17.24,33a1.6,1.6,0,0,0-.51-1.09,1.68,1.68,0,0,0-1.16-.42,1.63,1.63,0,0,0-1.13.49A1.51,1.51,0,0,0,14,33.13a1.56,1.56,0,0,0,.51,1.09A1.66,1.66,0,0,0,16.8,34.15Zm1.95,5a1.7,1.7,0,0,0-.07-2.48,2.07,2.07,0,0,0-.6-.37,1.87,1.87,0,0,0-.7-.11,1.94,1.94,0,0,0-1.27.55,1.67,1.67,0,0,0-.38.58,1.6,1.6,0,0,0-.12.68,1.73,1.73,0,0,0,.16.67,1.59,1.59,0,0,0,.41.56,1.91,1.91,0,0,0,1.3.47A1.87,1.87,0,0,0,18.75,39.17Zm21.31,6.09a1.2,1.2,0,0,0,.34.21.93.93,0,0,0,.4.06,1,1,0,0,0,.39-.08,1,1,0,0,0,.33-.23,1.06,1.06,0,0,0,.22-.33,1,1,0,0,0,.06-.38.85.85,0,0,0-.09-.38.87.87,0,0,0-.23-.31,1.2,1.2,0,0,0-.34-.21.91.91,0,0,0-.4-.06,1,1,0,0,0-.39.08,1,1,0,0,0-.33.23,1,1,0,0,0-.28.71A1,1,0,0,0,40.06,45.26Zm-5.23,1.92a1.31,1.31,0,0,0,1.8,0,1.22,1.22,0,0,0,.27-.41,1.09,1.09,0,0,0,.08-.47,1.12,1.12,0,0,0-.11-.47,1.24,1.24,0,0,0-.29-.39,1.31,1.31,0,0,0-1.8.06,1.19,1.19,0,0,0-.35.87A1.22,1.22,0,0,0,34.83,47.18Zm-5.61.39a1.65,1.65,0,0,0,2.29-.06,1.54,1.54,0,0,0,.33-.51,1.42,1.42,0,0,0,.11-.6,1.55,1.55,0,0,0-.14-.6,1.59,1.59,0,0,0-.37-.49,1.66,1.66,0,0,0-2.29.06,1.56,1.56,0,0,0-.44,1.11,1.48,1.48,0,0,0,.51,1.09Zm-5.3-1.3a1.85,1.85,0,0,0,.6.36,2.15,2.15,0,0,0,.7.12,1.88,1.88,0,0,0,.7-.16,1.73,1.73,0,0,0,.57-.4,1.62,1.62,0,0,0,.38-.58,1.89,1.89,0,0,0,.12-.67,1.93,1.93,0,0,0-.16-.67,1.62,1.62,0,0,0-.42-.55,1.77,1.77,0,0,0-.6-.37,1.84,1.84,0,0,0-.7-.11,2,2,0,0,0-.69.15,1.94,1.94,0,0,0-.58.4,1.79,1.79,0,0,0-.37.58,1.6,1.6,0,0,0-.12.68,1.69,1.69,0,0,0,.16.66A1.88,1.88,0,0,0,23.92,46.27Z"/><path class="cls-1" d="M54.08,23.33a2.46,2.46,0,0,1-1.92,0A2.55,2.55,0,0,1,50.78,22a2.6,2.6,0,0,1,0-1.95,2.41,2.41,0,0,1,.53-.83,2.54,2.54,0,0,1,.81-.57,2.46,2.46,0,0,1,1.9,0A2.51,2.51,0,0,1,55.35,20a2.55,2.55,0,0,1,0,1.92A2.52,2.52,0,0,1,54.08,23.33ZM36.46,7.13a1.39,1.39,0,0,0-.2-.51,1.37,1.37,0,0,0-.38-.38,1.38,1.38,0,0,0-1.55,0,1.37,1.37,0,0,0-.38.38,1.39,1.39,0,0,0-.2.51,1.28,1.28,0,0,0,0,.55,1.39,1.39,0,0,0,.6.86,1.35,1.35,0,0,0,1,.2,1.41,1.41,0,0,0,1.09-1.61Zm5.95,1.31a1.83,1.83,0,0,0-.28-.6,1.71,1.71,0,0,0-.49-.44A1.54,1.54,0,0,0,41,7.18a1.77,1.77,0,0,0-.65,0,1.71,1.71,0,0,0-.59.29,1.59,1.59,0,0,0-.44.49,1.74,1.74,0,0,0,.1,1.89,1.76,1.76,0,0,0,.49.45,1.66,1.66,0,0,0,.61.22,1.64,1.64,0,0,0,.66,0,1.55,1.55,0,0,0,.59-.29,1.69,1.69,0,0,0,.43-.49,1.53,1.53,0,0,0,.22-.63A1.84,1.84,0,0,0,42.41,8.44Zm5.48,2.68a2.19,2.19,0,0,0-.39-.72,2,2,0,0,0-.64-.52,2.15,2.15,0,0,0-.78-.24,2.08,2.08,0,0,0-1.53.49,2.12,2.12,0,0,0-.51.64,2,2,0,0,0-.23.8,2.09,2.09,0,0,0,.08.82,2.12,2.12,0,0,0,1,1.2,2.05,2.05,0,0,0,2.78-.88A2.14,2.14,0,0,0,47.89,11.12Zm4.37,4a2.46,2.46,0,0,0-.47-.78,2.39,2.39,0,0,0-.73-.54,2.23,2.23,0,0,0-.88-.21,2.21,2.21,0,0,0-.88.15,2.11,2.11,0,0,0-.77.47,2.15,2.15,0,0,0-.53.74,2.28,2.28,0,0,0-.21.89,2.5,2.5,0,0,0,.14.9A2.34,2.34,0,0,0,49.13,18a2.29,2.29,0,0,0,3.06-1.15A2.34,2.34,0,0,0,52.26,15.08ZM24.55,8.71a1,1,0,0,0-.23-.33A1,1,0,0,0,24,8.16a1.22,1.22,0,0,0-.38-.07,1,1,0,0,0-.91,1.43,1,1,0,0,0,1.32.53A1,1,0,0,0,24.55,8.71ZM49.69,42.44a1.37,1.37,0,0,0-.54.91,1.4,1.4,0,0,0,.24,1,1.39,1.39,0,0,0,.88.57,1.36,1.36,0,0,0,1-.22,1.28,1.28,0,0,0,.37-.4,1.39,1.39,0,0,0,.2-.51,1.46,1.46,0,0,0,0-.55,1.5,1.5,0,0,0-.22-.5,1.32,1.32,0,0,0-.9-.57,1.4,1.4,0,0,0-.54,0A1.37,1.37,0,0,0,49.69,42.44ZM52.44,37a1.58,1.58,0,0,0-.48.45,1.54,1.54,0,0,0-.28.61,1.68,1.68,0,0,0,0,.67,1.7,1.7,0,0,0,.23.63,1.79,1.79,0,0,0,.46.49,1.68,1.68,0,0,0,.61.27,1.83,1.83,0,0,0,.66,0,1.78,1.78,0,0,0,.62-.26,1.72,1.72,0,0,0,.49-2.33A1.67,1.67,0,0,0,52.44,37Zm1.31-6.17a2.12,2.12,0,0,0-1,1.28A2.15,2.15,0,0,0,53,33.68a2,2,0,0,0,.53.63,1.94,1.94,0,0,0,.73.37,2,2,0,0,0,.81.07,2.34,2.34,0,0,0,.77-.26,2.14,2.14,0,0,0,.62-.54,2.19,2.19,0,0,0,.44-1.56,2.17,2.17,0,0,0-.26-.79,2,2,0,0,0-.53-.63,2,2,0,0,0-.72-.37,2.08,2.08,0,0,0-.82-.07A2.13,2.13,0,0,0,53.75,30.79Zm-.08-6.18A2.29,2.29,0,0,0,52.51,26a2.36,2.36,0,0,0,.11,1.79,2.6,2.6,0,0,0,.55.72,2.28,2.28,0,0,0,1.68.58,2.62,2.62,0,0,0,.87-.24,2.41,2.41,0,0,0,.71-.56,2.39,2.39,0,0,0,.45-.79,2.16,2.16,0,0,0,.11-.91,2.49,2.49,0,0,0-.23-.88,2.29,2.29,0,0,0-1.33-1.17A2.25,2.25,0,0,0,53.67,24.61ZM41,49.94a1,1,0,0,0-.32.23,1.19,1.19,0,0,0-.22.33,1.34,1.34,0,0,0-.07.4,1.1,1.1,0,0,0,.09.39,1,1,0,0,0,.55.54,1,1,0,0,0,.38.07,1,1,0,0,0,.39-.08,1,1,0,0,0,.53-1.34,1,1,0,0,0-.56-.55A1,1,0,0,0,41,49.94Zm-28.07-8.6a2.5,2.5,0,0,0,1.33-1.4,2.54,2.54,0,0,0,0-1.95,2.64,2.64,0,0,0-.55-.81,2.44,2.44,0,0,0-.82-.54,2.31,2.31,0,0,0-1-.18,2.28,2.28,0,0,0-1,.21,2.49,2.49,0,0,0-1.34,1.39,2.53,2.53,0,0,0,0,1.95A2.54,2.54,0,0,0,11,41.37,2.49,2.49,0,0,0,12.91,41.34Zm2.4-23.78a1.28,1.28,0,0,0,.37-.4,1.39,1.39,0,0,0,.2-.51,1.46,1.46,0,0,0,0-.55,1.32,1.32,0,0,0-.22-.5,1.41,1.41,0,0,0-.39-.38,1.27,1.27,0,0,0-.5-.19,1.4,1.4,0,0,0-.54,0,1.34,1.34,0,0,0-.5.23,1.38,1.38,0,0,0-.37.39,1.56,1.56,0,0,0-.2.52,1.46,1.46,0,0,0,0,.55,1.5,1.5,0,0,0,.22.5,1.46,1.46,0,0,0,.9.57A1.4,1.4,0,0,0,15.31,17.56ZM12.56,23a1.59,1.59,0,0,0,.47-.46A1.68,1.68,0,0,0,13.3,22a1.83,1.83,0,0,0,0-.66,1.61,1.61,0,0,0-.24-.62,1.67,1.67,0,0,0-3.05.53,1.72,1.72,0,0,0,.22,1.29,1.66,1.66,0,0,0,2.31.53ZM11.25,29.2a2.08,2.08,0,0,0,.65-.53,2.29,2.29,0,0,0,.39-.74,2.16,2.16,0,0,0,.07-.84,2,2,0,0,0-.26-.8,2,2,0,0,0-.54-.64,2.06,2.06,0,0,0-.74-.37,2,2,0,0,0-.83-.05,2,2,0,0,0-.79.28,2.09,2.09,0,0,0-1,1.27,2.15,2.15,0,0,0,.19,1.61,2.07,2.07,0,0,0,1.26,1A2,2,0,0,0,11.25,29.2Zm.08,6.19A2.31,2.31,0,0,0,12.49,34a2.36,2.36,0,0,0-.11-1.79,2.42,2.42,0,0,0-.55-.72,2.47,2.47,0,0,0-.78-.46,2.5,2.5,0,0,0-.9-.11,2.32,2.32,0,0,0-1.58.79,2.49,2.49,0,0,0-.45.79,2.17,2.17,0,0,0-.11.91,2.39,2.39,0,0,0,.23.88,2.29,2.29,0,0,0,3.09,1.06ZM28.54,52.87a1.39,1.39,0,0,0,.2.51,1.56,1.56,0,0,0,.39.38,1.16,1.16,0,0,0,.5.21,1.23,1.23,0,0,0,.54,0,1.37,1.37,0,0,0,.88-.6,1.4,1.4,0,0,0-1.43-2.16,1.43,1.43,0,0,0-.88.6A1.45,1.45,0,0,0,28.54,52.87ZM22.6,51.55a1.65,1.65,0,0,0,.28.6,1.87,1.87,0,0,0,.48.45,1.7,1.7,0,0,0,.62.22,1.64,1.64,0,0,0,.66,0,1.69,1.69,0,0,0,.59-.28,1.87,1.87,0,0,0,.43-.5,1.54,1.54,0,0,0,.22-.62,1.88,1.88,0,0,0,0-.67,2,2,0,0,0-.29-.6,1.68,1.68,0,0,0-.48-.44,1.7,1.7,0,0,0-.62-.22,1.58,1.58,0,0,0-.65,0,1.53,1.53,0,0,0-.59.28,1.62,1.62,0,0,0-.44.5,1.7,1.7,0,0,0-.22.62A1.63,1.63,0,0,0,22.6,51.55Zm-5.49-2.68a2.44,2.44,0,0,0,.39.73,2.15,2.15,0,0,0,.64.52,2,2,0,0,0,.78.23,1.86,1.86,0,0,0,.81-.09,2,2,0,0,0,1.23-1,2,2,0,0,0,.23-.79,2.05,2.05,0,0,0-.08-.82,2.14,2.14,0,0,0-1-1.25,2,2,0,0,0-1.59-.14,1.94,1.94,0,0,0-.72.39,2.09,2.09,0,0,0-.51.64,2,2,0,0,0-.23.8A2.09,2.09,0,0,0,17.11,48.87Zm-4.37-3.95a2.71,2.71,0,0,0,.47.78,2.4,2.4,0,0,0,.73.53,2.23,2.23,0,0,0,.88.21,2.39,2.39,0,0,0,.88-.14A2.34,2.34,0,0,0,17,45.08,2.41,2.41,0,0,0,17,43.31a2.26,2.26,0,0,0-4.21-.18A2.41,2.41,0,0,0,12.74,44.92Zm33,2.06a1.06,1.06,0,0,0-.37.73,1.13,1.13,0,0,0,.22.79,1.1,1.1,0,0,0,1.5.2,1.12,1.12,0,0,0,.28-.33,1,1,0,0,0,.15-.41,1.63,1.63,0,0,0,0-.44,1.2,1.2,0,0,0-.2-.39,1.12,1.12,0,0,0-.33-.28,1.23,1.23,0,0,0-.41-.13,1.06,1.06,0,0,0-.43.05A1,1,0,0,0,45.73,47ZM35.59,51.41a1.11,1.11,0,0,0-.91,1.25,1.12,1.12,0,0,0,.14.4,1.08,1.08,0,0,0,.28.32,1,1,0,0,0,.38.18,1,1,0,0,0,.43,0,.93.93,0,0,0,.39-.15,1.08,1.08,0,0,0,.32-.28,1.15,1.15,0,0,0,.18-.39,1,1,0,0,0,0-.43,1.12,1.12,0,0,0-.14-.4,1,1,0,0,0-.28-.32,1.06,1.06,0,0,0-.81-.21ZM30.33,7.34a1.19,1.19,0,0,0-.15-.41,1.22,1.22,0,0,0-.28-.32,1.33,1.33,0,0,0-.38-.18,1.23,1.23,0,0,0-.43,0,1.11,1.11,0,0,0-.71.43,1.11,1.11,0,0,0,.23,1.54,1.08,1.08,0,0,0,1.51-.23A1.12,1.12,0,0,0,30.33,7.34ZM19.44,11.48a1,1,0,0,0-.72-.41,1.09,1.09,0,0,0-1.16.75,1.16,1.16,0,0,0,0,.64,1.11,1.11,0,0,0,.34.53,1.09,1.09,0,0,0,.58.26,1.11,1.11,0,0,0,.62-.11,1.08,1.08,0,0,0,.45-.45,1,1,0,0,0,.13-.62A1,1,0,0,0,19.44,11.48Z"/><path class="cls-1" d="M61.73,33.21a3.34,3.34,0,0,1-2.32-.94A3.19,3.19,0,0,1,58.46,30a3,3,0,0,1,.25-1.23,3.1,3.1,0,0,1,.71-1.05A3.29,3.29,0,0,1,60.48,27a3.35,3.35,0,0,1,1.25-.24A3.31,3.31,0,0,1,63,27a3.16,3.16,0,0,1,1.06.7,3,3,0,0,1,.71,1A3.08,3.08,0,0,1,65,30a3.2,3.2,0,0,1-1,2.27A3.31,3.31,0,0,1,61.73,33.21ZM48.88,5.5a1.61,1.61,0,0,0,0-.69,1.73,1.73,0,0,0-.75-1.14,1.79,1.79,0,0,0-.65-.27,1.84,1.84,0,0,0-1.35.24,1.8,1.8,0,0,0-.51.48,1.92,1.92,0,0,0-.28.64,1.73,1.73,0,0,0,.25,1.33,1.75,1.75,0,0,0,1.14.77,1.85,1.85,0,0,0,1.36-.24A1.79,1.79,0,0,0,48.88,5.5ZM55.33,10a2.11,2.11,0,0,0,0-.83,2.18,2.18,0,0,0-.36-.77,2.12,2.12,0,0,0-.63-.56,2,2,0,0,0-.8-.29,2.23,2.23,0,0,0-1.6.4,2.14,2.14,0,0,0-.48,3,2.17,2.17,0,0,0,3,.49A2.18,2.18,0,0,0,55.33,10Zm8.41,12.69a3,3,0,0,0-.16-1.14,3.13,3.13,0,0,0-.6-1A3.17,3.17,0,0,0,62,19.9a3,3,0,0,0-3.31.47,2.85,2.85,0,0,0-.7.92,2.9,2.9,0,0,0-.29,1.12,2.94,2.94,0,0,0,1.7,2.84,3,3,0,0,0,1.14.29,3.08,3.08,0,0,0,1.17-.17,3,3,0,0,0,1-.59,2.89,2.89,0,0,0,.7-.93A2.81,2.81,0,0,0,63.74,22.72ZM33.82,1.29A1.3,1.3,0,0,0,32.5,0a1.33,1.33,0,0,0-.9.39,1.32,1.32,0,0,0-.37.9,1.3,1.3,0,0,0,.37.89,1.29,1.29,0,0,0,.9.4A1.31,1.31,0,0,0,33.82,1.29ZM46.74,53.13a1.84,1.84,0,0,0-.64.28,1.8,1.8,0,0,0-.5.49,1.76,1.76,0,0,0,.54,2.46,1.81,1.81,0,0,0,1.36.25,1.84,1.84,0,0,0,1.13-.77,1.73,1.73,0,0,0,.26-1.34,1.77,1.77,0,0,0-.79-1.12A1.9,1.9,0,0,0,46.74,53.13Zm6.09-5a2.3,2.3,0,0,0-.81.28,2.15,2.15,0,0,0-.63.57,2,2,0,0,0-.37.77,2,2,0,0,0,0,.84,2,2,0,0,0,.29.79,2.32,2.32,0,0,0,.59.62,2.39,2.39,0,0,0,.78.35,2.26,2.26,0,0,0,.86,0,2.17,2.17,0,0,0,1.41-.86A2.11,2.11,0,0,0,55.31,50a2.15,2.15,0,0,0-.87-1.4A2.24,2.24,0,0,0,52.83,48.18Zm4.7-6.49a2.8,2.8,0,0,0-1.84,1,2.64,2.64,0,0,0,.41,3.76,2.74,2.74,0,0,0,3,.28,2.68,2.68,0,0,0,.82-.67,2.58,2.58,0,0,0,.5-.92,2.69,2.69,0,0,0-.9-2.85A2.81,2.81,0,0,0,57.53,41.69Zm3-7.21a3.05,3.05,0,0,0-2.07,1,2.93,2.93,0,0,0,.22,4.17,2.92,2.92,0,0,0,1,.59A3.12,3.12,0,0,0,62,40.1a3.17,3.17,0,0,0,.94-.69,3.24,3.24,0,0,0,.6-1,3,3,0,0,0,.16-1.14,2.91,2.91,0,0,0-1-2A3,3,0,0,0,60.58,34.48ZM32.5,57.42a1.35,1.35,0,0,0-.91.39,1.28,1.28,0,0,0,0,1.8,1.29,1.29,0,0,0,1.84,0,1.28,1.28,0,0,0,0-1.82A1.34,1.34,0,0,0,32.5,57.42ZM3.27,33.21a3.29,3.29,0,0,0,2.31-.94,3.17,3.17,0,0,0,1-2.27,3,3,0,0,0-.25-1.23,3,3,0,0,0-.71-1A3.16,3.16,0,0,0,4.52,27a3.31,3.31,0,0,0-1.25-.24A3.35,3.35,0,0,0,2,27a3.16,3.16,0,0,0-1.06.7,3,3,0,0,0-.71,1A3.08,3.08,0,0,0,0,30a3.2,3.2,0,0,0,1,2.27A3.31,3.31,0,0,0,3.27,33.21Zm15-26.35a1.79,1.79,0,0,0,1.14-.77,1.73,1.73,0,0,0,.25-1.33,1.67,1.67,0,0,0-.28-.64,1.76,1.76,0,0,0-.5-.48,1.9,1.9,0,0,0-.66-.26,1.83,1.83,0,0,0-.7,0,1.76,1.76,0,0,0-.65.27,1.9,1.9,0,0,0-.49.49,1.74,1.74,0,0,0-.26.65,1.78,1.78,0,0,0,0,.69,1.63,1.63,0,0,0,.28.63,1.8,1.8,0,0,0,.5.49,1.91,1.91,0,0,0,.65.25A1.88,1.88,0,0,0,18.26,6.86Zm-6.08,5A2.19,2.19,0,0,0,13.6,11a2.09,2.09,0,0,0,.4-1.6,2.23,2.23,0,0,0-.3-.79A2.11,2.11,0,0,0,13.12,8a2,2,0,0,0-.78-.35,2.22,2.22,0,0,0-.85,0,2.56,2.56,0,0,0-.8.29,2.45,2.45,0,0,0-.63.57,2.19,2.19,0,0,0-.35.76,2,2,0,0,0,0,.84,2.12,2.12,0,0,0,.87,1.4A2.19,2.19,0,0,0,12.18,11.82ZM7.47,18.31a2.73,2.73,0,0,0,1.79-1,2.67,2.67,0,0,0,.58-1.94,2.71,2.71,0,0,0-1-1.78,2.66,2.66,0,0,0-3-.3,2.55,2.55,0,0,0-.82.67,2.58,2.58,0,0,0-.5.92,2.61,2.61,0,0,0-.09,1,2.71,2.71,0,0,0,.31,1,2.66,2.66,0,0,0,1.62,1.29A2.94,2.94,0,0,0,7.47,18.31Zm-3,7.2a3,3,0,0,0,2.08-1,2.94,2.94,0,0,0,.77-2.13,2.89,2.89,0,0,0-1-2,2.92,2.92,0,0,0-1-.59,2.84,2.84,0,0,0-1.16-.16A3,3,0,0,0,3,19.9a3.17,3.17,0,0,0-.94.69,3.13,3.13,0,0,0-.6,1,2.95,2.95,0,0,0,.83,3.18A3,3,0,0,0,4.42,25.51Zm11.7,29a1.78,1.78,0,0,0,0,.69,1.63,1.63,0,0,0,.26.64,1.8,1.8,0,0,0,.49.5,2,2,0,0,0,.65.27,1.83,1.83,0,0,0,.7,0,1.88,1.88,0,0,0,.66-.25,1.67,1.67,0,0,0,.5-.49,1.63,1.63,0,0,0,.28-.63,1.77,1.77,0,0,0-.25-1.34,1.83,1.83,0,0,0-1.14-.77,1.9,1.9,0,0,0-1.36.25A1.79,1.79,0,0,0,16.12,54.5ZM9.68,50a1.94,1.94,0,0,0,0,.83,2,2,0,0,0,.35.76,2.21,2.21,0,0,0,1.43.86,2.18,2.18,0,0,0,1.26-.17,2.15,2.15,0,0,0,1.27-2,2.16,2.16,0,0,0-1.43-1.93,2.17,2.17,0,0,0-1.26-.08,2.22,2.22,0,0,0-1.1.63A2.15,2.15,0,0,0,9.68,50Zm-5.2-5.89a2.61,2.61,0,0,0,.09,1,2.58,2.58,0,0,0,.5.92,2.68,2.68,0,0,0,.82.67,2.76,2.76,0,0,0,1,.31A2.9,2.9,0,0,0,8,46.92a2.62,2.62,0,0,0,.94-.48,2.65,2.65,0,0,0,.68-.81,2.51,2.51,0,0,0,.32-1,2.6,2.6,0,0,0-.1-1,2.68,2.68,0,0,0-.49-.93A2.94,2.94,0,0,0,8.49,42a2.81,2.81,0,0,0-1-.31,2.94,2.94,0,0,0-1.06.1,2.66,2.66,0,0,0-1.62,1.29A2.71,2.71,0,0,0,4.48,44.08Zm-3.22-6.8a3,3,0,0,0,.16,1.14,3.24,3.24,0,0,0,.6,1A3.36,3.36,0,0,0,3,40.1a3.24,3.24,0,0,0,1.14.28,3.23,3.23,0,0,0,1.16-.16A3,3,0,0,0,7,38.7a2.89,2.89,0,0,0-.48-3.24,3,3,0,0,0-4.25-.22A2.91,2.91,0,0,0,1.26,37.28ZM39.7,56.39a1.45,1.45,0,0,0-.86.65,1.43,1.43,0,0,0-.14,1.05,1.39,1.39,0,0,0,.66.84,1.43,1.43,0,0,0,1.07.14,1.49,1.49,0,0,0,.86-.64,1.61,1.61,0,0,0,.18-.52,1.39,1.39,0,0,0-.7-1.38A1.47,1.47,0,0,0,39.7,56.39Zm-14.4,0a1.42,1.42,0,0,0-1.05.16,1.38,1.38,0,0,0-.65.83,1.4,1.4,0,0,0,.14,1,1.42,1.42,0,0,0,.83.65,1.51,1.51,0,0,0,.56,0,1.73,1.73,0,0,0,.53-.17,1.61,1.61,0,0,0,.42-.36,1.52,1.52,0,0,0,.25-.49,1.28,1.28,0,0,0,0-.55,1.4,1.4,0,0,0-.18-.52,1.44,1.44,0,0,0-.38-.4A1.54,1.54,0,0,0,25.3,56.39ZM41.43,2.63a1.41,1.41,0,0,0,0-.54,1.61,1.61,0,0,0-.18-.52,1.36,1.36,0,0,0-1.9-.47A1.36,1.36,0,0,0,38.89,3a1.4,1.4,0,0,0,.81.66,1.7,1.7,0,0,0,.55,0,1.38,1.38,0,0,0,.52-.17,1.38,1.38,0,0,0,.66-.84ZM26.3,1.91a1.49,1.49,0,0,0-.24-.49,1.57,1.57,0,0,0-.42-.35,1.4,1.4,0,0,0-.52-.18,1.46,1.46,0,0,0-.55,0,1.4,1.4,0,0,0-.49.24,1.56,1.56,0,0,0-.37.4,1.34,1.34,0,0,0-.17.51,1.23,1.23,0,0,0,0,.54,1.34,1.34,0,0,0,.25.49,1.42,1.42,0,0,0,.41.36,1.38,1.38,0,0,0,.52.17,1.68,1.68,0,0,0,.55,0,1.54,1.54,0,0,0,.5-.24A1.42,1.42,0,0,0,26.16,3a1.55,1.55,0,0,0,.18-.51A1.4,1.4,0,0,0,26.3,1.91Z"/></g></g></svg>