<svg xmlns="http://www.w3.org/2000/svg" viewBox="0 0 182.09 55.78"><defs><style>.cls-1{fill:#fff;}</style></defs><g id="Layer_2" data-name="Layer 2"><g id="Layer_1-2" data-name="Layer 1"><path class="cls-1" d="M84.25.74l.13,5-1.15.07c-.1-3-.74-3.45-5.34-3.45h-1V19.78c0,2.4.6,3,3,3.1l.06.83c-2.23,0-3.93,0-5,0s-2.91,0-5.21,0l.06-.83c2.36-.06,3-.7,3-3.1V2.31H71.56c-4.73,0-5.37.41-5.43,3.45l-1.19-.07L65.07.74c4.35,0,7.57.06,9.74.06s5.25,0,9.43-.06"/><path class="cls-1" d="M85.1,23c2.14,0,2.43-.42,2.46-3.42V4.93c0-3-.32-3.43-2.46-3.43L85,.74A36.94,36.94,0,0,0,91.24,0V9.91c1.7-1.88,3.13-2.62,5-2.62,3.13,0,4.85,2,4.85,5.63v6.61c0,3,.32,3.42,2.46,3.42l.07.77c-1.85-.06-3.26-.13-4.19-.13s-2.2.07-4,.13l.06-.77c1.7-.25,1.86-.57,1.89-3.42V14.67c0-4-.7-5.37-2.81-5.37a3.28,3.28,0,0,0-2.91,1.86,8.34,8.34,0,0,0-.45,1.21,1.84,1.84,0,0,0,0,.35v6.81c0,2.84.2,3.16,1.89,3.42l.06.77c-1.79-.06-3.1-.13-4-.13s-2.34.07-4.16.13Z"/><path class="cls-1" d="M109.55,13.49a60.51,60.51,0,0,0,6.81-.45c-.39-3.1-1.57-4.63-3.58-4.63S109.87,10,109.55,13.49Zm10.19,7.1c-2,2.46-3.93,3.48-6.49,3.48-4.44,0-7.44-3.26-7.44-8.09,0-5.14,3.1-8.69,7.57-8.69a5.72,5.72,0,0,1,5.37,2.85c.8,1.34,1,2.26,1,4.57H109.64c.13,4.86,1.89,7.6,4.82,7.6,1.76,0,3.23-.8,4.8-2.62l.48.89Z"/><path class="cls-1" d="M.11,54.46c2.58-.07,3.26-.78,3.26-3.43V34.26c0-2.66-.68-3.36-3.26-3.44L0,29.9,5.49,30l8.65-.11,2.27,0,.14,5.22-1.42.1c-.25-3.22-.85-3.58-6-3.58H8.4l-.35,0v9.64c.67,0,1.2,0,1.52,0,.57,0,1.1.07,1.63.07,2.84,0,3.48-.6,3.51-3.29h1.21c-.11,2.16-.11,3.26-.11,4.33,0,.84,0,2,0,3.64H14.71c-.14-2.55-.71-3-3.44-3.08L9.36,43,8,43.06v7.47c0,3,.18,3.16,3.16,3.16,4,0,5.17-.89,5.53-4.33l1.42.07-.82,6-2.73,0-8.68-.07L0,55.39l.11-.92Z"/><path class="cls-1" d="M36.39,52.87c-2,2.08-3.68,2.9-6,2.9-4.68,0-7.73-3.65-7.73-9.21s3.22-9.4,8.33-9.4a18.43,18.43,0,0,1,4.85.82l.07,4.25-1.59.11C33.66,39.15,33,38.4,31,38.4c-2.66,0-4,2.38-4,7,0,5.39,1.66,8.39,4.67,8.39a5.64,5.64,0,0,0,4.26-2.16l.53,1.28Z"/><path class="cls-1" d="M44.57,46.77c.36,5.07,2,7.8,4.75,7.8,2.55,0,4.07-2.66,4.07-7.12,0-5.25-2.09-8.93-5-8.93-2.59,0-3.9,2.23-3.9,6.66a12.31,12.31,0,0,0,.07,1.6Zm-4.39.4v-.53c0-6,3.22-9.46,8.75-9.46,5.14,0,8.75,3.83,8.75,9.32s-3.5,9.28-8.86,9.28c-5.06,0-8.46-3.4-8.64-8.61"/><path class="cls-1" d="M62,54.53c2.37,0,2.73-.46,2.73-3.79V42.52c0-3.29-.36-3.76-2.73-3.79l-.07-.81a33.47,33.47,0,0,0,6.56-.85l.17,3.18c2-2.26,3.58-3.08,5.74-3.08,3.44,0,5.39,2.23,5.39,6.24v7.33a8,8,0,0,0,0,.85c0,2.27.6,2.94,2.76,2.94l.07.85c-2-.07-3.61-.14-4.64-.14s-2.48.07-4.43.14l.07-.85c1.88-.28,2.09-.63,2.09-3.79l0-2.23V45.35c0-4.46-.81-6-3.12-6a3.65,3.65,0,0,0-3.26,2.05,5.12,5.12,0,0,0-.52,1.74v7.55c0,3.16.21,3.51,2.09,3.79l.1.85c-2-.07-3.47-.14-4.46-.14s-2.55.07-4.61.14l.08-.85Z"/><path class="cls-1" d="M90.11,46.77c.35,5.07,2,7.8,4.74,7.8,2.55,0,4.08-2.66,4.08-7.12,0-5.25-2.09-8.93-5-8.93-2.58,0-3.9,2.23-3.9,6.66a10.79,10.79,0,0,0,.08,1.6Zm-4.4.4v-.53c0-6,3.23-9.46,8.76-9.46,5.14,0,8.75,3.83,8.75,9.32s-3.51,9.28-8.86,9.28c-5.07,0-8.47-3.4-8.65-8.61"/><path class="cls-1" d="M107.54,54.53c2.37,0,2.72-.46,2.72-3.79V42.52c0-3.29-.35-3.76-2.72-3.79l-.08-.81a33.37,33.37,0,0,0,6.56-.85l.18,3.18c2-2.23,3.58-3.08,5.67-3.08,2.41,0,3.82,1,4.89,3.36,2.16-2.48,3.75-3.36,5.91-3.36,3.37,0,5.29,2.27,5.29,6.24v7.33c0,.28,0,.57,0,.85,0,2.27.63,2.94,2.76,2.94l.08.85c-2.06-.07-3.62-.14-4.64-.14s-2.45.07-4.4.14l.07-.85c1.88-.28,2.06-.63,2.09-3.79V45.35c0-4.39-.77-6-3-6a3.71,3.71,0,0,0-3.22,2.05,7.65,7.65,0,0,0-.46,1.35,2.5,2.5,0,0,0-.07.39v7.55c0,3.16.21,3.51,2.09,3.79l.07.85c-1.88-.07-3.3-.14-4.26-.14s-2.3.07-4.14.14l.07-.85c1.87-.28,2-.63,2.09-3.79V45.35c0-4.39-.78-6-3-6a3.68,3.68,0,0,0-3.23,2.05,5.32,5.32,0,0,0-.52,1.74v7.55c0,3.16.21,3.51,2.09,3.79l.07.85c-2-.07-3.44-.14-4.43-.14s-2.55.07-4.61.14Z"/><path class="cls-1" d="M144.46,31.14a2.38,2.38,0,0,1,2.37-2.41,2.41,2.41,0,0,1,0,4.82A2.34,2.34,0,0,1,144.46,31.14ZM149,37.06V48.5l0,2.24c0,3.33.31,3.79,2.72,3.79l.08.85c-2.2-.07-3.8-.15-4.89-.15s-2.66.08-4.82.15l.07-.85c2.37,0,2.73-.46,2.73-3.79l0-2.24V44.78l0-2.26c0-3.3-.36-3.76-2.73-3.8l-.07-.81a44.15,44.15,0,0,0,6.88-.85"/><path class="cls-1" d="M156.22,54.74l-.14-3.61,1.81-.07c.81,2.73,1.35,3.25,3.22,3.25,1.63,0,2.7-.85,2.7-2.12s-.75-2.13-3-3.65c-1.14-.78-1.91-1.31-2.34-1.63a5.71,5.71,0,0,1-2-2.52,5.19,5.19,0,0,1-.32-1.91c0-3.22,2.2-5.32,5.53-5.32a18.53,18.53,0,0,1,4.82.78l.07,3.58-1.81.07c-.42-2.37-1.17-3.19-2.83-3.19s-2.73.92-2.73,2.23.57,2,2.41,3.16a36.08,36.08,0,0,1,3.86,2.87,4.82,4.82,0,0,1,1.56,3.54A5.75,5.75,0,0,1,161,55.77,15.16,15.16,0,0,1,156.22,54.74Z"/><path class="cls-1" d="M170.86,38.2c2.8-.22,3.9-1.42,4.71-5.11h1.59v4.79h4.47l-.5,1.94h-4v8.72c0,4.36.57,5.39,3,5.39a6.41,6.41,0,0,0,2-.32v1a9.64,9.64,0,0,1-4.57,1.07,4.15,4.15,0,0,1-3.69-2.2c-.53-1.1-.71-2.2-.71-4.6V39.82h-2.26V38.19Z"/></g></g></svg>