<svg xmlns="http://www.w3.org/2000/svg" viewBox="0 0 19.33 15.95"><defs><style>.cls-1{fill:none;stroke:#fff;stroke-linecap:round;stroke-linejoin:round;}</style></defs><g id="Layer_2" data-name="Layer 2"><g id="Layer_1-2" data-name="Layer 1"><path class="cls-1" d="M18.83.51a9,9,0,0,1-2.61,1.27A3.85,3.85,0,0,0,14.31.61a3.72,3.72,0,0,0-2.24.14,3.65,3.65,0,0,0-1.76,1.39,3.71,3.71,0,0,0-.64,2.14v.84a9,9,0,0,1-4.23-1A8.84,8.84,0,0,1,2.17,1.34s-3.34,7.5,4.16,10.84A9.73,9.73,0,0,1,.5,13.84C8,18,17.17,13.84,17.17,4.26a3.94,3.94,0,0,0-.07-.69A6.42,6.42,0,0,0,18.83.51Z"/></g></g></svg>