<svg width="1440" height="25" viewBox="0 0 1440 25" fill="none" xmlns="http://www.w3.org/2000/svg">
<path d="M1507.5 22.3843L1519.92 12.5L1507.5 2.61576C1503.11 -0.871859 1496.89 -0.871867 1492.5 2.61573L1487.5 6.60043C1483.11 10.088 1476.89 10.088 1472.5 6.60042L1467.5 2.6157C1463.11 -0.871888 1456.89 -0.871901 1452.5 2.61567L1447.5 6.60047C1443.11 10.088 1436.89 10.088 1432.5 6.60044L1427.5 2.61571C1423.11 -0.871879 1416.89 -0.871876 1412.5 2.61572L1407.5 6.60043C1403.11 10.088 1396.89 10.088 1392.5 6.60042L1387.5 2.61571C1383.11 -0.871879 1376.89 -0.871875 1372.5 2.61572L1367.5 6.60043C1363.11 10.088 1356.89 10.088 1352.5 6.60042L1347.5 2.61572C1343.11 -0.871878 1336.89 -0.871875 1332.5 2.61572L1327.5 6.60043C1323.11 10.088 1316.89 10.088 1312.5 6.60042L1307.5 2.61572C1303.11 -0.871878 1296.89 -0.871875 1292.5 2.61572L1287.5 6.60043C1283.11 10.088 1276.89 10.088 1272.5 6.60042L1267.5 2.61572C1263.11 -0.871878 1256.89 -0.871875 1252.5 2.61572L1247.5 6.60043C1243.11 10.088 1236.89 10.088 1232.5 6.60042L1227.5 2.61572C1223.11 -0.871874 1216.89 -0.871878 1212.5 2.61572L1207.5 6.60043C1203.11 10.088 1196.89 10.088 1192.5 6.60042L1187.5 2.61579C1183.11 -0.871821 1176.89 -0.871829 1172.5 2.61577L1167.5 6.60046C1163.11 10.0881 1156.89 10.0881 1152.5 6.60046L1147.5 2.61573C1143.11 -0.87185 1136.89 -0.871863 1132.5 2.61571L1127.5 6.6005C1123.11 10.0881 1116.89 10.0881 1112.5 6.60048L1107.5 2.61575C1103.11 -0.871841 1096.89 -0.871838 1092.5 2.61576L1087.5 6.60046C1083.11 10.0881 1076.89 10.0881 1072.5 6.60046L1067.5 2.61575C1063.11 -0.871841 1056.89 -0.871837 1052.5 2.61576L1047.5 6.60046C1043.11 10.0881 1036.89 10.0881 1032.5 6.60046L1027.5 2.61575C1023.11 -0.87184 1016.89 -0.871837 1012.5 2.61576L1007.5 6.60046C1003.11 10.0881 996.886 10.0881 992.504 6.60046L987.496 2.61575C983.114 -0.87184 976.886 -0.871837 972.504 2.61576L967.496 6.60046C963.114 10.0881 956.886 10.0881 952.504 6.60046L947.496 2.61575C943.114 -0.87184 936.886 -0.871837 932.504 2.61576L927.496 6.60046C923.114 10.0881 916.886 10.0881 912.504 6.60046L907.496 2.61576C903.114 -0.871838 896.886 -0.871832 892.504 2.61577L887.496 6.60047C883.114 10.0881 876.886 10.0881 872.504 6.60045L867.496 2.61579C863.114 -0.871811 856.886 -0.871815 852.504 2.61578L847.496 6.60048C843.114 10.0881 836.886 10.0881 832.504 6.60048L827.496 2.61577C823.114 -0.871822 816.886 -0.871819 812.504 2.61577L807.496 6.60048C803.114 10.0881 796.886 10.0881 792.504 6.60048L787.496 2.61577C783.114 -0.871822 776.886 -0.871819 772.504 2.61577L767.496 6.60048C763.114 10.0881 756.886 10.0881 752.504 6.60048L747.496 2.61577C743.114 -0.871822 736.886 -0.871818 732.504 2.61577L727.496 6.60048C723.114 10.0881 716.886 10.0881 712.504 6.60048L707.496 2.61577C703.114 -0.871821 696.886 -0.871818 692.504 2.61577L687.496 6.60048C683.114 10.0881 676.886 10.0881 672.504 6.60048L667.496 2.61577C663.114 -0.871821 656.886 -0.871818 652.504 2.61577L647.496 6.60048C643.114 10.0881 636.886 10.0881 632.504 6.60048L627.496 2.61577C623.114 -0.871821 616.886 -0.871818 612.504 2.61577L607.496 6.60048C603.114 10.0881 596.886 10.0881 592.504 6.60048L587.496 2.61577C583.114 -0.871821 576.886 -0.871818 572.504 2.61577L567.496 6.60047C563.114 10.0881 556.886 10.0881 552.504 6.60046L547.496 2.61579C543.114 -0.871809 536.886 -0.871814 532.504 2.61578L527.496 6.60048C523.114 10.0881 516.886 10.0881 512.504 6.60048L507.496 2.61576C503.114 -0.871825 496.886 -0.87183 492.504 2.61575L487.496 6.60051C483.114 10.0881 476.886 10.0881 472.504 6.60049L467.496 2.61577C463.114 -0.87182 456.886 -0.871817 452.504 2.61578L447.496 6.60048C443.114 10.0881 436.886 10.0881 432.504 6.60048L427.496 2.61577C423.114 -0.87182 416.886 -0.871817 412.504 2.61578L407.496 6.60048C403.114 10.0881 396.886 10.0881 392.504 6.60048L387.496 2.61578C383.114 -0.871814 376.886 -0.871813 372.504 2.61578L367.496 6.60049C363.114 10.0881 356.886 10.0881 352.504 6.60048L347.496 2.61577C343.114 -0.871819 336.886 -0.871817 332.504 2.61578L327.496 6.60049C323.114 10.0881 316.886 10.0881 312.504 6.60048L307.496 2.61577C303.114 -0.871819 296.886 -0.871817 292.504 2.61578L287.496 6.60049C283.114 10.0881 276.886 10.0881 272.504 6.60048L267.496 2.61578C263.114 -0.871817 256.886 -0.871811 252.504 2.61579L247.496 6.60049C243.114 10.0881 236.886 10.0881 232.504 6.60049L227.496 2.6158C223.114 -0.871797 216.886 -0.871797 212.504 2.6158L207.496 6.6005C203.114 10.0881 196.886 10.0881 192.504 6.6005L187.496 2.61579C183.114 -0.871802 176.886 -0.871798 172.504 2.61579L167.496 6.60051C163.114 10.0881 156.886 10.0881 152.504 6.6005L147.496 2.61579C143.114 -0.871801 136.886 -0.871798 132.504 2.6158L127.496 6.6005C123.114 10.0881 116.886 10.0881 112.504 6.6005L107.496 2.61579C103.114 -0.871801 96.8863 -0.871798 92.5036 2.6158L87.4963 6.6005C83.1137 10.0881 76.8863 10.0881 72.5036 6.6005L67.4963 2.6158C63.1137 -0.871797 56.8863 -0.871796 52.5036 2.6158L47.4963 6.6005C43.1137 10.0881 36.8863 10.0881 32.5037 6.6005L27.4963 2.61579C23.1137 -0.8718 16.8863 -0.871798 12.5037 2.6158L7.49634 6.6005C3.11372 10.0881 -3.11372 10.0881 -7.49635 6.6005L-12.5037 2.61579C-16.8863 -0.8718 -23.1137 -0.871798 -27.4963 2.6158L-32.5037 6.6005C-36.8863 10.0881 -43.1137 10.0881 -47.4963 6.6005L-52.5037 2.61579C-56.8863 -0.8718 -63.1137 -0.871798 -67.4963 2.6158L-79.9172 12.5L-67.4965 22.3842C-63.1139 25.8718 -56.8864 25.8718 -52.5038 22.3842L-47.4965 18.3995C-43.1139 14.9119 -36.8864 14.912 -32.5038 18.3995L-27.4965 22.3843C-23.1138 25.8719 -16.8865 25.8719 -12.5038 22.3843L-7.49634 18.3995C-3.11377 14.9119 3.11365 14.9119 7.49634 18.3995L12.5037 22.3843C16.8862 25.8718 23.1138 25.8718 27.4963 22.3843L32.5037 18.3995C36.8862 14.912 43.1138 14.912 47.4963 18.3996L52.5037 22.3843C56.8862 25.8719 63.1138 25.8718 67.4963 22.3843L72.5037 18.3995C76.8862 14.912 83.1138 14.912 87.4963 18.3996L92.5037 22.3843C96.8862 25.8719 103.114 25.8719 107.496 22.3843L112.504 18.3996C116.886 14.912 123.114 14.912 127.496 18.3996L132.504 22.3843C136.886 25.8719 143.114 25.8719 147.496 22.3843L152.504 18.3996C156.886 14.912 163.114 14.912 167.496 18.3996L172.504 22.3843C176.886 25.8719 183.114 25.8719 187.496 22.3843L192.504 18.3996C196.886 14.912 203.114 14.912 207.496 18.3996L212.504 22.3843C216.886 25.8719 223.114 25.8719 227.496 22.3843L232.504 18.3996C236.886 14.912 243.114 14.912 247.496 18.3996L252.504 22.3842C256.886 25.8718 263.114 25.8718 267.496 22.3842L272.504 18.3995C276.886 14.9119 283.114 14.9119 287.496 18.3995L292.504 22.3843C296.886 25.8718 303.114 25.8719 307.496 22.3843L312.504 18.3995C316.886 14.9119 323.114 14.9119 327.496 18.3995L332.504 22.3842C336.886 25.8718 343.114 25.8718 347.496 22.3842L352.504 18.3995C356.886 14.9119 363.114 14.9119 367.496 18.3995L372.504 22.3842C376.886 25.8718 383.114 25.8718 387.496 22.3842L392.504 18.3995C396.886 14.9119 403.114 14.9119 407.496 18.3995L412.504 22.3843C416.886 25.8718 423.114 25.8718 427.496 22.3843L432.504 18.3995C436.886 14.9119 443.114 14.912 447.496 18.3995L452.504 22.3843C456.886 25.8718 463.114 25.8718 467.496 22.3843L472.504 18.3995C476.886 14.912 483.114 14.912 487.496 18.3995L492.504 22.3843C496.886 25.8719 503.114 25.8718 507.496 22.3843L512.504 18.3995C516.886 14.912 523.114 14.912 527.496 18.3996L532.504 22.3843C536.886 25.8719 543.114 25.8718 547.496 22.3843L552.504 18.3996C556.886 14.912 563.114 14.912 567.496 18.3996L572.504 22.3842C576.886 25.8718 583.114 25.8718 587.496 22.3842L592.504 18.3995C596.886 14.9119 603.114 14.9119 607.496 18.3995L612.504 22.3843C616.886 25.8718 623.114 25.8718 627.496 22.3842L632.504 18.3995C636.886 14.9119 643.114 14.912 647.496 18.3995L652.504 22.3843C656.886 25.8718 663.114 25.8718 667.496 22.3843L672.504 18.3995C676.886 14.912 683.114 14.912 687.496 18.3995L692.504 22.3843C696.886 25.8719 703.114 25.8718 707.496 22.3843L712.504 18.3995C716.886 14.912 723.114 14.912 727.496 18.3996L732.504 22.3843C736.886 25.8719 743.114 25.8719 747.496 22.3843L752.504 18.3996C756.886 14.912 763.114 14.912 767.496 18.3996L772.504 22.3843C776.886 25.8719 783.114 25.8719 787.496 22.3843L792.504 18.3996C796.886 14.912 803.114 14.912 807.496 18.3996L812.504 22.3843C816.886 25.8719 823.114 25.8719 827.496 22.3843L832.504 18.3996C836.886 14.912 843.114 14.912 847.496 18.3996L852.504 22.3843C856.886 25.8719 863.114 25.8719 867.496 22.3843L872.504 18.3996C876.886 14.912 883.114 14.912 887.496 18.3996L892.504 22.3843C896.886 25.8719 903.114 25.8719 907.496 22.3843L912.504 18.3996C916.886 14.912 923.114 14.912 927.496 18.3996L932.504 22.3843C936.886 25.8719 943.114 25.8719 947.496 22.3843L952.504 18.3995C956.886 14.912 963.114 14.912 967.496 18.3996L972.504 22.3843C976.886 25.8719 983.114 25.8719 987.496 22.3843L992.504 18.3996C996.886 14.912 1003.11 14.912 1007.5 18.3996L1012.5 22.3843C1016.89 25.8719 1023.11 25.8719 1027.5 22.3843L1032.5 18.3996C1036.89 14.912 1043.11 14.912 1047.5 18.3996L1052.5 22.3843C1056.89 25.8719 1063.11 25.8719 1067.5 22.3843L1072.5 18.3996C1076.89 14.912 1083.11 14.912 1087.5 18.3996L1092.5 22.3843C1096.89 25.8719 1103.11 25.8719 1107.5 22.3843L1112.5 18.3996C1116.89 14.912 1123.11 14.912 1127.5 18.3996L1132.5 22.3843C1136.89 25.8719 1143.11 25.8719 1147.5 22.3843L1152.5 18.3996C1156.89 14.912 1163.11 14.912 1167.5 18.3996L1172.5 22.3843C1176.89 25.8719 1183.11 25.8719 1187.5 22.3843L1192.5 18.3996C1196.89 14.912 1203.11 14.912 1207.5 18.3996L1212.5 22.3843C1216.89 25.8719 1223.11 25.8719 1227.5 22.3843L1232.5 18.3996C1236.89 14.912 1243.11 14.912 1247.5 18.3996L1252.5 22.3843C1256.89 25.8719 1263.11 25.8719 1267.5 22.3843L1272.5 18.3996C1276.89 14.912 1283.11 14.912 1287.5 18.3996L1292.5 22.3843C1296.89 25.8719 1303.11 25.8719 1307.5 22.3843L1312.5 18.3996C1316.89 14.912 1323.11 14.912 1327.5 18.3996L1332.5 22.3843C1336.89 25.8719 1343.11 25.8719 1347.5 22.3843L1352.5 18.3996C1356.89 14.912 1363.11 14.912 1367.5 18.3996L1372.5 22.3843C1376.89 25.8719 1383.11 25.8719 1387.5 22.3843L1392.5 18.3996C1396.89 14.912 1403.11 14.912 1407.5 18.3996L1412.5 22.3843C1416.89 25.8719 1423.11 25.8719 1427.5 22.3843L1432.5 18.3996C1436.89 14.912 1443.11 14.912 1447.5 18.3996L1452.5 22.3843C1456.89 25.8719 1463.11 25.8719 1467.5 22.3843L1472.5 18.3996C1476.89 14.912 1483.11 14.912 1487.5 18.3996L1492.5 22.3843C1496.89 25.8719 1503.11 25.8719 1507.5 22.3843Z" fill="#00002A"/>
</svg>
