<svg width="1439" height="25" viewBox="0 0 1439 25" fill="none" xmlns="http://www.w3.org/2000/svg">
<path d="M1506.5 22.3843L1518.92 12.5L1506.5 2.61576C1502.11 -0.871859 1495.89 -0.871867 1491.5 2.61573L1486.5 6.60043C1482.11 10.088 1475.89 10.088 1471.5 6.60042L1466.5 2.6157C1462.11 -0.871888 1455.89 -0.871901 1451.5 2.61567L1446.5 6.60047C1442.11 10.088 1435.89 10.088 1431.5 6.60044L1426.5 2.61571C1422.11 -0.871879 1415.89 -0.871876 1411.5 2.61572L1406.5 6.60043C1402.11 10.088 1395.89 10.088 1391.5 6.60042L1386.5 2.61571C1382.11 -0.871879 1375.89 -0.871875 1371.5 2.61572L1366.5 6.60043C1362.11 10.088 1355.89 10.088 1351.5 6.60042L1346.5 2.61572C1342.11 -0.871878 1335.89 -0.871875 1331.5 2.61572L1326.5 6.60043C1322.11 10.088 1315.89 10.088 1311.5 6.60042L1306.5 2.61572C1302.11 -0.871878 1295.89 -0.871875 1291.5 2.61572L1286.5 6.60043C1282.11 10.088 1275.89 10.088 1271.5 6.60042L1266.5 2.61572C1262.11 -0.871878 1255.89 -0.871875 1251.5 2.61572L1246.5 6.60043C1242.11 10.088 1235.89 10.088 1231.5 6.60042L1226.5 2.61572C1222.11 -0.871874 1215.89 -0.871878 1211.5 2.61572L1206.5 6.60043C1202.11 10.088 1195.89 10.088 1191.5 6.60042L1186.5 2.61579C1182.11 -0.871821 1175.89 -0.871829 1171.5 2.61577L1166.5 6.60046C1162.11 10.0881 1155.89 10.0881 1151.5 6.60046L1146.5 2.61573C1142.11 -0.87185 1135.89 -0.871863 1131.5 2.61571L1126.5 6.6005C1122.11 10.0881 1115.89 10.0881 1111.5 6.60048L1106.5 2.61575C1102.11 -0.871841 1095.89 -0.871838 1091.5 2.61576L1086.5 6.60046C1082.11 10.0881 1075.89 10.0881 1071.5 6.60046L1066.5 2.61575C1062.11 -0.871841 1055.89 -0.871837 1051.5 2.61576L1046.5 6.60046C1042.11 10.0881 1035.89 10.0881 1031.5 6.60046L1026.5 2.61575C1022.11 -0.87184 1015.89 -0.871837 1011.5 2.61576L1006.5 6.60046C1002.11 10.0881 995.886 10.0881 991.504 6.60046L986.496 2.61575C982.114 -0.87184 975.886 -0.871837 971.504 2.61576L966.496 6.60046C962.114 10.0881 955.886 10.0881 951.504 6.60046L946.496 2.61575C942.114 -0.87184 935.886 -0.871837 931.504 2.61576L926.496 6.60046C922.114 10.0881 915.886 10.0881 911.504 6.60046L906.496 2.61576C902.114 -0.871838 895.886 -0.871832 891.504 2.61577L886.496 6.60047C882.114 10.0881 875.886 10.0881 871.504 6.60045L866.496 2.61579C862.114 -0.871811 855.886 -0.871815 851.504 2.61578L846.496 6.60048C842.114 10.0881 835.886 10.0881 831.504 6.60048L826.496 2.61577C822.114 -0.871822 815.886 -0.871819 811.504 2.61577L806.496 6.60048C802.114 10.0881 795.886 10.0881 791.504 6.60048L786.496 2.61577C782.114 -0.871822 775.886 -0.871819 771.504 2.61577L766.496 6.60048C762.114 10.0881 755.886 10.0881 751.504 6.60048L746.496 2.61577C742.114 -0.871822 735.886 -0.871818 731.504 2.61577L726.496 6.60048C722.114 10.0881 715.886 10.0881 711.504 6.60048L706.496 2.61577C702.114 -0.871821 695.886 -0.871818 691.504 2.61577L686.496 6.60048C682.114 10.0881 675.886 10.0881 671.504 6.60048L666.496 2.61577C662.114 -0.871821 655.886 -0.871818 651.504 2.61577L646.496 6.60048C642.114 10.0881 635.886 10.0881 631.504 6.60048L626.496 2.61577C622.114 -0.871821 615.886 -0.871818 611.504 2.61577L606.496 6.60048C602.114 10.0881 595.886 10.0881 591.504 6.60048L586.496 2.61577C582.114 -0.871821 575.886 -0.871818 571.504 2.61577L566.496 6.60047C562.114 10.0881 555.886 10.0881 551.504 6.60046L546.496 2.61579C542.114 -0.871809 535.886 -0.871814 531.504 2.61578L526.496 6.60048C522.114 10.0881 515.886 10.0881 511.504 6.60048L506.496 2.61576C502.114 -0.871825 495.886 -0.87183 491.504 2.61575L486.496 6.60051C482.114 10.0881 475.886 10.0881 471.504 6.60049L466.496 2.61577C462.114 -0.87182 455.886 -0.871817 451.504 2.61578L446.496 6.60048C442.114 10.0881 435.886 10.0881 431.504 6.60048L426.496 2.61577C422.114 -0.87182 415.886 -0.871817 411.504 2.61578L406.496 6.60048C402.114 10.0881 395.886 10.0881 391.504 6.60048L386.496 2.61578C382.114 -0.871814 375.886 -0.871813 371.504 2.61578L366.496 6.60049C362.114 10.0881 355.886 10.0881 351.504 6.60048L346.496 2.61577C342.114 -0.871819 335.886 -0.871817 331.504 2.61578L326.496 6.60049C322.114 10.0881 315.886 10.0881 311.504 6.60048L306.496 2.61577C302.114 -0.871819 295.886 -0.871817 291.504 2.61578L286.496 6.60049C282.114 10.0881 275.886 10.0881 271.504 6.60048L266.496 2.61578C262.114 -0.871817 255.886 -0.871811 251.504 2.61579L246.496 6.60049C242.114 10.0881 235.886 10.0881 231.504 6.60049L226.496 2.6158C222.114 -0.871797 215.886 -0.871797 211.504 2.6158L206.496 6.6005C202.114 10.0881 195.886 10.0881 191.504 6.6005L186.496 2.61579C182.114 -0.871802 175.886 -0.871798 171.504 2.61579L166.496 6.60051C162.114 10.0881 155.886 10.0881 151.504 6.6005L146.496 2.61579C142.114 -0.871801 135.886 -0.871798 131.504 2.6158L126.496 6.6005C122.114 10.0881 115.886 10.0881 111.504 6.6005L106.496 2.61579C102.114 -0.871801 95.8863 -0.871798 91.5036 2.6158L86.4963 6.6005C82.1137 10.0881 75.8863 10.0881 71.5036 6.6005L66.4963 2.6158C62.1137 -0.871797 55.8863 -0.871796 51.5036 2.6158L46.4963 6.6005C42.1137 10.0881 35.8863 10.0881 31.5037 6.6005L26.4963 2.61579C22.1137 -0.8718 15.8863 -0.871798 11.5037 2.6158L6.49634 6.6005C2.11372 10.0881 -4.11372 10.0881 -8.49635 6.6005L-13.5037 2.61579C-17.8863 -0.8718 -24.1137 -0.871798 -28.4963 2.6158L-33.5037 6.6005C-37.8863 10.0881 -44.1137 10.0881 -48.4963 6.6005L-53.5037 2.61579C-57.8863 -0.8718 -64.1137 -0.871798 -68.4963 2.6158L-80.9172 12.5L-68.4965 22.3842C-64.1139 25.8718 -57.8864 25.8718 -53.5038 22.3842L-48.4965 18.3995C-44.1139 14.9119 -37.8864 14.912 -33.5038 18.3995L-28.4965 22.3843C-24.1138 25.8719 -17.8865 25.8719 -13.5038 22.3843L-8.49634 18.3995C-4.11377 14.9119 2.11365 14.9119 6.49634 18.3995L11.5037 22.3843C15.8862 25.8718 22.1138 25.8718 26.4963 22.3843L31.5037 18.3995C35.8862 14.912 42.1138 14.912 46.4963 18.3996L51.5037 22.3843C55.8862 25.8719 62.1138 25.8718 66.4963 22.3843L71.5037 18.3995C75.8862 14.912 82.1138 14.912 86.4963 18.3996L91.5037 22.3843C95.8862 25.8719 102.114 25.8719 106.496 22.3843L111.504 18.3996C115.886 14.912 122.114 14.912 126.496 18.3996L131.504 22.3843C135.886 25.8719 142.114 25.8719 146.496 22.3843L151.504 18.3996C155.886 14.912 162.114 14.912 166.496 18.3996L171.504 22.3843C175.886 25.8719 182.114 25.8719 186.496 22.3843L191.504 18.3996C195.886 14.912 202.114 14.912 206.496 18.3996L211.504 22.3843C215.886 25.8719 222.114 25.8719 226.496 22.3843L231.504 18.3996C235.886 14.912 242.114 14.912 246.496 18.3996L251.504 22.3842C255.886 25.8718 262.114 25.8718 266.496 22.3842L271.504 18.3995C275.886 14.9119 282.114 14.9119 286.496 18.3995L291.504 22.3843C295.886 25.8718 302.114 25.8719 306.496 22.3843L311.504 18.3995C315.886 14.9119 322.114 14.9119 326.496 18.3995L331.504 22.3842C335.886 25.8718 342.114 25.8718 346.496 22.3842L351.504 18.3995C355.886 14.9119 362.114 14.9119 366.496 18.3995L371.504 22.3842C375.886 25.8718 382.114 25.8718 386.496 22.3842L391.504 18.3995C395.886 14.9119 402.114 14.9119 406.496 18.3995L411.504 22.3843C415.886 25.8718 422.114 25.8718 426.496 22.3843L431.504 18.3995C435.886 14.9119 442.114 14.912 446.496 18.3995L451.504 22.3843C455.886 25.8718 462.114 25.8718 466.496 22.3843L471.504 18.3995C475.886 14.912 482.114 14.912 486.496 18.3995L491.504 22.3843C495.886 25.8719 502.114 25.8718 506.496 22.3843L511.504 18.3995C515.886 14.912 522.114 14.912 526.496 18.3996L531.504 22.3843C535.886 25.8719 542.114 25.8718 546.496 22.3843L551.504 18.3996C555.886 14.912 562.114 14.912 566.496 18.3996L571.504 22.3842C575.886 25.8718 582.114 25.8718 586.496 22.3842L591.504 18.3995C595.886 14.9119 602.114 14.9119 606.496 18.3995L611.504 22.3843C615.886 25.8718 622.114 25.8718 626.496 22.3842L631.504 18.3995C635.886 14.9119 642.114 14.912 646.496 18.3995L651.504 22.3843C655.886 25.8718 662.114 25.8718 666.496 22.3843L671.504 18.3995C675.886 14.912 682.114 14.912 686.496 18.3995L691.504 22.3843C695.886 25.8719 702.114 25.8718 706.496 22.3843L711.504 18.3995C715.886 14.912 722.114 14.912 726.496 18.3996L731.504 22.3843C735.886 25.8719 742.114 25.8719 746.496 22.3843L751.504 18.3996C755.886 14.912 762.114 14.912 766.496 18.3996L771.504 22.3843C775.886 25.8719 782.114 25.8719 786.496 22.3843L791.504 18.3996C795.886 14.912 802.114 14.912 806.496 18.3996L811.504 22.3843C815.886 25.8719 822.114 25.8719 826.496 22.3843L831.504 18.3996C835.886 14.912 842.114 14.912 846.496 18.3996L851.504 22.3843C855.886 25.8719 862.114 25.8719 866.496 22.3843L871.504 18.3996C875.886 14.912 882.114 14.912 886.496 18.3996L891.504 22.3843C895.886 25.8719 902.114 25.8719 906.496 22.3843L911.504 18.3996C915.886 14.912 922.114 14.912 926.496 18.3996L931.504 22.3843C935.886 25.8719 942.114 25.8719 946.496 22.3843L951.504 18.3995C955.886 14.912 962.114 14.912 966.496 18.3996L971.504 22.3843C975.886 25.8719 982.114 25.8719 986.496 22.3843L991.504 18.3996C995.886 14.912 1002.11 14.912 1006.5 18.3996L1011.5 22.3843C1015.89 25.8719 1022.11 25.8719 1026.5 22.3843L1031.5 18.3996C1035.89 14.912 1042.11 14.912 1046.5 18.3996L1051.5 22.3843C1055.89 25.8719 1062.11 25.8719 1066.5 22.3843L1071.5 18.3996C1075.89 14.912 1082.11 14.912 1086.5 18.3996L1091.5 22.3843C1095.89 25.8719 1102.11 25.8719 1106.5 22.3843L1111.5 18.3996C1115.89 14.912 1122.11 14.912 1126.5 18.3996L1131.5 22.3843C1135.89 25.8719 1142.11 25.8719 1146.5 22.3843L1151.5 18.3996C1155.89 14.912 1162.11 14.912 1166.5 18.3996L1171.5 22.3843C1175.89 25.8719 1182.11 25.8719 1186.5 22.3843L1191.5 18.3996C1195.89 14.912 1202.11 14.912 1206.5 18.3996L1211.5 22.3843C1215.89 25.8719 1222.11 25.8719 1226.5 22.3843L1231.5 18.3996C1235.89 14.912 1242.11 14.912 1246.5 18.3996L1251.5 22.3843C1255.89 25.8719 1262.11 25.8719 1266.5 22.3843L1271.5 18.3996C1275.89 14.912 1282.11 14.912 1286.5 18.3996L1291.5 22.3843C1295.89 25.8719 1302.11 25.8719 1306.5 22.3843L1311.5 18.3996C1315.89 14.912 1322.11 14.912 1326.5 18.3996L1331.5 22.3843C1335.89 25.8719 1342.11 25.8719 1346.5 22.3843L1351.5 18.3996C1355.89 14.912 1362.11 14.912 1366.5 18.3996L1371.5 22.3843C1375.89 25.8719 1382.11 25.8719 1386.5 22.3843L1391.5 18.3996C1395.89 14.912 1402.11 14.912 1406.5 18.3996L1411.5 22.3843C1415.89 25.8719 1422.11 25.8719 1426.5 22.3843L1431.5 18.3996C1435.89 14.912 1442.11 14.912 1446.5 18.3996L1451.5 22.3843C1455.89 25.8719 1462.11 25.8719 1466.5 22.3843L1471.5 18.3996C1475.89 14.912 1482.11 14.912 1486.5 18.3996L1491.5 22.3843C1495.89 25.8719 1502.11 25.8719 1506.5 22.3843Z" fill="#A8CBF0"/>
</svg>
