<svg width="1440" height="50" viewBox="0 0 1440 50" fill="none" xmlns="http://www.w3.org/2000/svg">
<g clip-path="url(#clip0_79_3220)">
<path d="M1507.5 35.3843L1519.92 25.5L1507.5 15.6158C1503.11 12.1281 1496.89 12.1281 1492.5 15.6157L1487.5 19.6004C1483.11 23.088 1476.89 23.088 1472.5 19.6004L1467.5 15.6157C1463.11 12.1281 1456.89 12.1281 1452.5 15.6157L1447.5 19.6005C1443.11 23.088 1436.89 23.088 1432.5 19.6004L1427.5 15.6157C1423.11 12.1281 1416.89 12.1281 1412.5 15.6157L1407.5 19.6004C1403.11 23.088 1396.89 23.088 1392.5 19.6004L1387.5 15.6157C1383.11 12.1281 1376.89 12.1281 1372.5 15.6157L1367.5 19.6004C1363.11 23.088 1356.89 23.088 1352.5 19.6004L1347.5 15.6157C1343.11 12.1281 1336.89 12.1281 1332.5 15.6157L1327.5 19.6004C1323.11 23.088 1316.89 23.088 1312.5 19.6004L1307.5 15.6157C1303.11 12.1281 1296.89 12.1281 1292.5 15.6157L1287.5 19.6004C1283.11 23.088 1276.89 23.088 1272.5 19.6004L1267.5 15.6157C1263.11 12.1281 1256.89 12.1281 1252.5 15.6157L1247.5 19.6004C1243.11 23.088 1236.89 23.088 1232.5 19.6004L1227.5 15.6157C1223.11 12.1281 1216.89 12.1281 1212.5 15.6157L1207.5 19.6004C1203.11 23.088 1196.89 23.088 1192.5 19.6004L1187.5 15.6158C1183.11 12.1282 1176.89 12.1282 1172.5 15.6158L1167.5 19.6005C1163.11 23.0881 1156.89 23.0881 1152.5 19.6005L1147.5 15.6157C1143.11 12.1281 1136.89 12.1281 1132.5 15.6157L1127.5 19.6005C1123.11 23.0881 1116.89 23.0881 1112.5 19.6005L1107.5 15.6158C1103.11 12.1282 1096.89 12.1282 1092.5 15.6158L1087.5 19.6005C1083.11 23.0881 1076.89 23.0881 1072.5 19.6005L1067.5 15.6158C1063.11 12.1282 1056.89 12.1282 1052.5 15.6158L1047.5 19.6005C1043.11 23.0881 1036.89 23.0881 1032.5 19.6005L1027.5 15.6158C1023.11 12.1282 1016.89 12.1282 1012.5 15.6158L1007.5 19.6005C1003.11 23.0881 996.886 23.0881 992.504 19.6005L987.496 15.6158C983.114 12.1282 976.886 12.1282 972.504 15.6158L967.496 19.6005C963.114 23.0881 956.886 23.0881 952.504 19.6005L947.496 15.6158C943.114 12.1282 936.886 12.1282 932.504 15.6158L927.496 19.6005C923.114 23.0881 916.886 23.0881 912.504 19.6005L907.496 15.6158C903.114 12.1282 896.886 12.1282 892.504 15.6158L887.496 19.6005C883.114 23.0881 876.886 23.0881 872.504 19.6005L867.496 15.6158C863.114 12.1282 856.886 12.1282 852.504 15.6158L847.496 19.6005C843.114 23.0881 836.886 23.0881 832.504 19.6005L827.496 15.6158C823.114 12.1282 816.886 12.1282 812.504 15.6158L807.496 19.6005C803.114 23.0881 796.886 23.0881 792.504 19.6005L787.496 15.6158C783.114 12.1282 776.886 12.1282 772.504 15.6158L767.496 19.6005C763.114 23.0881 756.886 23.0881 752.504 19.6005L747.496 15.6158C743.114 12.1282 736.886 12.1282 732.504 15.6158L727.496 19.6005C723.114 23.0881 716.886 23.0881 712.504 19.6005L707.496 15.6158C703.114 12.1282 696.886 12.1282 692.504 15.6158L687.496 19.6005C683.114 23.0881 676.886 23.0881 672.504 19.6005L667.496 15.6158C663.114 12.1282 656.886 12.1282 652.504 15.6158L647.496 19.6005C643.114 23.0881 636.886 23.0881 632.504 19.6005L627.496 15.6158C623.114 12.1282 616.886 12.1282 612.504 15.6158L607.496 19.6005C603.114 23.0881 596.886 23.0881 592.504 19.6005L587.496 15.6158C583.114 12.1282 576.886 12.1282 572.504 15.6158L567.496 19.6005C563.114 23.0881 556.886 23.0881 552.504 19.6005L547.496 15.6158C543.114 12.1282 536.886 12.1282 532.504 15.6158L527.496 19.6005C523.114 23.0881 516.886 23.0881 512.504 19.6005L507.496 15.6158C503.114 12.1282 496.886 12.1282 492.504 15.6158L487.496 19.6005C483.114 23.0881 476.886 23.0881 472.504 19.6005L467.496 15.6158C463.114 12.1282 456.886 12.1282 452.504 15.6158L447.496 19.6005C443.114 23.0881 436.886 23.0881 432.504 19.6005L427.496 15.6158C423.114 12.1282 416.886 12.1282 412.504 15.6158L407.496 19.6005C403.114 23.0881 396.886 23.0881 392.504 19.6005L387.496 15.6158C383.114 12.1282 376.886 12.1282 372.504 15.6158L367.496 19.6005C363.114 23.0881 356.886 23.0881 352.504 19.6005L347.496 15.6158C343.114 12.1282 336.886 12.1282 332.504 15.6158L327.496 19.6005C323.114 23.0881 316.886 23.0881 312.504 19.6005L307.496 15.6158C303.114 12.1282 296.886 12.1282 292.504 15.6158L287.496 19.6005C283.114 23.0881 276.886 23.0881 272.504 19.6005L267.496 15.6158C263.114 12.1282 256.886 12.1282 252.504 15.6158L247.496 19.6005C243.114 23.0881 236.886 23.0881 232.504 19.6005L227.496 15.6158C223.114 12.1282 216.886 12.1282 212.504 15.6158L207.496 19.6005C203.114 23.0881 196.886 23.0881 192.504 19.6005L187.496 15.6158C183.114 12.1282 176.886 12.1282 172.504 15.6158L167.496 19.6005C163.114 23.0881 156.886 23.0881 152.504 19.6005L147.496 15.6158C143.114 12.1282 136.886 12.1282 132.504 15.6158L127.496 19.6005C123.114 23.0881 116.886 23.0881 112.504 19.6005L107.496 15.6158C103.114 12.1282 96.8863 12.1282 92.5036 15.6158L87.4963 19.6005C83.1137 23.0881 76.8863 23.0881 72.5036 19.6005L67.4963 15.6158C63.1137 12.1282 56.8863 12.1282 52.5036 15.6158L47.4963 19.6005C43.1137 23.0881 36.8863 23.0881 32.5037 19.6005L27.4963 15.6158C23.1137 12.1282 16.8863 12.1282 12.5037 15.6158L7.49634 19.6005C3.11372 23.0881 -3.11372 23.0881 -7.49635 19.6005L-12.5037 15.6158C-16.8863 12.1282 -23.1137 12.1282 -27.4963 15.6158L-32.5037 19.6005C-36.8863 23.0881 -43.1137 23.0881 -47.4963 19.6005L-52.5037 15.6158C-56.8863 12.1282 -63.1137 12.1282 -67.4963 15.6158L-79.9172 25.5L-67.4965 35.3842C-63.1139 38.8718 -56.8864 38.8718 -52.5038 35.3842L-47.4965 31.3995C-43.1139 27.9119 -36.8864 27.912 -32.5038 31.3995L-27.4965 35.3843C-23.1138 38.8719 -16.8865 38.8719 -12.5038 35.3843L-7.49634 31.3995C-3.11377 27.9119 3.11365 27.9119 7.49634 31.3995L12.5037 35.3843C16.8862 38.8718 23.1138 38.8718 27.4963 35.3843L32.5037 31.3995C36.8862 27.912 43.1138 27.912 47.4963 31.3996L52.5037 35.3843C56.8862 38.8719 63.1138 38.8718 67.4963 35.3843L72.5037 31.3995C76.8862 27.912 83.1138 27.912 87.4963 31.3996L92.5037 35.3843C96.8862 38.8719 103.114 38.8719 107.496 35.3843L112.504 31.3996C116.886 27.912 123.114 27.912 127.496 31.3996L132.504 35.3843C136.886 38.8719 143.114 38.8719 147.496 35.3843L152.504 31.3996C156.886 27.912 163.114 27.912 167.496 31.3996L172.504 35.3843C176.886 38.8719 183.114 38.8719 187.496 35.3843L192.504 31.3996C196.886 27.912 203.114 27.912 207.496 31.3996L212.504 35.3843C216.886 38.8719 223.114 38.8719 227.496 35.3843L232.504 31.3996C236.886 27.912 243.114 27.912 247.496 31.3996L252.504 35.3842C256.886 38.8718 263.114 38.8718 267.496 35.3842L272.504 31.3995C276.886 27.9119 283.114 27.9119 287.496 31.3995L292.504 35.3843C296.886 38.8718 303.114 38.8719 307.496 35.3843L312.504 31.3995C316.886 27.9119 323.114 27.9119 327.496 31.3995L332.504 35.3842C336.886 38.8718 343.114 38.8718 347.496 35.3842L352.504 31.3995C356.886 27.9119 363.114 27.9119 367.496 31.3995L372.504 35.3842C376.886 38.8718 383.114 38.8718 387.496 35.3842L392.504 31.3995C396.886 27.9119 403.114 27.9119 407.496 31.3995L412.504 35.3843C416.886 38.8718 423.114 38.8718 427.496 35.3843L432.504 31.3995C436.886 27.9119 443.114 27.912 447.496 31.3995L452.504 35.3843C456.886 38.8718 463.114 38.8718 467.496 35.3843L472.504 31.3995C476.886 27.912 483.114 27.912 487.496 31.3995L492.504 35.3843C496.886 38.8719 503.114 38.8718 507.496 35.3843L512.504 31.3995C516.886 27.912 523.114 27.912 527.496 31.3996L532.504 35.3843C536.886 38.8719 543.114 38.8718 547.496 35.3843L552.504 31.3996C556.886 27.912 563.114 27.912 567.496 31.3996L572.504 35.3842C576.886 38.8718 583.114 38.8718 587.496 35.3842L592.504 31.3995C596.886 27.9119 603.114 27.9119 607.496 31.3995L612.504 35.3843C616.886 38.8718 623.114 38.8718 627.496 35.3842L632.504 31.3995C636.886 27.9119 643.114 27.912 647.496 31.3995L652.504 35.3843C656.886 38.8718 663.114 38.8718 667.496 35.3843L672.504 31.3995C676.886 27.912 683.114 27.912 687.496 31.3995L692.504 35.3843C696.886 38.8719 703.114 38.8718 707.496 35.3843L712.504 31.3995C716.886 27.912 723.114 27.912 727.496 31.3996L732.504 35.3843C736.886 38.8719 743.114 38.8719 747.496 35.3843L752.504 31.3996C756.886 27.912 763.114 27.912 767.496 31.3996L772.504 35.3843C776.886 38.8719 783.114 38.8719 787.496 35.3843L792.504 31.3996C796.886 27.912 803.114 27.912 807.496 31.3996L812.504 35.3843C816.886 38.8719 823.114 38.8719 827.496 35.3843L832.504 31.3996C836.886 27.912 843.114 27.912 847.496 31.3996L852.504 35.3843C856.886 38.8719 863.114 38.8719 867.496 35.3843L872.504 31.3996C876.886 27.912 883.114 27.912 887.496 31.3996L892.504 35.3843C896.886 38.8719 903.114 38.8719 907.496 35.3843L912.504 31.3996C916.886 27.912 923.114 27.912 927.496 31.3996L932.504 35.3843C936.886 38.8719 943.114 38.8719 947.496 35.3843L952.504 31.3995C956.886 27.912 963.114 27.912 967.496 31.3996L972.504 35.3843C976.886 38.8719 983.114 38.8719 987.496 35.3843L992.504 31.3996C996.886 27.912 1003.11 27.912 1007.5 31.3996L1012.5 35.3843C1016.89 38.8719 1023.11 38.8719 1027.5 35.3843L1032.5 31.3996C1036.89 27.912 1043.11 27.912 1047.5 31.3996L1052.5 35.3843C1056.89 38.8719 1063.11 38.8719 1067.5 35.3843L1072.5 31.3996C1076.89 27.912 1083.11 27.912 1087.5 31.3996L1092.5 35.3843C1096.89 38.8719 1103.11 38.8719 1107.5 35.3843L1112.5 31.3996C1116.89 27.912 1123.11 27.912 1127.5 31.3996L1132.5 35.3843C1136.89 38.8719 1143.11 38.8719 1147.5 35.3843L1152.5 31.3996C1156.89 27.912 1163.11 27.912 1167.5 31.3996L1172.5 35.3843C1176.89 38.8719 1183.11 38.8719 1187.5 35.3843L1192.5 31.3996C1196.89 27.912 1203.11 27.912 1207.5 31.3996L1212.5 35.3843C1216.89 38.8719 1223.11 38.8719 1227.5 35.3843L1232.5 31.3996C1236.89 27.912 1243.11 27.912 1247.5 31.3996L1252.5 35.3843C1256.89 38.8719 1263.11 38.8719 1267.5 35.3843L1272.5 31.3996C1276.89 27.912 1283.11 27.912 1287.5 31.3996L1292.5 35.3843C1296.89 38.8719 1303.11 38.8719 1307.5 35.3843L1312.5 31.3996C1316.89 27.912 1323.11 27.912 1327.5 31.3996L1332.5 35.3843C1336.89 38.8719 1343.11 38.8719 1347.5 35.3843L1352.5 31.3996C1356.89 27.912 1363.11 27.912 1367.5 31.3996L1372.5 35.3843C1376.89 38.8719 1383.11 38.8719 1387.5 35.3843L1392.5 31.3996C1396.89 27.912 1403.11 27.912 1407.5 31.3996L1412.5 35.3843C1416.89 38.8719 1423.11 38.8719 1427.5 35.3843L1432.5 31.3996C1436.89 27.912 1443.11 27.912 1447.5 31.3996L1452.5 35.3843C1456.89 38.8719 1463.11 38.8719 1467.5 35.3843L1472.5 31.3996C1476.89 27.912 1483.11 27.912 1487.5 31.3996L1492.5 35.3843C1496.89 38.8719 1503.11 38.8719 1507.5 35.3843Z" fill="#00002A"/>
</g>
<defs>
<clipPath id="clip0_79_3220">
<rect width="1440" height="50" fill="white"/>
</clipPath>
</defs>
</svg>
