<svg width="50" height="42" viewBox="0 0 50 42" fill="none" xmlns="http://www.w3.org/2000/svg">
<g filter="url(#filter0_i_79_3319)">
<path d="M31.099 17.9677C31.099 21.3815 28.3684 24.149 25.0001 24.149C21.6318 24.149 18.9013 21.3815 18.9013 17.9677L1.78174 16.3838V17.9677C1.78174 30.9643 12.177 41.5001 25.0001 41.5001C37.8233 41.5001 48.2185 30.9643 48.2185 17.9677V16.3838L31.099 17.9677Z" fill="url(#paint0_linear_79_3319)"/>
</g>
<g filter="url(#filter1_i_79_3319)">
<path fill-rule="evenodd" clip-rule="evenodd" d="M25.0001 22.5651C28.3684 22.5651 31.099 19.7976 31.099 16.3838L48.2185 16.3838C48.2185 29.3804 37.8233 39.9162 25.0001 39.9162C12.177 39.9162 1.78174 29.3804 1.78174 16.3838L18.9013 16.3838C18.9013 19.7976 21.6318 22.5651 25.0001 22.5651Z" fill="url(#paint1_radial_79_3319)"/>
</g>
<g filter="url(#filter2_f_79_3319)">
<path d="M1.7828 16.3838H1.78174C1.78174 29.3804 12.177 39.9162 25.0001 39.9162C37.8233 39.9162 48.2185 29.3804 48.2185 16.3838H48.2175C48.0976 29.2762 37.7488 39.5768 25.0001 39.5767C12.2515 39.5767 1.90263 29.2762 1.7828 16.3838Z" fill="url(#paint2_linear_79_3319)"/>
</g>
<g filter="url(#filter3_bi_79_3319)">
<path fill-rule="evenodd" clip-rule="evenodd" d="M25.0001 15.3556C28.3684 15.3556 31.099 12.5882 31.099 9.17432L48.2185 9.17432C48.2185 22.1709 37.8233 32.7067 25.0001 32.7067C12.177 32.7067 1.78174 22.1709 1.78174 9.17432L18.9013 9.17432C18.9013 12.5882 21.6318 15.3556 25.0001 15.3556Z" fill="#E4E8F3" fill-opacity="0.4"/>
</g>
<g filter="url(#filter4_bi_79_3319)">
<path d="M1.78174 10.7582V9.17432C1.78174 22.1709 12.177 32.7067 25.0001 32.7067C37.8233 32.7067 48.2185 22.1709 48.2185 9.17432V10.7582C48.2185 23.7548 37.8233 34.2906 25.0001 34.2906C12.177 34.2906 1.78174 23.7548 1.78174 10.7582Z" fill="#E4E8F3" fill-opacity="0.4"/>
</g>
<g filter="url(#filter5_f_79_3319)">
<path d="M1.7828 9.17432H1.78174C1.78174 22.1709 12.177 32.7067 25.0001 32.7067C37.8233 32.7067 48.2185 22.1709 48.2185 9.17432H48.2175C48.0976 22.0667 37.7488 32.3673 25.0001 32.3673C12.2515 32.3673 1.90263 22.0667 1.7828 9.17432Z" fill="url(#paint3_linear_79_3319)"/>
</g>
<g filter="url(#filter6_bi_79_3319)">
<path fill-rule="evenodd" clip-rule="evenodd" d="M25.0001 7.68132C28.3684 7.68132 31.099 4.91385 31.099 1.5L48.2185 1.5C48.2185 14.4966 37.8233 25.0324 25.0001 25.0324C12.177 25.0324 1.78174 14.4966 1.78174 1.5L18.9013 1.5C18.9013 4.91385 21.6318 7.68132 25.0001 7.68132Z" fill="#E4E8F3" fill-opacity="0.4"/>
</g>
<g filter="url(#filter7_bi_79_3319)">
<path d="M1.78174 3.08391V1.5C1.78174 14.4966 12.177 25.0324 25.0001 25.0324C37.8233 25.0324 48.2185 14.4966 48.2185 1.5V3.08391C48.2185 16.0805 37.8233 26.6163 25.0001 26.6163C12.177 26.6163 1.78174 16.0805 1.78174 3.08391Z" fill="#E4E8F3" fill-opacity="0.4"/>
</g>
<g filter="url(#filter8_f_79_3319)">
<path d="M1.7828 1.5H1.78174C1.78174 14.4966 12.177 25.0324 25.0001 25.0324C37.8233 25.0324 48.2185 14.4966 48.2185 1.5H48.2175C48.0976 14.3924 37.7488 24.693 25.0001 24.693C12.2515 24.693 1.90263 14.3924 1.7828 1.5Z" fill="url(#paint4_linear_79_3319)"/>
</g>
<defs>
<filter id="filter0_i_79_3319" x="1.78174" y="15.8838" width="46.4368" height="25.6162" filterUnits="userSpaceOnUse" color-interpolation-filters="sRGB">
<feFlood flood-opacity="0" result="BackgroundImageFix"/>
<feBlend mode="normal" in="SourceGraphic" in2="BackgroundImageFix" result="shape"/>
<feColorMatrix in="SourceAlpha" type="matrix" values="0 0 0 0 0 0 0 0 0 0 0 0 0 0 0 0 0 0 127 0" result="hardAlpha"/>
<feOffset dy="-0.5"/>
<feGaussianBlur stdDeviation="0.5"/>
<feComposite in2="hardAlpha" operator="arithmetic" k2="-1" k3="1"/>
<feColorMatrix type="matrix" values="0 0 0 0 0 0 0 0 0 0 0 0 0 0 0 0 0 0 0.15 0"/>
<feBlend mode="darken" in2="shape" result="effect1_innerShadow_79_3319"/>
</filter>
<filter id="filter1_i_79_3319" x="1.78174" y="16.3838" width="46.4368" height="24.0322" filterUnits="userSpaceOnUse" color-interpolation-filters="sRGB">
<feFlood flood-opacity="0" result="BackgroundImageFix"/>
<feBlend mode="normal" in="SourceGraphic" in2="BackgroundImageFix" result="shape"/>
<feColorMatrix in="SourceAlpha" type="matrix" values="0 0 0 0 0 0 0 0 0 0 0 0 0 0 0 0 0 0 127 0" result="hardAlpha"/>
<feOffset dy="0.5"/>
<feGaussianBlur stdDeviation="0.5"/>
<feComposite in2="hardAlpha" operator="arithmetic" k2="-1" k3="1"/>
<feColorMatrix type="matrix" values="0 0 0 0 0 0 0 0 0 0 0 0 0 0 0 0 0 0 0.1 0"/>
<feBlend mode="darken" in2="shape" result="effect1_innerShadow_79_3319"/>
</filter>
<filter id="filter2_f_79_3319" x="0.781738" y="15.3838" width="48.4368" height="25.5322" filterUnits="userSpaceOnUse" color-interpolation-filters="sRGB">
<feFlood flood-opacity="0" result="BackgroundImageFix"/>
<feBlend mode="normal" in="SourceGraphic" in2="BackgroundImageFix" result="shape"/>
<feGaussianBlur stdDeviation="0.5" result="effect1_foregroundBlur_79_3319"/>
</filter>
<filter id="filter3_bi_79_3319" x="-18.2183" y="-10.8257" width="86.4368" height="63.5322" filterUnits="userSpaceOnUse" color-interpolation-filters="sRGB">
<feFlood flood-opacity="0" result="BackgroundImageFix"/>
<feGaussianBlur in="BackgroundImageFix" stdDeviation="10"/>
<feComposite in2="SourceAlpha" operator="in" result="effect1_backgroundBlur_79_3319"/>
<feBlend mode="normal" in="SourceGraphic" in2="effect1_backgroundBlur_79_3319" result="shape"/>
<feColorMatrix in="SourceAlpha" type="matrix" values="0 0 0 0 0 0 0 0 0 0 0 0 0 0 0 0 0 0 127 0" result="hardAlpha"/>
<feOffset dy="0.5"/>
<feGaussianBlur stdDeviation="0.5"/>
<feComposite in2="hardAlpha" operator="arithmetic" k2="-1" k3="1"/>
<feColorMatrix type="matrix" values="0 0 0 0 0.342674 0 0 0 0 0.352133 0 0 0 0 0.579167 0 0 0 0.1 0"/>
<feBlend mode="darken" in2="shape" result="effect2_innerShadow_79_3319"/>
</filter>
<filter id="filter4_bi_79_3319" x="-18.2183" y="-10.8257" width="86.4368" height="65.1162" filterUnits="userSpaceOnUse" color-interpolation-filters="sRGB">
<feFlood flood-opacity="0" result="BackgroundImageFix"/>
<feGaussianBlur in="BackgroundImageFix" stdDeviation="10"/>
<feComposite in2="SourceAlpha" operator="in" result="effect1_backgroundBlur_79_3319"/>
<feBlend mode="normal" in="SourceGraphic" in2="effect1_backgroundBlur_79_3319" result="shape"/>
<feColorMatrix in="SourceAlpha" type="matrix" values="0 0 0 0 0 0 0 0 0 0 0 0 0 0 0 0 0 0 127 0" result="hardAlpha"/>
<feOffset dy="-0.5"/>
<feGaussianBlur stdDeviation="0.5"/>
<feComposite in2="hardAlpha" operator="arithmetic" k2="-1" k3="1"/>
<feColorMatrix type="matrix" values="0 0 0 0 0.341176 0 0 0 0 0.352941 0 0 0 0 0.580392 0 0 0 0.25 0"/>
<feBlend mode="darken" in2="shape" result="effect2_innerShadow_79_3319"/>
</filter>
<filter id="filter5_f_79_3319" x="0.781738" y="8.17432" width="48.4368" height="25.5322" filterUnits="userSpaceOnUse" color-interpolation-filters="sRGB">
<feFlood flood-opacity="0" result="BackgroundImageFix"/>
<feBlend mode="normal" in="SourceGraphic" in2="BackgroundImageFix" result="shape"/>
<feGaussianBlur stdDeviation="0.5" result="effect1_foregroundBlur_79_3319"/>
</filter>
<filter id="filter6_bi_79_3319" x="-18.2183" y="-18.5" width="86.4368" height="63.5322" filterUnits="userSpaceOnUse" color-interpolation-filters="sRGB">
<feFlood flood-opacity="0" result="BackgroundImageFix"/>
<feGaussianBlur in="BackgroundImageFix" stdDeviation="10"/>
<feComposite in2="SourceAlpha" operator="in" result="effect1_backgroundBlur_79_3319"/>
<feBlend mode="normal" in="SourceGraphic" in2="effect1_backgroundBlur_79_3319" result="shape"/>
<feColorMatrix in="SourceAlpha" type="matrix" values="0 0 0 0 0 0 0 0 0 0 0 0 0 0 0 0 0 0 127 0" result="hardAlpha"/>
<feOffset dy="0.5"/>
<feGaussianBlur stdDeviation="0.5"/>
<feComposite in2="hardAlpha" operator="arithmetic" k2="-1" k3="1"/>
<feColorMatrix type="matrix" values="0 0 0 0 0.342674 0 0 0 0 0.352133 0 0 0 0 0.579167 0 0 0 0.1 0"/>
<feBlend mode="darken" in2="shape" result="effect2_innerShadow_79_3319"/>
</filter>
<filter id="filter7_bi_79_3319" x="-18.2183" y="-18.5" width="86.4368" height="65.1162" filterUnits="userSpaceOnUse" color-interpolation-filters="sRGB">
<feFlood flood-opacity="0" result="BackgroundImageFix"/>
<feGaussianBlur in="BackgroundImageFix" stdDeviation="10"/>
<feComposite in2="SourceAlpha" operator="in" result="effect1_backgroundBlur_79_3319"/>
<feBlend mode="normal" in="SourceGraphic" in2="effect1_backgroundBlur_79_3319" result="shape"/>
<feColorMatrix in="SourceAlpha" type="matrix" values="0 0 0 0 0 0 0 0 0 0 0 0 0 0 0 0 0 0 127 0" result="hardAlpha"/>
<feOffset dy="-0.5"/>
<feGaussianBlur stdDeviation="0.5"/>
<feComposite in2="hardAlpha" operator="arithmetic" k2="-1" k3="1"/>
<feColorMatrix type="matrix" values="0 0 0 0 0.341176 0 0 0 0 0.352941 0 0 0 0 0.580392 0 0 0 0.25 0"/>
<feBlend mode="darken" in2="shape" result="effect2_innerShadow_79_3319"/>
</filter>
<filter id="filter8_f_79_3319" x="0.781738" y="0.5" width="48.4368" height="25.5322" filterUnits="userSpaceOnUse" color-interpolation-filters="sRGB">
<feFlood flood-opacity="0" result="BackgroundImageFix"/>
<feBlend mode="normal" in="SourceGraphic" in2="BackgroundImageFix" result="shape"/>
<feGaussianBlur stdDeviation="0.5" result="effect1_foregroundBlur_79_3319"/>
</filter>
<linearGradient id="paint0_linear_79_3319" x1="1.78174" y1="28.9419" x2="48.2185" y2="28.9419" gradientUnits="userSpaceOnUse">
<stop stop-color="#662D87"/>
<stop offset="1" stop-color="#A8CBF0"/>
</linearGradient>
<radialGradient id="paint1_radial_79_3319" cx="0" cy="0" r="1" gradientUnits="userSpaceOnUse" gradientTransform="translate(8.94882 28.15) scale(29.9625 24.9978)">
<stop stop-color="#662D87"/>
<stop offset="1" stop-color="#A8CBF0"/>
</radialGradient>
<linearGradient id="paint2_linear_79_3319" x1="0.374828" y1="-30.75" x2="49.6256" y2="-30.75" gradientUnits="userSpaceOnUse">
<stop stop-color="white" stop-opacity="0.24"/>
<stop offset="0.130208" stop-color="white" stop-opacity="0.865636"/>
<stop offset="0.489583" stop-color="white" stop-opacity="0.494792"/>
<stop offset="1" stop-color="white" stop-opacity="0"/>
</linearGradient>
<linearGradient id="paint3_linear_79_3319" x1="0.374828" y1="-37.9595" x2="49.6256" y2="-37.9595" gradientUnits="userSpaceOnUse">
<stop stop-color="white" stop-opacity="0.24"/>
<stop offset="0.130208" stop-color="white" stop-opacity="0.865636"/>
<stop offset="0.489583" stop-color="white" stop-opacity="0.494792"/>
<stop offset="1" stop-color="white" stop-opacity="0"/>
</linearGradient>
<linearGradient id="paint4_linear_79_3319" x1="0.374828" y1="-45.6338" x2="49.6256" y2="-45.6338" gradientUnits="userSpaceOnUse">
<stop stop-color="white" stop-opacity="0.24"/>
<stop offset="0.130208" stop-color="white" stop-opacity="0.865636"/>
<stop offset="0.489583" stop-color="white" stop-opacity="0.494792"/>
<stop offset="1" stop-color="white" stop-opacity="0"/>
</linearGradient>
</defs>
</svg>
