<svg width="67" height="58" viewBox="0 0 67 58" fill="none" xmlns="http://www.w3.org/2000/svg">
<path d="M17.981 0C16.9456 0 16.1036 0.842838 16.1036 1.87927C16.1036 2.9157 16.9456 3.75854 17.981 3.75854C19.0163 3.75854 19.8583 2.9157 19.8583 1.87927C19.8583 0.842838 19.0163 0 17.981 0Z" fill="white"/>
<path d="M48.3248 3.75854C49.3617 3.75854 50.2022 2.91716 50.2022 1.87927C50.2022 0.841377 49.3617 0 48.3248 0C47.288 0 46.4475 0.841377 46.4475 1.87927C46.4475 2.91716 47.288 3.75854 48.3248 3.75854Z" fill="white"/>
<path d="M17.981 18.0801C16.9456 18.0801 16.1036 18.9229 16.1036 19.9593C16.1036 20.9958 16.9456 21.8386 17.981 21.8386C19.0163 21.8386 19.8583 20.9958 19.8583 19.9593C19.8583 18.9229 19.0163 18.0801 17.981 18.0801Z" fill="white"/>
<path d="M48.3248 21.8386C49.3617 21.8386 50.2022 20.9972 50.2022 19.9593C50.2022 18.9215 49.3617 18.0801 48.3248 18.0801C47.288 18.0801 46.4475 18.9215 46.4475 19.9593C46.4475 20.9972 47.288 21.8386 48.3248 21.8386Z" fill="white"/>
<path d="M17.981 36.1621C16.9456 36.1621 16.1036 37.0049 16.1036 38.0414C16.1036 39.0778 16.9456 39.9206 17.981 39.9206C19.0163 39.9206 19.8583 39.0778 19.8583 38.0414C19.8583 37.0049 19.0163 36.1621 17.981 36.1621Z" fill="white"/>
<path d="M48.3248 39.9206C49.3617 39.9206 50.2022 39.0793 50.2022 38.0414C50.2022 37.0035 49.3617 36.1621 48.3248 36.1621C47.288 36.1621 46.4475 37.0035 46.4475 38.0414C46.4475 39.0793 47.288 39.9206 48.3248 39.9206Z" fill="white"/>
<path d="M64.3082 31.2986C65.3451 31.2986 66.1856 30.4572 66.1856 29.4193C66.1856 28.3814 65.3451 27.54 64.3082 27.54C63.2714 27.54 62.4309 28.3814 62.4309 29.4193C62.4309 30.4572 63.2714 31.2986 64.3082 31.2986Z" fill="white"/>
<path d="M33.1859 27.0869C31.9005 27.0869 30.8557 28.1328 30.8557 29.4195C30.8557 30.7062 31.9005 31.752 33.1859 31.752C34.4712 31.752 35.516 30.7062 35.516 29.4195C35.516 28.1328 34.4712 27.0869 33.1859 27.0869Z" fill="white"/>
<path d="M43.6362 31.5253C44.7981 31.5253 45.74 30.5825 45.74 29.4194C45.74 28.2563 44.7981 27.3135 43.6362 27.3135C42.4744 27.3135 41.5325 28.2563 41.5325 29.4194C41.5325 30.5825 42.4744 31.5253 43.6362 31.5253Z" fill="white"/>
<path d="M22.7568 31.5253C23.9187 31.5253 24.8606 30.5825 24.8606 29.4194C24.8606 28.2563 23.9187 27.3135 22.7568 27.3135C21.595 27.3135 20.6531 28.2563 20.6531 29.4194C20.6531 30.5825 21.595 31.5253 22.7568 31.5253Z" fill="white"/>
<path d="M33.186 13.2915C34.2638 13.2915 35.1388 12.4156 35.1388 11.3367C35.1388 10.2577 34.2638 9.38184 33.186 9.38184C32.1081 9.38184 31.2332 10.2577 31.2332 11.3367C31.2332 12.4156 32.1081 13.2915 33.186 13.2915Z" fill="white"/>
<path d="M33.2472 45.5488C32.1694 45.5488 31.2944 46.4247 31.2944 47.5036C31.2944 48.5826 32.1694 49.4585 33.2472 49.4585C34.3251 49.4585 35.2 48.5826 35.2 47.5036C35.2 46.4247 34.3251 45.5488 33.2472 45.5488Z" fill="white"/>
<path d="M38.568 35.9639C37.4076 35.9639 36.4642 36.9082 36.4642 38.0698C36.4642 39.2313 37.4076 40.1757 38.568 40.1757C39.7283 40.1757 40.6717 39.2313 40.6717 38.0698C40.6717 36.9082 39.7283 35.9639 38.568 35.9639Z" fill="white"/>
<path d="M28.2756 35.9639C27.1153 35.9639 26.1719 36.9082 26.1719 38.0698C26.1719 39.2313 27.1153 40.1757 28.2756 40.1757C29.436 40.1757 30.3794 39.2313 30.3794 38.0698C30.3794 36.9082 29.436 35.9639 28.2756 35.9639Z" fill="white"/>
<path d="M38.568 17.8535C37.4076 17.8535 36.4642 18.7979 36.4642 19.9594C36.4642 21.121 37.4076 22.0653 38.568 22.0653C39.7283 22.0653 40.6717 21.121 40.6717 19.9594C40.6717 18.7979 39.7283 17.8535 38.568 17.8535Z" fill="white"/>
<path d="M28.2756 17.8535C27.1153 17.8535 26.1719 18.7979 26.1719 19.9594C26.1719 21.121 27.1153 22.0653 28.2756 22.0653C29.436 22.0653 30.3794 21.121 30.3794 19.9594C30.3794 18.7979 29.436 17.8535 28.2756 17.8535Z" fill="white"/>
<path d="M1.87734 27.54C0.841971 27.54 0 28.3829 0 29.4193C0 30.4557 0.841971 31.2986 1.87734 31.2986C2.9127 31.2986 3.75467 30.4557 3.75467 29.4193C3.75467 28.3829 2.9127 27.54 1.87734 27.54Z" fill="white"/>
<path d="M17.981 54.2412C16.9456 54.2412 16.1036 55.0841 16.1036 56.1205C16.1036 57.1569 16.9456 57.9997 17.981 57.9997C19.0163 57.9997 19.8583 57.1569 19.8583 56.1205C19.8583 55.0841 19.0163 54.2412 17.981 54.2412Z" fill="white"/>
<path d="M48.3248 57.9997C49.3617 57.9997 50.2022 57.1584 50.2022 56.1205C50.2022 55.0826 49.3617 54.2412 48.3248 54.2412C47.288 54.2412 46.4475 55.0826 46.4475 56.1205C46.4475 57.1584 47.288 57.9997 48.3248 57.9997Z" fill="white"/>
</svg>
