<svg width="20" height="20" viewBox="0 0 20 20" fill="none" xmlns="http://www.w3.org/2000/svg">
<path d="M19.1666 2.49959C18.3686 3.06249 17.485 3.49302 16.5499 3.77459C16.048 3.19752 15.381 2.7885 14.6391 2.60286C13.8972 2.41722 13.1162 2.46392 12.4017 2.73664C11.6871 3.00935 11.0736 3.49493 10.6441 4.12769C10.2145 4.76045 9.98967 5.50987 9.99992 6.27459V7.10792C8.53545 7.1459 7.08431 6.8211 5.77576 6.16246C4.4672 5.50382 3.34185 4.53179 2.49992 3.33292C2.49992 3.33292 -0.833415 10.8329 6.66658 14.1663C4.95036 15.3312 2.90588 15.9154 0.833252 15.8329C8.33325 19.9996 17.4999 15.8329 17.4999 6.24959C17.4991 6.01747 17.4768 5.78592 17.4333 5.55792C18.2838 4.71917 18.8839 3.66018 19.1666 2.49959Z" stroke="white" stroke-linecap="round" stroke-linejoin="round"/>
</svg>
