<svg width="211" height="211" viewBox="0 0 211 211" fill="none" xmlns="http://www.w3.org/2000/svg">
<path d="M14.6343 53.0387L105.5 0.57735L196.366 53.0387V157.961L105.5 210.423L14.6343 157.961V53.0387Z" stroke="url(#paint0_linear_79_3232)"/>
<path d="M37.4757 66.2262L105.5 26.9524L173.524 66.2262V144.774L105.5 184.048L37.4757 144.774V66.2262Z" stroke="url(#paint1_linear_79_3232)"/>
<path d="M60.3172 79.4137L105.5 53.3274L150.683 79.4137V131.586L105.5 157.673L60.3172 131.586V79.4137Z" stroke="url(#paint2_linear_79_3232)"/>
<path d="M83.1586 92.6012L105.5 79.7024L127.841 92.6012V118.399L105.5 131.298L83.1586 118.399V92.6012Z" stroke="url(#paint3_linear_79_3232)"/>
<defs>
<linearGradient id="paint0_linear_79_3232" x1="0" y1="105.5" x2="211" y2="105.5" gradientUnits="userSpaceOnUse">
<stop stop-color="white"/>
<stop offset="1" stop-color="#A8CBF0"/>
</linearGradient>
<linearGradient id="paint1_linear_79_3232" x1="26.375" y1="105.5" x2="184.625" y2="105.5" gradientUnits="userSpaceOnUse">
<stop stop-color="white"/>
<stop offset="1" stop-color="#A8CBF0"/>
</linearGradient>
<linearGradient id="paint2_linear_79_3232" x1="52.75" y1="105.5" x2="158.25" y2="105.5" gradientUnits="userSpaceOnUse">
<stop stop-color="white"/>
<stop offset="1" stop-color="#A8CBF0"/>
</linearGradient>
<linearGradient id="paint3_linear_79_3232" x1="79.125" y1="105.5" x2="131.875" y2="105.5" gradientUnits="userSpaceOnUse">
<stop stop-color="white"/>
<stop offset="1" stop-color="#A8CBF0"/>
</linearGradient>
</defs>
</svg>
