<svg width="1400" height="60" viewBox="0 0 1400 60" fill="none" xmlns="http://www.w3.org/2000/svg">
<g opacity="0.6">
<path d="M84.2491 2.74219L84.3762 7.69323L83.2274 7.75931C83.1308 4.72464 82.4903 4.30782 77.89 4.30782H76.8988V21.7839C76.8988 24.1781 77.5037 24.8186 79.8725 24.8846L79.9335 25.7132C77.6969 25.6827 76.0042 25.6827 74.8859 25.6827C73.7676 25.6827 71.9783 25.6827 69.6756 25.7132L69.7366 24.8846C72.1003 24.8236 72.7103 24.1832 72.7103 21.7839V4.30782H71.5615C66.829 4.30782 66.1936 4.72464 66.1275 7.75931L64.9431 7.69323L65.0702 2.74219C69.4163 2.77269 72.6442 2.80319 74.8147 2.80319C76.9852 2.80319 80.0555 2.77269 84.2441 2.74219" fill="white"/>
<path d="M85.1031 24.9507C87.2431 24.9507 87.5329 24.5339 87.5634 21.5297V6.92563C87.5329 3.92145 87.2431 3.50463 85.1031 3.50463L85.0421 2.73707C87.9497 2.57949 88.6207 2.4829 91.2436 2V11.9123C92.9363 10.0264 94.3749 9.28932 96.2607 9.28932C99.392 9.28932 101.115 11.2718 101.115 14.9164V21.5297C101.146 24.5339 101.435 24.9507 103.575 24.9507L103.636 25.7182C101.786 25.6572 100.378 25.5912 99.453 25.5912C98.5279 25.5912 97.2469 25.6572 95.4881 25.7182L95.5542 24.9507C97.2469 24.6965 97.4096 24.3763 97.4401 21.5297V16.6701C97.4401 12.6442 96.7386 11.3023 94.629 11.3023C93.4447 11.3023 92.2298 12.0393 91.7214 13.1576C91.5283 13.5389 91.4012 13.9557 91.2741 14.3725C91.2436 14.5301 91.2436 14.6623 91.2436 14.7233V21.5297C91.2436 24.3712 91.4368 24.6914 93.1295 24.9507L93.1905 25.7182C91.4012 25.6572 90.0897 25.5912 89.1951 25.5912C88.3004 25.5912 86.8619 25.6572 85.0421 25.7182L85.1031 24.9507Z" fill="white"/>
<path d="M109.548 15.4906C112.486 15.4296 113.381 15.3635 116.355 15.0433C115.974 11.9425 114.789 10.4074 112.776 10.4074C110.763 10.4074 109.869 12.0035 109.548 15.4906ZM119.74 22.5867C117.758 25.047 115.811 26.0687 113.254 26.0687C108.811 26.0687 105.807 22.8104 105.807 17.9813C105.807 12.8371 108.908 9.28906 113.381 9.28906C115.841 9.28906 117.57 10.1837 118.749 12.1357C119.547 13.4776 119.771 14.4028 119.801 16.7055H109.64C109.767 21.565 111.526 24.3099 114.464 24.3099C116.223 24.3099 117.692 23.5119 119.257 21.687L119.735 22.5816L119.74 22.5867Z" fill="white"/>
<path d="M0.106747 56.4617C2.6941 56.3905 3.36508 55.684 3.36508 53.0255V36.261C3.36508 33.6025 2.68902 32.8959 0.106747 32.8248L0 31.9047L5.49495 31.9759L14.1415 31.8691L16.4086 31.9047L16.5509 37.115L15.1327 37.2218C14.8836 33.999 14.2838 33.6432 9.18027 33.6432H8.40254L8.04672 33.6788V43.3165C8.7177 43.3165 9.25144 43.3521 9.57168 43.3521C10.1359 43.3877 10.6697 43.4233 11.2034 43.4233C14.0398 43.4233 14.6752 42.8184 14.7108 40.1294H15.9155C15.8088 42.2897 15.8088 43.3877 15.8088 44.4552C15.8088 45.3041 15.8088 46.5088 15.8444 48.1049H14.7108C14.5685 45.5531 14.0042 45.055 11.2746 45.0194L9.35819 44.9838L8.01114 45.055V52.5324C8.01114 55.5467 8.18905 55.6891 11.1678 55.6891C15.1734 55.6891 16.3425 54.8046 16.6983 51.3632L18.1166 51.4344L17.3032 57.3868L14.5736 57.4224L5.89144 57.3513L0.0101664 57.3868L0.116914 56.4668L0.106747 56.4617Z" fill="white"/>
<path d="M36.3907 54.8651C34.3727 56.9543 32.7054 57.7727 30.3671 57.7727C25.6906 57.7727 22.6406 54.123 22.6406 48.5569C22.6406 42.9907 25.8634 39.1631 30.9669 39.1631C32.314 39.1631 33.6966 39.4122 35.8214 39.9764L35.8925 44.231L34.2964 44.3378C33.661 41.1506 33.0205 40.4034 30.9669 40.4034C28.3084 40.4034 26.9258 42.7772 26.9258 47.347C26.9258 52.7353 28.5931 55.7445 31.6023 55.7445C33.1629 55.7445 34.4743 55.0735 35.857 53.5841L36.3907 54.86V54.8651Z" fill="white"/>
<path d="M44.5695 48.7707C44.9253 53.8387 46.5875 56.5684 49.3172 56.5684C51.869 56.5684 53.394 53.9099 53.394 49.4468C53.394 44.2009 51.3048 40.5156 48.3972 40.5156C45.8098 40.5156 44.4983 42.7471 44.4983 47.1797C44.4983 47.7083 44.4983 48.2421 44.5695 48.7758V48.7707ZM40.1776 49.1672V48.6386C40.1776 42.6505 43.4004 39.1787 48.9309 39.1787C54.07 39.1787 57.6842 43.0064 57.6842 48.4962C57.6842 53.9861 54.1768 57.7833 48.8241 57.7833C43.7562 57.7833 40.3555 54.3826 40.1776 49.1723" fill="white"/>
<path d="M61.9999 56.5323C64.3737 56.5323 64.7296 56.0697 64.7296 52.7402V44.5207C64.7296 41.2268 64.3737 40.7642 61.9999 40.7286L61.9287 39.9153C65.0854 39.7374 65.7919 39.6306 68.486 39.0664L68.664 42.2536C70.682 39.9865 72.2425 39.1681 74.4029 39.1681C77.8392 39.1681 79.7911 41.3996 79.7911 45.4052V52.7402C79.7555 53.0249 79.7555 53.3096 79.7555 53.5891C79.7555 55.8562 80.3604 56.5323 82.5208 56.5323L82.592 57.3812C80.5383 57.31 78.9778 57.2389 77.951 57.2389C76.9242 57.2389 75.4704 57.31 73.5184 57.3812L73.5896 56.5323C75.4653 56.2476 75.6788 55.8969 75.6788 52.7402L75.7144 50.5087V47.352C75.7144 42.889 74.9011 41.3996 72.5933 41.3996C71.2106 41.3996 70.0415 42.1417 69.3349 43.4532C69.0503 43.9869 68.8063 44.8358 68.8063 45.1917V52.7402C68.8419 55.8969 69.0198 56.2476 70.8955 56.5323L71.0022 57.3812C69.0198 57.31 67.5304 57.2389 66.5392 57.2389C65.548 57.2389 63.9874 57.31 61.9338 57.3812L62.005 56.5323H61.9999Z" fill="white"/>
<path d="M90.105 48.7707C90.4609 53.8387 92.1231 56.5684 94.8527 56.5684C97.4045 56.5684 98.9295 53.9099 98.9295 49.4468C98.9295 44.2009 96.8352 40.5156 93.9327 40.5156C91.3453 40.5156 90.0339 42.7471 90.0339 47.1797C90.0339 47.7083 90.0339 48.2421 90.105 48.7758V48.7707ZM85.7131 49.1672V48.6386C85.7131 42.6505 88.9359 39.1787 94.4664 39.1787C99.6055 39.1787 103.22 43.0064 103.22 48.4962C103.22 53.9861 99.7123 57.7833 94.3597 57.7833C89.2917 57.7833 85.891 54.3826 85.7131 49.1723" fill="white"/>
<path d="M107.535 56.5323C109.909 56.5323 110.265 56.0697 110.265 52.7402V44.5207C110.265 41.2268 109.909 40.7642 107.535 40.7286L107.464 39.9153C110.621 39.7374 111.327 39.6306 114.021 39.0664L114.199 42.2536C116.217 40.022 117.778 39.1681 119.867 39.1681C122.277 39.1681 123.695 40.1593 124.757 42.5332C126.918 40.0525 128.514 39.1681 130.674 39.1681C134.039 39.1681 135.955 41.4352 135.955 45.4052V52.7402C135.955 53.0249 135.92 53.3096 135.92 53.5891C135.92 55.8562 136.555 56.5323 138.685 56.5323L138.756 57.3812C136.703 57.31 135.142 57.2389 134.115 57.2389C133.089 57.2389 131.67 57.31 129.723 57.3812L129.795 56.5323C131.67 56.2476 131.848 55.8969 131.884 52.7402V47.352C131.884 42.9601 131.106 41.3996 128.905 41.3996C127.594 41.3996 126.247 42.2485 125.682 43.4532C125.504 43.8802 125.326 44.3021 125.22 44.8003C125.184 44.9782 125.149 45.1205 125.149 45.1917V52.7402C125.149 55.8969 125.362 56.2476 127.238 56.5323L127.309 57.3812C125.428 57.31 124.015 57.2389 123.054 57.2389C122.094 57.2389 120.752 57.31 118.906 57.3812L118.978 56.5323C120.853 56.2476 121.031 55.8969 121.067 52.7402V47.352C121.067 42.9601 120.289 41.3996 118.088 41.3996C116.741 41.3996 115.536 42.1773 114.865 43.4532C114.581 44.0225 114.337 44.8358 114.337 45.1917V52.7402C114.372 55.8969 114.55 56.2476 116.426 56.5323L116.497 57.3812C114.55 57.31 113.061 57.2389 112.069 57.2389C111.078 57.2389 109.518 57.31 107.464 57.3812L107.535 56.5323Z" fill="white"/>
<path d="M144.46 33.1399C144.46 31.7929 145.522 30.7305 146.834 30.7305C148.145 30.7305 149.207 31.8284 149.207 33.1399C149.207 34.4514 148.181 35.5493 146.834 35.5493C145.486 35.5493 144.46 34.5225 144.46 33.1399ZM149.029 39.0568V50.5041L149.065 52.7357C149.065 56.0652 149.385 56.5277 151.795 56.5277L151.866 57.3766C149.67 57.3055 148.074 57.2343 146.976 57.2343C145.878 57.2343 144.317 57.3055 142.157 57.3766L142.228 56.5277C144.602 56.5277 144.958 56.0652 144.958 52.7357L144.993 50.5041V46.7832L144.958 44.5161C144.958 41.2222 144.602 40.7596 142.228 40.7241L142.157 39.9107C145.415 39.6972 146.163 39.5905 149.035 39.0618" fill="white"/>
<path d="M156.222 56.7408L156.08 53.1267L157.889 53.0555C158.703 55.7852 159.237 56.3138 161.112 56.3138C162.744 56.3138 163.806 55.4649 163.806 54.1891C163.806 52.9843 163.064 52.0643 160.828 50.5393C159.694 49.7616 158.916 49.2278 158.489 48.9076C157.569 48.201 156.893 47.3471 156.542 46.3914C156.329 45.8628 156.222 45.2223 156.222 44.4801C156.222 41.2574 158.418 39.1631 161.753 39.1631C162.993 39.1631 163.7 39.2698 166.572 39.9408L166.643 43.5194L164.833 43.5906C164.406 41.2167 163.664 40.4034 161.997 40.4034C160.329 40.4034 159.267 41.3235 159.267 42.6349C159.267 43.8752 159.836 44.6174 161.676 45.7865C163.344 46.8845 164.655 47.8757 165.54 48.6585C166.531 49.6142 167.1 50.8189 167.1 52.2015C167.1 55.3531 164.442 57.7676 161.041 57.7676C159.73 57.7676 158.489 57.483 156.222 56.7408Z" fill="white"/>
<path d="M170.857 40.1953C173.658 39.9818 174.756 38.7771 175.569 35.0918H177.165V39.8751H181.628L181.13 41.822H177.16V50.5397C177.16 54.9011 177.729 55.9279 180.139 55.9279C180.708 55.9279 181.237 55.8567 182.086 55.6076V56.6344C180.881 57.3105 179.214 57.6968 177.516 57.6968C175.955 57.6968 174.466 56.8123 173.83 55.5009C173.302 54.4029 173.124 53.3049 173.124 50.8955V41.822H170.857V40.1903V40.1953Z" fill="white"/>
<path d="M384.957 22.0109C382.476 22.0109 380.527 22.5443 378.576 23.609C378.576 17.9256 378.576 12.7755 378.755 11L366.876 13.1304V14.1961L368.117 14.3735C369.711 14.7284 370.245 15.6157 370.597 17.7481C370.954 22.0109 370.775 44.7457 370.597 48.4762C373.787 49.187 377.157 49.7204 380.526 49.7204C389.921 49.7204 395.594 43.8585 395.594 34.622C395.594 27.3405 390.985 22.0109 384.957 22.0109ZM380.88 47.7654C380.17 47.7654 379.283 47.7654 378.753 47.589C378.574 45.1026 378.398 34.622 378.574 25.3865C379.638 25.0306 380.346 24.8532 381.234 24.8532C385.136 24.8532 387.264 29.4709 387.264 35.1533C387.263 42.2604 384.603 47.7654 380.88 47.7654ZM322.201 11.7098H291V13.3078L292.773 13.4853C295.076 13.8402 295.964 15.2608 296.317 18.6353C296.851 25.0296 296.672 36.576 296.317 42.0799C295.963 45.4555 295.077 47.0546 292.773 47.23L291 47.5869V49.0075H311.032V47.5869L308.905 47.23C306.601 47.0535 305.714 45.4555 305.36 42.0799C305.182 39.77 305.005 36.0395 305.005 31.4228L309.259 31.6003C311.919 31.6003 313.158 33.7317 313.691 36.7503H315.287V24.1434H313.691C313.157 27.1631 311.919 29.2934 309.259 29.2934L305.006 29.4719C305.006 23.4326 305.183 17.7491 305.361 14.3746H311.565C316.353 14.3746 318.834 17.3932 320.606 22.7228L322.379 22.1894L322.201 11.7098Z" fill="white"/>
<path d="M332.306 21.6567C341.171 21.6567 345.602 27.696 345.602 35.6883C345.602 43.3257 340.638 49.722 331.774 49.722C322.91 49.722 318.479 43.6817 318.479 35.6883C318.479 28.0509 323.442 21.6567 332.306 21.6567ZM331.774 23.4332C327.873 23.4332 326.81 28.7617 326.81 35.6883C326.81 42.4375 328.583 47.9435 332.129 47.9435C336.204 47.9435 337.269 42.6149 337.269 35.6883C337.269 28.9392 335.498 23.4332 331.774 23.4332ZM397.897 35.8668C397.897 28.5843 402.506 21.6567 411.547 21.6567C418.991 21.6567 422.538 27.1637 422.538 34.4452H406.051C405.873 41.0169 409.064 45.8131 415.447 45.8131C418.284 45.8131 419.701 45.1043 421.476 43.8601L422.183 44.7474C420.41 47.2337 416.51 49.722 411.547 49.722C403.57 49.721 397.897 44.0376 397.897 35.8668ZM406.051 32.4922L414.383 32.3138C414.383 28.7617 413.851 23.4332 410.838 23.4332C407.825 23.4332 406.227 28.4058 406.051 32.4922ZM443.637 23.0783C441.51 22.189 438.674 21.6567 435.483 21.6567C428.925 21.6567 424.846 25.5636 424.846 30.1823C424.846 34.8011 427.856 36.754 432.116 38.1757C436.547 39.7727 437.789 41.0169 437.789 43.1483C437.789 45.2797 436.193 47.2326 433.356 47.2326C429.989 47.2326 427.505 45.2797 425.556 39.9501L424.314 40.3071L424.492 48.1219C426.62 49.0092 430.519 49.721 433.888 49.721C440.802 49.721 445.235 46.1669 445.235 40.662C445.235 36.9315 443.284 34.8011 438.675 33.0235C433.71 31.0706 431.939 29.8275 431.939 27.5176C431.939 25.2087 433.537 23.6096 435.664 23.6096C438.853 23.6096 440.981 25.5636 442.579 30.3598L443.818 30.0049L443.637 23.0783ZM368.647 22.3675C365.635 20.593 360.315 21.4792 357.48 27.8745L357.656 21.6577L345.779 23.9666V25.0323L347.02 25.2097C348.617 25.3882 349.325 26.2754 349.503 28.5853C349.857 32.8482 349.68 40.3091 349.503 44.0386C349.325 46.168 348.617 47.2337 347.02 47.4121L345.779 47.5906V49.0112H362.265V47.5906L360.138 47.4121C358.366 47.2337 357.834 46.168 357.656 44.0386C357.301 40.663 357.301 33.9139 357.48 29.651C358.365 28.4068 362.265 27.3422 365.811 29.651L368.647 22.3675Z" fill="white"/>
<path d="M610.278 17.2283V15.9832L616.31 16.1389C617.044 16.1389 618.187 16.1141 619.74 16.0611C621.755 15.9832 622.927 15.9443 623.252 15.9443C625.719 15.9443 627.519 16.1636 628.652 16.6058C629.784 17.0479 630.656 17.7625 631.277 18.7529C631.899 19.7433 632.209 20.8222 632.209 21.9894C632.209 23.0789 631.92 24.1578 631.337 25.2331C630.755 26.3084 629.912 27.2033 628.807 27.9143C627.702 28.6253 626.262 29.1771 624.494 29.5662C624.815 30.0189 625.581 31.0306 626.781 32.5976L631.669 39.0494C633.067 40.8499 633.878 41.8545 634.111 42.0632C634.216 42.1478 634.334 42.2137 634.461 42.2577C634.655 42.3249 635.082 42.3567 635.738 42.3567V43.6019C634.881 43.5295 634.022 43.4906 633.162 43.4851C632.4 43.4851 631.461 43.524 630.349 43.6019C629.509 42.6291 628.101 40.7296 626.125 37.9069C625.196 36.5696 624.226 35.2614 623.216 33.9842C621.966 32.3758 620.672 30.8012 619.338 29.262L619.532 28.6783C620.202 28.7172 620.714 28.7349 621.064 28.7349C623.414 28.7349 625.2 28.1796 626.414 27.0654C627.632 25.9511 628.239 24.4832 628.239 22.6544C628.239 21.0627 627.716 19.7928 626.668 18.8555C625.623 17.9181 624.035 17.4477 621.918 17.4477C620.587 17.4477 619.281 17.6493 618.004 18.049C617.951 18.7494 617.915 19.4037 617.887 20.0121C617.877 20.1925 617.831 22.0779 617.753 25.6682V34.2954C617.753 36.057 617.778 37.7725 617.831 39.4456C617.855 40.6766 617.944 41.4088 618.092 41.6422C618.266 41.8949 618.523 42.0778 618.819 42.1587C619.158 42.2683 620.086 42.3355 621.611 42.3638V43.6089C619.775 43.5063 618.088 43.4533 616.55 43.4533C615.307 43.4533 613.222 43.5063 610.289 43.6089V42.3532C611.817 42.3285 612.745 42.2612 613.08 42.1481C613.358 42.0788 613.604 41.9181 613.779 41.6918C613.934 41.4335 614.03 40.8074 614.069 39.8064C614.083 39.534 614.107 37.6947 614.146 34.2884V25.2932C614.146 23.5317 614.125 21.809 614.086 20.1253C614.047 18.8944 613.952 18.1657 613.804 17.9393C613.629 17.6941 613.377 17.5157 613.087 17.4335C612.752 17.3239 611.817 17.2531 610.278 17.2283ZM639.183 17.2283V15.9832L645.211 16.1389C645.945 16.1389 647.092 16.1141 648.642 16.0611C650.657 15.9832 651.828 15.9443 652.15 15.9443C654.62 15.9443 656.417 16.1636 657.549 16.6058C658.682 17.0479 659.561 17.7625 660.179 18.7529C660.796 19.7433 661.111 20.8222 661.111 21.9894C661.111 23.0789 660.818 24.1578 660.235 25.2331C659.635 26.3296 658.764 27.253 657.705 27.9143C656.6 28.6288 655.16 29.1771 653.392 29.5662C653.713 30.0189 654.479 31.0306 655.679 32.5976L660.563 39.0494C661.961 40.8499 662.773 41.8545 663.006 42.0632C663.11 42.1478 663.228 42.2137 663.355 42.2577C663.549 42.3249 663.976 42.3567 664.633 42.3567V43.6019C663.776 43.5295 662.916 43.4905 662.056 43.4851C661.294 43.4851 660.359 43.524 659.247 43.6019C658.407 42.6291 656.999 40.7296 655.019 37.9069C654.09 36.5696 653.12 35.2614 652.111 33.9842C650.859 32.3767 649.566 30.8021 648.232 29.262L648.426 28.6783C649.097 28.7172 649.609 28.7349 649.958 28.7349C652.312 28.7349 654.094 28.1796 655.308 27.0654C656.522 25.9511 657.129 24.4832 657.129 22.6544C657.129 21.0627 656.607 19.7928 655.559 18.8555C654.514 17.9181 652.93 17.4477 650.808 17.4477C649.478 17.4477 648.172 17.6493 646.891 18.049C646.838 18.7494 646.803 19.4037 646.775 20.0121C646.76 20.1925 646.715 22.0779 646.637 25.6682V34.2954C646.637 36.057 646.662 37.7725 646.715 39.4456C646.739 40.6766 646.827 41.4088 646.976 41.6422C647.124 41.8757 647.367 42.049 647.703 42.1587C648.038 42.2683 648.97 42.3355 650.494 42.3638V43.6089C648.659 43.5063 646.972 43.4533 645.433 43.4533C644.191 43.4533 642.105 43.5063 639.172 43.6089V42.3532C640.697 42.3285 641.629 42.2612 641.964 42.1481C642.299 42.0349 642.532 41.8863 642.663 41.6918C642.818 41.4335 642.913 40.8074 642.956 39.8064C642.966 39.534 642.995 37.6947 643.033 34.2884V25.2932C643.033 23.5317 643.012 21.809 642.973 20.1253C642.935 18.8944 642.839 18.1657 642.691 17.9393C642.515 17.694 642.261 17.5157 641.971 17.4335C641.657 17.3239 640.722 17.2531 639.183 17.2283Z" fill="white"/>
<path fill-rule="evenodd" clip-rule="evenodd" d="M666.733 35.4848C667.364 37.3454 668.289 38.9265 669.507 40.2282C670.724 41.5299 672.207 42.5133 673.968 43.1712C675.725 43.8327 677.617 44.1616 679.646 44.1616C684.104 44.1616 687.799 42.7114 690.725 39.8108C693.651 36.9103 695.115 33.2741 695.115 28.9091C695.115 27.5508 694.971 26.2739 694.678 25.0819C694.429 23.9973 694.034 22.9514 693.506 21.9726C692.816 20.744 691.921 19.6433 690.859 18.7184C689.74 17.728 688.307 16.9321 686.564 16.3272C684.688 15.7052 682.723 15.4003 680.747 15.4252C678.432 15.4252 676.378 15.779 674.582 16.4829C672.785 17.1903 671.176 18.2373 669.754 19.6204C668.387 20.9223 667.341 22.5259 666.701 24.3037C665.462 27.9291 665.473 31.8665 666.733 35.4848ZM582.52 43.4223C583.607 43.4223 585.241 43.4825 587.426 43.5992V42.2727C586.222 42.2621 585.382 42.2055 584.902 42.0994C584.65 42.0599 584.418 41.9381 584.243 41.7528C584.138 41.6272 584.082 41.4673 584.087 41.3035C584.087 40.8897 584.274 40.2353 584.648 39.3404L586.762 34.3458H597.986L600.371 40.2919C600.528 40.6416 600.62 41.0166 600.643 41.399C600.649 41.5669 600.589 41.7304 600.477 41.8554C600.368 41.9792 600.156 42.0747 599.846 42.1383C599.535 42.202 598.656 42.248 597.209 42.2727V43.5957L603.452 43.4011C604.254 43.4011 605.662 43.4648 607.681 43.5957V42.2727C606.657 42.2621 606.001 42.1843 605.711 42.0428C605.358 41.834 605.077 41.5217 604.907 41.1479C604.465 40.345 603.576 38.3641 602.231 35.2018L593.952 15.7118H592.692C591.58 18.4011 590.45 21.0824 589.3 23.7554L584.458 34.7172C583.011 37.876 582.167 39.6976 581.938 40.1787C581.536 41.017 581.228 41.5405 581.017 41.7422C580.82 41.9335 580.581 42.0743 580.318 42.1525C580.067 42.2232 579.429 42.2657 578.409 42.2763V43.5992C579.894 43.4789 581.264 43.4223 582.52 43.4223ZM559.079 43.4436L564.701 43.5992C566.561 43.5992 568.17 43.341 569.529 42.821C571.284 42.1688 572.829 41.05 573.997 39.5845C575.155 38.1271 575.733 36.4399 575.733 34.5227C575.733 33.55 575.571 32.6727 575.246 31.8804C574.6 30.2993 573.348 29.1815 571.488 28.6261C570.289 28.2986 569.063 28.0866 567.824 27.993C568.961 27.71 569.882 27.3952 570.584 27.0521C571.29 26.709 571.929 26.2633 572.504 25.7115C573.079 25.1632 573.538 24.5088 573.881 23.7589C574.223 23.009 574.396 22.2061 574.396 21.3501C574.396 20.2748 574.106 19.302 573.531 18.4248C572.956 17.5511 572.162 16.9179 571.138 16.5289C570.115 16.1398 568.664 15.9487 566.776 15.9487L559.643 16.1221L555.609 16.0266C554.963 16.0266 554.427 16.0124 554 15.9841V17.208C555.345 17.2221 556.231 17.3177 556.658 17.5016C556.831 17.5744 556.974 17.7042 557.063 17.8695C557.19 18.1277 557.282 18.7962 557.335 19.8715C557.413 21.58 557.452 23.0727 557.452 24.3426V36.0578C557.452 36.7193 557.423 37.6814 557.363 38.9442C557.303 40.207 557.236 41.0312 557.159 41.4238C557.109 41.6679 557.035 41.8377 556.947 41.9367C556.859 42.0357 556.411 42.2798 555.609 42.6831V43.5957C557.314 43.4931 558.472 43.4436 559.079 43.4436ZM561.309 17.8301C562.294 17.6391 563.331 17.54 564.433 17.54C566.409 17.54 567.912 17.9008 568.94 18.6189C569.967 19.3369 570.482 20.5078 570.482 22.1243C570.482 23.044 570.323 23.8469 570.005 24.5331C569.688 25.2193 569.289 25.7641 568.812 26.1638C568.336 26.5706 567.658 26.8924 566.787 27.1401C565.915 27.3877 564.676 27.5079 563.074 27.5079C562.516 27.5079 561.874 27.4902 561.136 27.4513V22.8246C561.111 21.1579 561.169 19.491 561.309 17.8301ZM561.133 36.4076V29.0431C561.997 28.9936 562.71 28.9653 563.264 28.9653C565.682 28.9653 567.415 29.1881 568.47 29.6338C570.577 30.5287 571.639 32.4034 571.639 35.1236C571.639 36.4995 571.357 37.7128 570.796 38.7775C570.265 39.8084 569.419 40.6425 568.382 41.1581C567.337 41.6816 565.964 41.9433 564.256 41.9433C563.225 41.9483 562.196 41.8307 561.193 41.5931C561.154 38.8483 561.133 37.1186 561.133 36.4076ZM597.213 32.6935H587.422L592.367 20.9782L597.213 32.6935ZM674.487 18.4527C672.934 19.3724 671.769 20.7024 670.985 22.4462C670.206 24.1901 669.814 26.1603 669.817 28.3605C669.819 29.6192 669.942 30.8749 670.184 32.1099C670.389 33.2315 670.701 34.3308 671.116 35.3924C671.668 36.8423 672.493 38.1719 673.548 39.3081C674.547 40.3622 675.665 41.1404 676.901 41.6392C678.136 42.1379 679.502 42.3855 681.002 42.3855C683.08 42.3855 684.891 41.8762 686.43 40.861C687.968 39.8458 689.115 38.4132 689.871 36.5668C690.626 34.7239 691.004 32.5945 691.004 30.1857C691.004 28.127 690.735 26.231 690.192 24.4943C689.521 22.3719 688.406 20.6387 686.867 19.3547C686.098 18.7145 685.099 18.1768 683.871 17.7346C682.643 17.2925 681.319 17.0732 679.897 17.0732C677.843 17.0732 676.039 17.533 674.487 18.4527Z" fill="white"/>
<path d="M697.141 43.5949V42.371C698.496 42.3604 699.389 42.2543 699.816 42.0597C699.987 41.9914 700.125 41.8596 700.201 41.6919C700.332 41.4336 700.42 40.7545 700.473 39.6509C700.55 37.9424 700.589 36.4639 700.589 35.2223V19.3862C700.604 19.1056 700.578 18.8243 700.512 18.5514C700.338 18.2294 700.101 17.9455 699.816 17.7166C699.583 17.5079 699.312 17.377 699.008 17.3204C698.705 17.2638 698.03 17.2284 696.982 17.2143V15.9833C699.139 16.0364 700.497 16.0612 701.055 16.0612C701.997 16.0612 702.933 16.0364 703.864 15.9833C704.966 17.423 705.77 18.4842 706.289 19.1704L710.302 24.126L716.157 31.2005C718.031 33.4537 719.538 35.2294 720.674 36.524C721.398 37.38 722.005 38.0556 722.499 38.5437V24.3418C722.499 23.0719 722.453 21.5828 722.361 19.8708C722.308 18.7954 722.224 18.1269 722.111 17.8687C722.021 17.7024 721.876 17.5725 721.701 17.5008C721.274 17.3204 720.389 17.2214 719.047 17.2072V15.9833C720.572 16.0364 722.114 16.0612 723.678 16.0612C725.15 16.0612 726.491 16.0364 727.691 15.9833V17.2072C726.346 17.2214 725.46 17.3169 725.037 17.5008C724.949 17.5366 724.87 17.5894 724.803 17.6562C724.737 17.723 724.684 17.8025 724.648 17.8899C724.521 18.134 724.43 18.8167 724.377 19.9309C724.299 21.6394 724.26 23.1108 724.26 24.3418V33.6871C724.26 35.5795 724.292 39.1097 724.355 44.2776L722.358 43.6939L721.892 43.5984C721.815 43.5723 721.743 43.5328 721.68 43.4817C721.416 43.2402 721.17 42.9801 720.943 42.7035C720.141 41.7966 719.355 40.8756 718.585 39.9409L716.083 36.7751L702.336 20.3164V35.2188C702.336 36.4886 702.382 37.9849 702.47 39.7075C702.523 40.7828 702.608 41.4407 702.724 41.6883C702.808 41.8634 702.952 42.0019 703.13 42.0774C703.557 42.2578 704.443 42.3569 705.784 42.371V43.5949C703.406 43.4074 700.505 43.4216 697.141 43.5949ZM745.563 42.6434C745.771 41.3983 745.895 39.3856 745.93 36.6018H747.25C747.314 38.4907 747.419 39.612 747.571 39.9516C747.719 40.2947 748.079 40.6625 748.648 41.0516C749.216 41.4407 749.978 41.7874 750.935 42.0916C751.891 42.3958 752.816 42.5479 753.709 42.5479C755.014 42.5479 756.214 42.2472 757.312 41.6459C758.41 41.0446 759.211 40.2522 759.715 39.2759C760.218 38.3071 760.477 37.2302 760.471 36.1384C760.471 34.43 759.973 33.1813 758.939 32.4173C758.366 32.0109 757.71 31.7356 757.019 31.6108C756.065 31.4666 755.108 31.3369 754.15 31.2217C752.921 31.0745 751.698 30.8739 750.486 30.6204C749.142 30.2065 748.154 29.7219 747.522 29.163C746.851 28.5547 746.324 27.8043 745.979 26.9664C745.583 26.039 745.383 25.0394 745.39 24.0305C745.39 22.5024 745.789 21.0628 746.583 19.708C747.377 18.3533 748.556 17.3027 750.112 16.5493C751.695 15.7906 753.43 15.4046 755.184 15.4209C756.285 15.4209 757.481 15.5695 758.784 15.8595C760.083 16.1531 761.293 16.5741 762.419 17.1329C762.239 17.95 762.108 18.7105 762.031 19.418C761.953 20.1254 761.893 21.1654 761.854 22.5343H760.534C760.495 20.5428 760.435 19.4534 760.358 19.2694C759.999 18.7706 759.552 18.3424 759.038 18.0066C757.77 17.2737 756.333 16.886 754.87 16.8818C752.996 16.8818 751.499 17.4548 750.384 18.6009C749.269 19.7469 748.708 21.2361 748.708 23.0613C748.708 24.1649 748.909 25.0139 749.308 25.6187C749.706 26.2201 750.423 26.7047 751.457 27.0655C752.17 27.3095 753.331 27.543 754.947 27.7552C756.564 27.971 758.014 28.1974 759.31 28.445C760.524 28.8093 761.424 29.2408 762.002 29.7361C762.585 30.2383 763.065 30.8892 763.439 31.6992C763.813 32.5092 764 33.4572 764 34.5467C764 37.1253 762.934 39.3714 760.803 41.2886C758.671 43.2058 755.911 44.1608 752.523 44.1608C749.964 44.1608 747.645 43.655 745.563 42.6434ZM733.179 24.6566C733.179 24.6566 736.119 18.9086 735.9 16.5493C735.9 16.5493 739.062 15.4457 740.019 15C740.019 15 738.843 21.8551 733.99 26.0538L733.179 24.6566Z" fill="white"/>
<path d="M1285.38 40.7464H1281.91C1281.6 40.7464 1281.49 40.44 1281.35 40.1425L1277.26 32.8011H1276.63C1275.89 32.8011 1273.6 32.7151 1272.95 32.6765V40.1425C1272.95 40.4731 1272.72 40.7464 1272.4 40.7464H1269.57C1269.42 40.7455 1269.27 40.6815 1269.17 40.5685C1269.06 40.4554 1269 40.3024 1269 40.1425V20.3011C1269 19.6935 1269.34 19.4821 1269.91 19.3925C1271.39 19.1496 1274.56 19 1276.63 19C1281 19 1285.04 20.6658 1285.04 25.8423V26.1156C1285.04 29.3217 1283.53 31.0762 1281.21 32.0394L1285.66 40.1425C1285.72 40.2339 1285.72 40.319 1285.72 40.3871C1285.72 40.5923 1285.6 40.7464 1285.38 40.7464ZM1281.12 25.8423C1281.12 23.5717 1279.47 22.6039 1276.63 22.6039C1276.03 22.6039 1273.45 22.664 1272.95 22.7231V29.2894C1273.39 29.319 1276.14 29.3808 1276.63 29.3808C1279.55 29.3808 1281.12 28.7787 1281.12 26.1156V25.8423ZM1293.28 34.7823C1293.28 37.3217 1293.37 37.388 1295.52 37.388H1302.7C1302.85 37.3885 1303 37.4524 1303.1 37.5658C1303.21 37.6793 1303.27 37.8331 1303.27 37.9937V39.9274C1303.27 40.3548 1303.13 40.5063 1302.7 40.5645C1301.8 40.7168 1299.95 40.9866 1296.57 40.9866C1291.86 40.9866 1289.36 41.0215 1289.36 34.7823V25.2034C1289.36 18.966 1291.86 19.0009 1296.57 19.0009C1299.95 19.0009 1301.8 19.2742 1302.7 19.4238C1303.13 19.4821 1303.27 19.6362 1303.27 20.0609V21.9955C1303.27 22.3262 1303.02 22.6048 1302.7 22.6048H1295.52C1293.37 22.6048 1293.28 22.672 1293.28 25.2034V27.9812H1302.36C1302.51 27.9819 1302.66 28.0454 1302.76 28.158C1302.87 28.2707 1302.93 28.4234 1302.93 28.5833V30.7688C1302.93 30.9291 1302.87 31.0824 1302.76 31.1956C1302.66 31.3088 1302.51 31.3727 1302.36 31.3737H1293.28V34.7823ZM1316.01 40.9866C1311.45 40.9866 1307.51 38.8692 1307.51 32.4167V19.8181C1307.51 19.4821 1307.77 19.241 1308.09 19.241H1310.89C1311.2 19.241 1311.46 19.4821 1311.46 19.8181V32.4167C1311.46 35.8701 1312.95 37.5081 1316.01 37.5081C1319.08 37.5081 1320.57 35.8701 1320.57 32.4167V19.8181C1320.57 19.4821 1320.83 19.241 1321.14 19.241H1323.95C1324.26 19.241 1324.52 19.4821 1324.52 19.8181V32.4167C1324.52 38.8683 1320.58 40.9866 1316.01 40.9866ZM1343.17 22.7509H1337.51V40.1425C1337.51 40.3034 1337.45 40.4569 1337.34 40.5698C1337.23 40.6828 1337.09 40.7462 1336.94 40.7464H1334.13C1333.98 40.7457 1333.84 40.6819 1333.73 40.5689C1333.62 40.4559 1333.56 40.3027 1333.56 40.1425V22.7509H1327.9C1327.59 22.7509 1327.33 22.543 1327.33 22.2097V19.8181C1327.33 19.4821 1327.59 19.241 1327.9 19.241H1343.17C1343.48 19.241 1343.74 19.4821 1343.74 19.8181V22.2097C1343.74 22.543 1343.48 22.7509 1343.17 22.7509ZM1381.71 40.7464H1378.24C1377.93 40.7464 1377.82 40.44 1377.68 40.1425L1373.59 32.8011H1372.96C1372.22 32.8011 1369.93 32.7151 1369.27 32.6765V40.1425C1369.27 40.4731 1369.04 40.7464 1368.73 40.7464H1365.9C1365.75 40.7462 1365.61 40.6826 1365.5 40.5695C1365.39 40.4564 1365.33 40.3029 1365.33 40.1425V20.3011C1365.33 19.6935 1365.67 19.4821 1366.24 19.3925C1367.71 19.1496 1370.89 19 1372.95 19C1377.33 19 1381.36 20.6658 1381.36 25.8423V26.1156C1381.36 29.3217 1379.86 31.0762 1377.53 32.0394L1381.99 40.1425C1382.03 40.2154 1382.05 40.3011 1382.05 40.3871C1382.05 40.5923 1381.93 40.7464 1381.71 40.7464ZM1377.45 25.8423C1377.45 23.5717 1375.8 22.6039 1372.96 22.6039C1372.36 22.6039 1369.78 22.664 1369.27 22.7231V29.2894C1369.73 29.319 1372.48 29.3808 1372.96 29.3808C1375.88 29.3808 1377.45 28.7787 1377.45 26.1156V25.8423ZM1392.54 41C1390.03 41 1387.49 40.5412 1386.12 40.207C1385.84 40.1461 1385.58 39.9355 1385.58 39.603V37.422C1385.58 37.0914 1385.84 36.8459 1386.12 36.8459H1386.18C1387.31 36.9982 1389.97 37.3916 1392.59 37.3916C1395.12 37.3916 1395.89 36.4274 1395.89 34.6738C1395.89 32.4023 1390.81 31.1452 1388.33 30.0556C1385.86 28.966 1384.99 26.8799 1384.99 24.7634C1384.99 21.431 1387.5 19.009 1392.78 19.009C1395.48 19.009 1397.96 19.5573 1398.92 19.8047C1399.21 19.8656 1399.43 20.078 1399.43 20.379V22.6192C1399.43 22.9185 1399.24 23.1631 1398.95 23.1631H1398.89C1397.02 22.983 1395.08 22.6147 1392.61 22.6147C1390.51 22.6147 1388.93 23.4014 1388.93 24.7634C1388.93 25.7599 1390 26.6747 1391.26 27.2088C1392.52 27.7383 1394.17 28.4238 1396.06 29.2339C1398.45 30.2652 1400 31.7679 1400 34.6738C1400 37.7294 1398.21 41 1392.54 41ZM1350.57 34.7823C1350.57 37.3217 1350.66 37.388 1352.81 37.388H1360C1360.15 37.3903 1360.29 37.4551 1360.4 37.5683C1360.5 37.6816 1360.56 37.8343 1360.56 37.9937V39.9274C1360.56 40.3548 1360.42 40.5063 1360 40.5645C1359.09 40.7168 1357.24 40.9866 1353.87 40.9866C1349.15 40.9866 1346.65 41.0215 1346.65 34.7823V25.2034C1346.65 18.966 1349.15 19.0009 1353.87 19.0009C1357.24 19.0009 1359.09 19.2742 1360 19.4238C1360.42 19.4821 1360.56 19.6362 1360.56 20.0609V21.9955C1360.56 22.3262 1360.3 22.6048 1360 22.6048H1352.81C1350.66 22.6048 1350.57 22.672 1350.57 25.2034V27.9812H1359.65C1359.97 27.9812 1360.22 28.2563 1360.22 28.5833V30.7688C1360.22 30.9286 1360.16 31.082 1360.05 31.1954C1359.95 31.3088 1359.8 31.3729 1359.65 31.3737H1350.57V34.7823Z" fill="white"/>
<path d="M1219.04 20.5632C1219.38 21.2136 1219.15 22.0295 1218.52 22.382C1218.21 22.5511 1217.85 22.5882 1217.52 22.4852C1217.19 22.3822 1216.91 22.1475 1216.75 21.8327C1216.4 21.1832 1216.64 20.3655 1217.27 20.0148C1217.42 19.9302 1217.59 19.8772 1217.76 19.859C1217.93 19.8408 1218.1 19.8577 1218.27 19.9086C1218.43 19.9596 1218.59 20.0437 1218.72 20.156C1218.85 20.2684 1218.96 20.4067 1219.04 20.5632ZM1212.59 31.086C1212.42 31.188 1212.28 31.358 1212.23 31.5593C1212.17 31.7607 1212.19 31.9772 1212.29 32.1623C1212.33 32.2539 1212.4 32.3349 1212.48 32.4003C1212.56 32.4658 1212.65 32.5145 1212.74 32.5435C1212.84 32.5725 1212.94 32.5813 1213.04 32.5693C1213.14 32.5573 1213.24 32.5248 1213.33 32.4736C1213.42 32.426 1213.49 32.3602 1213.56 32.2802C1213.62 32.2002 1213.67 32.1075 1213.7 32.0079C1213.73 31.9082 1213.74 31.8035 1213.73 31.7C1213.72 31.5965 1213.69 31.4963 1213.64 31.4054C1213.54 31.2212 1213.38 31.0844 1213.18 31.0245C1212.98 30.9647 1212.77 30.9868 1212.59 31.086ZM1212.46 27.851C1212.26 27.9677 1212.1 28.1637 1212.04 28.3964C1211.97 28.629 1211.99 28.8796 1212.11 29.0937C1212.35 29.5481 1212.89 29.7119 1213.32 29.4721C1213.75 29.2287 1213.92 28.6606 1213.69 28.2196C1213.63 28.1122 1213.55 28.0173 1213.46 27.9405C1213.37 27.8637 1213.26 27.8065 1213.15 27.7722C1213.04 27.7379 1212.92 27.7272 1212.8 27.7407C1212.68 27.7543 1212.57 27.7917 1212.46 27.851ZM1213.28 24.7376C1213.04 24.8712 1212.86 25.0959 1212.78 25.3632C1212.71 25.6304 1212.73 25.9189 1212.86 26.1664C1213.13 26.6754 1213.75 26.8722 1214.25 26.594C1214.37 26.5285 1214.47 26.4396 1214.56 26.3321C1214.64 26.2247 1214.71 26.101 1214.74 25.968C1214.78 25.835 1214.8 25.6954 1214.78 25.5572C1214.77 25.419 1214.73 25.2849 1214.67 25.1626C1214.53 24.9182 1214.32 24.7367 1214.06 24.6572C1213.8 24.5777 1213.52 24.6066 1213.28 24.7376ZM1214.94 22.0447C1214.81 22.1182 1214.69 22.2185 1214.59 22.3399C1214.49 22.4612 1214.42 22.601 1214.38 22.7514C1214.33 22.9017 1214.32 23.0595 1214.34 23.2155C1214.35 23.3716 1214.4 23.5228 1214.47 23.6605C1214.77 24.2321 1215.46 24.4495 1216.02 24.1373C1216.16 24.0648 1216.28 23.9655 1216.37 23.8453C1216.47 23.7251 1216.54 23.5864 1216.59 23.4371C1216.63 23.2878 1216.64 23.1309 1216.63 22.9756C1216.61 22.8203 1216.57 22.6696 1216.5 22.5323C1216.43 22.3945 1216.33 22.2725 1216.21 22.1733C1216.1 22.0741 1215.96 21.9997 1215.82 21.9544C1215.67 21.9091 1215.52 21.8937 1215.37 21.9092C1215.22 21.9247 1215.07 21.9708 1214.94 22.0447ZM1213.67 34.1493C1213.59 34.1907 1213.53 34.2468 1213.47 34.3145C1213.42 34.3821 1213.38 34.46 1213.36 34.5437C1213.33 34.6273 1213.32 34.7151 1213.33 34.8018C1213.34 34.8886 1213.37 34.9727 1213.41 35.0493C1213.49 35.2025 1213.63 35.3162 1213.79 35.3664C1213.95 35.4165 1214.13 35.3991 1214.28 35.3177C1214.43 35.2316 1214.54 35.0889 1214.59 34.9203C1214.63 34.7517 1214.62 34.5706 1214.53 34.4159C1214.45 34.2633 1214.32 34.1498 1214.15 34.1C1213.99 34.0501 1213.82 34.0678 1213.67 34.1493ZM1228.51 23.1326C1228.61 23.3168 1228.77 23.4539 1228.97 23.5149C1229.16 23.5759 1229.37 23.5559 1229.56 23.4592C1229.73 23.3569 1229.87 23.1865 1229.93 22.9844C1229.98 22.7823 1229.96 22.5648 1229.87 22.3784C1229.82 22.2867 1229.75 22.2057 1229.68 22.1399C1229.6 22.0742 1229.51 22.025 1229.41 21.9954C1229.31 21.9657 1229.21 21.956 1229.11 21.9669C1229.01 21.9779 1228.92 22.0092 1228.83 22.059C1228.74 22.1079 1228.66 22.1744 1228.59 22.2548C1228.53 22.3352 1228.48 22.4279 1228.45 22.5276C1228.42 22.6273 1228.41 22.732 1228.42 22.8359C1228.43 22.9397 1228.46 23.0405 1228.51 23.1326ZM1225.9 21.4229C1226.14 21.8721 1226.69 22.0358 1227.11 21.7915C1227.56 21.5482 1227.72 20.9899 1227.48 20.5426C1227.37 20.3279 1227.18 20.1676 1226.95 20.0965C1226.72 20.0255 1226.48 20.0495 1226.27 20.1633C1226.06 20.2813 1225.9 20.4795 1225.84 20.7151C1225.77 20.9507 1225.79 21.205 1225.9 21.4229ZM1222.89 20.5909C1222.95 20.7125 1223.04 20.82 1223.14 20.9072C1223.24 20.9944 1223.36 21.0596 1223.49 21.099C1223.62 21.1384 1223.75 21.1511 1223.89 21.1365C1224.02 21.122 1224.15 21.0803 1224.27 21.0141C1224.38 20.949 1224.49 20.8604 1224.57 20.7533C1224.66 20.6462 1224.72 20.5227 1224.76 20.3899C1224.8 20.2571 1224.82 20.1177 1224.8 19.9796C1224.79 19.8416 1224.75 19.7076 1224.69 19.5853C1224.62 19.4632 1224.54 19.3553 1224.43 19.2678C1224.33 19.1803 1224.21 19.1151 1224.08 19.0759C1223.95 19.0367 1223.82 19.0243 1223.68 19.0394C1223.55 19.0545 1223.42 19.0968 1223.3 19.164C1223.18 19.2295 1223.08 19.3185 1222.99 19.4257C1222.91 19.533 1222.85 19.6565 1222.81 19.789C1222.77 19.9216 1222.76 20.0607 1222.77 20.1983C1222.78 20.3359 1222.82 20.4693 1222.89 20.5909ZM1219.74 20.7189C1219.81 20.8568 1219.91 20.9789 1220.03 21.0781C1220.15 21.1773 1220.28 21.2517 1220.43 21.2971C1220.57 21.3424 1220.72 21.3579 1220.88 21.3425C1221.03 21.3271 1221.17 21.2811 1221.31 21.2073C1221.57 21.055 1221.77 20.8001 1221.86 20.4979C1221.95 20.1957 1221.91 19.8704 1221.77 19.5925C1221.62 19.3254 1221.38 19.1289 1221.09 19.0449C1220.8 18.9608 1220.49 18.9957 1220.23 19.1422C1219.96 19.2887 1219.76 19.5353 1219.67 19.8296C1219.58 20.1239 1219.61 20.4429 1219.74 20.7189ZM1230.47 25.5544C1230.63 25.8756 1231.02 25.9919 1231.32 25.8201C1231.4 25.7804 1231.46 25.7257 1231.52 25.6593C1231.57 25.5929 1231.61 25.5161 1231.64 25.4335C1231.66 25.3509 1231.67 25.2641 1231.66 25.1783C1231.65 25.0924 1231.63 25.0092 1231.58 24.9335C1231.5 24.7784 1231.37 24.6619 1231.21 24.6093C1231.04 24.5568 1230.87 24.5723 1230.71 24.6526C1230.42 24.8307 1230.29 25.2404 1230.47 25.5544ZM1228.25 38.1403C1228.17 37.9831 1228.06 37.8439 1227.93 37.731C1227.79 37.6181 1227.64 37.5337 1227.48 37.4828C1227.31 37.4318 1227.14 37.4153 1226.97 37.4342C1226.79 37.4531 1226.63 37.507 1226.48 37.5928C1226.32 37.676 1226.19 37.7893 1226.08 37.9261C1225.97 38.0629 1225.89 38.2206 1225.85 38.3899C1225.8 38.5592 1225.78 38.7367 1225.8 38.9123C1225.82 39.0879 1225.87 39.2579 1225.95 39.4125C1226.3 40.0638 1227.09 40.3018 1227.73 39.9583C1228.36 39.5986 1228.59 38.7782 1228.25 38.1403ZM1216.48 36.8359C1216.39 36.6534 1216.22 36.5177 1216.03 36.4582C1215.83 36.3986 1215.63 36.4199 1215.45 36.5174C1215.36 36.5663 1215.28 36.6328 1215.22 36.713C1215.15 36.7932 1215.1 36.8856 1215.08 36.9849C1215.05 37.0841 1215.04 37.1883 1215.05 37.2914C1215.06 37.3945 1215.09 37.4945 1215.14 37.5856C1215.18 37.6778 1215.25 37.7593 1215.32 37.8254C1215.4 37.8915 1215.49 37.9407 1215.59 37.9703C1215.69 37.9998 1215.79 38.009 1215.89 37.9973C1215.99 37.9857 1216.08 37.9534 1216.17 37.9024C1216.26 37.8535 1216.34 37.7872 1216.4 37.7071C1216.47 37.6271 1216.51 37.5349 1216.54 37.4358C1216.57 37.3367 1216.58 37.2327 1216.57 37.1298C1216.56 37.0269 1216.53 36.927 1216.48 36.8359ZM1219.09 38.5465C1218.98 38.3324 1218.79 38.1733 1218.56 38.1041C1218.34 38.0348 1218.09 38.0611 1217.88 38.177C1217.78 38.2334 1217.69 38.3108 1217.61 38.4045C1217.54 38.4983 1217.48 38.6065 1217.45 38.7229C1217.41 38.8393 1217.4 38.9614 1217.42 39.0821C1217.43 39.2029 1217.46 39.3198 1217.52 39.4259C1217.75 39.8759 1218.3 40.0477 1218.73 39.8062C1218.94 39.6872 1219.09 39.4887 1219.16 39.2532C1219.23 39.0177 1219.21 38.764 1219.09 38.5465ZM1222.11 39.3785C1221.85 38.8677 1221.22 38.6861 1220.72 38.9509C1220.48 39.0855 1220.31 39.3111 1220.23 39.5788C1220.15 39.8465 1220.18 40.1348 1220.31 40.3814C1220.58 40.8976 1221.2 41.0882 1221.7 40.8126C1221.82 40.7477 1221.92 40.6588 1222.01 40.5511C1222.09 40.4435 1222.16 40.3193 1222.2 40.1858C1222.24 40.0523 1222.25 39.9122 1222.23 39.7736C1222.22 39.635 1222.18 39.5007 1222.11 39.3785ZM1225.25 39.2488C1225.11 38.9719 1224.86 38.7659 1224.57 38.6757C1224.28 38.5856 1223.96 38.6185 1223.69 38.7675C1223.13 39.0743 1222.93 39.7927 1223.24 40.3769C1223.31 40.5146 1223.4 40.6363 1223.52 40.7351C1223.64 40.8338 1223.77 40.9075 1223.92 40.9518C1224.06 40.9961 1224.21 41.01 1224.36 40.9929C1224.51 40.9758 1224.66 40.9279 1224.79 40.852C1225.35 40.5478 1225.55 39.8223 1225.25 39.2488ZM1232.39 28.8941C1232.77 28.6705 1232.91 28.1874 1232.72 27.8089C1232.67 27.7177 1232.6 27.6371 1232.52 27.5717C1232.45 27.5063 1232.36 27.4575 1232.26 27.4279C1232.16 27.3983 1232.06 27.3886 1231.96 27.3993C1231.86 27.4101 1231.76 27.441 1231.68 27.4904C1231.59 27.5388 1231.51 27.6053 1231.44 27.6859C1231.38 27.7665 1231.33 27.8597 1231.3 27.9599C1231.27 28.0601 1231.26 28.1653 1231.27 28.2694C1231.28 28.3734 1231.31 28.4742 1231.36 28.5658C1231.46 28.7484 1231.62 28.8851 1231.81 28.9465C1232 29.0079 1232.21 28.9891 1232.39 28.8941ZM1232.53 32.1238C1232.97 31.8796 1233.13 31.3186 1232.89 30.8731C1232.83 30.7666 1232.76 30.6723 1232.67 30.5958C1232.58 30.5193 1232.47 30.462 1232.36 30.4272C1232.25 30.3925 1232.13 30.381 1232.01 30.3933C1231.9 30.4056 1231.78 30.4416 1231.68 30.4991C1231.47 30.6176 1231.32 30.8156 1231.25 31.0507C1231.18 31.2858 1231.2 31.5394 1231.31 31.757C1231.54 32.1981 1232.1 32.3609 1232.53 32.1238ZM1231.71 35.2345C1232.22 34.9527 1232.4 34.3193 1232.14 33.8013C1232.01 33.5551 1231.79 33.3719 1231.53 33.2916C1231.27 33.2113 1230.99 33.2404 1230.75 33.3728C1230.51 33.5072 1230.33 33.7335 1230.25 34.0025C1230.18 34.2715 1230.2 34.5615 1230.33 34.8096C1230.46 35.0533 1230.68 35.2346 1230.94 35.3141C1231.2 35.3936 1231.48 35.365 1231.71 35.2345ZM1230.06 37.9158C1230.62 37.617 1230.83 36.8842 1230.53 36.3126C1230.22 35.7382 1229.52 35.5154 1228.97 35.8321C1228.84 35.9062 1228.72 36.0066 1228.62 36.1275C1228.53 36.2485 1228.46 36.3876 1228.41 36.537C1228.37 36.6864 1228.35 36.8431 1228.37 36.9982C1228.39 37.1533 1228.43 37.3036 1228.5 37.4407C1228.57 37.5785 1228.67 37.7004 1228.79 37.7991C1228.91 37.8978 1229.04 37.9714 1229.19 38.0156C1229.33 38.0598 1229.48 38.0738 1229.64 38.0566C1229.79 38.0395 1229.93 37.9916 1230.06 37.9158Z" fill="white"/>
<path d="M1227.31 18.3561C1227.25 18.5563 1227.15 18.7428 1227.01 18.9051C1226.87 19.0673 1226.7 19.202 1226.51 19.3014C1226.32 19.4009 1226.11 19.4631 1225.89 19.4845C1225.67 19.5059 1225.46 19.4862 1225.25 19.4263C1225.04 19.3682 1224.84 19.2707 1224.67 19.1395C1224.5 19.0083 1224.36 18.846 1224.25 18.662C1224.15 18.478 1224.08 18.2759 1224.06 18.0674C1224.04 17.8589 1224.06 17.6481 1224.12 17.4473C1224.24 17.042 1224.53 16.7013 1224.92 16.5C1225.11 16.4003 1225.32 16.3378 1225.54 16.3161C1225.76 16.2945 1225.98 16.3141 1226.19 16.3737C1226.4 16.4334 1226.59 16.532 1226.76 16.6639C1226.93 16.7958 1227.07 16.9585 1227.18 17.1426C1227.28 17.3266 1227.35 17.5285 1227.37 17.7368C1227.39 17.945 1227.37 18.1554 1227.31 18.3561ZM1211.35 22.1189C1211.14 22.0629 1210.92 22.0878 1210.73 22.1882C1210.53 22.2886 1210.39 22.4565 1210.33 22.6561C1210.28 22.8536 1210.31 23.063 1210.41 23.24C1210.52 23.4171 1210.69 23.5481 1210.89 23.6053C1211.1 23.6625 1211.32 23.6416 1211.51 23.5469C1211.7 23.4522 1211.84 23.2912 1211.91 23.0977C1212.04 22.6833 1211.78 22.2474 1211.35 22.1189ZM1214.24 19.0786C1214.11 19.0426 1213.98 19.0311 1213.84 19.0448C1213.71 19.0585 1213.58 19.0971 1213.47 19.1584C1213.35 19.2197 1213.25 19.3026 1213.16 19.4022C1213.08 19.5017 1213.02 19.6161 1212.98 19.7386C1212.94 19.861 1212.93 19.9893 1212.95 20.1163C1212.96 20.2433 1213 20.3664 1213.06 20.4785C1213.13 20.5906 1213.21 20.6896 1213.32 20.7696C1213.42 20.8496 1213.54 20.9092 1213.67 20.9448C1213.93 21.0164 1214.21 20.9873 1214.44 20.8638C1214.68 20.7404 1214.85 20.5325 1214.93 20.2857C1215 20.0379 1214.97 19.7721 1214.84 19.5461C1214.71 19.32 1214.5 19.152 1214.24 19.0786ZM1217.94 16.9356C1217.61 16.8449 1217.26 16.8816 1216.96 17.0378C1216.66 17.194 1216.43 17.4572 1216.33 17.7703C1216.24 18.0849 1216.28 18.4226 1216.44 18.7096C1216.61 18.9966 1216.89 19.2095 1217.21 19.3019C1217.38 19.3483 1217.55 19.3635 1217.71 19.3466C1217.88 19.3297 1218.05 19.2809 1218.19 19.2033C1218.34 19.1256 1218.47 19.0205 1218.58 18.894C1218.69 18.7676 1218.77 18.6222 1218.81 18.4665C1218.91 18.1526 1218.87 17.8165 1218.7 17.5303C1218.54 17.244 1218.26 17.0305 1217.94 16.9356ZM1222.04 16.0582C1221.85 16.0058 1221.66 15.9885 1221.47 16.0074C1221.28 16.0263 1221.1 16.081 1220.93 16.1683C1220.76 16.2557 1220.62 16.3739 1220.5 16.5162C1220.38 16.6585 1220.29 16.822 1220.23 16.9974C1220.18 17.1722 1220.16 17.3556 1220.18 17.5369C1220.2 17.7183 1220.26 17.8941 1220.35 18.0543C1220.44 18.2145 1220.56 18.3558 1220.71 18.4703C1220.86 18.5847 1221.03 18.6699 1221.21 18.7211C1221.58 18.8241 1221.98 18.7834 1222.32 18.6077C1222.65 18.432 1222.9 18.1357 1223.01 17.7834C1223.07 17.6088 1223.09 17.4254 1223.07 17.2439C1223.05 17.0624 1222.99 16.8864 1222.9 16.726C1222.81 16.5656 1222.69 16.424 1222.54 16.3093C1222.39 16.1947 1222.22 16.1094 1222.04 16.0582ZM1209.53 25.8825C1209.45 25.8607 1209.37 25.8536 1209.29 25.8617C1209.21 25.8698 1209.13 25.8928 1209.06 25.9296C1208.99 25.9664 1208.93 26.0161 1208.88 26.0758C1208.83 26.1356 1208.79 26.2043 1208.77 26.278C1208.75 26.3522 1208.74 26.43 1208.75 26.5071C1208.75 26.5843 1208.78 26.6591 1208.82 26.7275C1208.85 26.7958 1208.91 26.8562 1208.97 26.9054C1209.03 26.9545 1209.1 26.9913 1209.18 27.0137C1209.51 27.1044 1209.85 26.9231 1209.94 26.6117C1209.97 26.5375 1209.97 26.4598 1209.97 26.3829C1209.96 26.306 1209.93 26.2316 1209.89 26.1638C1209.85 26.0961 1209.8 26.0363 1209.74 25.9881C1209.68 25.9398 1209.6 25.9039 1209.53 25.8825ZM1234.39 29.4204C1234.36 29.5196 1234.35 29.6237 1234.36 29.7267C1234.37 29.8296 1234.4 29.9294 1234.45 30.0202C1234.51 30.111 1234.58 30.191 1234.66 30.2557C1234.75 30.3203 1234.84 30.3682 1234.95 30.3967C1235.16 30.4556 1235.38 30.4326 1235.57 30.3327C1235.76 30.2328 1235.91 30.0642 1235.97 29.8641C1236.03 29.6639 1236 29.4486 1235.9 29.2654C1235.8 29.0822 1235.62 28.9462 1235.41 28.8873C1235.2 28.8288 1234.98 28.852 1234.78 28.9519C1234.59 29.0518 1234.45 29.2202 1234.39 29.4204ZM1233.44 25.4862C1233.4 25.6089 1233.39 25.7378 1233.4 25.8652C1233.41 25.9927 1233.45 26.1163 1233.52 26.2288C1233.58 26.3414 1233.67 26.4407 1233.77 26.5209C1233.88 26.6012 1234 26.6609 1234.13 26.6965C1234.67 26.8498 1235.23 26.5532 1235.39 26.0374C1235.54 25.5216 1235.24 24.9836 1234.7 24.8353C1234.57 24.7985 1234.44 24.7862 1234.31 24.799C1234.17 24.8119 1234.05 24.8496 1233.93 24.91C1233.81 24.9705 1233.71 25.0525 1233.62 25.1513C1233.54 25.2502 1233.48 25.364 1233.44 25.4862ZM1231.2 21.9475C1231.15 22.1029 1231.14 22.2658 1231.16 22.4268C1231.17 22.5879 1231.22 22.7439 1231.31 22.886C1231.39 23.0281 1231.5 23.1535 1231.63 23.2551C1231.76 23.3566 1231.91 23.4324 1232.07 23.4779C1232.24 23.5235 1232.41 23.538 1232.57 23.5206C1232.74 23.5032 1232.91 23.4542 1233.05 23.3765C1233.2 23.2988 1233.33 23.1939 1233.44 23.0678C1233.55 22.9416 1233.62 22.7967 1233.67 22.6412C1233.72 22.4861 1233.74 22.3233 1233.72 22.1624C1233.7 22.0015 1233.65 21.8455 1233.57 21.7037C1233.49 21.5618 1233.38 21.4367 1233.24 21.3357C1233.11 21.2347 1232.96 21.1598 1232.8 21.1153C1232.47 21.0249 1232.12 21.0615 1231.82 21.2173C1231.52 21.3731 1231.3 21.6354 1231.2 21.9475ZM1228.05 19.1989C1227.94 19.5523 1227.99 19.9321 1228.17 20.2548C1228.36 20.5775 1228.67 20.8166 1229.04 20.9197C1229.41 21.0227 1229.8 20.9811 1230.14 20.8041C1230.48 20.6272 1230.73 20.3292 1230.83 19.9759C1230.89 19.8013 1230.91 19.6182 1230.89 19.437C1230.87 19.2558 1230.81 19.0802 1230.72 18.9202C1230.63 18.7601 1230.5 18.6189 1230.36 18.5046C1230.21 18.3902 1230.04 18.305 1229.86 18.2539C1229.49 18.1503 1229.09 18.1916 1228.75 18.3688C1228.41 18.546 1228.16 18.8446 1228.05 19.1989ZM1234.05 33.3916C1234.01 33.5407 1234.03 33.7004 1234.11 33.8366C1234.18 33.9729 1234.31 34.0749 1234.47 34.1208C1234.54 34.1431 1234.63 34.1504 1234.71 34.1423C1234.79 34.1342 1234.86 34.1109 1234.94 34.0737C1235.01 34.0365 1235.07 33.9862 1235.12 33.9257C1235.17 33.8652 1235.21 33.7957 1235.23 33.7212C1235.25 33.6473 1235.26 33.5696 1235.25 33.4928C1235.24 33.4159 1235.22 33.3414 1235.18 33.2735C1235.14 33.2056 1235.09 33.1457 1235.03 33.0973C1234.96 33.0488 1234.89 33.0128 1234.81 32.9912C1234.66 32.9493 1234.49 32.9677 1234.35 33.0426C1234.21 33.1175 1234.1 33.2429 1234.05 33.3916ZM1219.88 42.5569C1219.95 42.3554 1219.97 42.1441 1219.94 41.9352C1219.92 41.7262 1219.86 41.5237 1219.75 41.3392C1219.65 41.1547 1219.5 40.9919 1219.33 40.8601C1219.16 40.7283 1218.96 40.6301 1218.75 40.5712C1218.54 40.5121 1218.32 40.4932 1218.11 40.5156C1217.89 40.5379 1217.68 40.6011 1217.49 40.7015C1217.29 40.8019 1217.13 40.9376 1216.99 41.1007C1216.85 41.2638 1216.75 41.4512 1216.69 41.6522C1216.63 41.8536 1216.61 42.0647 1216.63 42.2735C1216.65 42.4823 1216.72 42.6847 1216.82 42.869C1216.93 43.0533 1217.07 43.216 1217.24 43.3477C1217.41 43.4793 1217.61 43.5774 1217.82 43.6362C1218.7 43.8809 1219.63 43.3948 1219.88 42.5569ZM1209.61 30.5788C1209.67 30.3788 1209.65 30.1633 1209.55 29.9799C1209.44 29.7965 1209.27 29.6602 1209.06 29.6008C1208.85 29.5439 1208.62 29.5681 1208.43 29.6682C1208.24 29.7684 1208.1 29.9365 1208.03 30.1364C1208 30.2354 1207.99 30.3391 1208 30.4416C1208.02 30.5441 1208.05 30.6433 1208.1 30.7337C1208.15 30.824 1208.22 30.9036 1208.31 30.9679C1208.39 31.0323 1208.49 31.0801 1208.59 31.1086C1208.7 31.1384 1208.8 31.1483 1208.91 31.1378C1209.02 31.1272 1209.12 31.0964 1209.22 31.0472C1209.31 30.9979 1209.4 30.9311 1209.46 30.8507C1209.53 30.7704 1209.58 30.6779 1209.61 30.5788ZM1210.56 34.5105C1210.6 34.3889 1210.61 34.2613 1210.6 34.1351C1210.59 34.0089 1210.55 33.8867 1210.48 33.7754C1210.42 33.6641 1210.33 33.5661 1210.23 33.4869C1210.12 33.4077 1210.01 33.349 1209.88 33.3142C1209.75 33.276 1209.62 33.2627 1209.48 33.2751C1209.35 33.2874 1209.22 33.3252 1209.1 33.3861C1208.99 33.447 1208.88 33.5299 1208.8 33.6298C1208.72 33.7296 1208.65 33.8445 1208.62 33.9676C1208.54 34.2144 1208.57 34.4797 1208.7 34.7051C1208.83 34.9306 1209.05 35.0977 1209.31 35.1697C1209.57 35.2417 1209.84 35.2127 1210.08 35.089C1210.31 34.9654 1210.49 34.7573 1210.56 34.5105ZM1212.8 38.0542C1212.9 37.7384 1212.86 37.3999 1212.69 37.1118C1212.53 36.8237 1212.25 36.6093 1211.92 36.5151C1211.6 36.4246 1211.24 36.4623 1210.94 36.6199C1210.65 36.7776 1210.42 37.0424 1210.33 37.3563C1210.28 37.5116 1210.26 37.6745 1210.28 37.8357C1210.3 37.9968 1210.35 38.153 1210.43 38.2953C1210.51 38.4376 1210.62 38.5631 1210.75 38.6647C1210.88 38.7662 1211.04 38.8419 1211.2 38.8871C1211.36 38.9337 1211.53 38.9491 1211.7 38.9324C1211.87 38.9156 1212.03 38.8672 1212.18 38.7898C1212.33 38.7124 1212.46 38.6076 1212.57 38.4814C1212.68 38.3551 1212.76 38.2099 1212.8 38.0542ZM1215.95 40.8069C1216.06 40.4528 1216.02 40.0726 1215.83 39.7495C1215.65 39.4265 1215.33 39.1869 1214.96 39.0832C1214.78 39.0317 1214.59 39.0152 1214.4 39.0349C1214.21 39.0546 1214.03 39.1101 1213.86 39.198C1213.69 39.286 1213.55 39.4047 1213.43 39.5474C1213.31 39.69 1213.22 39.8537 1213.17 40.0291C1213.12 40.2035 1213.1 40.3863 1213.12 40.5671C1213.14 40.7479 1213.2 40.9231 1213.29 41.0827C1213.38 41.2423 1213.5 41.3831 1213.65 41.4971C1213.8 41.611 1213.97 41.696 1214.15 41.7469C1214.52 41.8495 1214.92 41.8083 1215.25 41.6322C1215.59 41.4561 1215.84 41.1595 1215.95 40.8069ZM1232.64 37.8779C1232.85 37.9375 1233.08 37.9149 1233.27 37.8151C1233.47 37.7153 1233.61 37.5464 1233.67 37.3456C1233.73 37.145 1233.71 36.9299 1233.6 36.7466C1233.5 36.5634 1233.32 36.4267 1233.11 36.366C1232.91 36.3086 1232.68 36.3325 1232.49 36.4324C1232.3 36.5323 1232.16 36.7002 1232.09 36.8999C1232.03 37.0996 1232.06 37.3144 1232.16 37.4976C1232.26 37.6807 1232.44 37.8174 1232.64 37.8779ZM1229.76 40.9222C1230.02 40.9948 1230.3 40.9667 1230.53 40.8442C1230.77 40.7217 1230.94 40.5147 1231.02 40.2689C1231.06 40.1466 1231.07 40.0182 1231.06 39.891C1231.04 39.7638 1231 39.6403 1230.94 39.5278C1230.88 39.4152 1230.79 39.3158 1230.69 39.2353C1230.58 39.1547 1230.46 39.0946 1230.34 39.0585C1230.08 38.9858 1229.8 39.0141 1229.56 39.1373C1229.32 39.2605 1229.15 39.4685 1229.07 39.716C1229 39.9639 1229.03 40.2291 1229.16 40.4546C1229.29 40.6801 1229.51 40.848 1229.76 40.9222ZM1226.06 43.066C1226.23 43.1125 1226.4 43.1276 1226.56 43.1105C1226.73 43.0935 1226.9 43.0446 1227.05 42.9667C1227.2 42.8888 1227.33 42.7835 1227.43 42.6567C1227.54 42.5299 1227.62 42.3843 1227.67 42.2281C1227.71 42.0729 1227.73 41.9102 1227.71 41.7493C1227.69 41.5885 1227.64 41.4327 1227.56 41.2908C1227.48 41.149 1227.37 41.0238 1227.24 40.9225C1227.11 40.8212 1226.95 40.7458 1226.79 40.7006C1226.63 40.6548 1226.46 40.64 1226.29 40.6571C1226.12 40.6742 1225.96 40.7228 1225.81 40.8003C1225.66 40.8777 1225.53 40.9824 1225.43 41.1083C1225.32 41.2343 1225.24 41.3791 1225.19 41.5344C1225.14 41.6897 1225.13 41.8525 1225.15 42.0135C1225.16 42.1746 1225.21 42.3307 1225.3 42.4729C1225.38 42.6151 1225.49 42.7407 1225.62 42.8425C1225.75 42.9442 1225.9 43.0202 1226.06 43.066ZM1221.97 43.9402C1222.15 43.9933 1222.34 44.0113 1222.53 43.9931C1222.72 43.9749 1222.9 43.9208 1223.07 43.834C1223.24 43.7472 1223.39 43.6295 1223.51 43.4876C1223.62 43.3457 1223.71 43.1825 1223.77 43.0075C1223.82 42.8325 1223.84 42.6491 1223.82 42.4678C1223.8 42.2864 1223.74 42.1107 1223.65 41.9507C1223.46 41.6274 1223.15 41.3876 1222.78 41.2839C1222.41 41.1802 1222.02 41.2212 1221.68 41.3978C1221.34 41.5744 1221.09 41.8722 1220.98 42.2256C1220.88 42.5782 1220.92 42.9565 1221.11 43.2778C1221.29 43.5991 1221.6 43.8373 1221.97 43.9402Z" fill="white"/>
<path d="M1235.82 19.324C1235.44 19.7122 1234.91 19.9385 1234.35 19.9531C1233.8 19.9677 1233.26 19.7695 1232.86 19.402C1232.66 19.2205 1232.5 19.0025 1232.38 18.7607C1232.27 18.5189 1232.21 18.2579 1232.2 17.9929C1232.19 17.7278 1232.24 17.464 1232.34 17.2165C1232.44 16.9689 1232.59 16.7427 1232.78 16.5507C1232.96 16.3575 1233.19 16.2019 1233.44 16.0929C1233.69 15.9839 1233.96 15.9236 1234.24 15.9155C1234.51 15.9073 1234.78 15.9515 1235.04 16.0454C1235.3 16.1394 1235.53 16.2813 1235.73 16.4629C1236.14 16.8318 1236.37 17.3402 1236.39 17.8765C1236.4 18.4129 1236.2 18.9335 1235.82 19.324ZM1214.96 14.7372C1214.76 14.5569 1214.49 14.46 1214.22 14.4676C1213.94 14.4753 1213.69 14.5867 1213.5 14.7778C1213.31 14.9699 1213.21 15.2255 1213.22 15.4887C1213.22 15.7519 1213.34 16.0014 1213.54 16.1828C1213.74 16.3632 1214 16.4601 1214.28 16.4522C1214.55 16.4443 1214.81 16.3322 1215 16.1405C1215.19 15.9487 1215.29 15.6934 1215.28 15.4305C1215.27 15.1676 1215.15 14.9183 1214.96 14.7372ZM1220.19 12.819C1219.94 12.5969 1219.61 12.4778 1219.28 12.4877C1218.94 12.4976 1218.62 12.6357 1218.39 12.8718C1218.27 12.9895 1218.18 13.1278 1218.12 13.2789C1218.06 13.43 1218.04 13.5909 1218.04 13.7525C1218.05 13.914 1218.08 14.073 1218.15 14.2204C1218.22 14.3677 1218.32 14.5006 1218.44 14.6113C1218.69 14.8332 1219.02 14.9518 1219.35 14.9415C1219.69 14.9312 1220.01 14.7926 1220.24 14.5561C1220.47 14.318 1220.6 14.0018 1220.59 13.6765C1220.58 13.3512 1220.43 13.043 1220.19 12.819ZM1225.8 12.4235C1225.48 12.1407 1225.07 11.9886 1224.64 12.0007C1224.21 12.0127 1223.8 12.1878 1223.51 12.4877C1223.23 12.7915 1223.08 13.1883 1223.1 13.594C1223.12 13.9997 1223.3 14.3824 1223.61 14.661C1223.92 14.9396 1224.32 15.0923 1224.74 15.0867C1225.17 15.081 1225.57 14.9175 1225.87 14.6308C1226.16 14.3289 1226.32 13.9271 1226.3 13.5134C1226.29 13.0997 1226.11 12.7078 1225.8 12.4235ZM1231.1 13.7334C1230.93 13.5747 1230.73 13.4507 1230.5 13.3684C1230.28 13.2861 1230.04 13.2472 1229.8 13.2539C1229.56 13.2607 1229.33 13.3129 1229.11 13.4075C1228.89 13.5022 1228.69 13.6375 1228.53 13.8057C1228.37 13.9732 1228.24 14.1702 1228.15 14.3856C1228.07 14.6009 1228.03 14.8303 1228.03 15.0607C1228.04 15.2911 1228.09 15.5179 1228.19 15.7283C1228.29 15.9386 1228.43 16.1284 1228.6 16.2867C1228.95 16.6055 1229.42 16.7769 1229.91 16.7633C1230.39 16.7498 1230.85 16.5524 1231.18 16.2144C1231.51 15.8756 1231.69 15.4242 1231.67 14.9592C1231.66 14.4942 1231.45 14.0534 1231.1 13.7334ZM1210.52 18.0961C1210.37 17.9621 1210.18 17.8902 1209.97 17.896C1209.77 17.9017 1209.58 17.9848 1209.44 18.127C1209.37 18.1975 1209.31 18.2806 1209.28 18.3715C1209.24 18.4624 1209.22 18.5593 1209.22 18.6567C1209.23 18.754 1209.25 18.8499 1209.29 18.9388C1209.33 19.0277 1209.39 19.1078 1209.46 19.1746C1209.54 19.242 1209.62 19.2948 1209.72 19.3298C1209.81 19.3649 1209.91 19.3815 1210.01 19.3788C1210.12 19.3761 1210.22 19.3541 1210.31 19.314C1210.4 19.2739 1210.48 19.2166 1210.55 19.1454C1210.69 19.0024 1210.77 18.8117 1210.76 18.615C1210.76 18.4183 1210.67 18.2317 1210.52 18.0961ZM1237.31 36.3995C1237.12 36.5919 1237.02 36.8483 1237.03 37.1124C1237.03 37.3765 1237.15 37.6269 1237.35 37.8085C1237.55 37.9814 1237.81 38.0717 1238.08 38.0601C1238.35 38.0486 1238.61 37.9361 1238.79 37.7467C1238.98 37.5572 1239.08 37.3057 1239.07 37.0457C1239.07 36.7856 1238.96 36.5375 1238.77 36.354C1238.57 36.1739 1238.3 36.0776 1238.03 36.0861C1237.75 36.0946 1237.49 36.2073 1237.31 36.3995ZM1238.63 31.2604C1238.4 31.4984 1238.28 31.8142 1238.29 32.1389C1238.3 32.4636 1238.44 32.7711 1238.69 32.9943C1238.81 33.1054 1238.95 33.1921 1239.11 33.2497C1239.27 33.3072 1239.43 33.3343 1239.6 33.3295C1239.77 33.3247 1239.93 33.288 1240.08 33.2215C1240.24 33.1551 1240.37 33.0602 1240.49 32.9423C1240.6 32.8252 1240.69 32.6871 1240.75 32.5363C1240.81 32.3854 1240.84 32.2246 1240.84 32.0632C1240.83 31.9019 1240.79 31.7431 1240.72 31.5961C1240.65 31.4491 1240.56 31.3168 1240.43 31.2068C1240.19 30.9845 1239.86 30.8653 1239.52 30.8753C1239.18 30.8854 1238.86 31.0238 1238.63 31.2604ZM1238.22 25.8485C1238.08 25.9975 1237.96 26.1729 1237.89 26.3645C1237.81 26.556 1237.78 26.7601 1237.78 26.965C1237.79 27.1698 1237.84 27.3714 1237.93 27.5582C1238.01 27.745 1238.14 27.9133 1238.29 28.0534C1238.45 28.194 1238.63 28.3038 1238.83 28.3766C1239.03 28.4493 1239.24 28.4835 1239.45 28.4773C1239.66 28.471 1239.87 28.4244 1240.07 28.3401C1240.26 28.2558 1240.43 28.1355 1240.58 27.986C1240.87 27.6832 1241.02 27.2846 1241 26.876C1240.98 26.4674 1240.8 26.0815 1240.49 25.8013C1240.18 25.5211 1239.77 25.3691 1239.35 25.3779C1238.92 25.3868 1238.52 25.5557 1238.22 25.8485ZM1236.26 20.8329C1236.02 21.0859 1235.85 21.4038 1235.79 21.7464C1235.73 22.089 1235.78 22.441 1235.93 22.7577C1236.08 23.0745 1236.32 23.3418 1236.63 23.5258C1236.93 23.7098 1237.29 23.8023 1237.65 23.7914C1238.01 23.7806 1238.36 23.6671 1238.65 23.4651C1238.94 23.2631 1239.17 22.9818 1239.29 22.6568C1239.42 22.3318 1239.45 21.9777 1239.36 21.6393C1239.28 21.3009 1239.1 20.9934 1238.84 20.7558C1238.11 20.0915 1236.96 20.1296 1236.26 20.8329ZM1234.46 40.8572C1234.33 41.001 1234.25 41.192 1234.26 41.3885C1234.26 41.585 1234.35 41.7712 1234.5 41.9064C1234.57 41.9729 1234.66 42.0247 1234.75 42.0588C1234.85 42.0929 1234.95 42.1087 1235.05 42.1051C1235.15 42.1016 1235.25 42.0788 1235.34 42.0382C1235.43 41.9975 1235.51 41.9398 1235.58 41.8683C1235.65 41.7984 1235.71 41.7158 1235.74 41.6253C1235.78 41.5347 1235.8 41.4381 1235.79 41.341C1235.79 41.244 1235.77 41.1485 1235.73 41.0602C1235.68 40.972 1235.62 40.8927 1235.55 40.8271C1235.48 40.7596 1235.39 40.7067 1235.3 40.6716C1235.2 40.6365 1235.1 40.6199 1235 40.6227C1234.9 40.6255 1234.8 40.6476 1234.71 40.6879C1234.62 40.7282 1234.53 40.7857 1234.46 40.8572ZM1212.25 43.4511C1212.62 43.0604 1212.82 42.5427 1212.8 42.0107C1212.78 41.4786 1212.55 40.9751 1212.15 40.6098C1211.75 40.2445 1211.21 40.0469 1210.66 40.0599C1210.11 40.0729 1209.58 40.2955 1209.2 40.6793C1208.84 41.0721 1208.65 41.5854 1208.67 42.1103C1208.7 42.6353 1208.93 43.1305 1209.33 43.4911C1209.72 43.8516 1210.25 44.0491 1210.8 44.0416C1211.34 44.0342 1211.86 43.8223 1212.25 43.4511ZM1207.72 23.6014C1207.81 23.5063 1207.88 23.3944 1207.93 23.2722C1207.98 23.1499 1208 23.0197 1208 22.889C1207.99 22.7583 1207.96 22.6296 1207.91 22.5103C1207.85 22.391 1207.77 22.2834 1207.67 22.1936C1207.57 22.1039 1207.46 22.0337 1207.33 21.9872C1207.2 21.9407 1207.07 21.9187 1206.93 21.9226C1206.8 21.9264 1206.66 21.9559 1206.54 22.0094C1206.42 22.063 1206.31 22.1395 1206.21 22.2346C1205.82 22.6326 1205.84 23.2603 1206.26 23.6404C1206.67 24.014 1207.32 23.9985 1207.72 23.6014ZM1206.39 28.7429C1206.62 28.5049 1206.74 28.1888 1206.73 27.8632C1206.72 27.5376 1206.58 27.2289 1206.34 27.0042C1206.09 26.7904 1205.76 26.6782 1205.43 26.6916C1205.1 26.7049 1204.79 26.8427 1204.56 27.0756C1204.33 27.3084 1204.2 27.618 1204.21 27.9384C1204.21 28.2587 1204.35 28.5646 1204.58 28.7908C1204.83 29.0139 1205.16 29.1341 1205.5 29.1251C1205.83 29.1161 1206.15 28.9787 1206.39 28.7429ZM1206.8 34.1524C1207.09 33.8503 1207.25 33.4477 1207.24 33.0331C1207.22 32.6184 1207.04 32.2256 1206.73 31.941C1206.42 31.6575 1206 31.5055 1205.57 31.5183C1205.14 31.5311 1204.73 31.7076 1204.44 32.0092C1204.14 32.3112 1203.99 32.713 1204 33.1266C1204.01 33.5401 1204.2 33.9317 1204.51 34.2157C1205.16 34.811 1206.18 34.7793 1206.8 34.1524ZM1208.75 39.1696C1209.08 38.8306 1209.26 38.379 1209.25 37.9138C1209.23 37.4485 1209.03 37.0077 1208.68 36.6878C1208.5 36.5297 1208.3 36.4062 1208.08 36.3245C1207.85 36.2427 1207.62 36.2043 1207.38 36.2114C1207.14 36.2185 1206.9 36.271 1206.69 36.3658C1206.47 36.4607 1206.27 36.596 1206.11 36.7641C1205.94 36.9313 1205.81 37.1281 1205.73 37.3433C1205.64 37.5585 1205.6 37.788 1205.61 38.0185C1205.62 38.2489 1205.67 38.4759 1205.77 38.6864C1205.86 38.8969 1206 39.0868 1206.18 39.2451C1206.53 39.5621 1207 39.7319 1207.48 39.7178C1207.96 39.7036 1208.42 39.5066 1208.75 39.1696ZM1230.06 45.2637C1230.16 45.3536 1230.28 45.4237 1230.4 45.4702C1230.53 45.5167 1230.67 45.5386 1230.8 45.5346C1230.94 45.5306 1231.07 45.5008 1231.19 45.4469C1231.32 45.3931 1231.43 45.3162 1231.52 45.2207C1231.61 45.1259 1231.69 45.0143 1231.74 44.8923C1231.78 44.7704 1231.81 44.6405 1231.8 44.51C1231.8 44.3796 1231.77 44.2513 1231.71 44.1324C1231.66 44.0135 1231.58 43.9064 1231.48 43.8173C1231.38 43.7275 1231.26 43.6573 1231.14 43.6107C1231.01 43.5641 1230.88 43.542 1230.74 43.5458C1230.6 43.5495 1230.47 43.5791 1230.35 43.6326C1230.22 43.6862 1230.11 43.7628 1230.02 43.8579C1229.83 44.0498 1229.73 44.3056 1229.74 44.5692C1229.75 44.8328 1229.86 45.0826 1230.06 45.2637ZM1224.83 47.1795C1225.35 47.6464 1226.15 47.6156 1226.63 47.1251C1226.75 47.0081 1226.84 46.8705 1226.9 46.72C1226.96 46.5695 1226.99 46.4091 1226.98 46.2481C1226.98 46.087 1226.94 45.9285 1226.87 45.7816C1226.8 45.6347 1226.7 45.5023 1226.58 45.392C1226.34 45.1687 1226.01 45.0489 1225.67 45.059C1225.33 45.069 1225.01 45.208 1224.78 45.4456C1224.55 45.6833 1224.42 45.999 1224.43 46.3238C1224.44 46.6485 1224.59 46.9561 1224.83 47.1795ZM1219.22 47.5701C1219.88 48.167 1220.89 48.1378 1221.51 47.5108C1221.65 47.3622 1221.77 47.1871 1221.84 46.9958C1221.92 46.8044 1221.96 46.6004 1221.95 46.3956C1221.94 46.1907 1221.9 45.989 1221.81 45.802C1221.72 45.615 1221.6 45.4464 1221.44 45.3059C1221.13 45.0221 1220.71 44.8692 1220.28 44.8808C1219.85 44.8924 1219.45 45.0674 1219.15 45.3676C1219 45.5166 1218.89 45.6917 1218.82 45.8831C1218.74 46.0744 1218.7 46.2783 1218.71 46.4829C1218.72 46.6875 1218.77 46.8888 1218.85 47.0754C1218.94 47.2619 1219.07 47.4301 1219.22 47.5701ZM1213.92 46.2675C1214.1 46.4257 1214.3 46.5493 1214.52 46.6313C1214.75 46.7132 1214.98 46.7519 1215.22 46.7451C1215.46 46.7383 1215.7 46.6862 1215.91 46.5917C1216.13 46.4972 1216.33 46.3622 1216.49 46.1944C1216.66 46.0266 1216.78 45.8293 1216.87 45.6139C1216.95 45.3985 1216.99 45.1691 1216.99 44.9389C1216.98 44.7086 1216.92 44.4821 1216.83 44.2721C1216.73 44.0621 1216.59 43.8728 1216.41 43.715C1216.24 43.5572 1216.03 43.434 1215.81 43.3525C1215.59 43.2709 1215.35 43.2326 1215.11 43.2397C1214.87 43.2468 1214.64 43.2991 1214.42 43.3938C1214.2 43.4884 1214.01 43.6235 1213.84 43.7913C1213.68 43.9589 1213.55 44.156 1213.47 44.3713C1213.38 44.5865 1213.34 44.8157 1213.35 45.0458C1213.36 45.2758 1213.41 45.5021 1213.51 45.7117C1213.61 45.9214 1213.75 46.1102 1213.92 46.2675Z" fill="white"/>
<path d="M1244.08 23.3296C1243.47 23.5962 1242.78 23.6057 1242.16 23.3558C1241.54 23.106 1241.05 22.6173 1240.78 21.9972C1240.65 21.6901 1240.58 21.36 1240.58 21.0256C1240.57 20.6912 1240.64 20.3591 1240.76 20.0484C1240.88 19.7377 1241.06 19.4545 1241.29 19.215C1241.52 18.9755 1241.8 18.7844 1242.1 18.6527C1242.71 18.4024 1243.39 18.4039 1244 18.6569C1244.6 18.9098 1245.09 19.3941 1245.35 20.0058C1245.61 20.6175 1245.62 21.3081 1245.38 21.9294C1245.15 22.5507 1244.68 23.0533 1244.08 23.3296ZM1226.46 7.13033C1226.43 6.94924 1226.36 6.77695 1226.26 6.62339C1226.16 6.46982 1226.03 6.33801 1225.88 6.23554C1225.72 6.13308 1225.55 6.06198 1225.38 6.02634C1225.2 5.9907 1225.01 5.99123 1224.83 6.0279C1224.66 6.06315 1224.49 6.13395 1224.33 6.23619C1224.18 6.33843 1224.05 6.4701 1223.95 6.62361C1223.85 6.77711 1223.78 6.9494 1223.75 7.13055C1223.71 7.31169 1223.71 7.4981 1223.75 7.67902C1223.83 8.03357 1224.04 8.34185 1224.35 8.53886C1224.65 8.73587 1225.01 8.80621 1225.37 8.73505C1225.72 8.66389 1226.03 8.45679 1226.23 8.15742C1226.44 7.85805 1226.52 7.48981 1226.46 7.13033ZM1232.41 8.44159C1232.35 8.22494 1232.26 8.02125 1232.13 7.84223C1231.99 7.6632 1231.83 7.51237 1231.64 7.39838C1231.45 7.2844 1231.24 7.20951 1231.02 7.17802C1230.8 7.14653 1230.58 7.15905 1230.37 7.21488C1230.15 7.26942 1229.95 7.36631 1229.78 7.49997C1229.6 7.63364 1229.45 7.80143 1229.34 7.99371C1229.22 8.18598 1229.15 8.39893 1229.12 8.62031C1229.09 8.84169 1229.1 9.06712 1229.16 9.28364C1229.21 9.50013 1229.31 9.70362 1229.44 9.88247C1229.57 10.0613 1229.74 10.2121 1229.93 10.326C1230.12 10.44 1230.32 10.5151 1230.54 10.5468C1230.76 10.5786 1230.98 10.5665 1231.2 10.5112C1231.41 10.4559 1231.61 10.3585 1231.79 10.2246C1231.96 10.0907 1232.11 9.92281 1232.22 9.73063C1232.34 9.53845 1232.41 9.3257 1232.44 9.10453C1232.47 8.88335 1232.46 8.65809 1232.41 8.44159ZM1237.89 11.1241C1237.81 10.858 1237.67 10.6107 1237.5 10.3966C1237.32 10.1825 1237.11 10.0057 1236.86 9.87635C1236.62 9.74703 1236.35 9.66776 1236.08 9.64308C1235.81 9.61841 1235.53 9.64881 1235.27 9.73256C1235.01 9.81504 1234.76 9.94925 1234.55 10.1275C1234.34 10.3058 1234.17 10.5245 1234.04 10.7713C1233.91 11.0181 1233.83 11.288 1233.81 11.5656C1233.78 11.8432 1233.81 12.1229 1233.89 12.3889C1234.07 12.912 1234.44 13.3446 1234.93 13.5946C1235.41 13.8446 1235.98 13.8923 1236.5 13.7275C1237.02 13.5627 1237.45 13.1984 1237.71 12.7121C1237.97 12.2259 1238.04 11.6561 1237.89 11.1241ZM1242.26 15.0757C1242.15 14.7875 1241.99 14.5231 1241.79 14.2977C1241.58 14.0722 1241.33 13.8902 1241.06 13.7619C1240.78 13.6337 1240.49 13.5618 1240.18 13.5503C1239.88 13.5388 1239.58 13.588 1239.3 13.6951C1239.01 13.8008 1238.75 13.9626 1238.53 14.1711C1238.3 14.3796 1238.12 14.6306 1238 14.9098C1237.87 15.1891 1237.8 15.4909 1237.79 15.7981C1237.78 16.1053 1237.83 16.4117 1237.93 16.6997C1238.14 17.2816 1238.58 17.754 1239.13 18.0132C1239.69 18.2723 1240.32 18.2969 1240.9 18.0816C1241.47 17.8662 1241.94 17.4285 1242.19 16.8648C1242.45 16.3011 1242.47 15.6575 1242.26 15.0757ZM1214.55 8.71044C1214.5 8.587 1214.42 8.47527 1214.32 8.38166C1214.23 8.28804 1214.12 8.21438 1213.99 8.1649C1213.87 8.11542 1213.74 8.09109 1213.61 8.09331C1213.47 8.09552 1213.34 8.12424 1213.22 8.17782C1212.98 8.28511 1212.78 8.48678 1212.69 8.73848C1212.59 8.99017 1212.59 9.27127 1212.7 9.51993C1212.8 9.76859 1213 9.96445 1213.25 10.0644C1213.5 10.1644 1213.77 10.1603 1214.02 10.053C1214.53 9.82978 1214.77 9.22784 1214.55 8.71044ZM1239.69 42.4371C1239.4 42.6563 1239.2 42.9823 1239.15 43.3452C1239.09 43.7081 1239.18 44.0791 1239.39 44.3787C1239.6 44.6784 1239.91 44.8829 1240.27 44.9486C1240.63 45.0142 1240.99 44.9357 1241.29 44.7299C1241.44 44.623 1241.57 44.4876 1241.66 44.3312C1241.76 44.1748 1241.83 44.0006 1241.86 43.8186C1241.89 43.6366 1241.88 43.4502 1241.84 43.2703C1241.8 43.0904 1241.72 42.9204 1241.62 42.7702C1241.51 42.6197 1241.38 42.4918 1241.23 42.3936C1241.07 42.2955 1240.9 42.229 1240.72 42.1981C1240.54 42.1672 1240.36 42.1723 1240.18 42.2133C1240.01 42.2543 1239.84 42.3304 1239.69 42.4371ZM1242.44 36.957C1242.25 37.0742 1242.09 37.2288 1241.96 37.4117C1241.82 37.5946 1241.73 37.8022 1241.68 38.0224C1241.63 38.2426 1241.62 38.4709 1241.66 38.6939C1241.69 38.917 1241.77 39.1304 1241.89 39.3216C1242.01 39.5129 1242.17 39.6781 1242.35 39.8076C1242.53 39.9372 1242.74 40.0285 1242.96 40.0762C1243.18 40.1239 1243.4 40.1271 1243.62 40.0855C1243.84 40.0439 1244.05 39.9584 1244.24 39.834C1244.6 39.5888 1244.86 39.2073 1244.95 38.7716C1245.05 38.3358 1244.97 37.8805 1244.73 37.5036C1244.5 37.1268 1244.13 36.8584 1243.7 36.7561C1243.27 36.6539 1242.82 36.726 1242.44 36.957ZM1243.75 30.7905C1243.26 31.0666 1242.91 31.5261 1242.76 32.068C1242.61 32.6099 1242.68 33.19 1242.95 33.681C1243.08 33.9237 1243.26 34.1371 1243.48 34.309C1243.69 34.4809 1243.94 34.6079 1244.21 34.6828C1244.47 34.7576 1244.75 34.7788 1245.02 34.7452C1245.29 34.7115 1245.55 34.6237 1245.79 34.4867C1246.03 34.3511 1246.24 34.1687 1246.41 33.9501C1246.58 33.7314 1246.71 33.4808 1246.78 33.2127C1246.86 32.9445 1246.88 32.6641 1246.85 32.3876C1246.81 32.111 1246.73 31.8438 1246.59 31.6012C1246.46 31.3581 1246.28 31.1443 1246.06 30.9719C1245.85 30.7995 1245.6 30.6721 1245.34 30.5967C1245.07 30.5214 1244.79 30.4998 1244.52 30.533C1244.25 30.5663 1243.99 30.6537 1243.75 30.7905ZM1243.67 24.607C1243.12 24.8826 1242.7 25.3669 1242.51 25.9538C1242.31 26.5407 1242.35 27.1822 1242.63 27.7376C1242.76 28.0136 1242.95 28.2599 1243.17 28.4626C1243.4 28.6652 1243.67 28.8202 1243.95 28.9185C1244.24 29.0167 1244.54 29.0565 1244.85 29.0353C1245.15 29.0142 1245.45 28.9326 1245.72 28.7952C1245.99 28.6596 1246.23 28.4709 1246.43 28.2399C1246.63 28.0089 1246.78 27.7402 1246.88 27.4492C1246.98 27.1582 1247.02 26.8507 1246.99 26.5443C1246.97 26.2379 1246.89 25.9386 1246.76 25.6638C1246.49 25.1082 1246.01 24.6849 1245.43 24.4868C1244.85 24.2886 1244.22 24.3319 1243.67 24.607ZM1230.98 49.9436C1230.86 49.9967 1230.75 50.0736 1230.66 50.1698C1230.57 50.266 1230.49 50.3797 1230.44 50.5044C1230.4 50.6291 1230.37 50.7623 1230.37 50.8964C1230.38 51.0305 1230.4 51.163 1230.46 51.2861C1230.56 51.5349 1230.76 51.7309 1231.01 51.8309C1231.13 51.8805 1231.26 51.905 1231.39 51.903C1231.53 51.9011 1231.66 51.8727 1231.78 51.8196C1232.29 51.5964 1232.53 50.9953 1232.31 50.4754C1232.2 50.2265 1232 50.0306 1231.75 49.9309C1231.5 49.8312 1231.23 49.8358 1230.98 49.9436ZM1202.91 41.3414C1203.52 41.073 1204 40.5697 1204.24 39.9421C1204.49 39.3145 1204.48 38.6139 1204.21 37.9943C1204.08 37.6876 1203.89 37.41 1203.66 37.1772C1203.42 36.9444 1203.14 36.7612 1202.84 36.6379C1202.53 36.5146 1202.2 36.4537 1201.88 36.4587C1201.55 36.4637 1201.22 36.5345 1200.92 36.667C1200.62 36.7987 1200.34 36.9899 1200.11 37.2294C1199.88 37.4689 1199.7 37.7522 1199.58 38.0629C1199.46 38.3736 1199.4 38.7056 1199.4 39.04C1199.41 39.3744 1199.48 39.7046 1199.61 40.0115C1199.87 40.6313 1200.37 41.1194 1200.98 41.3687C1201.6 41.618 1202.29 41.6082 1202.91 41.3414ZM1205.31 17.5578C1205.46 17.4514 1205.59 17.3165 1205.68 17.1606C1205.78 17.0047 1205.84 16.831 1205.88 16.6495C1205.91 16.4679 1205.9 16.2819 1205.86 16.1023C1205.82 15.9226 1205.75 15.7527 1205.64 15.6024C1205.54 15.4512 1205.4 15.3226 1205.25 15.2238C1205.1 15.125 1204.93 15.0581 1204.75 15.0269C1204.57 14.9957 1204.38 15.0008 1204.21 15.042C1204.03 15.0831 1203.86 15.1595 1203.71 15.2667C1203.56 15.3729 1203.44 15.508 1203.34 15.6642C1203.24 15.8204 1203.18 15.9946 1203.14 16.1768C1203.11 16.359 1203.12 16.5456 1203.16 16.7257C1203.2 16.9059 1203.28 17.076 1203.38 17.2264C1203.6 17.5293 1203.92 17.7343 1204.28 17.7965C1204.64 17.8586 1205.01 17.7728 1205.31 17.5578ZM1202.56 23.037C1202.75 22.9174 1202.91 22.7616 1203.03 22.5786C1203.16 22.3956 1203.25 22.189 1203.3 21.9706C1203.35 21.7521 1203.35 21.5262 1203.32 21.3056C1203.28 21.085 1203.2 20.8742 1203.08 20.6851C1202.84 20.304 1202.46 20.0345 1202.03 19.9359C1201.6 19.8373 1201.14 19.9176 1200.77 20.1592C1200.39 20.4008 1200.12 20.7839 1200.03 21.2242C1199.93 21.6645 1200.01 22.1259 1200.25 22.507C1200.48 22.8882 1200.86 23.1583 1201.3 23.2577C1201.73 23.3571 1202.18 23.2777 1202.56 23.037ZM1201.25 29.2044C1201.5 29.0726 1201.72 28.8917 1201.9 28.6725C1202.07 28.4533 1202.21 28.2002 1202.29 27.9283C1202.37 27.6563 1202.39 27.3709 1202.36 27.0891C1202.33 26.8072 1202.24 26.5346 1202.1 26.2873C1201.97 26.0401 1201.78 25.8232 1201.56 25.6495C1201.34 25.4758 1201.09 25.3488 1200.82 25.2761C1200.55 25.2034 1200.26 25.1864 1199.99 25.2261C1199.71 25.2658 1199.44 25.3615 1199.2 25.5074C1198.72 25.7839 1198.37 26.2426 1198.22 26.7831C1198.07 27.3237 1198.14 27.9019 1198.41 28.3911C1198.68 28.8803 1199.13 29.2406 1199.67 29.393C1200.2 29.5455 1200.77 29.4777 1201.25 29.2044ZM1201.33 35.3896C1201.88 35.114 1202.3 34.6289 1202.49 34.041C1202.69 33.4531 1202.65 32.8106 1202.38 32.2547C1202.24 31.9786 1202.06 31.732 1201.83 31.5293C1201.6 31.3265 1201.33 31.1715 1201.05 31.0733C1200.76 30.9751 1200.45 30.9355 1200.15 30.9569C1199.85 30.9783 1199.55 31.0602 1199.28 31.1979C1199.01 31.334 1198.77 31.523 1198.57 31.7541C1198.37 31.9852 1198.22 32.2538 1198.12 32.5447C1198.02 32.8356 1197.98 33.1431 1198.01 33.4494C1198.03 33.7558 1198.11 34.0551 1198.24 34.3303C1198.51 34.8866 1198.99 35.3107 1199.57 35.5093C1200.15 35.7079 1200.78 35.6649 1201.33 35.3896ZM1218.54 52.8679C1218.57 53.0491 1218.64 53.2214 1218.74 53.375C1218.85 53.5286 1218.98 53.6605 1219.13 53.7631C1219.28 53.8657 1219.45 53.937 1219.63 53.973C1219.81 54.009 1219.99 54.009 1220.17 53.9729C1220.53 53.8985 1220.85 53.6822 1221.05 53.3714C1221.25 53.0607 1221.33 52.6808 1221.25 52.315C1221.18 51.9503 1220.97 51.6297 1220.66 51.4235C1220.36 51.2172 1219.98 51.142 1219.62 51.2143C1219.26 51.2879 1218.95 51.5034 1218.74 51.8134C1218.54 52.1234 1218.47 52.5026 1218.54 52.8679ZM1212.6 51.5533C1212.65 51.77 1212.75 51.9738 1212.88 52.1529C1213.01 52.3321 1213.18 52.4831 1213.36 52.5972C1213.55 52.7113 1213.76 52.7864 1213.98 52.8181C1214.2 52.8497 1214.42 52.8374 1214.64 52.7817C1214.85 52.7264 1215.05 52.629 1215.23 52.4952C1215.4 52.3613 1215.55 52.1935 1215.66 52.0014C1215.78 51.8093 1215.85 51.5966 1215.88 51.3755C1215.91 51.1545 1215.9 50.9293 1215.85 50.7129C1215.79 50.4966 1215.69 50.2932 1215.56 50.1144C1215.43 49.9357 1215.27 49.785 1215.08 49.6711C1214.89 49.5572 1214.68 49.4823 1214.46 49.4505C1214.24 49.4188 1214.02 49.4309 1213.81 49.4862C1213.59 49.5415 1213.39 49.6387 1213.22 49.7725C1213.04 49.9063 1212.89 50.0739 1212.78 50.2659C1212.67 50.4578 1212.59 50.6703 1212.56 50.8912C1212.53 51.1121 1212.54 51.3371 1212.6 51.5533ZM1207.11 48.8699C1207.2 49.1362 1207.33 49.3837 1207.5 49.5981C1207.68 49.8125 1207.89 49.9894 1208.14 50.1188C1208.38 50.2482 1208.65 50.3274 1208.92 50.3519C1209.19 50.3764 1209.47 50.3457 1209.73 50.2615C1209.99 50.1795 1210.24 50.0456 1210.45 49.8677C1210.66 49.6898 1210.84 49.4712 1210.96 49.2246C1211.09 48.978 1211.17 48.7083 1211.19 48.4308C1211.22 48.1533 1211.19 47.8736 1211.11 47.6077C1210.94 47.0706 1210.57 46.6223 1210.08 46.3613C1209.59 46.1002 1209.02 46.0477 1208.49 46.2153C1208.22 46.2978 1207.98 46.432 1207.77 46.6103C1207.56 46.7885 1207.38 47.0072 1207.26 47.2539C1207.13 47.5005 1207.05 47.7703 1207.03 48.0476C1207 48.3249 1207.03 48.6044 1207.11 48.8699ZM1202.74 44.9158C1202.85 45.2044 1203.01 45.4693 1203.21 45.6951C1203.42 45.9209 1203.66 46.1033 1203.94 46.2317C1204.22 46.3601 1204.51 46.432 1204.82 46.4432C1205.12 46.4545 1205.42 46.4049 1205.7 46.2973C1206.27 46.0735 1206.72 45.6354 1206.97 45.077C1207.21 44.5185 1207.23 43.8843 1207.02 43.3103C1206.81 42.7363 1206.39 42.2683 1205.85 42.0068C1205.3 41.7452 1204.68 41.7109 1204.11 41.9112C1203.53 42.1267 1203.07 42.5641 1202.81 43.1274C1202.56 43.6906 1202.53 44.3338 1202.74 44.9158ZM1235.73 46.9778C1235.52 47.1618 1235.38 47.4232 1235.36 47.7068C1235.33 47.9905 1235.41 48.274 1235.58 48.4974C1235.76 48.7209 1236.01 48.8667 1236.29 48.904C1236.57 48.9413 1236.85 48.8673 1237.08 48.6974C1237.19 48.6098 1237.29 48.4994 1237.36 48.3727C1237.44 48.246 1237.49 48.1056 1237.51 47.9598C1237.52 47.8141 1237.51 47.6659 1237.48 47.5242C1237.44 47.3824 1237.37 47.25 1237.28 47.1348C1237.19 47.0195 1237.08 46.9238 1236.95 46.8532C1236.82 46.7827 1236.68 46.7388 1236.54 46.7242C1236.4 46.7095 1236.25 46.7245 1236.11 46.768C1235.97 46.8116 1235.84 46.883 1235.73 46.9778ZM1225.59 51.413C1225.31 51.4564 1225.05 51.6119 1224.88 51.8456C1224.71 52.0793 1224.64 52.3721 1224.68 52.66C1224.7 52.8025 1224.75 52.9396 1224.82 53.0633C1224.89 53.187 1224.99 53.2949 1225.1 53.3809C1225.22 53.4669 1225.35 53.5293 1225.48 53.5644C1225.62 53.5995 1225.77 53.6068 1225.91 53.5857C1226.05 53.5652 1226.18 53.5167 1226.3 53.443C1226.43 53.3694 1226.53 53.2719 1226.62 53.1563C1226.7 53.0407 1226.77 52.9092 1226.8 52.7693C1226.84 52.6295 1226.84 52.484 1226.82 52.3412C1226.8 52.1982 1226.75 52.0607 1226.68 51.9367C1226.61 51.8126 1226.51 51.7043 1226.4 51.6181C1226.28 51.5319 1226.15 51.4694 1226.01 51.4342C1225.88 51.399 1225.73 51.3918 1225.59 51.413ZM1220.33 7.33577C1220.3 7.19293 1220.26 7.05563 1220.18 6.93176C1220.11 6.80789 1220.01 6.69989 1219.9 6.61395C1219.79 6.52802 1219.66 6.46584 1219.52 6.43099C1219.38 6.39614 1219.24 6.38931 1219.09 6.41088C1218.81 6.45325 1218.56 6.60822 1218.38 6.84168C1218.21 7.07514 1218.14 7.36798 1218.18 7.65577C1218.22 7.94355 1218.38 8.20272 1218.61 8.37625C1218.84 8.54978 1219.13 8.62346 1219.41 8.58109C1219.69 8.53906 1219.95 8.38427 1220.12 8.15076C1220.29 7.91724 1220.37 7.6241 1220.33 7.33577ZM1209.44 11.4758C1209.27 11.2478 1209.01 11.1009 1208.72 11.0671C1208.44 11.0334 1208.15 11.1156 1207.92 11.2958C1207.75 11.4306 1207.63 11.613 1207.56 11.8198C1207.5 12.0267 1207.49 12.2487 1207.55 12.4578C1207.61 12.6669 1207.73 12.8538 1207.89 12.9947C1208.06 13.1356 1208.26 13.2242 1208.47 13.2494C1208.68 13.2746 1208.9 13.2352 1209.09 13.1362C1209.28 13.0371 1209.44 12.883 1209.54 12.6931C1209.65 12.5033 1209.69 12.2863 1209.67 12.0696C1209.66 11.8529 1209.58 11.6463 1209.44 11.4758Z" fill="white"/>
<path d="M1251.73 33.2125C1250.86 33.2114 1250.03 32.8719 1249.41 32.2687C1248.8 31.6655 1248.46 30.848 1248.46 29.9958C1248.46 29.5738 1248.54 29.1558 1248.71 28.7658C1248.87 28.3758 1249.11 28.0216 1249.42 27.7234C1249.72 27.4252 1250.08 27.1889 1250.48 27.0282C1250.88 26.8674 1251.3 26.7853 1251.73 26.7867C1252.16 26.7859 1252.59 26.8685 1252.98 27.0297C1253.38 27.1908 1253.74 27.4275 1254.04 27.7259C1254.35 28.0244 1254.59 28.3788 1254.75 28.7689C1254.92 29.159 1255 29.5771 1255 29.9992C1255 30.8517 1254.65 31.6691 1254.04 32.2717C1253.43 32.8743 1252.59 33.2127 1251.73 33.2125ZM1238.88 5.49917C1238.93 5.27155 1238.94 5.0365 1238.89 4.80753C1238.85 4.57856 1238.76 4.36018 1238.63 4.16494C1238.5 3.96971 1238.34 3.80148 1238.14 3.66992C1237.95 3.53835 1237.73 3.44606 1237.49 3.39833C1237.26 3.34881 1237.02 3.34476 1236.79 3.38643C1236.56 3.4281 1236.33 3.51466 1236.14 3.64113C1235.94 3.7676 1235.76 3.93149 1235.63 4.12336C1235.5 4.31524 1235.4 4.53132 1235.35 4.75917C1235.25 5.21921 1235.34 5.69939 1235.6 6.09407C1235.86 6.48876 1236.27 6.76562 1236.74 6.86375C1237.21 6.96188 1237.7 6.87324 1238.1 6.61733C1238.5 6.36142 1238.78 5.95921 1238.88 5.49917ZM1245.33 10.0325C1245.38 9.754 1245.36 9.46945 1245.3 9.19515C1245.23 8.92085 1245.11 8.66219 1244.94 8.43398C1244.77 8.20578 1244.56 8.01251 1244.31 7.86526C1244.07 7.718 1243.8 7.61965 1243.51 7.57583C1242.95 7.50046 1242.37 7.64596 1241.91 7.9812C1241.45 8.31645 1241.15 8.81481 1241.06 9.36964C1240.97 9.92447 1241.1 10.4917 1241.43 10.95C1241.77 11.4082 1242.27 11.7211 1242.83 11.8217C1243.4 11.9095 1243.99 11.7704 1244.46 11.435C1244.92 11.0996 1245.24 10.5953 1245.33 10.0325ZM1253.74 22.72C1253.76 22.3327 1253.71 21.9452 1253.58 21.5796C1253.44 21.2139 1253.24 20.8774 1252.98 20.5892C1252.71 20.3011 1252.39 20.067 1252.04 19.9004C1251.68 19.7338 1251.29 19.638 1250.9 19.6183C1250.5 19.597 1250.11 19.6524 1249.74 19.7813C1249.36 19.9102 1249.02 20.1102 1248.73 20.3696C1248.43 20.6291 1248.2 20.943 1248.03 21.2933C1247.86 21.6436 1247.76 22.0234 1247.74 22.4108C1247.71 22.8002 1247.77 23.1904 1247.9 23.5589C1248.03 23.9275 1248.23 24.2671 1248.5 24.5581C1248.76 24.8491 1249.08 25.0859 1249.44 25.2546C1249.8 25.4233 1250.19 25.5207 1250.58 25.5411C1250.98 25.5615 1251.38 25.5046 1251.75 25.3735C1252.12 25.2425 1252.47 25.04 1252.76 24.7777C1253.06 24.5154 1253.29 24.1985 1253.46 23.8454C1253.63 23.4922 1253.73 23.1097 1253.74 22.72ZM1223.82 1.28833C1223.82 0.5725 1223.23 0 1222.5 0C1222.16 0.0120071 1221.84 0.153086 1221.6 0.39354C1221.37 0.633993 1221.23 0.955064 1221.23 1.28917C1221.23 1.62327 1221.37 1.94434 1221.6 2.18479C1221.84 2.42525 1222.16 2.56633 1222.5 2.57833C1223.23 2.57833 1223.82 2.0025 1223.82 1.28833ZM1236.74 53.135C1236.51 53.1835 1236.29 53.2764 1236.1 53.4084C1235.9 53.5405 1235.73 53.7091 1235.6 53.9046C1235.34 54.2994 1235.25 54.7799 1235.35 55.2404C1235.45 55.7009 1235.73 56.1036 1236.14 56.36C1236.54 56.6164 1237.03 56.7054 1237.5 56.6075C1237.96 56.5096 1238.37 56.2328 1238.64 55.8379C1238.9 55.4431 1238.99 54.9626 1238.89 54.5021C1238.79 54.0416 1238.51 53.6389 1238.1 53.3825C1237.7 53.1261 1237.21 53.0371 1236.74 53.135ZM1242.83 48.18C1242.54 48.2214 1242.27 48.3181 1242.02 48.4645C1241.77 48.6108 1241.56 48.8039 1241.39 49.0326C1241.21 49.2613 1241.09 49.5211 1241.02 49.7969C1240.95 50.0727 1240.94 50.3591 1240.99 50.6395C1241.03 50.9199 1241.13 51.1888 1241.28 51.4306C1241.44 51.6724 1241.63 51.8824 1241.87 52.0483C1242.1 52.2143 1242.37 52.3329 1242.65 52.3974C1242.93 52.4619 1243.22 52.471 1243.51 52.4242C1244.08 52.3307 1244.58 52.0206 1244.92 51.5612C1245.26 51.1019 1245.4 50.5304 1245.31 49.9711C1245.22 49.4118 1244.91 48.9099 1244.44 48.5745C1243.98 48.2391 1243.4 48.0973 1242.83 48.18ZM1247.53 41.6917C1246.81 41.7659 1246.15 42.1177 1245.69 42.6695C1245.24 43.2213 1245.03 43.928 1245.1 44.6342C1245.18 45.3403 1245.54 45.988 1246.1 46.4348C1246.66 46.8816 1247.38 47.0909 1248.1 47.0167C1248.45 46.9806 1248.8 46.8758 1249.11 46.7082C1249.43 46.5407 1249.71 46.3137 1249.93 46.0403C1250.16 45.767 1250.33 45.4525 1250.43 45.1151C1250.53 44.7777 1250.56 44.424 1250.52 44.0742C1250.45 43.368 1250.09 42.7203 1249.53 42.2736C1248.97 41.8268 1248.25 41.6175 1247.53 41.6917ZM1250.58 34.4825C1249.78 34.5251 1249.04 34.8758 1248.51 35.4575C1247.97 36.0392 1247.7 36.8046 1247.74 37.5858C1247.76 37.9733 1247.86 38.3532 1248.03 38.7035C1248.2 39.0539 1248.43 39.3678 1248.73 39.6273C1249.02 39.8868 1249.36 40.0867 1249.74 40.2156C1250.11 40.3445 1250.5 40.3998 1250.9 40.3783C1251.29 40.3586 1251.68 40.2627 1252.04 40.096C1252.39 39.9294 1252.71 39.6953 1252.98 39.4071C1253.24 39.119 1253.44 38.7825 1253.58 38.4169C1253.71 38.0513 1253.76 37.6639 1253.74 37.2767C1253.7 36.4944 1253.34 35.7609 1252.75 35.237C1252.16 34.7132 1251.38 34.4418 1250.58 34.4825ZM1222.5 57.4208C1222.16 57.4294 1221.83 57.569 1221.59 57.8099C1221.35 58.0508 1221.22 58.374 1221.22 58.7104C1221.22 59.0469 1221.35 59.37 1221.59 59.6109C1221.83 59.8518 1222.16 59.9914 1222.5 60C1222.85 60 1223.18 59.8641 1223.43 59.6223C1223.68 59.3804 1223.81 59.0524 1223.81 58.7104C1223.81 58.3684 1223.68 58.0404 1223.43 57.7985C1223.18 57.5567 1222.85 57.4208 1222.5 57.4208ZM1193.27 33.2125C1194.14 33.2107 1194.97 32.871 1195.58 32.2679C1196.2 31.6648 1196.54 30.8476 1196.54 29.9958C1196.54 29.5743 1196.46 29.1567 1196.29 28.7672C1196.13 28.3776 1195.89 28.0236 1195.58 27.7254C1195.28 27.4273 1194.92 27.1909 1194.52 27.0298C1194.13 26.8688 1193.7 26.7861 1193.27 26.7867C1192.84 26.7861 1192.42 26.8688 1192.02 27.0301C1191.62 27.1914 1191.26 27.428 1190.96 27.7265C1190.65 28.0249 1190.41 28.3794 1190.25 28.7695C1190.08 29.1596 1190 29.5777 1190 30C1190 30.852 1190.35 31.6686 1190.96 32.2708C1191.57 32.873 1192.41 33.2116 1193.27 33.2125ZM1208.26 6.8625C1208.73 6.7647 1209.14 6.48807 1209.4 6.09346C1209.66 5.69885 1209.75 5.21859 1209.65 4.75833C1209.6 4.53053 1209.51 4.31448 1209.37 4.12259C1209.24 3.93071 1209.07 3.76676 1208.87 3.64017C1208.67 3.51357 1208.45 3.42682 1208.21 3.38489C1207.98 3.34296 1207.74 3.34668 1207.51 3.39583C1207.28 3.4442 1207.06 3.53693 1206.86 3.66873C1206.67 3.80053 1206.5 3.96881 1206.37 4.16397C1206.24 4.35912 1206.15 4.57734 1206.11 4.80614C1206.07 5.03495 1206.07 5.26988 1206.12 5.4975C1206.17 5.72512 1206.26 5.94099 1206.4 6.13278C1206.53 6.32457 1206.7 6.48852 1206.9 6.61527C1207.1 6.74202 1207.32 6.82909 1207.55 6.87151C1207.79 6.91393 1208.03 6.91087 1208.26 6.8625ZM1202.18 11.82C1202.75 11.7305 1203.26 11.421 1203.6 10.9596C1203.95 10.4982 1204.09 9.92258 1204 9.35917C1203.95 9.08029 1203.85 8.81284 1203.7 8.57216C1203.55 8.33148 1203.35 8.12228 1203.12 7.95654C1202.89 7.79081 1202.62 7.6718 1202.34 7.60633C1202.06 7.54086 1201.77 7.53021 1201.49 7.575C1201.21 7.61891 1200.94 7.71734 1200.69 7.86464C1200.45 8.01193 1200.23 8.20521 1200.06 8.43341C1199.9 8.6616 1199.77 8.92023 1199.71 9.19448C1199.64 9.46874 1199.63 9.75323 1199.68 10.0317C1199.77 10.5945 1200.08 11.099 1200.55 11.4344C1201.02 11.7698 1201.6 11.9085 1202.18 11.82ZM1197.47 18.3067C1198.18 18.2169 1198.82 17.8594 1199.26 17.3107C1199.7 16.762 1199.91 16.0655 1199.84 15.37C1199.76 14.6745 1199.41 14.0351 1198.87 13.5884C1198.32 13.1417 1197.61 12.923 1196.9 12.9792C1196.55 13.0153 1196.2 13.1203 1195.89 13.288C1195.57 13.4558 1195.29 13.683 1195.07 13.9566C1194.84 14.2303 1194.67 14.545 1194.57 14.8826C1194.47 15.2203 1194.44 15.5742 1194.48 15.9242C1194.52 16.2738 1194.62 16.6129 1194.79 16.9219C1194.96 17.231 1195.19 17.5039 1195.47 17.7252C1195.75 17.9465 1196.07 18.1117 1196.41 18.2115C1196.76 18.3113 1197.12 18.3436 1197.47 18.3067ZM1194.42 25.515C1195.22 25.4734 1195.96 25.123 1196.5 24.5408C1197.03 23.9586 1197.31 23.1922 1197.27 22.41C1197.25 22.0222 1197.15 21.642 1196.98 21.2915C1196.81 20.9409 1196.57 20.6268 1196.27 20.3672C1195.98 20.1077 1195.64 19.9077 1195.26 19.7789C1194.89 19.6501 1194.5 19.595 1194.1 19.6167C1193.71 19.6367 1193.32 19.7329 1192.96 19.8997C1192.61 20.0665 1192.29 20.3007 1192.02 20.5889C1191.76 20.877 1191.56 21.2135 1191.42 21.579C1191.29 21.9445 1191.24 22.332 1191.26 22.7192C1191.3 23.5019 1191.66 24.2361 1192.25 24.7604C1192.84 25.2847 1193.62 25.5561 1194.42 25.515ZM1206.12 54.5C1206.07 54.7278 1206.07 54.9629 1206.11 55.1919C1206.15 55.4208 1206.24 55.6392 1206.37 55.8345C1206.5 56.0299 1206.67 56.1983 1206.86 56.3302C1207.06 56.4621 1207.28 56.5549 1207.51 56.6033C1207.74 56.6518 1207.98 56.6548 1208.21 56.6124C1208.45 56.57 1208.67 56.4829 1208.87 56.356C1209.07 56.2292 1209.24 56.0651 1209.37 55.8732C1209.51 55.6813 1209.6 55.4653 1209.65 55.2375C1209.75 54.7774 1209.66 54.2975 1209.4 53.9031C1209.14 53.5087 1208.73 53.2322 1208.26 53.1342C1207.79 53.0375 1207.3 53.127 1206.9 53.383C1206.5 53.6389 1206.22 54.0406 1206.12 54.5ZM1199.68 49.965C1199.63 50.2435 1199.64 50.5282 1199.71 50.8027C1199.77 51.0772 1199.9 51.336 1200.06 51.5644C1200.23 51.7928 1200.45 51.9861 1200.69 52.1334C1200.94 52.2807 1201.21 52.3789 1201.49 52.4225C1201.92 52.4893 1202.36 52.4301 1202.75 52.2526C1203.14 52.075 1203.47 51.787 1203.7 51.425C1203.92 51.063 1204.04 50.6432 1204.02 50.2187C1204 49.7943 1203.86 49.3842 1203.6 49.0404C1203.35 48.6966 1203 48.4345 1202.59 48.2873C1202.19 48.1401 1201.75 48.1143 1201.33 48.2133C1200.91 48.3123 1200.52 48.5315 1200.23 48.8433C1199.94 49.1551 1199.74 49.5455 1199.68 49.965ZM1194.48 44.0758C1194.44 44.4255 1194.47 44.7792 1194.57 45.1165C1194.67 45.4539 1194.84 45.7682 1195.07 46.0416C1195.29 46.3149 1195.57 46.5419 1195.89 46.7093C1196.2 46.8768 1196.55 46.9815 1196.9 47.0175C1197.26 47.0549 1197.62 47.0229 1197.96 46.9234C1198.31 46.8239 1198.63 46.6588 1198.9 46.4375C1199.18 46.2163 1199.41 45.9432 1199.58 45.6341C1199.76 45.3249 1199.86 44.9857 1199.9 44.6358C1199.94 44.286 1199.9 43.9324 1199.8 43.5952C1199.7 43.2579 1199.53 42.9437 1199.31 42.6704C1199.08 42.3971 1198.8 42.17 1198.49 42.0022C1198.17 41.8345 1197.83 41.7292 1197.47 41.6925C1197.12 41.6554 1196.76 41.6877 1196.41 41.7875C1196.07 41.8873 1195.75 42.0526 1195.47 42.274C1195.19 42.4954 1194.96 42.7685 1194.79 43.0777C1194.62 43.3869 1194.52 43.7261 1194.48 44.0758ZM1191.26 37.2758C1191.24 37.663 1191.29 38.0505 1191.42 38.4161C1191.56 38.7817 1191.76 39.1182 1192.02 39.4063C1192.29 39.6944 1192.61 39.9285 1192.96 40.0952C1193.32 40.2618 1193.71 40.3578 1194.1 40.3775C1194.5 40.3995 1194.89 40.3446 1195.26 40.216C1195.64 40.0874 1195.98 39.8875 1196.27 39.628C1196.57 39.3684 1196.81 39.0543 1196.98 38.7037C1197.15 38.3531 1197.25 37.9729 1197.27 37.585C1197.31 36.8031 1197.03 36.0373 1196.5 35.4555C1195.96 34.8737 1195.22 34.5235 1194.42 34.4817C1193.62 34.4417 1192.84 34.7133 1192.25 35.237C1191.66 35.7607 1191.3 36.4938 1191.26 37.2758ZM1229.7 56.3942C1229.34 56.4897 1229.03 56.722 1228.84 57.0402C1228.66 57.3584 1228.61 57.7365 1228.7 58.0917C1228.8 58.4463 1229.04 58.7484 1229.36 58.9317C1229.68 59.115 1230.07 59.1644 1230.43 59.0692C1230.61 59.0227 1230.78 58.9419 1230.92 58.8315C1231.07 58.721 1231.2 58.583 1231.29 58.4255C1231.38 58.2679 1231.44 58.0939 1231.47 57.9133C1231.49 57.7328 1231.48 57.5493 1231.43 57.3733C1231.33 57.0181 1231.1 56.7154 1230.77 56.5318C1230.45 56.3481 1230.06 56.2987 1229.7 56.3942ZM1215.3 56.3942C1214.94 56.3081 1214.56 56.3633 1214.25 56.5477C1213.93 56.7322 1213.7 57.0313 1213.6 57.3811C1213.51 57.7308 1213.56 58.1034 1213.74 58.4189C1213.92 58.7344 1214.22 58.9678 1214.57 59.0692C1214.75 59.1208 1214.94 59.1365 1215.13 59.1154C1215.31 59.0943 1215.49 59.0369 1215.66 58.9464C1215.82 58.8559 1215.96 58.7343 1216.08 58.5886C1216.19 58.4429 1216.28 58.2761 1216.33 58.0979C1216.38 57.9198 1216.39 57.7339 1216.36 57.5512C1216.34 57.3685 1216.27 57.1926 1216.18 57.0339C1216.08 56.8752 1215.96 56.7369 1215.8 56.627C1215.65 56.5172 1215.48 56.438 1215.3 56.3942ZM1231.43 2.62583C1231.48 2.44986 1231.49 2.26636 1231.47 2.08583C1231.44 1.90531 1231.38 1.73131 1231.29 1.57379C1231.2 1.41627 1231.07 1.27833 1230.92 1.16786C1230.78 1.05739 1230.61 0.976559 1230.43 0.93C1230.07 0.852511 1229.7 0.912709 1229.39 1.09803C1229.08 1.28335 1228.85 1.57947 1228.76 1.9246C1228.67 2.26972 1228.71 2.63718 1228.89 2.95029C1229.06 3.26339 1229.35 3.49795 1229.7 3.605C1229.88 3.65252 1230.07 3.66488 1230.25 3.64137C1230.43 3.61786 1230.61 3.55895 1230.77 3.468C1230.93 3.37705 1231.07 3.25585 1231.19 3.11134C1231.3 2.96683 1231.38 2.80185 1231.43 2.62583ZM1216.3 1.90667C1216.25 1.73076 1216.17 1.56591 1216.06 1.42156C1215.94 1.27721 1215.8 1.1562 1215.64 1.06547C1215.48 0.974737 1215.3 0.916066 1215.12 0.89282C1214.94 0.869573 1214.75 0.882208 1214.57 0.93C1214.39 0.976639 1214.22 1.05746 1214.08 1.16784C1213.93 1.27822 1213.81 1.41599 1213.71 1.57327C1213.62 1.73055 1213.56 1.90425 1213.54 2.08444C1213.51 2.26462 1213.52 2.44774 1213.57 2.62333C1213.62 2.79936 1213.7 2.96439 1213.82 3.10901C1213.93 3.25363 1214.07 3.375 1214.23 3.4662C1214.39 3.55739 1214.57 3.61662 1214.75 3.64051C1214.94 3.6644 1215.12 3.65247 1215.3 3.60542C1215.48 3.55836 1215.65 3.47709 1215.8 3.36626C1215.94 3.25542 1216.07 3.11718 1216.16 2.95944C1216.25 2.80169 1216.31 2.62753 1216.34 2.4469C1216.36 2.26626 1216.35 2.08269 1216.3 1.90667Z" fill="white"/>
<path fill-rule="evenodd" clip-rule="evenodd" d="M900.811 39.3024C902.829 36.5798 903.917 33.2803 903.912 29.8923C903.912 21.1315 896.748 14 887.955 14C879.163 14 872 21.1357 872 29.8923C872 38.6488 879.154 45.7845 887.955 45.7845C891.285 45.7901 894.533 44.7493 897.238 42.8092L901.241 46.7928L904.793 43.2586L900.815 39.294L900.811 39.3024ZM897.201 35.7071L891.301 29.8333L887.754 33.3728L893.62 39.214C891.912 40.2489 889.951 40.795 887.953 40.7927C881.92 40.7927 877.017 35.9082 877.017 29.8986C877.017 23.889 881.924 19.0034 887.958 19.0034C893.991 19.0034 898.89 23.8932 898.89 29.8975C898.892 31.9548 898.308 33.97 897.204 35.7071H897.201Z" fill="white"/>
<path fill-rule="evenodd" clip-rule="evenodd" d="M1047.32 14.6309V19.674H1037.88V44.9011H1032.78V19.674H1023.35V14.6309H1047.32Z" fill="white"/>
<path fill-rule="evenodd" clip-rule="evenodd" d="M968.102 14.6309H961.931L950.198 44.9011H955.585L957.783 39.004H972.253L974.449 44.9011H979.838L968.102 14.6309ZM959.74 34.2855L965.022 20.6215L970.29 34.2855H959.74Z" fill="white"/>
<path fill-rule="evenodd" clip-rule="evenodd" d="M1082 19.6319L1065.26 39.7812H1082V44.9011H1058.67V39.514L1075.47 19.6319H1059.83V14.6309H1082V19.6319Z" fill="white"/>
<path fill-rule="evenodd" clip-rule="evenodd" d="M940.739 14.6309V33.7674C940.739 40.2558 935.368 45.5318 928.759 45.5318C922.151 45.5318 916.775 40.2537 916.775 33.7674V14.6309H921.973V33.7674C921.859 37.5034 924.954 40.5413 928.762 40.5413C932.569 40.5413 935.656 37.5034 935.581 33.7674V14.6309H940.739Z" fill="white"/>
<path fill-rule="evenodd" clip-rule="evenodd" d="M1006.91 34.8604C1008.67 33.9863 1010.15 32.6336 1011.19 30.9548C1012.23 29.2761 1012.79 27.3382 1012.79 25.3597C1012.79 19.7527 1008.19 14.7444 1002.46 14.6309H991.189V45.2198H996.327V36.0079H1000.98L1011.58 46.793L1015.15 43.2475L1006.91 34.8615L1006.91 34.8604ZM1002.09 30.9603H996.327V19.7591H1002.09C1005.22 19.7591 1007.77 22.2707 1007.77 25.3608C1007.77 28.4509 1005.22 30.9603 1002.09 30.9603H1002.09Z" fill="white"/>
</g>
</svg>
